<svg xmlns="http://www.w3.org/2000/svg" xmlns:xlink="http://www.w3.org/1999/xlink" width="500" zoomAndPan="magnify" viewBox="0 0 375 374.999991" height="500" preserveAspectRatio="xMidYMid meet" version="1.0"><defs><g/><clipPath id="6578decb05"><rect x="0" width="352" y="0" height="73"/></clipPath><clipPath id="3c59b794ae"><rect x="0" width="348" y="0" height="44"/></clipPath><clipPath id="14d817a81e"><path d="M 0.0390625 57 L 106 57 L 106 67 L 0.0390625 67 Z M 0.0390625 57 " clip-rule="nonzero"/></clipPath><clipPath id="ac41708666"><path d="M 166.894531 62.128906 L 186.105469 62.128906 L 186.105469 81.339844 L 166.894531 81.339844 Z M 166.894531 62.128906 " clip-rule="nonzero"/></clipPath><clipPath id="98b6064b1c"><path d="M 176.5 62.128906 C 171.195312 62.128906 166.894531 66.429688 166.894531 71.734375 C 166.894531 77.039062 171.195312 81.339844 176.5 81.339844 C 181.804688 81.339844 186.105469 77.039062 186.105469 71.734375 C 186.105469 66.429688 181.804688 62.128906 176.5 62.128906 Z M 176.5 62.128906 " clip-rule="nonzero"/></clipPath><clipPath id="e41df0e7b7"><path d="M 0.894531 0.128906 L 20.105469 0.128906 L 20.105469 19.339844 L 0.894531 19.339844 Z M 0.894531 0.128906 " clip-rule="nonzero"/></clipPath><clipPath id="365bcff509"><path d="M 10.5 0.128906 C 5.195312 0.128906 0.894531 4.429688 0.894531 9.734375 C 0.894531 15.039062 5.195312 19.339844 10.5 19.339844 C 15.804688 19.339844 20.105469 15.039062 20.105469 9.734375 C 20.105469 4.429688 15.804688 0.128906 10.5 0.128906 Z M 10.5 0.128906 " clip-rule="nonzero"/></clipPath><clipPath id="4538a746d3"><rect x="0" width="21" y="0" height="20"/></clipPath><clipPath id="65ac566310"><path d="M 86 18 L 185 18 L 185 106 L 86 106 Z M 86 18 " clip-rule="nonzero"/></clipPath><clipPath id="7d7ad458dd"><path d="M 184.355469 38.972656 L 103.652344 105.972656 L 86.464844 85.273438 L 167.167969 18.273438 Z M 184.355469 38.972656 " clip-rule="nonzero"/></clipPath><clipPath id="3e8457d43d"><path d="M 1 36 L 98.359375 36 L 98.359375 88 L 1 88 Z M 1 36 " clip-rule="nonzero"/></clipPath><clipPath id="04b0e1a0df"><path d="M 98.355469 20.972656 L 17.652344 87.972656 L 0.464844 67.273438 L 81.167969 0.273438 Z M 98.355469 20.972656 " clip-rule="nonzero"/></clipPath><clipPath id="8fba2e1c19"><path d="M 102.222656 -17.355469 L 0.21875 67.328125 L 87.394531 172.332031 L 189.398438 87.648438 Z M 102.222656 -17.355469 " clip-rule="nonzero"/></clipPath><clipPath id="987175fdf1"><path d="M 102.222656 -17.355469 L 0.21875 67.328125 L 87.394531 172.332031 L 189.398438 87.648438 Z M 102.222656 -17.355469 " clip-rule="nonzero"/></clipPath><clipPath id="4d94490870"><rect x="0" width="99" y="0" height="88"/></clipPath><clipPath id="f2f9e54227"><path d="M 170 18 L 268 18 L 268 107 L 170 107 Z M 170 18 " clip-rule="nonzero"/></clipPath><clipPath id="fa6a9a50d8"><path d="M 250.769531 106.074219 L 170.066406 39.074219 L 187.253906 18.375 L 267.953125 85.375 Z M 250.769531 106.074219 " clip-rule="nonzero"/></clipPath><clipPath id="e17ac5d6a4"><path d="M 0 36 L 97 36 L 97 88.121094 L 0 88.121094 Z M 0 36 " clip-rule="nonzero"/></clipPath><clipPath id="8e3512c6ca"><path d="M 80.769531 88.074219 L 0.0664062 21.074219 L 17.253906 0.375 L 97.953125 67.375 Z M 80.769531 88.074219 " clip-rule="nonzero"/></clipPath><clipPath id="14abeb033b"><path d="M -3.921875 -17.355469 L 98.082031 67.328125 L 10.90625 172.332031 L -91.097656 87.648438 Z M -3.921875 -17.355469 " clip-rule="nonzero"/></clipPath><clipPath id="ae04843087"><path d="M -3.921875 -17.355469 L 98.082031 67.328125 L 10.90625 172.332031 L -91.097656 87.648438 Z M -3.921875 -17.355469 " clip-rule="nonzero"/></clipPath><clipPath id="e3ad5b282c"><rect x="0" width="98" y="0" height="89"/></clipPath><clipPath id="160887cd31"><rect x="0" width="355" y="0" height="191"/></clipPath></defs><g transform="matrix(1, 0, 0, 1, 11, 71)"><g clip-path="url(#160887cd31)"><g transform="matrix(1, 0, 0, 1, 1, 84)"><g clip-path="url(#6578decb05)"><g fill="#000000" fill-opacity="1"><g transform="translate(0.0604086, 57.232796)"><g><path d="M 5.21875 0 C 4.863281 0 4.585938 -0.0976562 4.390625 -0.296875 C 4.203125 -0.492188 4.109375 -0.75 4.109375 -1.0625 L 4.109375 -42.265625 C 4.109375 -42.617188 4.210938 -42.910156 4.421875 -43.140625 C 4.640625 -43.378906 4.925781 -43.5 5.28125 -43.5 L 21.15625 -43.5 C 26.90625 -43.5 31.296875 -42.53125 34.328125 -40.59375 C 37.359375 -38.664062 38.875 -35.820312 38.875 -32.0625 C 38.875 -29.914062 38.296875 -28.097656 37.140625 -26.609375 C 35.984375 -25.128906 34 -23.785156 31.1875 -22.578125 C 31.070312 -22.535156 31.015625 -22.453125 31.015625 -22.328125 C 31.015625 -22.210938 31.070312 -22.140625 31.1875 -22.109375 C 34.269531 -21.085938 36.492188 -19.765625 37.859375 -18.140625 C 39.234375 -16.523438 39.921875 -14.40625 39.921875 -11.78125 C 39.921875 -7.789062 38.414062 -4.828125 35.40625 -2.890625 C 32.394531 -0.960938 27.898438 0 21.921875 0 Z M 21.625 -6.921875 C 24.164062 -6.921875 26.070312 -7.445312 27.34375 -8.5 C 28.613281 -9.550781 29.25 -10.957031 29.25 -12.71875 C 29.25 -13.96875 28.9375 -15.015625 28.3125 -15.859375 C 27.6875 -16.703125 26.835938 -17.335938 25.765625 -17.765625 C 24.691406 -18.191406 23.453125 -18.40625 22.046875 -18.40625 L 15.484375 -18.40625 C 14.734375 -18.40625 14.359375 -18.070312 14.359375 -17.40625 L 14.359375 -8.03125 C 14.359375 -7.289062 14.632812 -6.921875 15.1875 -6.921875 Z M 22.046875 -25.5625 C 22.941406 -25.5625 23.789062 -25.65625 24.59375 -25.84375 C 25.394531 -26.039062 26.097656 -26.375 26.703125 -26.84375 C 27.304688 -27.3125 27.789062 -27.878906 28.15625 -28.546875 C 28.53125 -29.210938 28.71875 -29.992188 28.71875 -30.890625 C 28.71875 -32.734375 28.046875 -34.140625 26.703125 -35.109375 C 25.359375 -36.085938 23.628906 -36.578125 21.515625 -36.578125 L 15.484375 -36.578125 C 14.734375 -36.578125 14.359375 -36.242188 14.359375 -35.578125 L 14.359375 -26.609375 C 14.359375 -25.910156 14.632812 -25.5625 15.1875 -25.5625 Z M 22.046875 -25.5625 "/></g></g></g><g fill="#000000" fill-opacity="1"><g transform="translate(42.445, 57.232796)"><g><path d="M 4.109375 -42.390625 C 4.109375 -43.128906 4.421875 -43.5 5.046875 -43.5 L 34.59375 -43.5 C 35.175781 -43.5 35.46875 -43.164062 35.46875 -42.5 L 35.46875 -37.234375 C 35.46875 -36.410156 35.054688 -36 34.234375 -36 L 15.484375 -36 C 14.734375 -36 14.359375 -35.6875 14.359375 -35.0625 L 14.359375 -26.5625 C 14.359375 -25.894531 14.65625 -25.5625 15.25 -25.5625 L 27.671875 -25.5625 C 28.335938 -25.5625 28.671875 -25.25 28.671875 -24.625 L 28.671875 -19 C 28.671875 -18.757812 28.597656 -18.5625 28.453125 -18.40625 C 28.316406 -18.25 28.078125 -18.171875 27.734375 -18.171875 L 15.1875 -18.171875 C 14.632812 -18.171875 14.359375 -17.9375 14.359375 -17.46875 L 14.359375 -8.265625 C 14.359375 -7.753906 14.578125 -7.5 15.015625 -7.5 L 35.0625 -7.5 C 35.757812 -7.5 36.109375 -7.207031 36.109375 -6.625 L 36.109375 -1.0625 C 36.109375 -0.75 36.019531 -0.492188 35.84375 -0.296875 C 35.664062 -0.0976562 35.363281 0 34.9375 0 L 5.390625 0 C 4.535156 0 4.109375 -0.410156 4.109375 -1.234375 Z M 4.109375 -42.390625 "/></g></g></g><g fill="#000000" fill-opacity="1"><g transform="translate(80.784583, 57.232796)"><g><path d="M 2.8125 0 C 2.457031 0 2.203125 -0.15625 2.046875 -0.46875 C 1.890625 -0.78125 1.890625 -1.191406 2.046875 -1.703125 L 16.65625 -42.328125 C 16.8125 -42.753906 16.984375 -43.054688 17.171875 -43.234375 C 17.367188 -43.410156 17.703125 -43.5 18.171875 -43.5 L 26.96875 -43.5 C 27.820312 -43.5 28.40625 -43.066406 28.71875 -42.203125 L 43.203125 -1.578125 C 43.316406 -1.265625 43.316406 -0.921875 43.203125 -0.546875 C 43.085938 -0.179688 42.851562 0 42.5 0 L 33.890625 0 C 33.296875 0 32.921875 -0.273438 32.765625 -0.828125 L 29.71875 -9.375 C 29.6875 -9.570312 29.617188 -9.726562 29.515625 -9.84375 C 29.421875 -9.96875 29.234375 -10.03125 28.953125 -10.03125 L 14.65625 -10.03125 C 14.257812 -10.03125 14.003906 -9.832031 13.890625 -9.4375 L 10.78125 -0.765625 C 10.707031 -0.523438 10.582031 -0.335938 10.40625 -0.203125 C 10.226562 -0.0664062 9.945312 0 9.5625 0 Z M 26.5625 -17.828125 C 27.101562 -17.828125 27.273438 -18.15625 27.078125 -18.8125 L 22.15625 -32.53125 C 22.039062 -32.769531 21.914062 -32.890625 21.78125 -32.890625 C 21.644531 -32.890625 21.515625 -32.753906 21.390625 -32.484375 L 16.421875 -18.8125 C 16.140625 -18.15625 16.3125 -17.828125 16.9375 -17.828125 Z M 26.5625 -17.828125 "/></g></g></g><g fill="#000000" fill-opacity="1"><g transform="translate(123.227468, 57.232796)"><g><path d="M 38.640625 -16.125 C 38.640625 -12.019531 37.929688 -8.734375 36.515625 -6.265625 C 35.109375 -3.804688 33.097656 -2.046875 30.484375 -0.984375 C 27.867188 0.0664062 24.742188 0.59375 21.109375 0.59375 C 16.847656 0.59375 13.4375 -0.078125 10.875 -1.421875 C 8.3125 -2.773438 6.453125 -4.769531 5.296875 -7.40625 C 4.148438 -10.050781 3.578125 -13.304688 3.578125 -17.171875 L 3.578125 -42.328125 C 3.578125 -43.109375 3.890625 -43.5 4.515625 -43.5 L 12.953125 -43.5 C 13.535156 -43.5 13.828125 -43.144531 13.828125 -42.4375 L 13.828125 -15.890625 C 13.828125 -12.679688 14.519531 -10.351562 15.90625 -8.90625 C 17.300781 -7.457031 19.285156 -6.734375 21.859375 -6.734375 C 23.503906 -6.734375 24.953125 -7.035156 26.203125 -7.640625 C 27.453125 -8.253906 28.425781 -9.242188 29.125 -10.609375 C 29.832031 -11.972656 30.1875 -13.789062 30.1875 -16.0625 L 30.1875 -42.390625 C 30.1875 -43.128906 30.484375 -43.5 31.078125 -43.5 L 37.75 -43.5 C 38.34375 -43.5 38.640625 -43.144531 38.640625 -42.4375 Z M 38.640625 -16.125 "/></g></g></g><g fill="#000000" fill-opacity="1"><g transform="translate(165.49481, 57.232796)"><g><path d="M 5.328125 0 C 4.515625 0 4.109375 -0.445312 4.109375 -1.34375 L 4.109375 -42.390625 C 4.109375 -43.128906 4.4375 -43.5 5.09375 -43.5 L 17.234375 -43.5 C 17.660156 -43.5 17.972656 -43.4375 18.171875 -43.3125 C 18.367188 -43.195312 18.523438 -42.96875 18.640625 -42.625 L 27.5 -18.0625 C 27.613281 -17.707031 27.75 -17.539062 27.90625 -17.5625 C 28.0625 -17.582031 28.195312 -17.75 28.3125 -18.0625 L 36.765625 -42.15625 C 36.992188 -43.050781 37.421875 -43.5 38.046875 -43.5 L 50.65625 -43.5 C 51.238281 -43.5 51.53125 -43.144531 51.53125 -42.4375 L 51.53125 -1.40625 C 51.53125 -0.46875 51.039062 0 50.0625 0 L 42.5 0 C 42.03125 0 41.707031 -0.0976562 41.53125 -0.296875 C 41.351562 -0.492188 41.265625 -0.785156 41.265625 -1.171875 L 41.265625 -30.375 C 41.265625 -30.644531 41.195312 -30.769531 41.0625 -30.75 C 40.925781 -30.726562 40.820312 -30.582031 40.75 -30.3125 L 30.484375 -0.9375 C 30.253906 -0.3125 29.84375 0 29.25 0 L 24.390625 0 C 23.722656 0 23.289062 -0.3125 23.09375 -0.9375 L 12.953125 -29.90625 C 12.835938 -30.25 12.710938 -30.398438 12.578125 -30.359375 C 12.441406 -30.328125 12.375 -30.15625 12.375 -29.84375 L 12.375 -1.0625 C 12.375 -0.664062 12.300781 -0.390625 12.15625 -0.234375 C 12.019531 -0.078125 11.738281 0 11.3125 0 Z M 5.328125 0 "/></g></g></g><g fill="#000000" fill-opacity="1"><g transform="translate(221.12825, 57.232796)"><g><path d="M 22.75 0.59375 C 18.601562 0.59375 15.023438 -0.296875 12.015625 -2.078125 C 9.003906 -3.859375 6.6875 -6.410156 5.0625 -9.734375 C 3.445312 -13.054688 2.640625 -17.003906 2.640625 -21.578125 C 2.640625 -26.222656 3.46875 -30.226562 5.125 -33.59375 C 6.789062 -36.957031 9.128906 -39.546875 12.140625 -41.359375 C 15.148438 -43.179688 18.6875 -44.09375 22.75 -44.09375 C 26.8125 -44.09375 30.335938 -43.179688 33.328125 -41.359375 C 36.316406 -39.546875 38.628906 -36.96875 40.265625 -33.625 C 41.910156 -30.28125 42.734375 -26.28125 42.734375 -21.625 C 42.734375 -17.0625 41.921875 -13.117188 40.296875 -9.796875 C 38.679688 -6.472656 36.367188 -3.910156 33.359375 -2.109375 C 30.347656 -0.304688 26.8125 0.59375 22.75 0.59375 Z M 22.75 -6.625 C 25.945312 -6.625 28.289062 -7.785156 29.78125 -10.109375 C 31.269531 -12.429688 32.015625 -16.234375 32.015625 -21.515625 C 32.015625 -26.910156 31.257812 -30.828125 29.75 -33.265625 C 28.25 -35.710938 25.914062 -36.9375 22.75 -36.9375 C 19.539062 -36.9375 17.171875 -35.703125 15.640625 -33.234375 C 14.117188 -30.773438 13.359375 -26.867188 13.359375 -21.515625 C 13.359375 -16.273438 14.109375 -12.484375 15.609375 -10.140625 C 17.117188 -7.796875 19.5 -6.625 22.75 -6.625 Z M 22.75 -6.625 "/></g></g></g><g fill="#000000" fill-opacity="1"><g transform="translate(266.50264, 57.232796)"><g><path d="M 39.625 -43.5 C 40.132812 -43.5 40.390625 -43.207031 40.390625 -42.625 L 40.390625 -0.9375 C 40.390625 -0.664062 40.289062 -0.441406 40.09375 -0.265625 C 39.90625 -0.0859375 39.632812 0 39.28125 0 L 33.359375 0 C 33.046875 0 32.789062 -0.0351562 32.59375 -0.109375 C 32.394531 -0.191406 32.160156 -0.390625 31.890625 -0.703125 L 13.1875 -26.96875 C 13.03125 -27.164062 12.882812 -27.242188 12.75 -27.203125 C 12.613281 -27.160156 12.546875 -27.039062 12.546875 -26.84375 L 12.546875 -1.0625 C 12.585938 -0.351562 12.195312 0 11.375 0 L 5.28125 0 C 4.5 0 4.109375 -0.332031 4.109375 -1 L 4.109375 -42.390625 C 4.109375 -43.128906 4.457031 -43.5 5.15625 -43.5 L 12.25 -43.5 C 12.675781 -43.5 13 -43.4375 13.21875 -43.3125 C 13.4375 -43.195312 13.679688 -42.96875 13.953125 -42.625 L 31.1875 -18.0625 C 31.425781 -17.75 31.628906 -17.609375 31.796875 -17.640625 C 31.972656 -17.679688 32.0625 -17.878906 32.0625 -18.234375 L 32.0625 -42.4375 C 32.0625 -43.144531 32.414062 -43.5 33.125 -43.5 Z M 39.625 -43.5 "/></g></g></g><g fill="#000000" fill-opacity="1"><g transform="translate(310.997644, 57.232796)"><g><path d="M 1.9375 -42.4375 C 1.9375 -42.75 2.03125 -43.003906 2.21875 -43.203125 C 2.414062 -43.398438 2.710938 -43.5 3.109375 -43.5 L 36.765625 -43.5 C 37.191406 -43.5 37.492188 -43.398438 37.671875 -43.203125 C 37.847656 -43.003906 37.9375 -42.75 37.9375 -42.4375 L 37.9375 -37 C 37.9375 -36.40625 37.582031 -36.109375 36.875 -36.109375 L 25.90625 -36.109375 C 25.476562 -36.109375 25.265625 -35.914062 25.265625 -35.53125 L 25.265625 -1.109375 C 25.265625 -0.367188 24.929688 0 24.265625 0 L 15.890625 0 C 15.304688 0 15.015625 -0.332031 15.015625 -1 L 15.015625 -35.34375 C 15.015625 -35.851562 14.796875 -36.109375 14.359375 -36.109375 L 3.046875 -36.109375 C 2.304688 -36.109375 1.9375 -36.40625 1.9375 -37 Z M 1.9375 -42.4375 "/></g></g></g></g></g><g transform="matrix(1, 0, 0, 1, 2, 143)"><g clip-path="url(#3c59b794ae)"><g fill="#000000" fill-opacity="1"><g transform="translate(0.768836, 34.875075)"><g><path d="M 2.53125 -26.140625 C 2.53125 -26.597656 2.722656 -26.828125 3.109375 -26.828125 L 8.28125 -26.828125 C 8.664062 -26.828125 8.859375 -26.609375 8.859375 -26.171875 L 8.859375 -5.09375 C 8.859375 -4.78125 8.988281 -4.625 9.25 -4.625 L 20.796875 -4.625 C 21.222656 -4.625 21.4375 -4.441406 21.4375 -4.078125 L 21.4375 -0.65625 C 21.4375 -0.457031 21.378906 -0.296875 21.265625 -0.171875 C 21.160156 -0.0546875 20.988281 0 20.75 0 L 3.328125 0 C 3.015625 0 2.800781 -0.0546875 2.6875 -0.171875 C 2.582031 -0.296875 2.53125 -0.492188 2.53125 -0.765625 Z M 2.53125 -26.140625 "/></g></g></g><g fill="#000000" fill-opacity="1"><g transform="translate(23.43886, 34.875075)"><g><path d="M 8.28125 -26.828125 C 8.664062 -26.828125 8.859375 -26.609375 8.859375 -26.171875 L 8.859375 -0.875 C 8.859375 -0.550781 8.78125 -0.320312 8.625 -0.1875 C 8.46875 -0.0625 8.21875 0 7.875 0 L 3.328125 0 C 3.015625 0 2.800781 -0.0546875 2.6875 -0.171875 C 2.582031 -0.296875 2.53125 -0.492188 2.53125 -0.765625 L 2.53125 -26.140625 C 2.53125 -26.597656 2.722656 -26.828125 3.109375 -26.828125 Z M 8.28125 -26.828125 "/></g></g></g><g fill="#000000" fill-opacity="1"><g transform="translate(34.828104, 34.875075)"><g><path d="M 3.21875 0 C 3 0 2.828125 -0.0546875 2.703125 -0.171875 C 2.585938 -0.296875 2.53125 -0.457031 2.53125 -0.65625 L 2.53125 -26.0625 C 2.53125 -26.28125 2.59375 -26.460938 2.71875 -26.609375 C 2.851562 -26.753906 3.03125 -26.828125 3.25 -26.828125 L 13.046875 -26.828125 C 16.597656 -26.828125 19.304688 -26.226562 21.171875 -25.03125 C 23.035156 -23.84375 23.96875 -22.09375 23.96875 -19.78125 C 23.96875 -18.445312 23.613281 -17.320312 22.90625 -16.40625 C 22.195312 -15.5 20.972656 -14.671875 19.234375 -13.921875 C 19.160156 -13.898438 19.125 -13.851562 19.125 -13.78125 C 19.125 -13.707031 19.160156 -13.65625 19.234375 -13.625 C 21.140625 -13 22.515625 -12.1875 23.359375 -11.1875 C 24.203125 -10.1875 24.625 -8.878906 24.625 -7.265625 C 24.625 -4.804688 23.691406 -2.976562 21.828125 -1.78125 C 19.972656 -0.59375 17.203125 0 13.515625 0 Z M 13.34375 -4.265625 C 14.90625 -4.265625 16.078125 -4.585938 16.859375 -5.234375 C 17.648438 -5.890625 18.046875 -6.757812 18.046875 -7.84375 C 18.046875 -8.613281 17.851562 -9.257812 17.46875 -9.78125 C 17.082031 -10.300781 16.554688 -10.691406 15.890625 -10.953125 C 15.222656 -11.222656 14.457031 -11.359375 13.59375 -11.359375 L 9.546875 -11.359375 C 9.085938 -11.359375 8.859375 -11.148438 8.859375 -10.734375 L 8.859375 -4.953125 C 8.859375 -4.492188 9.023438 -4.265625 9.359375 -4.265625 Z M 13.59375 -15.765625 C 14.144531 -15.765625 14.664062 -15.820312 15.15625 -15.9375 C 15.65625 -16.0625 16.09375 -16.269531 16.46875 -16.5625 C 16.84375 -16.851562 17.144531 -17.203125 17.375 -17.609375 C 17.601562 -18.015625 17.71875 -18.492188 17.71875 -19.046875 C 17.71875 -20.179688 17.300781 -21.050781 16.46875 -21.65625 C 15.632812 -22.257812 14.566406 -22.5625 13.265625 -22.5625 L 9.546875 -22.5625 C 9.085938 -22.5625 8.859375 -22.359375 8.859375 -21.953125 L 8.859375 -16.421875 C 8.859375 -15.984375 9.023438 -15.765625 9.359375 -15.765625 Z M 13.59375 -15.765625 "/></g></g></g><g fill="#000000" fill-opacity="1"><g transform="translate(60.969126, 34.875075)"><g><path d="M 24.296875 -0.96875 C 24.390625 -0.707031 24.378906 -0.476562 24.265625 -0.28125 C 24.160156 -0.09375 23.988281 0 23.75 0 L 18.4375 0 C 18.03125 0 17.765625 -0.21875 17.640625 -0.65625 L 13.734375 -10.78125 C 13.585938 -11.113281 13.253906 -11.28125 12.734375 -11.28125 L 9.296875 -11.28125 C 9.117188 -11.28125 9 -11.226562 8.9375 -11.125 C 8.882812 -11.03125 8.859375 -10.953125 8.859375 -10.890625 L 8.859375 -0.875 C 8.859375 -0.289062 8.53125 0 7.875 0 L 3.296875 0 C 3.003906 0 2.800781 -0.0546875 2.6875 -0.171875 C 2.582031 -0.296875 2.53125 -0.476562 2.53125 -0.71875 L 2.53125 -26.140625 C 2.53125 -26.597656 2.722656 -26.828125 3.109375 -26.828125 L 14.390625 -26.828125 C 17.617188 -26.828125 20.128906 -26.1875 21.921875 -24.90625 C 23.722656 -23.632812 24.625 -21.816406 24.625 -19.453125 C 24.625 -18.222656 24.394531 -17.125 23.9375 -16.15625 C 23.476562 -15.195312 22.875 -14.394531 22.125 -13.75 C 21.375 -13.113281 20.554688 -12.640625 19.671875 -12.328125 C 19.453125 -12.253906 19.40625 -12.070312 19.53125 -11.78125 Z M 13.8125 -15.546875 C 15.1875 -15.546875 16.238281 -15.835938 16.96875 -16.421875 C 17.707031 -17.015625 18.078125 -17.878906 18.078125 -19.015625 C 18.078125 -20.203125 17.703125 -21.09375 16.953125 -21.6875 C 16.210938 -22.289062 15.226562 -22.59375 14 -22.59375 L 9.546875 -22.59375 C 9.085938 -22.59375 8.859375 -22.390625 8.859375 -21.984375 L 8.859375 -16.15625 C 8.859375 -15.75 9.023438 -15.546875 9.359375 -15.546875 Z M 13.8125 -15.546875 "/></g></g></g><g fill="#000000" fill-opacity="1"><g transform="translate(86.097769, 34.875075)"><g><path d="M 1.734375 0 C 1.515625 0 1.359375 -0.09375 1.265625 -0.28125 C 1.171875 -0.476562 1.171875 -0.734375 1.265625 -1.046875 L 10.265625 -26.109375 C 10.359375 -26.367188 10.46875 -26.550781 10.59375 -26.65625 C 10.71875 -26.769531 10.921875 -26.828125 11.203125 -26.828125 L 16.625 -26.828125 C 17.15625 -26.828125 17.519531 -26.5625 17.71875 -26.03125 L 26.640625 -0.96875 C 26.710938 -0.78125 26.710938 -0.570312 26.640625 -0.34375 C 26.566406 -0.113281 26.425781 0 26.21875 0 L 20.890625 0 C 20.535156 0 20.3125 -0.164062 20.21875 -0.5 L 18.328125 -5.78125 C 18.304688 -5.90625 18.265625 -6.003906 18.203125 -6.078125 C 18.140625 -6.148438 18.023438 -6.1875 17.859375 -6.1875 L 9.03125 -6.1875 C 8.789062 -6.1875 8.632812 -6.066406 8.5625 -5.828125 L 6.65625 -0.46875 C 6.601562 -0.320312 6.519531 -0.207031 6.40625 -0.125 C 6.300781 -0.0390625 6.128906 0 5.890625 0 Z M 16.375 -10.984375 C 16.71875 -10.984375 16.828125 -11.191406 16.703125 -11.609375 L 13.671875 -20.0625 C 13.597656 -20.207031 13.519531 -20.28125 13.4375 -20.28125 C 13.351562 -20.28125 13.273438 -20.195312 13.203125 -20.03125 L 10.125 -11.609375 C 9.957031 -11.191406 10.066406 -10.984375 10.453125 -10.984375 Z M 16.375 -10.984375 "/></g></g></g><g fill="#000000" fill-opacity="1"><g transform="translate(113.9743, 34.875075)"><g><path d="M 24.296875 -0.96875 C 24.390625 -0.707031 24.378906 -0.476562 24.265625 -0.28125 C 24.160156 -0.09375 23.988281 0 23.75 0 L 18.4375 0 C 18.03125 0 17.765625 -0.21875 17.640625 -0.65625 L 13.734375 -10.78125 C 13.585938 -11.113281 13.253906 -11.28125 12.734375 -11.28125 L 9.296875 -11.28125 C 9.117188 -11.28125 9 -11.226562 8.9375 -11.125 C 8.882812 -11.03125 8.859375 -10.953125 8.859375 -10.890625 L 8.859375 -0.875 C 8.859375 -0.289062 8.53125 0 7.875 0 L 3.296875 0 C 3.003906 0 2.800781 -0.0546875 2.6875 -0.171875 C 2.582031 -0.296875 2.53125 -0.476562 2.53125 -0.71875 L 2.53125 -26.140625 C 2.53125 -26.597656 2.722656 -26.828125 3.109375 -26.828125 L 14.390625 -26.828125 C 17.617188 -26.828125 20.128906 -26.1875 21.921875 -24.90625 C 23.722656 -23.632812 24.625 -21.816406 24.625 -19.453125 C 24.625 -18.222656 24.394531 -17.125 23.9375 -16.15625 C 23.476562 -15.195312 22.875 -14.394531 22.125 -13.75 C 21.375 -13.113281 20.554688 -12.640625 19.671875 -12.328125 C 19.453125 -12.253906 19.40625 -12.070312 19.53125 -11.78125 Z M 13.8125 -15.546875 C 15.1875 -15.546875 16.238281 -15.835938 16.96875 -16.421875 C 17.707031 -17.015625 18.078125 -17.878906 18.078125 -19.015625 C 18.078125 -20.203125 17.703125 -21.09375 16.953125 -21.6875 C 16.210938 -22.289062 15.226562 -22.59375 14 -22.59375 L 9.546875 -22.59375 C 9.085938 -22.59375 8.859375 -22.390625 8.859375 -21.984375 L 8.859375 -16.15625 C 8.859375 -15.75 9.023438 -15.546875 9.359375 -15.546875 Z M 13.8125 -15.546875 "/></g></g></g><g fill="#000000" fill-opacity="1"><g transform="translate(138.95833, 34.875075)"><g><path d="M 24.953125 -26.828125 C 25.191406 -26.828125 25.347656 -26.757812 25.421875 -26.625 C 25.492188 -26.5 25.46875 -26.328125 25.34375 -26.109375 L 16.84375 -12.1875 C 16.695312 -11.96875 16.613281 -11.742188 16.59375 -11.515625 C 16.570312 -11.285156 16.5625 -10.867188 16.5625 -10.265625 L 16.5625 -0.875 C 16.5625 -0.289062 16.222656 0 15.546875 0 L 11.03125 0 C 10.71875 0 10.503906 -0.0546875 10.390625 -0.171875 C 10.285156 -0.296875 10.234375 -0.492188 10.234375 -0.765625 L 10.234375 -10.484375 C 10.234375 -10.816406 10.195312 -11.066406 10.125 -11.234375 C 10.050781 -11.410156 9.941406 -11.609375 9.796875 -11.828125 L 1.234375 -26 C 1.085938 -26.238281 1.0625 -26.4375 1.15625 -26.59375 C 1.25 -26.75 1.453125 -26.828125 1.765625 -26.828125 L 7.1875 -26.828125 C 7.507812 -26.828125 7.726562 -26.773438 7.84375 -26.671875 C 7.96875 -26.578125 8.101562 -26.410156 8.25 -26.171875 L 13.59375 -16.78125 C 13.738281 -16.539062 13.859375 -16.410156 13.953125 -16.390625 C 14.046875 -16.378906 14.15625 -16.484375 14.28125 -16.703125 L 19.5625 -26.171875 C 19.707031 -26.441406 19.84375 -26.617188 19.96875 -26.703125 C 20.101562 -26.785156 20.316406 -26.828125 20.609375 -26.828125 Z M 24.953125 -26.828125 "/></g></g></g><g fill="#000000" fill-opacity="1"><g transform="translate(165.533234, 34.875075)"><g/></g></g><g fill="#000000" fill-opacity="1"><g transform="translate(172.98143, 34.875075)"><g><path d="M 3.359375 0 C 2.804688 0 2.53125 -0.289062 2.53125 -0.875 L 2.53125 -26.0625 C 2.53125 -26.351562 2.585938 -26.550781 2.703125 -26.65625 C 2.828125 -26.769531 3.035156 -26.828125 3.328125 -26.828125 C 3.859375 -26.828125 4.476562 -26.828125 5.1875 -26.828125 C 5.894531 -26.828125 6.632812 -26.828125 7.40625 -26.828125 C 8.175781 -26.828125 8.910156 -26.828125 9.609375 -26.828125 C 10.316406 -26.828125 10.910156 -26.816406 11.390625 -26.796875 C 14.640625 -26.722656 17.3125 -26.128906 19.40625 -25.015625 C 21.507812 -23.910156 23.0625 -22.382812 24.0625 -20.4375 C 25.0625 -18.5 25.5625 -16.191406 25.5625 -13.515625 C 25.5625 -10.773438 25.035156 -8.382812 23.984375 -6.34375 C 22.941406 -4.3125 21.351562 -2.742188 19.21875 -1.640625 C 17.082031 -0.546875 14.410156 0 11.203125 0 Z M 9.328125 -4.453125 L 10.015625 -4.453125 C 11.992188 -4.453125 13.644531 -4.742188 14.96875 -5.328125 C 16.289062 -5.921875 17.285156 -6.878906 17.953125 -8.203125 C 18.617188 -9.535156 18.953125 -11.296875 18.953125 -13.484375 C 18.953125 -15.609375 18.644531 -17.3125 18.03125 -18.59375 C 17.414062 -19.882812 16.472656 -20.832031 15.203125 -21.4375 C 13.941406 -22.039062 12.332031 -22.34375 10.375 -22.34375 L 9.21875 -22.34375 C 8.976562 -22.34375 8.859375 -22.175781 8.859375 -21.84375 L 8.859375 -4.953125 C 8.859375 -4.617188 9.015625 -4.453125 9.328125 -4.453125 Z M 9.328125 -4.453125 "/></g></g></g><g fill="#000000" fill-opacity="1"><g transform="translate(200.134831, 34.875075)"><g><path d="M 8.28125 -26.828125 C 8.664062 -26.828125 8.859375 -26.609375 8.859375 -26.171875 L 8.859375 -0.875 C 8.859375 -0.550781 8.78125 -0.320312 8.625 -0.1875 C 8.46875 -0.0625 8.21875 0 7.875 0 L 3.328125 0 C 3.015625 0 2.800781 -0.0546875 2.6875 -0.171875 C 2.582031 -0.296875 2.53125 -0.492188 2.53125 -0.765625 L 2.53125 -26.140625 C 2.53125 -26.597656 2.722656 -26.828125 3.109375 -26.828125 Z M 8.28125 -26.828125 "/></g></g></g><g fill="#000000" fill-opacity="1"><g transform="translate(211.524075, 34.875075)"><g><path d="M 17.9375 -20.5 C 17.40625 -21.082031 16.742188 -21.601562 15.953125 -22.0625 C 15.171875 -22.519531 14.0625 -22.75 12.625 -22.75 C 11.101562 -22.75 9.96875 -22.472656 9.21875 -21.921875 C 8.46875 -21.378906 8.09375 -20.6875 8.09375 -19.84375 C 8.09375 -19.5625 8.164062 -19.25 8.3125 -18.90625 C 8.457031 -18.570312 8.742188 -18.25 9.171875 -17.9375 C 9.609375 -17.625 10.226562 -17.347656 11.03125 -17.109375 L 16.734375 -15.46875 C 18.953125 -14.875 20.566406 -13.90625 21.578125 -12.5625 C 22.597656 -11.226562 23.109375 -9.679688 23.109375 -7.921875 C 23.109375 -6.234375 22.671875 -4.765625 21.796875 -3.515625 C 20.929688 -2.273438 19.691406 -1.316406 18.078125 -0.640625 C 16.460938 0.0234375 14.546875 0.359375 12.328125 0.359375 C 10.691406 0.359375 9.15625 0.171875 7.71875 -0.203125 C 6.28125 -0.578125 5.015625 -1.117188 3.921875 -1.828125 C 2.828125 -2.535156 1.96875 -3.359375 1.34375 -4.296875 C 1.21875 -4.546875 1.164062 -4.75 1.1875 -4.90625 C 1.21875 -5.0625 1.34375 -5.222656 1.5625 -5.390625 L 4.34375 -7.296875 C 4.625 -7.472656 4.851562 -7.546875 5.03125 -7.515625 C 5.21875 -7.492188 5.382812 -7.398438 5.53125 -7.234375 C 6.113281 -6.503906 6.6875 -5.898438 7.25 -5.421875 C 7.8125 -4.941406 8.46875 -4.59375 9.21875 -4.375 C 9.96875 -4.15625 10.859375 -4.046875 11.890625 -4.046875 C 13.460938 -4.046875 14.71875 -4.289062 15.65625 -4.78125 C 16.59375 -5.28125 17.0625 -6.050781 17.0625 -7.09375 C 17.0625 -7.5 16.960938 -7.875 16.765625 -8.21875 C 16.578125 -8.570312 16.269531 -8.882812 15.84375 -9.15625 C 15.425781 -9.4375 14.832031 -9.695312 14.0625 -9.9375 L 8.609375 -11.5 C 7.179688 -11.90625 5.984375 -12.484375 5.015625 -13.234375 C 4.054688 -13.984375 3.328125 -14.863281 2.828125 -15.875 C 2.335938 -16.882812 2.09375 -17.941406 2.09375 -19.046875 C 2.09375 -20.597656 2.519531 -21.988281 3.375 -23.21875 C 4.238281 -24.445312 5.445312 -25.414062 7 -26.125 C 8.550781 -26.832031 10.363281 -27.1875 12.4375 -27.1875 C 13.8125 -27.1875 15.09375 -27.03125 16.28125 -26.71875 C 17.476562 -26.40625 18.554688 -25.972656 19.515625 -25.421875 C 20.484375 -24.867188 21.269531 -24.191406 21.875 -23.390625 C 21.96875 -23.273438 22.035156 -23.140625 22.078125 -22.984375 C 22.128906 -22.828125 22.0625 -22.660156 21.875 -22.484375 L 18.84375 -20.25 C 18.695312 -20.15625 18.5625 -20.125 18.4375 -20.15625 C 18.320312 -20.195312 18.15625 -20.3125 17.9375 -20.5 Z M 17.9375 -20.5 "/></g></g></g><g fill="#000000" fill-opacity="1"><g transform="translate(235.134161, 34.875075)"><g><path d="M 1.1875 -26.171875 C 1.1875 -26.367188 1.25 -26.523438 1.375 -26.640625 C 1.5 -26.765625 1.679688 -26.828125 1.921875 -26.828125 L 22.671875 -26.828125 C 22.929688 -26.828125 23.113281 -26.765625 23.21875 -26.640625 C 23.332031 -26.523438 23.390625 -26.367188 23.390625 -26.171875 L 23.390625 -22.8125 C 23.390625 -22.445312 23.175781 -22.265625 22.75 -22.265625 L 15.984375 -22.265625 C 15.710938 -22.265625 15.578125 -22.144531 15.578125 -21.90625 L 15.578125 -0.6875 C 15.578125 -0.226562 15.375 0 14.96875 0 L 9.796875 0 C 9.429688 0 9.25 -0.203125 9.25 -0.609375 L 9.25 -21.796875 C 9.25 -22.109375 9.117188 -22.265625 8.859375 -22.265625 L 1.875 -22.265625 C 1.414062 -22.265625 1.1875 -22.445312 1.1875 -22.8125 Z M 1.1875 -26.171875 "/></g></g></g><g fill="#000000" fill-opacity="1"><g transform="translate(259.756624, 34.875075)"><g><path d="M 24.296875 -0.96875 C 24.390625 -0.707031 24.378906 -0.476562 24.265625 -0.28125 C 24.160156 -0.09375 23.988281 0 23.75 0 L 18.4375 0 C 18.03125 0 17.765625 -0.21875 17.640625 -0.65625 L 13.734375 -10.78125 C 13.585938 -11.113281 13.253906 -11.28125 12.734375 -11.28125 L 9.296875 -11.28125 C 9.117188 -11.28125 9 -11.226562 8.9375 -11.125 C 8.882812 -11.03125 8.859375 -10.953125 8.859375 -10.890625 L 8.859375 -0.875 C 8.859375 -0.289062 8.53125 0 7.875 0 L 3.296875 0 C 3.003906 0 2.800781 -0.0546875 2.6875 -0.171875 C 2.582031 -0.296875 2.53125 -0.476562 2.53125 -0.71875 L 2.53125 -26.140625 C 2.53125 -26.597656 2.722656 -26.828125 3.109375 -26.828125 L 14.390625 -26.828125 C 17.617188 -26.828125 20.128906 -26.1875 21.921875 -24.90625 C 23.722656 -23.632812 24.625 -21.816406 24.625 -19.453125 C 24.625 -18.222656 24.394531 -17.125 23.9375 -16.15625 C 23.476562 -15.195312 22.875 -14.394531 22.125 -13.75 C 21.375 -13.113281 20.554688 -12.640625 19.671875 -12.328125 C 19.453125 -12.253906 19.40625 -12.070312 19.53125 -11.78125 Z M 13.8125 -15.546875 C 15.1875 -15.546875 16.238281 -15.835938 16.96875 -16.421875 C 17.707031 -17.015625 18.078125 -17.878906 18.078125 -19.015625 C 18.078125 -20.203125 17.703125 -21.09375 16.953125 -21.6875 C 16.210938 -22.289062 15.226562 -22.59375 14 -22.59375 L 9.546875 -22.59375 C 9.085938 -22.59375 8.859375 -22.390625 8.859375 -21.984375 L 8.859375 -16.15625 C 8.859375 -15.75 9.023438 -15.546875 9.359375 -15.546875 Z M 13.8125 -15.546875 "/></g></g></g><g fill="#000000" fill-opacity="1"><g transform="translate(285.861497, 34.875075)"><g><path d="M 8.28125 -26.828125 C 8.664062 -26.828125 8.859375 -26.609375 8.859375 -26.171875 L 8.859375 -0.875 C 8.859375 -0.550781 8.78125 -0.320312 8.625 -0.1875 C 8.46875 -0.0625 8.21875 0 7.875 0 L 3.328125 0 C 3.015625 0 2.800781 -0.0546875 2.6875 -0.171875 C 2.582031 -0.296875 2.53125 -0.492188 2.53125 -0.765625 L 2.53125 -26.140625 C 2.53125 -26.597656 2.722656 -26.828125 3.109375 -26.828125 Z M 8.28125 -26.828125 "/></g></g></g><g fill="#000000" fill-opacity="1"><g transform="translate(297.250741, 34.875075)"><g><path d="M 13.8125 -27.1875 C 15.207031 -27.1875 16.515625 -26.988281 17.734375 -26.59375 C 18.953125 -26.195312 20.039062 -25.632812 21 -24.90625 C 21.96875 -24.1875 22.757812 -23.34375 23.375 -22.375 C 23.988281 -21.414062 24.394531 -20.367188 24.59375 -19.234375 C 24.6875 -18.847656 24.703125 -18.59375 24.640625 -18.46875 C 24.578125 -18.351562 24.4375 -18.285156 24.21875 -18.265625 L 19.34375 -17.9375 C 19.125 -17.9375 18.984375 -17.976562 18.921875 -18.0625 C 18.867188 -18.144531 18.816406 -18.28125 18.765625 -18.46875 C 18.503906 -19.726562 17.984375 -20.757812 17.203125 -21.5625 C 16.429688 -22.375 15.363281 -22.78125 14 -22.78125 C 12.1875 -22.78125 10.765625 -22.050781 9.734375 -20.59375 C 8.710938 -19.132812 8.203125 -16.773438 8.203125 -13.515625 C 8.203125 -10.285156 8.691406 -7.941406 9.671875 -6.484375 C 10.648438 -5.023438 12.113281 -4.296875 14.0625 -4.296875 C 15.457031 -4.296875 16.660156 -4.644531 17.671875 -5.34375 C 18.691406 -6.050781 19.523438 -7.25 20.171875 -8.9375 C 20.265625 -9.144531 20.53125 -9.210938 20.96875 -9.140625 L 24.515625 -8.390625 C 24.628906 -8.367188 24.734375 -8.300781 24.828125 -8.1875 C 24.929688 -8.082031 24.957031 -7.847656 24.90625 -7.484375 C 24.789062 -6.972656 24.554688 -6.378906 24.203125 -5.703125 C 23.859375 -5.035156 23.394531 -4.34375 22.8125 -3.625 C 22.238281 -2.914062 21.519531 -2.257812 20.65625 -1.65625 C 19.800781 -1.0625 18.804688 -0.578125 17.671875 -0.203125 C 16.546875 0.171875 15.257812 0.359375 13.8125 0.359375 C 11.332031 0.359375 9.171875 -0.226562 7.328125 -1.40625 C 5.484375 -2.59375 4.066406 -4.234375 3.078125 -6.328125 C 2.085938 -8.421875 1.59375 -10.851562 1.59375 -13.625 C 1.59375 -16.425781 2.085938 -18.832031 3.078125 -20.84375 C 4.066406 -22.851562 5.472656 -24.410156 7.296875 -25.515625 C 9.128906 -26.628906 11.300781 -27.1875 13.8125 -27.1875 Z M 13.8125 -27.1875 "/></g></g></g><g fill="#000000" fill-opacity="1"><g transform="translate(322.596336, 34.875075)"><g><path d="M 1.1875 -26.171875 C 1.1875 -26.367188 1.25 -26.523438 1.375 -26.640625 C 1.5 -26.765625 1.679688 -26.828125 1.921875 -26.828125 L 22.671875 -26.828125 C 22.929688 -26.828125 23.113281 -26.765625 23.21875 -26.640625 C 23.332031 -26.523438 23.390625 -26.367188 23.390625 -26.171875 L 23.390625 -22.8125 C 23.390625 -22.445312 23.175781 -22.265625 22.75 -22.265625 L 15.984375 -22.265625 C 15.710938 -22.265625 15.578125 -22.144531 15.578125 -21.90625 L 15.578125 -0.6875 C 15.578125 -0.226562 15.375 0 14.96875 0 L 9.796875 0 C 9.429688 0 9.25 -0.203125 9.25 -0.609375 L 9.25 -21.796875 C 9.25 -22.109375 9.117188 -22.265625 8.859375 -22.265625 L 1.875 -22.265625 C 1.414062 -22.265625 1.1875 -22.445312 1.1875 -22.8125 Z M 1.1875 -26.171875 "/></g></g></g></g></g><g clip-path="url(#14d817a81e)"><path stroke-linecap="butt" transform="matrix(0.389926, 0, 0, 0.389926, 4.776625, 57.586217)" fill="none" stroke-linejoin="miter" d="M 0.00184272 11.499866 L 246.6032 11.499866 " stroke="#000000" stroke-width="23" stroke-opacity="1" stroke-miterlimit="4"/></g><path stroke-linecap="butt" transform="matrix(0.389926, 0, 0, 0.389926, 253.43235, 57.6449)" fill="none" stroke-linejoin="miter" d="M 0.0031909 11.499639 L 246.40419 11.499639 " stroke="#000000" stroke-width="23" stroke-opacity="1" stroke-miterlimit="4"/><path stroke-linecap="butt" transform="matrix(0, 0.389926, -0.389926, 0, 262.361568, 45.257164)" fill="none" stroke-linejoin="miter" d="M 0.00166425 11.49619 L 54.719596 11.49619 " stroke="#000000" stroke-width="23" stroke-opacity="1" stroke-miterlimit="4"/><path stroke-linecap="butt" transform="matrix(0, 0.389926, -0.389926, 0, 100.931622, 45.225712)" fill="none" stroke-linejoin="miter" d="M 0.00218229 11.495526 L 54.639971 11.495526 " stroke="#000000" stroke-width="23" stroke-opacity="1" stroke-miterlimit="4"/><path stroke-linecap="butt" transform="matrix(0, 0.389926, -0.389926, 0, 349.532246, 57.743732)" fill="none" stroke-linejoin="miter" d="M -0.00395984 11.503137 L 77.915497 11.503137 " stroke="#000000" stroke-width="23" stroke-opacity="1" stroke-miterlimit="4"/><path stroke-linecap="butt" transform="matrix(0.389926, 0, 0, 0.389926, 86.262041, 40.772925)" fill="none" stroke-linejoin="miter" d="M -0.00082519 11.501898 L 466.143462 11.501898 " stroke="#000000" stroke-width="23" stroke-opacity="1" stroke-miterlimit="4"/><g clip-path="url(#ac41708666)"><g clip-path="url(#98b6064b1c)"><g transform="matrix(1, 0, 0, 1, 166, 62)"><g clip-path="url(#4538a746d3)"><g clip-path="url(#e41df0e7b7)"><g clip-path="url(#365bcff509)"><path fill="#000000" d="M 0.894531 0.128906 L 20.105469 0.128906 L 20.105469 19.339844 L 0.894531 19.339844 Z M 0.894531 0.128906 " fill-opacity="1" fill-rule="nonzero"/></g></g></g></g></g></g><path stroke-linecap="butt" transform="matrix(0, 0.389926, -0.389926, 0, 13.703952, 57.588195)" fill="none" stroke-linejoin="miter" d="M 0.00422899 11.502704 L 75.399168 11.502704 " stroke="#000000" stroke-width="23" stroke-opacity="1" stroke-miterlimit="4"/><g clip-path="url(#65ac566310)"><g clip-path="url(#7d7ad458dd)"><g transform="matrix(1, 0, 0, 1, 86, 18)"><g clip-path="url(#4d94490870)"><g clip-path="url(#3e8457d43d)"><g clip-path="url(#04b0e1a0df)"><g clip-path="url(#8fba2e1c19)"><g clip-path="url(#987175fdf1)"><path fill="#000000" d="M 2.992188 65.027344 C 57.703125 19.601562 140.292969 28.511719 187.097656 84.886719 C 187.402344 85.253906 187.625 85.664062 187.765625 86.121094 C 187.90625 86.574219 187.953125 87.039062 187.90625 87.515625 C 187.863281 87.988281 187.730469 88.4375 187.507812 88.859375 C 187.285156 89.28125 186.988281 89.640625 186.625 89.945312 C 186.257812 90.25 185.84375 90.472656 185.390625 90.617188 C 184.933594 90.757812 184.46875 90.804688 183.996094 90.761719 C 183.519531 90.71875 183.074219 90.585938 182.652344 90.363281 C 182.230469 90.144531 181.867188 89.847656 181.5625 89.484375 C 137.289062 36.152344 59.238281 27.664062 7.578125 70.550781 C 7.210938 70.855469 6.800781 71.082031 6.347656 71.222656 C 5.890625 71.363281 5.425781 71.410156 4.949219 71.367188 C 4.476562 71.324219 4.027344 71.191406 3.605469 70.96875 C 3.183594 70.746094 2.824219 70.453125 2.519531 70.085938 C 2.214844 69.71875 1.992188 69.308594 1.851562 68.855469 C 1.710938 68.398438 1.664062 67.933594 1.707031 67.460938 C 1.75 66.984375 1.882812 66.539062 2.105469 66.117188 C 2.328125 65.695312 2.625 65.332031 2.992188 65.027344 Z M 2.992188 65.027344 " fill-opacity="1" fill-rule="nonzero"/></g></g></g></g></g></g></g></g><g clip-path="url(#f2f9e54227)"><g clip-path="url(#fa6a9a50d8)"><g transform="matrix(1, 0, 0, 1, 170, 18)"><g clip-path="url(#e3ad5b282c)"><g clip-path="url(#e17ac5d6a4)"><g clip-path="url(#8e3512c6ca)"><g clip-path="url(#14abeb033b)"><g clip-path="url(#ae04843087)"><path fill="#000000" d="M 95.308594 65.027344 C 40.597656 19.601562 -41.992188 28.511719 -88.796875 84.886719 C -89.101562 85.253906 -89.324219 85.664062 -89.464844 86.121094 C -89.605469 86.574219 -89.652344 87.039062 -89.609375 87.515625 C -89.5625 87.988281 -89.429688 88.4375 -89.207031 88.859375 C -88.984375 89.28125 -88.691406 89.640625 -88.324219 89.945312 C -87.957031 90.25 -87.546875 90.472656 -87.089844 90.617188 C -86.636719 90.757812 -86.171875 90.804688 -85.695312 90.761719 C -85.222656 90.71875 -84.773438 90.585938 -84.351562 90.363281 C -83.929688 90.144531 -83.566406 89.847656 -83.261719 89.484375 C -38.988281 36.152344 39.058594 27.664062 90.71875 70.550781 C 91.085938 70.855469 91.5 71.082031 91.953125 71.222656 C 92.410156 71.363281 92.875 71.410156 93.347656 71.367188 C 93.824219 71.324219 94.269531 71.191406 94.691406 70.96875 C 95.113281 70.746094 95.476562 70.453125 95.78125 70.085938 C 96.085938 69.71875 96.308594 69.308594 96.449219 68.855469 C 96.589844 68.398438 96.636719 67.933594 96.59375 67.460938 C 96.546875 66.984375 96.414062 66.539062 96.191406 66.117188 C 95.96875 65.695312 95.675781 65.332031 95.308594 65.027344 Z M 95.308594 65.027344 " fill-opacity="1" fill-rule="nonzero"/></g></g></g></g></g></g></g></g></g></g></svg>