<svg xmlns="http://www.w3.org/2000/svg" xmlns:xlink="http://www.w3.org/1999/xlink" width="500" zoomAndPan="magnify" viewBox="0 0 375 374.999991" height="500" preserveAspectRatio="xMidYMid meet" version="1.0"><defs><g/><clipPath id="799902c0f3"><rect x="0" width="354" y="0" height="73"/></clipPath><clipPath id="36b4cd812e"><rect x="0" width="350" y="0" height="45"/></clipPath><clipPath id="c85f947fda"><path d="M 0.078125 58 L 107 58 L 107 68 L 0.078125 68 Z M 0.078125 58 " clip-rule="nonzero"/></clipPath><clipPath id="1584509954"><path d="M 167.851562 62.945312 L 187.148438 62.945312 L 187.148438 82.242188 L 167.851562 82.242188 Z M 167.851562 62.945312 " clip-rule="nonzero"/></clipPath><clipPath id="0496783a51"><path d="M 177.5 62.945312 C 172.171875 62.945312 167.851562 67.261719 167.851562 72.59375 C 167.851562 77.921875 172.171875 82.242188 177.5 82.242188 C 182.828125 82.242188 187.148438 77.921875 187.148438 72.59375 C 187.148438 67.261719 182.828125 62.945312 177.5 62.945312 Z M 177.5 62.945312 " clip-rule="nonzero"/></clipPath><clipPath id="9613ed4a37"><path d="M 0.851562 0.945312 L 20.148438 0.945312 L 20.148438 20.242188 L 0.851562 20.242188 Z M 0.851562 0.945312 " clip-rule="nonzero"/></clipPath><clipPath id="23ed6e8154"><path d="M 10.5 0.945312 C 5.171875 0.945312 0.851562 5.261719 0.851562 10.59375 C 0.851562 15.921875 5.171875 20.242188 10.5 20.242188 C 15.828125 20.242188 20.148438 15.921875 20.148438 10.59375 C 20.148438 5.261719 15.828125 0.945312 10.5 0.945312 Z M 10.5 0.945312 " clip-rule="nonzero"/></clipPath><clipPath id="105649d43c"><rect x="0" width="21" y="0" height="21"/></clipPath><clipPath id="0a07c25c23"><path d="M 87 18 L 186 18 L 186 107 L 87 107 Z M 87 18 " clip-rule="nonzero"/></clipPath><clipPath id="a29cc108dc"><path d="M 185.390625 39.683594 L 104.320312 106.988281 L 87.054688 86.195312 L 168.125 18.886719 Z M 185.390625 39.683594 " clip-rule="nonzero"/></clipPath><clipPath id="1f560f9d5d"><path d="M 1 36 L 98.601562 36 L 98.601562 89 L 1 89 Z M 1 36 " clip-rule="nonzero"/></clipPath><clipPath id="4789877eff"><path d="M 98.390625 21.683594 L 17.320312 88.988281 L 0.0546875 68.195312 L 81.125 0.886719 Z M 98.390625 21.683594 " clip-rule="nonzero"/></clipPath><clipPath id="b0bc20c1a0"><path d="M 102.277344 -16.824219 L -0.195312 68.25 L 87.378906 173.730469 L 189.847656 88.660156 Z M 102.277344 -16.824219 " clip-rule="nonzero"/></clipPath><clipPath id="afad669f5c"><rect x="0" width="99" y="0" height="89"/></clipPath><clipPath id="531340b6bf"><path d="M 171 18 L 270 18 L 270 108 L 171 108 Z M 171 18 " clip-rule="nonzero"/></clipPath><clipPath id="a50025bb07"><path d="M 252.109375 107.089844 L 171.039062 39.785156 L 188.300781 18.988281 L 269.375 86.296875 Z M 252.109375 107.089844 " clip-rule="nonzero"/></clipPath><clipPath id="c0d89a81c7"><path d="M 0 36 L 97 36 L 97 89.121094 L 0 89.121094 Z M 0 36 " clip-rule="nonzero"/></clipPath><clipPath id="3b43f03a9f"><path d="M 81.109375 89.089844 L 0.0390625 21.785156 L 17.300781 0.988281 L 98.375 68.296875 Z M 81.109375 89.089844 " clip-rule="nonzero"/></clipPath><clipPath id="296b27f9fd"><path d="M -3.96875 -16.824219 L 98.5 68.25 L 10.925781 173.730469 L -91.542969 88.660156 Z M -3.96875 -16.824219 " clip-rule="nonzero"/></clipPath><clipPath id="92bef28f80"><rect x="0" width="99" y="0" height="90"/></clipPath><clipPath id="d2980207f9"><rect x="0" width="356" y="0" height="193"/></clipPath></defs><g transform="matrix(1, 0, 0, 1, 10, 70)"><g clip-path="url(#d2980207f9)"><g transform="matrix(1, 0, 0, 1, 1, 85)"><g clip-path="url(#799902c0f3)"><g fill="#d07d30" fill-opacity="1"><g transform="translate(0.257825, 57.409498)"><g><path d="M 5.25 0 C 4.894531 0 4.617188 -0.0976562 4.421875 -0.296875 C 4.222656 -0.492188 4.125 -0.75 4.125 -1.0625 L 4.125 -42.46875 C 4.125 -42.820312 4.226562 -43.113281 4.4375 -43.34375 C 4.65625 -43.582031 4.941406 -43.703125 5.296875 -43.703125 L 21.265625 -43.703125 C 27.035156 -43.703125 31.441406 -42.726562 34.484375 -40.78125 C 37.535156 -38.84375 39.0625 -35.988281 39.0625 -32.21875 C 39.0625 -30.0625 38.476562 -28.234375 37.3125 -26.734375 C 36.15625 -25.242188 34.164062 -23.890625 31.34375 -22.671875 C 31.21875 -22.640625 31.15625 -22.5625 31.15625 -22.4375 C 31.15625 -22.320312 31.21875 -22.242188 31.34375 -22.203125 C 34.4375 -21.179688 36.671875 -19.851562 38.046875 -18.21875 C 39.421875 -16.59375 40.109375 -14.46875 40.109375 -11.84375 C 40.109375 -7.832031 38.597656 -4.851562 35.578125 -2.90625 C 32.554688 -0.96875 28.039062 0 22.03125 0 Z M 21.734375 -6.953125 C 24.285156 -6.953125 26.195312 -7.476562 27.46875 -8.53125 C 28.75 -9.59375 29.390625 -11.007812 29.390625 -12.78125 C 29.390625 -14.039062 29.078125 -15.09375 28.453125 -15.9375 C 27.828125 -16.78125 26.972656 -17.414062 25.890625 -17.84375 C 24.804688 -18.28125 23.5625 -18.5 22.15625 -18.5 L 15.546875 -18.5 C 14.804688 -18.5 14.4375 -18.164062 14.4375 -17.5 L 14.4375 -8.0625 C 14.4375 -7.320312 14.707031 -6.953125 15.25 -6.953125 Z M 22.15625 -25.6875 C 23.050781 -25.6875 23.898438 -25.78125 24.703125 -25.96875 C 25.515625 -26.164062 26.222656 -26.5 26.828125 -26.96875 C 27.441406 -27.445312 27.929688 -28.019531 28.296875 -28.6875 C 28.671875 -29.351562 28.859375 -30.140625 28.859375 -31.046875 C 28.859375 -32.890625 28.179688 -34.300781 26.828125 -35.28125 C 25.472656 -36.257812 23.738281 -36.75 21.625 -36.75 L 15.546875 -36.75 C 14.804688 -36.75 14.4375 -36.414062 14.4375 -35.75 L 14.4375 -26.75 C 14.4375 -26.039062 14.707031 -25.6875 15.25 -25.6875 Z M 22.15625 -25.6875 "/></g></g></g><g fill="#d07d30" fill-opacity="1"><g transform="translate(42.836317, 57.409498)"><g><path d="M 4.125 -42.59375 C 4.125 -43.332031 4.4375 -43.703125 5.0625 -43.703125 L 34.75 -43.703125 C 35.34375 -43.703125 35.640625 -43.367188 35.640625 -42.703125 L 35.640625 -37.40625 C 35.640625 -36.582031 35.226562 -36.171875 34.40625 -36.171875 L 15.546875 -36.171875 C 14.804688 -36.171875 14.4375 -35.851562 14.4375 -35.21875 L 14.4375 -26.6875 C 14.4375 -26.019531 14.726562 -25.6875 15.3125 -25.6875 L 27.796875 -25.6875 C 28.472656 -25.6875 28.8125 -25.367188 28.8125 -24.734375 L 28.8125 -19.078125 C 28.8125 -18.847656 28.738281 -18.65625 28.59375 -18.5 C 28.457031 -18.34375 28.210938 -18.265625 27.859375 -18.265625 L 15.25 -18.265625 C 14.707031 -18.265625 14.4375 -18.023438 14.4375 -17.546875 L 14.4375 -8.3125 C 14.4375 -7.800781 14.648438 -7.546875 15.078125 -7.546875 L 35.21875 -7.546875 C 35.925781 -7.546875 36.28125 -7.25 36.28125 -6.65625 L 36.28125 -1.0625 C 36.28125 -0.75 36.191406 -0.492188 36.015625 -0.296875 C 35.835938 -0.0976562 35.535156 0 35.109375 0 L 5.421875 0 C 4.554688 0 4.125 -0.410156 4.125 -1.234375 Z M 4.125 -42.59375 "/></g></g></g><g fill="#d07d30" fill-opacity="1"><g transform="translate(81.351297, 57.409498)"><g><path d="M 2.828125 0 C 2.472656 0 2.21875 -0.15625 2.0625 -0.46875 C 1.90625 -0.78125 1.90625 -1.191406 2.0625 -1.703125 L 16.734375 -42.53125 C 16.890625 -42.957031 17.0625 -43.257812 17.25 -43.4375 C 17.445312 -43.613281 17.785156 -43.703125 18.265625 -43.703125 L 27.09375 -43.703125 C 27.957031 -43.703125 28.546875 -43.269531 28.859375 -42.40625 L 43.40625 -1.59375 C 43.53125 -1.28125 43.53125 -0.9375 43.40625 -0.5625 C 43.289062 -0.1875 43.054688 0 42.703125 0 L 34.046875 0 C 33.460938 0 33.085938 -0.273438 32.921875 -0.828125 L 29.859375 -9.421875 C 29.828125 -9.617188 29.757812 -9.773438 29.65625 -9.890625 C 29.5625 -10.015625 29.375 -10.078125 29.09375 -10.078125 L 14.734375 -10.078125 C 14.335938 -10.078125 14.078125 -9.878906 13.953125 -9.484375 L 10.84375 -0.765625 C 10.757812 -0.523438 10.628906 -0.335938 10.453125 -0.203125 C 10.273438 -0.0664062 9.992188 0 9.609375 0 Z M 26.6875 -17.90625 C 27.238281 -17.90625 27.414062 -18.238281 27.21875 -18.90625 L 22.265625 -32.6875 C 22.148438 -32.925781 22.019531 -33.046875 21.875 -33.046875 C 21.738281 -33.046875 21.613281 -32.910156 21.5 -32.640625 L 16.5 -18.90625 C 16.21875 -18.238281 16.394531 -17.90625 17.03125 -17.90625 Z M 26.6875 -17.90625 "/></g></g></g><g fill="#d07d30" fill-opacity="1"><g transform="translate(123.988349, 57.409498)"><g><path d="M 38.8125 -16.203125 C 38.8125 -12.078125 38.101562 -8.773438 36.6875 -6.296875 C 35.28125 -3.828125 33.257812 -2.0625 30.625 -1 C 28 0.0625 24.859375 0.59375 21.203125 0.59375 C 16.921875 0.59375 13.492188 -0.0820312 10.921875 -1.4375 C 8.347656 -2.789062 6.484375 -4.789062 5.328125 -7.4375 C 4.171875 -10.09375 3.59375 -13.367188 3.59375 -17.265625 L 3.59375 -42.53125 C 3.59375 -43.3125 3.90625 -43.703125 4.53125 -43.703125 L 13.015625 -43.703125 C 13.609375 -43.703125 13.90625 -43.347656 13.90625 -42.640625 L 13.90625 -15.96875 C 13.90625 -12.75 14.597656 -10.410156 15.984375 -8.953125 C 17.378906 -7.503906 19.375 -6.78125 21.96875 -6.78125 C 23.625 -6.78125 25.078125 -7.082031 26.328125 -7.6875 C 27.585938 -8.289062 28.570312 -9.28125 29.28125 -10.65625 C 29.988281 -12.03125 30.34375 -13.859375 30.34375 -16.140625 L 30.34375 -42.59375 C 30.34375 -43.332031 30.632812 -43.703125 31.21875 -43.703125 L 37.9375 -43.703125 C 38.519531 -43.703125 38.8125 -43.347656 38.8125 -42.640625 Z M 38.8125 -16.203125 "/></g></g></g><g fill="#d07d30" fill-opacity="1"><g transform="translate(166.449056, 57.409498)"><g><path d="M 5.359375 0 C 4.535156 0 4.125 -0.453125 4.125 -1.359375 L 4.125 -42.59375 C 4.125 -43.332031 4.457031 -43.703125 5.125 -43.703125 L 17.3125 -43.703125 C 17.75 -43.703125 18.066406 -43.644531 18.265625 -43.53125 C 18.460938 -43.414062 18.617188 -43.179688 18.734375 -42.828125 L 27.625 -18.140625 C 27.738281 -17.785156 27.875 -17.617188 28.03125 -17.640625 C 28.195312 -17.660156 28.335938 -17.828125 28.453125 -18.140625 L 36.9375 -42.359375 C 37.164062 -43.253906 37.597656 -43.703125 38.234375 -43.703125 L 50.890625 -43.703125 C 51.484375 -43.703125 51.78125 -43.347656 51.78125 -42.640625 L 51.78125 -1.40625 C 51.78125 -0.46875 51.289062 0 50.3125 0 L 42.703125 0 C 42.234375 0 41.910156 -0.0976562 41.734375 -0.296875 C 41.554688 -0.492188 41.46875 -0.785156 41.46875 -1.171875 L 41.46875 -30.515625 C 41.46875 -30.785156 41.398438 -30.910156 41.265625 -30.890625 C 41.128906 -30.867188 41.019531 -30.722656 40.9375 -30.453125 L 30.625 -0.9375 C 30.394531 -0.3125 29.984375 0 29.390625 0 L 24.5 0 C 23.832031 0 23.398438 -0.3125 23.203125 -0.9375 L 13.015625 -30.046875 C 12.898438 -30.398438 12.769531 -30.554688 12.625 -30.515625 C 12.488281 -30.472656 12.421875 -30.296875 12.421875 -29.984375 L 12.421875 -1.0625 C 12.421875 -0.664062 12.351562 -0.390625 12.21875 -0.234375 C 12.082031 -0.078125 11.800781 0 11.375 0 Z M 5.359375 0 "/></g></g></g><g fill="#d07d30" fill-opacity="1"><g transform="translate(222.337008, 57.409498)"><g><path d="M 22.859375 0.59375 C 18.691406 0.59375 15.097656 -0.296875 12.078125 -2.078125 C 9.054688 -3.867188 6.726562 -6.429688 5.09375 -9.765625 C 3.46875 -13.109375 2.65625 -17.078125 2.65625 -21.671875 C 2.65625 -26.347656 3.488281 -30.375 5.15625 -33.75 C 6.820312 -37.125 9.164062 -39.722656 12.1875 -41.546875 C 15.21875 -43.378906 18.773438 -44.296875 22.859375 -44.296875 C 26.941406 -44.296875 30.484375 -43.378906 33.484375 -41.546875 C 36.492188 -39.722656 38.820312 -37.132812 40.46875 -33.78125 C 42.113281 -30.425781 42.9375 -26.410156 42.9375 -21.734375 C 42.9375 -17.140625 42.117188 -13.171875 40.484375 -9.828125 C 38.859375 -6.492188 36.535156 -3.921875 33.515625 -2.109375 C 30.492188 -0.304688 26.941406 0.59375 22.859375 0.59375 Z M 22.859375 -6.65625 C 26.078125 -6.65625 28.429688 -7.820312 29.921875 -10.15625 C 31.410156 -12.5 32.15625 -16.320312 32.15625 -21.625 C 32.15625 -27.039062 31.398438 -30.972656 29.890625 -33.421875 C 28.378906 -35.878906 26.035156 -37.109375 22.859375 -37.109375 C 19.640625 -37.109375 17.265625 -35.867188 15.734375 -33.390625 C 14.203125 -30.921875 13.4375 -27 13.4375 -21.625 C 13.4375 -16.351562 14.191406 -12.539062 15.703125 -10.1875 C 17.210938 -7.832031 19.597656 -6.65625 22.859375 -6.65625 Z M 22.859375 -6.65625 "/></g></g></g><g fill="#d07d30" fill-opacity="1"><g transform="translate(267.918977, 57.409498)"><g><path d="M 39.828125 -43.703125 C 40.335938 -43.703125 40.59375 -43.410156 40.59375 -42.828125 L 40.59375 -0.9375 C 40.59375 -0.664062 40.492188 -0.441406 40.296875 -0.265625 C 40.097656 -0.0859375 39.820312 0 39.46875 0 L 33.515625 0 C 33.203125 0 32.945312 -0.0351562 32.75 -0.109375 C 32.550781 -0.191406 32.316406 -0.390625 32.046875 -0.703125 L 13.25 -27.09375 C 13.09375 -27.289062 12.945312 -27.367188 12.8125 -27.328125 C 12.675781 -27.296875 12.609375 -27.179688 12.609375 -26.984375 L 12.609375 -1.0625 C 12.648438 -0.351562 12.253906 0 11.421875 0 L 5.296875 0 C 4.515625 0 4.125 -0.332031 4.125 -1 L 4.125 -42.59375 C 4.125 -43.332031 4.476562 -43.703125 5.1875 -43.703125 L 12.3125 -43.703125 C 12.738281 -43.703125 13.0625 -43.644531 13.28125 -43.53125 C 13.5 -43.414062 13.742188 -43.179688 14.015625 -42.828125 L 31.34375 -18.140625 C 31.570312 -17.828125 31.773438 -17.691406 31.953125 -17.734375 C 32.128906 -17.773438 32.21875 -17.96875 32.21875 -18.3125 L 32.21875 -42.640625 C 32.21875 -43.347656 32.570312 -43.703125 33.28125 -43.703125 Z M 39.828125 -43.703125 "/></g></g></g><g fill="#d07d30" fill-opacity="1"><g transform="translate(312.617537, 57.409498)"><g><path d="M 1.9375 -42.640625 C 1.9375 -42.960938 2.035156 -43.21875 2.234375 -43.40625 C 2.429688 -43.601562 2.726562 -43.703125 3.125 -43.703125 L 36.9375 -43.703125 C 37.363281 -43.703125 37.664062 -43.601562 37.84375 -43.40625 C 38.019531 -43.21875 38.109375 -42.960938 38.109375 -42.640625 L 38.109375 -37.171875 C 38.109375 -36.578125 37.753906 -36.28125 37.046875 -36.28125 L 26.03125 -36.28125 C 25.601562 -36.28125 25.390625 -36.085938 25.390625 -35.703125 L 25.390625 -1.125 C 25.390625 -0.375 25.054688 0 24.390625 0 L 15.96875 0 C 15.375 0 15.078125 -0.332031 15.078125 -1 L 15.078125 -35.515625 C 15.078125 -36.023438 14.863281 -36.28125 14.4375 -36.28125 L 3.0625 -36.28125 C 2.3125 -36.28125 1.9375 -36.578125 1.9375 -37.171875 Z M 1.9375 -42.640625 "/></g></g></g></g></g><g transform="matrix(1, 0, 0, 1, 2, 144)"><g clip-path="url(#36b4cd812e)"><g fill="#d07d30" fill-opacity="1"><g transform="translate(0.974069, 35.219395)"><g><path d="M 2.546875 -26.265625 C 2.546875 -26.722656 2.738281 -26.953125 3.125 -26.953125 L 8.3125 -26.953125 C 8.707031 -26.953125 8.90625 -26.734375 8.90625 -26.296875 L 8.90625 -5.125 C 8.90625 -4.8125 9.035156 -4.65625 9.296875 -4.65625 L 20.890625 -4.65625 C 21.328125 -4.65625 21.546875 -4.472656 21.546875 -4.109375 L 21.546875 -0.65625 C 21.546875 -0.457031 21.488281 -0.296875 21.375 -0.171875 C 21.269531 -0.0546875 21.097656 0 20.859375 0 L 3.34375 0 C 3.03125 0 2.816406 -0.0546875 2.703125 -0.171875 C 2.597656 -0.296875 2.546875 -0.492188 2.546875 -0.765625 Z M 2.546875 -26.265625 "/></g></g></g><g fill="#d07d30" fill-opacity="1"><g transform="translate(23.747803, 35.219395)"><g><path d="M 8.3125 -26.953125 C 8.707031 -26.953125 8.90625 -26.734375 8.90625 -26.296875 L 8.90625 -0.875 C 8.90625 -0.5625 8.820312 -0.335938 8.65625 -0.203125 C 8.5 -0.0664062 8.253906 0 7.921875 0 L 3.34375 0 C 3.03125 0 2.816406 -0.0546875 2.703125 -0.171875 C 2.597656 -0.296875 2.546875 -0.492188 2.546875 -0.765625 L 2.546875 -26.265625 C 2.546875 -26.722656 2.738281 -26.953125 3.125 -26.953125 Z M 8.3125 -26.953125 "/></g></g></g><g fill="#d07d30" fill-opacity="1"><g transform="translate(35.189151, 35.219395)"><g><path d="M 3.234375 0 C 3.015625 0 2.84375 -0.0546875 2.71875 -0.171875 C 2.601562 -0.296875 2.546875 -0.457031 2.546875 -0.65625 L 2.546875 -26.1875 C 2.546875 -26.40625 2.609375 -26.585938 2.734375 -26.734375 C 2.867188 -26.878906 3.046875 -26.953125 3.265625 -26.953125 L 13.109375 -26.953125 C 16.671875 -26.953125 19.390625 -26.351562 21.265625 -25.15625 C 23.140625 -23.957031 24.078125 -22.195312 24.078125 -19.875 C 24.078125 -18.539062 23.71875 -17.410156 23 -16.484375 C 22.289062 -15.566406 21.066406 -14.734375 19.328125 -13.984375 C 19.253906 -13.960938 19.21875 -13.914062 19.21875 -13.84375 C 19.21875 -13.769531 19.253906 -13.722656 19.328125 -13.703125 C 21.242188 -13.066406 22.625 -12.242188 23.46875 -11.234375 C 24.3125 -10.234375 24.734375 -8.921875 24.734375 -7.296875 C 24.734375 -4.828125 23.800781 -2.992188 21.9375 -1.796875 C 20.070312 -0.597656 17.289062 0 13.59375 0 Z M 13.40625 -4.28125 C 14.976562 -4.28125 16.15625 -4.609375 16.9375 -5.265625 C 17.726562 -5.921875 18.125 -6.796875 18.125 -7.890625 C 18.125 -8.660156 17.929688 -9.304688 17.546875 -9.828125 C 17.160156 -10.347656 16.632812 -10.738281 15.96875 -11 C 15.300781 -11.269531 14.53125 -11.40625 13.65625 -11.40625 L 9.59375 -11.40625 C 9.132812 -11.40625 8.90625 -11.203125 8.90625 -10.796875 L 8.90625 -4.984375 C 8.90625 -4.515625 9.070312 -4.28125 9.40625 -4.28125 Z M 13.65625 -15.84375 C 14.21875 -15.84375 14.742188 -15.898438 15.234375 -16.015625 C 15.734375 -16.140625 16.171875 -16.347656 16.546875 -16.640625 C 16.921875 -16.929688 17.222656 -17.28125 17.453125 -17.6875 C 17.679688 -18.101562 17.796875 -18.585938 17.796875 -19.140625 C 17.796875 -20.285156 17.378906 -21.160156 16.546875 -21.765625 C 15.710938 -22.367188 14.640625 -22.671875 13.328125 -22.671875 L 9.59375 -22.671875 C 9.132812 -22.671875 8.90625 -22.460938 8.90625 -22.046875 L 8.90625 -16.5 C 8.90625 -16.0625 9.070312 -15.84375 9.40625 -15.84375 Z M 13.65625 -15.84375 "/></g></g></g><g fill="#d07d30" fill-opacity="1"><g transform="translate(61.449762, 35.219395)"><g><path d="M 24.40625 -0.984375 C 24.507812 -0.710938 24.503906 -0.476562 24.390625 -0.28125 C 24.285156 -0.09375 24.113281 0 23.875 0 L 18.53125 0 C 18.113281 0 17.847656 -0.21875 17.734375 -0.65625 L 13.796875 -10.828125 C 13.660156 -11.160156 13.320312 -11.328125 12.78125 -11.328125 L 9.34375 -11.328125 C 9.164062 -11.328125 9.046875 -11.28125 8.984375 -11.1875 C 8.929688 -11.09375 8.90625 -11.007812 8.90625 -10.9375 L 8.90625 -0.875 C 8.90625 -0.289062 8.578125 0 7.921875 0 L 3.3125 0 C 3.019531 0 2.816406 -0.0546875 2.703125 -0.171875 C 2.597656 -0.296875 2.546875 -0.476562 2.546875 -0.71875 L 2.546875 -26.265625 C 2.546875 -26.722656 2.738281 -26.953125 3.125 -26.953125 L 14.453125 -26.953125 C 17.703125 -26.953125 20.226562 -26.3125 22.03125 -25.03125 C 23.832031 -23.75 24.734375 -21.921875 24.734375 -19.546875 C 24.734375 -18.304688 24.503906 -17.203125 24.046875 -16.234375 C 23.585938 -15.265625 22.984375 -14.457031 22.234375 -13.8125 C 21.484375 -13.175781 20.660156 -12.703125 19.765625 -12.390625 C 19.546875 -12.316406 19.492188 -12.132812 19.609375 -11.84375 Z M 13.875 -15.625 C 15.257812 -15.625 16.316406 -15.921875 17.046875 -16.515625 C 17.785156 -17.109375 18.15625 -17.972656 18.15625 -19.109375 C 18.15625 -20.296875 17.78125 -21.191406 17.03125 -21.796875 C 16.28125 -22.398438 15.289062 -22.703125 14.0625 -22.703125 L 9.59375 -22.703125 C 9.132812 -22.703125 8.90625 -22.5 8.90625 -22.09375 L 8.90625 -16.234375 C 8.90625 -15.828125 9.070312 -15.625 9.40625 -15.625 Z M 13.875 -15.625 "/></g></g></g><g fill="#d07d30" fill-opacity="1"><g transform="translate(86.693364, 35.219395)"><g><path d="M 1.75 0 C 1.53125 0 1.367188 -0.09375 1.265625 -0.28125 C 1.171875 -0.476562 1.171875 -0.734375 1.265625 -1.046875 L 10.3125 -26.234375 C 10.414062 -26.492188 10.523438 -26.675781 10.640625 -26.78125 C 10.765625 -26.894531 10.972656 -26.953125 11.265625 -26.953125 L 16.703125 -26.953125 C 17.242188 -26.953125 17.609375 -26.6875 17.796875 -26.15625 L 26.78125 -0.984375 C 26.84375 -0.785156 26.835938 -0.570312 26.765625 -0.34375 C 26.703125 -0.113281 26.5625 0 26.34375 0 L 21 0 C 20.632812 0 20.40625 -0.171875 20.3125 -0.515625 L 18.421875 -5.8125 C 18.390625 -5.9375 18.34375 -6.035156 18.28125 -6.109375 C 18.226562 -6.179688 18.117188 -6.21875 17.953125 -6.21875 L 9.078125 -6.21875 C 8.835938 -6.21875 8.679688 -6.09375 8.609375 -5.84375 L 6.6875 -0.46875 C 6.632812 -0.320312 6.550781 -0.207031 6.4375 -0.125 C 6.332031 -0.0390625 6.160156 0 5.921875 0 Z M 16.453125 -11.046875 C 16.796875 -11.046875 16.90625 -11.25 16.78125 -11.65625 L 13.734375 -20.15625 C 13.660156 -20.300781 13.582031 -20.375 13.5 -20.375 C 13.414062 -20.375 13.335938 -20.289062 13.265625 -20.125 L 10.171875 -11.65625 C 10.003906 -11.25 10.113281 -11.046875 10.5 -11.046875 Z M 16.453125 -11.046875 "/></g></g></g><g fill="#d07d30" fill-opacity="1"><g transform="translate(114.697423, 35.219395)"><g><path d="M 24.40625 -0.984375 C 24.507812 -0.710938 24.503906 -0.476562 24.390625 -0.28125 C 24.285156 -0.09375 24.113281 0 23.875 0 L 18.53125 0 C 18.113281 0 17.847656 -0.21875 17.734375 -0.65625 L 13.796875 -10.828125 C 13.660156 -11.160156 13.320312 -11.328125 12.78125 -11.328125 L 9.34375 -11.328125 C 9.164062 -11.328125 9.046875 -11.28125 8.984375 -11.1875 C 8.929688 -11.09375 8.90625 -11.007812 8.90625 -10.9375 L 8.90625 -0.875 C 8.90625 -0.289062 8.578125 0 7.921875 0 L 3.3125 0 C 3.019531 0 2.816406 -0.0546875 2.703125 -0.171875 C 2.597656 -0.296875 2.546875 -0.476562 2.546875 -0.71875 L 2.546875 -26.265625 C 2.546875 -26.722656 2.738281 -26.953125 3.125 -26.953125 L 14.453125 -26.953125 C 17.703125 -26.953125 20.226562 -26.3125 22.03125 -25.03125 C 23.832031 -23.75 24.734375 -21.921875 24.734375 -19.546875 C 24.734375 -18.304688 24.503906 -17.203125 24.046875 -16.234375 C 23.585938 -15.265625 22.984375 -14.457031 22.234375 -13.8125 C 21.484375 -13.175781 20.660156 -12.703125 19.765625 -12.390625 C 19.546875 -12.316406 19.492188 -12.132812 19.609375 -11.84375 Z M 13.875 -15.625 C 15.257812 -15.625 16.316406 -15.921875 17.046875 -16.515625 C 17.785156 -17.109375 18.15625 -17.972656 18.15625 -19.109375 C 18.15625 -20.296875 17.78125 -21.191406 17.03125 -21.796875 C 16.28125 -22.398438 15.289062 -22.703125 14.0625 -22.703125 L 9.59375 -22.703125 C 9.132812 -22.703125 8.90625 -22.5 8.90625 -22.09375 L 8.90625 -16.234375 C 8.90625 -15.828125 9.070312 -15.625 9.40625 -15.625 Z M 13.875 -15.625 "/></g></g></g><g fill="#d07d30" fill-opacity="1"><g transform="translate(139.795749, 35.219395)"><g><path d="M 25.0625 -26.953125 C 25.300781 -26.953125 25.457031 -26.882812 25.53125 -26.75 C 25.601562 -26.625 25.582031 -26.453125 25.46875 -26.234375 L 16.921875 -12.25 C 16.773438 -12.03125 16.691406 -11.800781 16.671875 -11.5625 C 16.648438 -11.332031 16.640625 -10.914062 16.640625 -10.3125 L 16.640625 -0.875 C 16.640625 -0.289062 16.300781 0 15.625 0 L 11.078125 0 C 10.765625 0 10.550781 -0.0546875 10.4375 -0.171875 C 10.332031 -0.296875 10.28125 -0.492188 10.28125 -0.765625 L 10.28125 -10.53125 C 10.28125 -10.875 10.242188 -11.128906 10.171875 -11.296875 C 10.097656 -11.460938 9.988281 -11.65625 9.84375 -11.875 L 1.234375 -26.125 C 1.085938 -26.363281 1.0625 -26.5625 1.15625 -26.71875 C 1.257812 -26.875 1.46875 -26.953125 1.78125 -26.953125 L 7.234375 -26.953125 C 7.546875 -26.953125 7.757812 -26.90625 7.875 -26.8125 C 8 -26.71875 8.132812 -26.546875 8.28125 -26.296875 L 13.65625 -16.859375 C 13.800781 -16.617188 13.921875 -16.488281 14.015625 -16.46875 C 14.117188 -16.457031 14.226562 -16.5625 14.34375 -16.78125 L 19.65625 -26.296875 C 19.800781 -26.566406 19.9375 -26.742188 20.0625 -26.828125 C 20.195312 -26.910156 20.410156 -26.953125 20.703125 -26.953125 Z M 25.0625 -26.953125 "/></g></g></g><g fill="#d07d30" fill-opacity="1"><g transform="translate(166.492228, 35.219395)"><g/></g></g><g fill="#d07d30" fill-opacity="1"><g transform="translate(173.974498, 35.219395)"><g><path d="M 3.375 0 C 2.820312 0 2.546875 -0.289062 2.546875 -0.875 L 2.546875 -26.1875 C 2.546875 -26.476562 2.601562 -26.675781 2.71875 -26.78125 C 2.84375 -26.894531 3.050781 -26.953125 3.34375 -26.953125 C 3.875 -26.953125 4.492188 -26.953125 5.203125 -26.953125 C 5.921875 -26.953125 6.664062 -26.953125 7.4375 -26.953125 C 8.21875 -26.953125 8.957031 -26.953125 9.65625 -26.953125 C 10.363281 -26.953125 10.957031 -26.941406 11.4375 -26.921875 C 14.707031 -26.847656 17.394531 -26.253906 19.5 -25.140625 C 21.613281 -24.023438 23.171875 -22.492188 24.171875 -20.546875 C 25.179688 -18.597656 25.6875 -16.28125 25.6875 -13.59375 C 25.6875 -10.820312 25.15625 -8.414062 24.09375 -6.375 C 23.039062 -4.332031 21.441406 -2.757812 19.296875 -1.65625 C 17.160156 -0.550781 14.484375 0 11.265625 0 Z M 9.375 -4.46875 L 10.0625 -4.46875 C 12.050781 -4.46875 13.707031 -4.765625 15.03125 -5.359375 C 16.363281 -5.953125 17.363281 -6.914062 18.03125 -8.25 C 18.695312 -9.582031 19.03125 -11.347656 19.03125 -13.546875 C 19.03125 -15.679688 18.722656 -17.394531 18.109375 -18.6875 C 17.492188 -19.988281 16.550781 -20.941406 15.28125 -21.546875 C 14.007812 -22.148438 12.390625 -22.453125 10.421875 -22.453125 L 9.265625 -22.453125 C 9.023438 -22.453125 8.90625 -22.28125 8.90625 -21.9375 L 8.90625 -4.984375 C 8.90625 -4.640625 9.0625 -4.46875 9.375 -4.46875 Z M 9.375 -4.46875 "/></g></g></g><g fill="#d07d30" fill-opacity="1"><g transform="translate(201.25212, 35.219395)"><g><path d="M 8.3125 -26.953125 C 8.707031 -26.953125 8.90625 -26.734375 8.90625 -26.296875 L 8.90625 -0.875 C 8.90625 -0.5625 8.820312 -0.335938 8.65625 -0.203125 C 8.5 -0.0664062 8.253906 0 7.921875 0 L 3.34375 0 C 3.03125 0 2.816406 -0.0546875 2.703125 -0.171875 C 2.597656 -0.296875 2.546875 -0.492188 2.546875 -0.765625 L 2.546875 -26.265625 C 2.546875 -26.722656 2.738281 -26.953125 3.125 -26.953125 Z M 8.3125 -26.953125 "/></g></g></g><g fill="#d07d30" fill-opacity="1"><g transform="translate(212.693468, 35.219395)"><g><path d="M 18.015625 -20.59375 C 17.484375 -21.175781 16.820312 -21.695312 16.03125 -22.15625 C 15.25 -22.613281 14.128906 -22.84375 12.671875 -22.84375 C 11.148438 -22.84375 10.015625 -22.570312 9.265625 -22.03125 C 8.515625 -21.488281 8.140625 -20.789062 8.140625 -19.9375 C 8.140625 -19.65625 8.210938 -19.34375 8.359375 -19 C 8.503906 -18.65625 8.789062 -18.328125 9.21875 -18.015625 C 9.65625 -17.703125 10.273438 -17.425781 11.078125 -17.1875 L 16.8125 -15.546875 C 19.039062 -14.941406 20.664062 -13.96875 21.6875 -12.625 C 22.707031 -11.28125 23.21875 -9.722656 23.21875 -7.953125 C 23.21875 -6.253906 22.78125 -4.78125 21.90625 -3.53125 C 21.03125 -2.289062 19.78125 -1.332031 18.15625 -0.65625 C 16.539062 0.0195312 14.617188 0.359375 12.390625 0.359375 C 10.742188 0.359375 9.195312 0.171875 7.75 -0.203125 C 6.3125 -0.578125 5.039062 -1.117188 3.9375 -1.828125 C 2.832031 -2.546875 1.96875 -3.378906 1.34375 -4.328125 C 1.21875 -4.566406 1.164062 -4.765625 1.1875 -4.921875 C 1.21875 -5.078125 1.34375 -5.238281 1.5625 -5.40625 L 4.359375 -7.34375 C 4.648438 -7.507812 4.882812 -7.578125 5.0625 -7.546875 C 5.25 -7.523438 5.414062 -7.429688 5.5625 -7.265625 C 6.144531 -6.535156 6.71875 -5.925781 7.28125 -5.4375 C 7.851562 -4.957031 8.515625 -4.609375 9.265625 -4.390625 C 10.015625 -4.171875 10.910156 -4.0625 11.953125 -4.0625 C 13.523438 -4.0625 14.78125 -4.3125 15.71875 -4.8125 C 16.664062 -5.3125 17.140625 -6.082031 17.140625 -7.125 C 17.140625 -7.53125 17.039062 -7.910156 16.84375 -8.265625 C 16.65625 -8.617188 16.347656 -8.929688 15.921875 -9.203125 C 15.503906 -9.484375 14.90625 -9.742188 14.125 -9.984375 L 8.640625 -11.546875 C 7.210938 -11.960938 6.015625 -12.546875 5.046875 -13.296875 C 4.078125 -14.046875 3.34375 -14.925781 2.84375 -15.9375 C 2.351562 -16.957031 2.109375 -18.023438 2.109375 -19.140625 C 2.109375 -20.691406 2.535156 -22.082031 3.390625 -23.3125 C 4.253906 -24.550781 5.46875 -25.523438 7.03125 -26.234375 C 8.59375 -26.953125 10.414062 -27.3125 12.5 -27.3125 C 13.875 -27.3125 15.160156 -27.15625 16.359375 -26.84375 C 17.554688 -26.53125 18.640625 -26.09375 19.609375 -25.53125 C 20.578125 -24.976562 21.367188 -24.300781 21.984375 -23.5 C 22.078125 -23.382812 22.144531 -23.242188 22.1875 -23.078125 C 22.238281 -22.921875 22.171875 -22.757812 21.984375 -22.59375 L 18.921875 -20.34375 C 18.773438 -20.25 18.640625 -20.21875 18.515625 -20.25 C 18.398438 -20.289062 18.234375 -20.40625 18.015625 -20.59375 Z M 18.015625 -20.59375 "/></g></g></g><g fill="#d07d30" fill-opacity="1"><g transform="translate(236.411564, 35.219395)"><g><path d="M 1.203125 -26.296875 C 1.203125 -26.492188 1.257812 -26.648438 1.375 -26.765625 C 1.5 -26.890625 1.679688 -26.953125 1.921875 -26.953125 L 22.78125 -26.953125 C 23.039062 -26.953125 23.222656 -26.890625 23.328125 -26.765625 C 23.441406 -26.648438 23.5 -26.492188 23.5 -26.296875 L 23.5 -22.921875 C 23.5 -22.554688 23.28125 -22.375 22.84375 -22.375 L 16.0625 -22.375 C 15.789062 -22.375 15.65625 -22.253906 15.65625 -22.015625 L 15.65625 -0.6875 C 15.65625 -0.226562 15.453125 0 15.046875 0 L 9.84375 0 C 9.476562 0 9.296875 -0.207031 9.296875 -0.625 L 9.296875 -21.90625 C 9.296875 -22.21875 9.164062 -22.375 8.90625 -22.375 L 1.890625 -22.375 C 1.429688 -22.375 1.203125 -22.554688 1.203125 -22.921875 Z M 1.203125 -26.296875 "/></g></g></g><g fill="#d07d30" fill-opacity="1"><g transform="translate(261.14667, 35.219395)"><g><path d="M 24.40625 -0.984375 C 24.507812 -0.710938 24.503906 -0.476562 24.390625 -0.28125 C 24.285156 -0.09375 24.113281 0 23.875 0 L 18.53125 0 C 18.113281 0 17.847656 -0.21875 17.734375 -0.65625 L 13.796875 -10.828125 C 13.660156 -11.160156 13.320312 -11.328125 12.78125 -11.328125 L 9.34375 -11.328125 C 9.164062 -11.328125 9.046875 -11.28125 8.984375 -11.1875 C 8.929688 -11.09375 8.90625 -11.007812 8.90625 -10.9375 L 8.90625 -0.875 C 8.90625 -0.289062 8.578125 0 7.921875 0 L 3.3125 0 C 3.019531 0 2.816406 -0.0546875 2.703125 -0.171875 C 2.597656 -0.296875 2.546875 -0.476562 2.546875 -0.71875 L 2.546875 -26.265625 C 2.546875 -26.722656 2.738281 -26.953125 3.125 -26.953125 L 14.453125 -26.953125 C 17.703125 -26.953125 20.226562 -26.3125 22.03125 -25.03125 C 23.832031 -23.75 24.734375 -21.921875 24.734375 -19.546875 C 24.734375 -18.304688 24.503906 -17.203125 24.046875 -16.234375 C 23.585938 -15.265625 22.984375 -14.457031 22.234375 -13.8125 C 21.484375 -13.175781 20.660156 -12.703125 19.765625 -12.390625 C 19.546875 -12.316406 19.492188 -12.132812 19.609375 -11.84375 Z M 13.875 -15.625 C 15.257812 -15.625 16.316406 -15.921875 17.046875 -16.515625 C 17.785156 -17.109375 18.15625 -17.972656 18.15625 -19.109375 C 18.15625 -20.296875 17.78125 -21.191406 17.03125 -21.796875 C 16.28125 -22.398438 15.289062 -22.703125 14.0625 -22.703125 L 9.59375 -22.703125 C 9.132812 -22.703125 8.90625 -22.5 8.90625 -22.09375 L 8.90625 -16.234375 C 8.90625 -15.828125 9.070312 -15.625 9.40625 -15.625 Z M 13.875 -15.625 "/></g></g></g><g fill="#d07d30" fill-opacity="1"><g transform="translate(287.370967, 35.219395)"><g><path d="M 8.3125 -26.953125 C 8.707031 -26.953125 8.90625 -26.734375 8.90625 -26.296875 L 8.90625 -0.875 C 8.90625 -0.5625 8.820312 -0.335938 8.65625 -0.203125 C 8.5 -0.0664062 8.253906 0 7.921875 0 L 3.34375 0 C 3.03125 0 2.816406 -0.0546875 2.703125 -0.171875 C 2.597656 -0.296875 2.546875 -0.492188 2.546875 -0.765625 L 2.546875 -26.265625 C 2.546875 -26.722656 2.738281 -26.953125 3.125 -26.953125 Z M 8.3125 -26.953125 "/></g></g></g><g fill="#d07d30" fill-opacity="1"><g transform="translate(298.812315, 35.219395)"><g><path d="M 13.875 -27.3125 C 15.28125 -27.3125 16.59375 -27.113281 17.8125 -26.71875 C 19.039062 -26.320312 20.140625 -25.757812 21.109375 -25.03125 C 22.078125 -24.300781 22.867188 -23.453125 23.484375 -22.484375 C 24.097656 -21.515625 24.503906 -20.460938 24.703125 -19.328125 C 24.796875 -18.941406 24.8125 -18.6875 24.75 -18.5625 C 24.695312 -18.4375 24.5625 -18.363281 24.34375 -18.34375 L 19.4375 -18.015625 C 19.21875 -18.015625 19.078125 -18.054688 19.015625 -18.140625 C 18.953125 -18.222656 18.898438 -18.363281 18.859375 -18.5625 C 18.585938 -19.820312 18.0625 -20.859375 17.28125 -21.671875 C 16.507812 -22.484375 15.4375 -22.890625 14.0625 -22.890625 C 12.238281 -22.890625 10.8125 -22.15625 9.78125 -20.6875 C 8.757812 -19.21875 8.25 -16.851562 8.25 -13.59375 C 8.25 -10.34375 8.738281 -7.984375 9.71875 -6.515625 C 10.695312 -5.054688 12.164062 -4.328125 14.125 -4.328125 C 15.53125 -4.328125 16.742188 -4.675781 17.765625 -5.375 C 18.785156 -6.082031 19.617188 -7.28125 20.265625 -8.96875 C 20.367188 -9.1875 20.632812 -9.257812 21.0625 -9.1875 L 24.625 -8.421875 C 24.75 -8.398438 24.859375 -8.332031 24.953125 -8.21875 C 25.054688 -8.113281 25.082031 -7.878906 25.03125 -7.515625 C 24.90625 -7.003906 24.664062 -6.410156 24.3125 -5.734375 C 23.96875 -5.054688 23.503906 -4.359375 22.921875 -3.640625 C 22.335938 -2.929688 21.613281 -2.273438 20.75 -1.671875 C 19.894531 -1.066406 18.898438 -0.578125 17.765625 -0.203125 C 16.628906 0.171875 15.332031 0.359375 13.875 0.359375 C 11.382812 0.359375 9.210938 -0.234375 7.359375 -1.421875 C 5.503906 -2.609375 4.078125 -4.253906 3.078125 -6.359375 C 2.085938 -8.460938 1.59375 -10.910156 1.59375 -13.703125 C 1.59375 -16.503906 2.085938 -18.914062 3.078125 -20.9375 C 4.078125 -22.957031 5.492188 -24.523438 7.328125 -25.640625 C 9.171875 -26.753906 11.351562 -27.3125 13.875 -27.3125 Z M 13.875 -27.3125 "/></g></g></g><g fill="#d07d30" fill-opacity="1"><g transform="translate(324.27386, 35.219395)"><g><path d="M 1.203125 -26.296875 C 1.203125 -26.492188 1.257812 -26.648438 1.375 -26.765625 C 1.5 -26.890625 1.679688 -26.953125 1.921875 -26.953125 L 22.78125 -26.953125 C 23.039062 -26.953125 23.222656 -26.890625 23.328125 -26.765625 C 23.441406 -26.648438 23.5 -26.492188 23.5 -26.296875 L 23.5 -22.921875 C 23.5 -22.554688 23.28125 -22.375 22.84375 -22.375 L 16.0625 -22.375 C 15.789062 -22.375 15.65625 -22.253906 15.65625 -22.015625 L 15.65625 -0.6875 C 15.65625 -0.226562 15.453125 0 15.046875 0 L 9.84375 0 C 9.476562 0 9.296875 -0.207031 9.296875 -0.625 L 9.296875 -21.90625 C 9.296875 -22.21875 9.164062 -22.375 8.90625 -22.375 L 1.890625 -22.375 C 1.429688 -22.375 1.203125 -22.554688 1.203125 -22.921875 Z M 1.203125 -26.296875 "/></g></g></g></g></g><g clip-path="url(#c85f947fda)"><path stroke-linecap="butt" transform="matrix(0.39171, 0, 0, 0.39171, 4.991042, 58.38023)" fill="none" stroke-linejoin="miter" d="M 0.00292335 11.504665 L 246.598174 11.504665 " stroke="#d07d30" stroke-width="23" stroke-opacity="1" stroke-miterlimit="4"/></g><path stroke-linecap="butt" transform="matrix(0.39171, 0, 0, 0.39171, 254.784324, 58.439191)" fill="none" stroke-linejoin="miter" d="M 0.00212488 11.503728 L 246.397929 11.503728 " stroke="#d07d30" stroke-width="23" stroke-opacity="1" stroke-miterlimit="4"/><path stroke-linecap="butt" transform="matrix(0, 0.39171, -0.39171, 0, 263.754381, 45.994772)" fill="none" stroke-linejoin="miter" d="M 0.00337537 11.499284 L 54.721433 11.499284 " stroke="#d07d30" stroke-width="23" stroke-opacity="1" stroke-miterlimit="4"/><path stroke-linecap="butt" transform="matrix(0, 0.39171, -0.39171, 0, 101.585928, 45.963176)" fill="none" stroke-linejoin="miter" d="M 0.00425868 11.498049 L 54.642538 11.498049 " stroke="#d07d30" stroke-width="23" stroke-opacity="1" stroke-miterlimit="4"/><path stroke-linecap="butt" transform="matrix(0, 0.39171, -0.39171, 0, 351.323818, 58.538464)" fill="none" stroke-linejoin="miter" d="M 0.001527 11.49705 L 77.915175 11.49705 " stroke="#d07d30" stroke-width="23" stroke-opacity="1" stroke-miterlimit="4"/><path stroke-linecap="butt" transform="matrix(0.39171, 0, 0, 0.39171, 86.849241, 41.49002)" fill="none" stroke-linejoin="miter" d="M -0.00404455 11.503606 L 466.141555 11.503606 " stroke="#d07d30" stroke-width="23" stroke-opacity="1" stroke-miterlimit="4"/><g clip-path="url(#1584509954)"><g clip-path="url(#0496783a51)"><g transform="matrix(1, 0, 0, 1, 167, 62)"><g clip-path="url(#105649d43c)"><g clip-path="url(#9613ed4a37)"><g clip-path="url(#23ed6e8154)"><path fill="#d07d30" d="M 0.851562 0.945312 L 20.148438 0.945312 L 20.148438 20.242188 L 0.851562 20.242188 Z M 0.851562 0.945312 " fill-opacity="1" fill-rule="nonzero"/></g></g></g></g></g></g><path stroke-linecap="butt" transform="matrix(0, 0.39171, -0.39171, 0, 13.959209, 58.382222)" fill="none" stroke-linejoin="miter" d="M 0.00150757 11.503631 L 75.402134 11.503631 " stroke="#d07d30" stroke-width="23" stroke-opacity="1" stroke-miterlimit="4"/><g clip-path="url(#0a07c25c23)"><g clip-path="url(#a29cc108dc)"><g transform="matrix(1, 0, 0, 1, 87, 18)"><g clip-path="url(#afad669f5c)"><g clip-path="url(#1f560f9d5d)"><g clip-path="url(#4789877eff)"><g clip-path="url(#b0bc20c1a0)"><path fill="#d07d30" d="M 2.640625 65.894531 C 57.574219 20.285156 140.554688 29.296875 187.621094 85.984375 C 187.925781 86.355469 188.148438 86.765625 188.289062 87.222656 C 188.429688 87.679688 188.480469 88.148438 188.433594 88.625 C 188.390625 89.101562 188.257812 89.550781 188.035156 89.976562 C 187.8125 90.398438 187.515625 90.761719 187.148438 91.070312 C 186.777344 91.375 186.367188 91.597656 185.90625 91.742188 C 185.449219 91.882812 184.984375 91.929688 184.507812 91.886719 C 184.03125 91.84375 183.582031 91.707031 183.15625 91.484375 C 182.734375 91.261719 182.367188 90.96875 182.0625 90.597656 C 137.542969 36.972656 59.125 28.386719 7.253906 71.453125 C 6.886719 71.757812 6.472656 71.980469 6.015625 72.121094 C 5.558594 72.265625 5.089844 72.3125 4.613281 72.269531 C 4.136719 72.226562 3.6875 72.089844 3.265625 71.867188 C 2.839844 71.644531 2.476562 71.347656 2.167969 70.980469 C 1.863281 70.613281 1.640625 70.199219 1.5 69.742188 C 1.355469 69.285156 1.308594 68.816406 1.351562 68.339844 C 1.398438 67.863281 1.53125 67.414062 1.753906 66.988281 C 1.976562 66.566406 2.273438 66.199219 2.640625 65.894531 Z M 2.640625 65.894531 " fill-opacity="1" fill-rule="nonzero"/></g></g></g></g></g></g></g><g clip-path="url(#531340b6bf)"><g clip-path="url(#a50025bb07)"><g transform="matrix(1, 0, 0, 1, 171, 18)"><g clip-path="url(#92bef28f80)"><g clip-path="url(#c0d89a81c7)"><g clip-path="url(#3b43f03a9f)"><g clip-path="url(#296b27f9fd)"><path fill="#d07d30" d="M 95.664062 65.894531 C 40.730469 20.285156 -42.25 29.296875 -89.3125 85.984375 C -89.621094 86.355469 -89.84375 86.765625 -89.984375 87.222656 C -90.125 87.679688 -90.175781 88.148438 -90.128906 88.625 C -90.085938 89.101562 -89.953125 89.550781 -89.726562 89.976562 C -89.503906 90.398438 -89.210938 90.761719 -88.839844 91.070312 C -88.472656 91.375 -88.058594 91.597656 -87.601562 91.742188 C -87.144531 91.882812 -86.679688 91.929688 -86.203125 91.886719 C -85.726562 91.84375 -85.273438 91.707031 -84.851562 91.484375 C -84.425781 91.261719 -84.0625 90.96875 -83.757812 90.597656 C -39.238281 36.972656 39.179688 28.386719 91.050781 71.453125 C 91.417969 71.757812 91.832031 71.980469 92.289062 72.121094 C 92.746094 72.265625 93.214844 72.3125 93.691406 72.269531 C 94.167969 72.226562 94.617188 72.089844 95.042969 71.867188 C 95.464844 71.644531 95.828125 71.347656 96.136719 70.980469 C 96.441406 70.613281 96.664062 70.199219 96.808594 69.742188 C 96.949219 69.285156 96.996094 68.816406 96.953125 68.339844 C 96.910156 67.863281 96.773438 67.414062 96.550781 66.988281 C 96.328125 66.566406 96.03125 66.199219 95.664062 65.894531 Z M 95.664062 65.894531 " fill-opacity="1" fill-rule="nonzero"/></g></g></g></g></g></g></g></g></g></svg>