<svg xmlns="http://www.w3.org/2000/svg" xmlns:xlink="http://www.w3.org/1999/xlink" width="500" zoomAndPan="magnify" viewBox="0 0 375 374.999991" height="500" preserveAspectRatio="xMidYMid meet" version="1.0"><defs><g/><clipPath id="c252172998"><rect x="0" width="352" y="0" height="72"/></clipPath><clipPath id="26b21eb930"><rect x="0" width="347" y="0" height="44"/></clipPath><clipPath id="f51f0d0381"><path d="M 0.519531 57 L 106 57 L 106 67 L 0.519531 67 Z M 0.519531 57 " clip-rule="nonzero"/></clipPath><clipPath id="929be62b30"><path d="M 248 57 L 353.558594 57 L 353.558594 67 L 248 67 Z M 248 57 " clip-rule="nonzero"/></clipPath><clipPath id="45b2f43199"><path d="M 166.929688 62.269531 L 186.070312 62.269531 L 186.070312 81.414062 L 166.929688 81.414062 Z M 166.929688 62.269531 " clip-rule="nonzero"/></clipPath><clipPath id="b6e5ed4827"><path d="M 176.5 62.269531 C 171.214844 62.269531 166.929688 66.554688 166.929688 71.839844 C 166.929688 77.128906 171.214844 81.414062 176.5 81.414062 C 181.785156 81.414062 186.070312 77.128906 186.070312 71.839844 C 186.070312 66.554688 181.785156 62.269531 176.5 62.269531 Z M 176.5 62.269531 " clip-rule="nonzero"/></clipPath><clipPath id="9948c894bb"><path d="M 0.929688 0.269531 L 20.070312 0.269531 L 20.070312 19.414062 L 0.929688 19.414062 Z M 0.929688 0.269531 " clip-rule="nonzero"/></clipPath><clipPath id="121f2505ed"><path d="M 10.5 0.269531 C 5.214844 0.269531 0.929688 4.554688 0.929688 9.839844 C 0.929688 15.128906 5.214844 19.414062 10.5 19.414062 C 15.785156 19.414062 20.070312 15.128906 20.070312 9.839844 C 20.070312 4.554688 15.785156 0.269531 10.5 0.269531 Z M 10.5 0.269531 " clip-rule="nonzero"/></clipPath><clipPath id="6ed39b72dc"><rect x="0" width="21" y="0" height="20"/></clipPath><clipPath id="aea40c63d9"><path d="M 86 18 L 185 18 L 185 106 L 86 106 Z M 86 18 " clip-rule="nonzero"/></clipPath><clipPath id="c7c3159f27"><path d="M 184.328125 39.195312 L 103.90625 105.960938 L 86.78125 85.332031 L 167.203125 18.566406 Z M 184.328125 39.195312 " clip-rule="nonzero"/></clipPath><clipPath id="04f5366b7e"><path d="M 2 36 L 98.359375 36 L 98.359375 88 L 2 88 Z M 2 36 " clip-rule="nonzero"/></clipPath><clipPath id="9275d8b71d"><path d="M 98.328125 21.195312 L 17.90625 87.960938 L 0.78125 67.332031 L 81.203125 0.566406 Z M 98.328125 21.195312 " clip-rule="nonzero"/></clipPath><clipPath id="86f09c2249"><path d="M 102.179688 -17.003906 L 0.53125 67.386719 L 87.40625 172.027344 L 189.054688 87.636719 Z M 102.179688 -17.003906 " clip-rule="nonzero"/></clipPath><clipPath id="56f54a0662"><rect x="0" width="99" y="0" height="88"/></clipPath><clipPath id="5d35f46a48"><path d="M 170 18 L 268 18 L 268 107 L 170 107 Z M 170 18 " clip-rule="nonzero"/></clipPath><clipPath id="68eee98b72"><path d="M 250.511719 106.0625 L 170.089844 39.296875 L 187.214844 18.667969 L 267.636719 85.433594 Z M 250.511719 106.0625 " clip-rule="nonzero"/></clipPath><clipPath id="916548a1c6"><path d="M 0 36 L 97 36 L 97 88.121094 L 0 88.121094 Z M 0 36 " clip-rule="nonzero"/></clipPath><clipPath id="4dc0e75e11"><path d="M 80.511719 88.0625 L 0.0898438 21.296875 L 17.214844 0.667969 L 97.636719 67.433594 Z M 80.511719 88.0625 " clip-rule="nonzero"/></clipPath><clipPath id="7453ebd89f"><path d="M -3.886719 -17.003906 L 97.761719 67.386719 L 10.890625 172.027344 L -90.757812 87.636719 Z M -3.886719 -17.003906 " clip-rule="nonzero"/></clipPath><clipPath id="e56b500cec"><rect x="0" width="98" y="0" height="89"/></clipPath><clipPath id="f991194f7f"><rect x="0" width="354" y="0" height="191"/></clipPath></defs><g transform="matrix(1, 0, 0, 1, 11, 71)"><g clip-path="url(#f991194f7f)"><g transform="matrix(1, 0, 0, 1, 1, 84)"><g clip-path="url(#c252172998)"><g fill="#d9c66f" fill-opacity="1"><g transform="translate(0.670503, 57.098528)"><g><path d="M 5.203125 0 C 4.847656 0 4.570312 -0.09375 4.375 -0.28125 C 4.1875 -0.476562 4.09375 -0.734375 4.09375 -1.046875 L 4.09375 -42.125 C 4.09375 -42.46875 4.195312 -42.753906 4.40625 -42.984375 C 4.625 -43.222656 4.910156 -43.34375 5.265625 -43.34375 L 21.09375 -43.34375 C 26.8125 -43.34375 31.179688 -42.378906 34.203125 -40.453125 C 37.222656 -38.523438 38.734375 -35.691406 38.734375 -31.953125 C 38.734375 -29.816406 38.15625 -28.003906 37 -26.515625 C 35.851562 -25.035156 33.878906 -23.695312 31.078125 -22.5 C 30.960938 -22.457031 30.90625 -22.375 30.90625 -22.25 C 30.90625 -22.132812 30.960938 -22.0625 31.078125 -22.03125 C 34.160156 -21.007812 36.378906 -19.691406 37.734375 -18.078125 C 39.097656 -16.460938 39.78125 -14.351562 39.78125 -11.75 C 39.78125 -7.769531 38.28125 -4.816406 35.28125 -2.890625 C 32.28125 -0.960938 27.800781 0 21.84375 0 Z M 21.5625 -6.890625 C 24.09375 -6.890625 25.988281 -7.414062 27.25 -8.46875 C 28.519531 -9.519531 29.15625 -10.921875 29.15625 -12.671875 C 29.15625 -13.921875 28.84375 -14.960938 28.21875 -15.796875 C 27.59375 -16.640625 26.742188 -17.273438 25.671875 -17.703125 C 24.597656 -18.128906 23.363281 -18.34375 21.96875 -18.34375 L 15.421875 -18.34375 C 14.679688 -18.34375 14.3125 -18.007812 14.3125 -17.34375 L 14.3125 -8 C 14.3125 -7.257812 14.582031 -6.890625 15.125 -6.890625 Z M 21.96875 -25.46875 C 22.863281 -25.46875 23.707031 -25.566406 24.5 -25.765625 C 25.300781 -25.960938 26.003906 -26.289062 26.609375 -26.75 C 27.210938 -27.21875 27.695312 -27.78125 28.0625 -28.4375 C 28.4375 -29.101562 28.625 -29.882812 28.625 -30.78125 C 28.625 -32.613281 27.953125 -34.015625 26.609375 -34.984375 C 25.265625 -35.960938 23.539062 -36.453125 21.4375 -36.453125 L 15.421875 -36.453125 C 14.679688 -36.453125 14.3125 -36.125 14.3125 -35.46875 L 14.3125 -26.53125 C 14.3125 -25.820312 14.582031 -25.46875 15.125 -25.46875 Z M 21.96875 -25.46875 "/></g></g></g><g fill="#d9c66f" fill-opacity="1"><g transform="translate(42.907706, 57.098528)"><g><path d="M 4.09375 -42.234375 C 4.09375 -42.972656 4.40625 -43.34375 5.03125 -43.34375 L 34.46875 -43.34375 C 35.050781 -43.34375 35.34375 -43.015625 35.34375 -42.359375 L 35.34375 -37.09375 C 35.34375 -36.28125 34.9375 -35.875 34.125 -35.875 L 15.421875 -35.875 C 14.679688 -35.875 14.3125 -35.5625 14.3125 -34.9375 L 14.3125 -26.46875 C 14.3125 -25.800781 14.601562 -25.46875 15.1875 -25.46875 L 27.578125 -25.46875 C 28.234375 -25.46875 28.5625 -25.15625 28.5625 -24.53125 L 28.5625 -18.921875 C 28.5625 -18.691406 28.492188 -18.5 28.359375 -18.34375 C 28.222656 -18.1875 27.984375 -18.109375 27.640625 -18.109375 L 15.125 -18.109375 C 14.582031 -18.109375 14.3125 -17.875 14.3125 -17.40625 L 14.3125 -8.234375 C 14.3125 -7.734375 14.523438 -7.484375 14.953125 -7.484375 L 34.9375 -7.484375 C 35.632812 -7.484375 35.984375 -7.191406 35.984375 -6.609375 L 35.984375 -1.046875 C 35.984375 -0.734375 35.894531 -0.476562 35.71875 -0.28125 C 35.550781 -0.09375 35.25 0 34.8125 0 L 5.375 0 C 4.519531 0 4.09375 -0.410156 4.09375 -1.234375 Z M 4.09375 -42.234375 "/></g></g></g><g fill="#d9c66f" fill-opacity="1"><g transform="translate(81.113968, 57.098528)"><g><path d="M 2.796875 0 C 2.453125 0 2.203125 -0.15625 2.046875 -0.46875 C 1.890625 -0.78125 1.890625 -1.1875 2.046875 -1.6875 L 16.59375 -42.1875 C 16.75 -42.613281 16.921875 -42.910156 17.109375 -43.078125 C 17.304688 -43.253906 17.640625 -43.34375 18.109375 -43.34375 L 26.875 -43.34375 C 27.726562 -43.34375 28.3125 -42.914062 28.625 -42.0625 L 43.0625 -1.578125 C 43.175781 -1.265625 43.171875 -0.921875 43.046875 -0.546875 C 42.929688 -0.179688 42.703125 0 42.359375 0 L 33.765625 0 C 33.179688 0 32.8125 -0.269531 32.65625 -0.8125 L 29.625 -9.34375 C 29.582031 -9.539062 29.507812 -9.695312 29.40625 -9.8125 C 29.3125 -9.925781 29.128906 -9.984375 28.859375 -9.984375 L 14.609375 -9.984375 C 14.210938 -9.984375 13.957031 -9.789062 13.84375 -9.40625 L 10.75 -0.765625 C 10.664062 -0.523438 10.535156 -0.335938 10.359375 -0.203125 C 10.191406 -0.0664062 9.910156 0 9.515625 0 Z M 26.46875 -17.765625 C 27.007812 -17.765625 27.179688 -18.09375 26.984375 -18.75 L 22.078125 -32.421875 C 21.960938 -32.660156 21.835938 -32.78125 21.703125 -32.78125 C 21.566406 -32.78125 21.441406 -32.640625 21.328125 -32.359375 L 16.359375 -18.75 C 16.085938 -18.09375 16.265625 -17.765625 16.890625 -17.765625 Z M 26.46875 -17.765625 "/></g></g></g><g fill="#d9c66f" fill-opacity="1"><g transform="translate(123.409261, 57.098528)"><g><path d="M 38.5 -16.0625 C 38.5 -11.976562 37.796875 -8.707031 36.390625 -6.25 C 34.992188 -3.800781 32.988281 -2.050781 30.375 -1 C 27.769531 0.0507812 24.65625 0.578125 21.03125 0.578125 C 16.78125 0.578125 13.378906 -0.09375 10.828125 -1.4375 C 8.285156 -2.78125 6.4375 -4.765625 5.28125 -7.390625 C 4.132812 -10.015625 3.5625 -13.257812 3.5625 -17.125 L 3.5625 -42.1875 C 3.5625 -42.957031 3.875 -43.34375 4.5 -43.34375 L 12.90625 -43.34375 C 13.488281 -43.34375 13.78125 -42.992188 13.78125 -42.296875 L 13.78125 -15.828125 C 13.78125 -12.640625 14.472656 -10.320312 15.859375 -8.875 C 17.242188 -7.4375 19.222656 -6.71875 21.796875 -6.71875 C 23.429688 -6.71875 24.867188 -7.019531 26.109375 -7.625 C 27.359375 -8.226562 28.332031 -9.210938 29.03125 -10.578125 C 29.738281 -11.941406 30.09375 -13.75 30.09375 -16 L 30.09375 -42.234375 C 30.09375 -42.972656 30.382812 -43.34375 30.96875 -43.34375 L 37.625 -43.34375 C 38.207031 -43.34375 38.5 -42.992188 38.5 -42.296875 Z M 38.5 -16.0625 "/></g></g></g><g fill="#d9c66f" fill-opacity="1"><g transform="translate(165.529623, 57.098528)"><g><path d="M 5.3125 0 C 4.5 0 4.09375 -0.445312 4.09375 -1.34375 L 4.09375 -42.234375 C 4.09375 -42.972656 4.421875 -43.34375 5.078125 -43.34375 L 17.171875 -43.34375 C 17.597656 -43.34375 17.910156 -43.285156 18.109375 -43.171875 C 18.304688 -43.054688 18.460938 -42.820312 18.578125 -42.46875 L 27.40625 -18 C 27.519531 -17.644531 27.65625 -17.476562 27.8125 -17.5 C 27.96875 -17.519531 28.101562 -17.6875 28.21875 -18 L 36.625 -42 C 36.863281 -42.894531 37.296875 -43.34375 37.921875 -43.34375 L 50.46875 -43.34375 C 51.0625 -43.34375 51.359375 -42.992188 51.359375 -42.296875 L 51.359375 -1.40625 C 51.359375 -0.46875 50.867188 0 49.890625 0 L 42.359375 0 C 41.890625 0 41.566406 -0.09375 41.390625 -0.28125 C 41.210938 -0.476562 41.125 -0.773438 41.125 -1.171875 L 41.125 -30.265625 C 41.125 -30.535156 41.054688 -30.660156 40.921875 -30.640625 C 40.785156 -30.617188 40.679688 -30.472656 40.609375 -30.203125 L 30.375 -0.9375 C 30.144531 -0.3125 29.738281 0 29.15625 0 L 24.296875 0 C 23.640625 0 23.210938 -0.3125 23.015625 -0.9375 L 12.90625 -29.796875 C 12.789062 -30.148438 12.664062 -30.304688 12.53125 -30.265625 C 12.394531 -30.222656 12.328125 -30.046875 12.328125 -29.734375 L 12.328125 -1.046875 C 12.328125 -0.660156 12.257812 -0.390625 12.125 -0.234375 C 11.988281 -0.078125 11.707031 0 11.28125 0 Z M 5.3125 0 "/></g></g></g><g fill="#d9c66f" fill-opacity="1"><g transform="translate(220.969603, 57.098528)"><g><path d="M 22.671875 0.578125 C 18.535156 0.578125 14.96875 -0.304688 11.96875 -2.078125 C 8.976562 -3.847656 6.671875 -6.382812 5.046875 -9.6875 C 3.429688 -13 2.625 -16.9375 2.625 -21.5 C 2.625 -26.132812 3.453125 -30.125 5.109375 -33.46875 C 6.765625 -36.820312 9.09375 -39.40625 12.09375 -41.21875 C 15.09375 -43.03125 18.617188 -43.9375 22.671875 -43.9375 C 26.722656 -43.9375 30.238281 -43.03125 33.21875 -41.21875 C 36.195312 -39.40625 38.503906 -36.832031 40.140625 -33.5 C 41.773438 -30.175781 42.59375 -26.195312 42.59375 -21.5625 C 42.59375 -17 41.78125 -13.0625 40.15625 -9.75 C 38.539062 -6.445312 36.234375 -3.898438 33.234375 -2.109375 C 30.242188 -0.316406 26.722656 0.578125 22.671875 0.578125 Z M 22.671875 -6.609375 C 25.859375 -6.609375 28.191406 -7.765625 29.671875 -10.078125 C 31.148438 -12.390625 31.890625 -16.175781 31.890625 -21.4375 C 31.890625 -26.8125 31.140625 -30.71875 29.640625 -33.15625 C 28.148438 -35.59375 25.828125 -36.8125 22.671875 -36.8125 C 19.472656 -36.8125 17.113281 -35.582031 15.59375 -33.125 C 14.070312 -30.664062 13.3125 -26.769531 13.3125 -21.4375 C 13.3125 -16.21875 14.0625 -12.441406 15.5625 -10.109375 C 17.0625 -7.773438 19.429688 -6.609375 22.671875 -6.609375 Z M 22.671875 -6.609375 "/></g></g></g><g fill="#d9c66f" fill-opacity="1"><g transform="translate(266.186208, 57.098528)"><g><path d="M 39.5 -43.34375 C 40 -43.34375 40.25 -43.050781 40.25 -42.46875 L 40.25 -0.9375 C 40.25 -0.664062 40.148438 -0.441406 39.953125 -0.265625 C 39.765625 -0.0859375 39.492188 0 39.140625 0 L 33.234375 0 C 32.929688 0 32.679688 -0.0351562 32.484375 -0.109375 C 32.285156 -0.191406 32.050781 -0.390625 31.78125 -0.703125 L 13.140625 -26.875 C 12.984375 -27.070312 12.835938 -27.148438 12.703125 -27.109375 C 12.566406 -27.066406 12.5 -26.945312 12.5 -26.75 L 12.5 -1.046875 C 12.539062 -0.347656 12.148438 0 11.328125 0 L 5.265625 0 C 4.484375 0 4.09375 -0.332031 4.09375 -1 L 4.09375 -42.234375 C 4.09375 -42.972656 4.441406 -43.34375 5.140625 -43.34375 L 12.203125 -43.34375 C 12.640625 -43.34375 12.960938 -43.285156 13.171875 -43.171875 C 13.390625 -43.054688 13.632812 -42.820312 13.90625 -42.46875 L 31.078125 -18 C 31.316406 -17.6875 31.519531 -17.546875 31.6875 -17.578125 C 31.863281 -17.617188 31.953125 -17.816406 31.953125 -18.171875 L 31.953125 -42.296875 C 31.953125 -42.992188 32.304688 -43.34375 33.015625 -43.34375 Z M 39.5 -43.34375 "/></g></g></g><g fill="#d9c66f" fill-opacity="1"><g transform="translate(310.526484, 57.098528)"><g><path d="M 1.921875 -42.296875 C 1.921875 -42.609375 2.019531 -42.859375 2.21875 -43.046875 C 2.414062 -43.242188 2.707031 -43.34375 3.09375 -43.34375 L 36.625 -43.34375 C 37.050781 -43.34375 37.351562 -43.242188 37.53125 -43.046875 C 37.707031 -42.859375 37.796875 -42.609375 37.796875 -42.296875 L 37.796875 -36.859375 C 37.796875 -36.273438 37.445312 -35.984375 36.75 -35.984375 L 25.828125 -35.984375 C 25.398438 -35.984375 25.1875 -35.789062 25.1875 -35.40625 L 25.1875 -1.109375 C 25.1875 -0.367188 24.851562 0 24.1875 0 L 15.828125 0 C 15.242188 0 14.953125 -0.332031 14.953125 -1 L 14.953125 -35.234375 C 14.953125 -35.734375 14.738281 -35.984375 14.3125 -35.984375 L 3.03125 -35.984375 C 2.289062 -35.984375 1.921875 -36.273438 1.921875 -36.859375 Z M 1.921875 -42.296875 "/></g></g></g></g></g><g transform="matrix(1, 0, 0, 1, 2, 143)"><g clip-path="url(#26b21eb930)"><g fill="#d9c66f" fill-opacity="1"><g transform="translate(1.37299, 34.613365)"><g><path d="M 2.515625 -26.046875 C 2.515625 -26.503906 2.707031 -26.734375 3.09375 -26.734375 L 8.25 -26.734375 C 8.632812 -26.734375 8.828125 -26.519531 8.828125 -26.09375 L 8.828125 -5.078125 C 8.828125 -4.765625 8.957031 -4.609375 9.21875 -4.609375 L 20.71875 -4.609375 C 21.144531 -4.609375 21.359375 -4.429688 21.359375 -4.078125 L 21.359375 -0.65625 C 21.359375 -0.457031 21.304688 -0.296875 21.203125 -0.171875 C 21.097656 -0.0546875 20.925781 0 20.6875 0 L 3.3125 0 C 3 0 2.785156 -0.0546875 2.671875 -0.171875 C 2.566406 -0.296875 2.515625 -0.488281 2.515625 -0.75 Z M 2.515625 -26.046875 "/></g></g></g><g fill="#d9c66f" fill-opacity="1"><g transform="translate(23.964181, 34.613365)"><g><path d="M 8.25 -26.734375 C 8.632812 -26.734375 8.828125 -26.519531 8.828125 -26.09375 L 8.828125 -0.859375 C 8.828125 -0.546875 8.75 -0.320312 8.59375 -0.1875 C 8.4375 -0.0625 8.191406 0 7.859375 0 L 3.3125 0 C 3 0 2.785156 -0.0546875 2.671875 -0.171875 C 2.566406 -0.296875 2.515625 -0.488281 2.515625 -0.75 L 2.515625 -26.046875 C 2.515625 -26.503906 2.707031 -26.734375 3.09375 -26.734375 Z M 8.25 -26.734375 "/></g></g></g><g fill="#d9c66f" fill-opacity="1"><g transform="translate(35.313821, 34.613365)"><g><path d="M 3.203125 0 C 2.984375 0 2.8125 -0.0546875 2.6875 -0.171875 C 2.570312 -0.296875 2.515625 -0.457031 2.515625 -0.65625 L 2.515625 -25.984375 C 2.515625 -26.191406 2.582031 -26.367188 2.71875 -26.515625 C 2.851562 -26.660156 3.03125 -26.734375 3.25 -26.734375 L 13 -26.734375 C 16.53125 -26.734375 19.226562 -26.140625 21.09375 -24.953125 C 22.957031 -23.765625 23.890625 -22.015625 23.890625 -19.703125 C 23.890625 -18.390625 23.535156 -17.273438 22.828125 -16.359375 C 22.117188 -15.441406 20.898438 -14.613281 19.171875 -13.875 C 19.097656 -13.851562 19.0625 -13.804688 19.0625 -13.734375 C 19.0625 -13.660156 19.097656 -13.609375 19.171875 -13.578125 C 21.066406 -12.953125 22.429688 -12.140625 23.265625 -11.140625 C 24.109375 -10.148438 24.53125 -8.851562 24.53125 -7.25 C 24.53125 -4.789062 23.601562 -2.96875 21.75 -1.78125 C 19.90625 -0.59375 17.144531 0 13.46875 0 Z M 13.296875 -4.25 C 14.859375 -4.25 16.03125 -4.570312 16.8125 -5.21875 C 17.59375 -5.875 17.984375 -6.738281 17.984375 -7.8125 C 17.984375 -8.582031 17.789062 -9.222656 17.40625 -9.734375 C 17.019531 -10.253906 16.492188 -10.644531 15.828125 -10.90625 C 15.171875 -11.175781 14.410156 -11.3125 13.546875 -11.3125 L 9.515625 -11.3125 C 9.054688 -11.3125 8.828125 -11.109375 8.828125 -10.703125 L 8.828125 -4.9375 C 8.828125 -4.476562 8.992188 -4.25 9.328125 -4.25 Z M 13.546875 -15.703125 C 14.097656 -15.703125 14.617188 -15.757812 15.109375 -15.875 C 15.609375 -16 16.039062 -16.207031 16.40625 -16.5 C 16.78125 -16.789062 17.082031 -17.140625 17.3125 -17.546875 C 17.539062 -17.953125 17.65625 -18.429688 17.65625 -18.984375 C 17.65625 -20.117188 17.238281 -20.984375 16.40625 -21.578125 C 15.582031 -22.179688 14.519531 -22.484375 13.21875 -22.484375 L 9.515625 -22.484375 C 9.054688 -22.484375 8.828125 -22.28125 8.828125 -21.875 L 8.828125 -16.359375 C 8.828125 -15.921875 8.992188 -15.703125 9.328125 -15.703125 Z M 13.546875 -15.703125 "/></g></g></g><g fill="#d9c66f" fill-opacity="1"><g transform="translate(61.36394, 34.613365)"><g><path d="M 24.21875 -0.96875 C 24.3125 -0.707031 24.300781 -0.476562 24.1875 -0.28125 C 24.082031 -0.09375 23.910156 0 23.671875 0 L 18.375 0 C 17.96875 0 17.703125 -0.21875 17.578125 -0.65625 L 13.6875 -10.734375 C 13.539062 -11.066406 13.207031 -11.234375 12.6875 -11.234375 L 9.265625 -11.234375 C 9.085938 -11.234375 8.96875 -11.1875 8.90625 -11.09375 C 8.851562 -11 8.828125 -10.914062 8.828125 -10.84375 L 8.828125 -0.859375 C 8.828125 -0.285156 8.503906 0 7.859375 0 L 3.28125 0 C 2.988281 0 2.785156 -0.0546875 2.671875 -0.171875 C 2.566406 -0.296875 2.515625 -0.476562 2.515625 -0.71875 L 2.515625 -26.046875 C 2.515625 -26.503906 2.707031 -26.734375 3.09375 -26.734375 L 14.34375 -26.734375 C 17.5625 -26.734375 20.0625 -26.097656 21.84375 -24.828125 C 23.632812 -23.554688 24.53125 -21.742188 24.53125 -19.390625 C 24.53125 -18.160156 24.300781 -17.066406 23.84375 -16.109375 C 23.394531 -15.148438 22.796875 -14.347656 22.046875 -13.703125 C 21.304688 -13.066406 20.488281 -12.59375 19.59375 -12.28125 C 19.382812 -12.207031 19.335938 -12.03125 19.453125 -11.75 Z M 13.765625 -15.5 C 15.128906 -15.5 16.175781 -15.789062 16.90625 -16.375 C 17.644531 -16.96875 18.015625 -17.828125 18.015625 -18.953125 C 18.015625 -20.128906 17.640625 -21.015625 16.890625 -21.609375 C 16.148438 -22.210938 15.164062 -22.515625 13.9375 -22.515625 L 9.515625 -22.515625 C 9.054688 -22.515625 8.828125 -22.3125 8.828125 -21.90625 L 8.828125 -16.109375 C 8.828125 -15.703125 8.992188 -15.5 9.328125 -15.5 Z M 13.765625 -15.5 "/></g></g></g><g fill="#d9c66f" fill-opacity="1"><g transform="translate(86.405201, 34.613365)"><g><path d="M 1.734375 0 C 1.515625 0 1.351562 -0.09375 1.25 -0.28125 C 1.15625 -0.476562 1.160156 -0.734375 1.265625 -1.046875 L 10.234375 -26.015625 C 10.328125 -26.273438 10.429688 -26.457031 10.546875 -26.5625 C 10.671875 -26.675781 10.878906 -26.734375 11.171875 -26.734375 L 16.578125 -26.734375 C 17.097656 -26.734375 17.457031 -26.46875 17.65625 -25.9375 L 26.5625 -0.96875 C 26.625 -0.78125 26.617188 -0.570312 26.546875 -0.34375 C 26.484375 -0.113281 26.34375 0 26.125 0 L 20.828125 0 C 20.460938 0 20.234375 -0.164062 20.140625 -0.5 L 18.265625 -5.765625 C 18.242188 -5.878906 18.203125 -5.972656 18.140625 -6.046875 C 18.078125 -6.117188 17.960938 -6.15625 17.796875 -6.15625 L 9 -6.15625 C 8.757812 -6.15625 8.609375 -6.035156 8.546875 -5.796875 L 6.625 -0.46875 C 6.582031 -0.320312 6.503906 -0.207031 6.390625 -0.125 C 6.285156 -0.0390625 6.113281 0 5.875 0 Z M 16.328125 -10.953125 C 16.660156 -10.953125 16.765625 -11.15625 16.640625 -11.5625 L 13.625 -20 C 13.550781 -20.144531 13.472656 -20.21875 13.390625 -20.21875 C 13.304688 -20.21875 13.226562 -20.132812 13.15625 -19.96875 L 10.09375 -11.5625 C 9.925781 -11.15625 10.03125 -10.953125 10.40625 -10.953125 Z M 16.328125 -10.953125 "/></g></g></g><g fill="#d9c66f" fill-opacity="1"><g transform="translate(114.184794, 34.613365)"><g><path d="M 24.21875 -0.96875 C 24.3125 -0.707031 24.300781 -0.476562 24.1875 -0.28125 C 24.082031 -0.09375 23.910156 0 23.671875 0 L 18.375 0 C 17.96875 0 17.703125 -0.21875 17.578125 -0.65625 L 13.6875 -10.734375 C 13.539062 -11.066406 13.207031 -11.234375 12.6875 -11.234375 L 9.265625 -11.234375 C 9.085938 -11.234375 8.96875 -11.1875 8.90625 -11.09375 C 8.851562 -11 8.828125 -10.914062 8.828125 -10.84375 L 8.828125 -0.859375 C 8.828125 -0.285156 8.503906 0 7.859375 0 L 3.28125 0 C 2.988281 0 2.785156 -0.0546875 2.671875 -0.171875 C 2.566406 -0.296875 2.515625 -0.476562 2.515625 -0.71875 L 2.515625 -26.046875 C 2.515625 -26.503906 2.707031 -26.734375 3.09375 -26.734375 L 14.34375 -26.734375 C 17.5625 -26.734375 20.0625 -26.097656 21.84375 -24.828125 C 23.632812 -23.554688 24.53125 -21.742188 24.53125 -19.390625 C 24.53125 -18.160156 24.300781 -17.066406 23.84375 -16.109375 C 23.394531 -15.148438 22.796875 -14.347656 22.046875 -13.703125 C 21.304688 -13.066406 20.488281 -12.59375 19.59375 -12.28125 C 19.382812 -12.207031 19.335938 -12.03125 19.453125 -11.75 Z M 13.765625 -15.5 C 15.128906 -15.5 16.175781 -15.789062 16.90625 -16.375 C 17.644531 -16.96875 18.015625 -17.828125 18.015625 -18.953125 C 18.015625 -20.128906 17.640625 -21.015625 16.890625 -21.609375 C 16.148438 -22.210938 15.164062 -22.515625 13.9375 -22.515625 L 9.515625 -22.515625 C 9.054688 -22.515625 8.828125 -22.3125 8.828125 -21.90625 L 8.828125 -16.109375 C 8.828125 -15.703125 8.992188 -15.5 9.328125 -15.5 Z M 13.765625 -15.5 "/></g></g></g><g fill="#d9c66f" fill-opacity="1"><g transform="translate(139.081945, 34.613365)"><g><path d="M 24.859375 -26.734375 C 25.097656 -26.734375 25.253906 -26.664062 25.328125 -26.53125 C 25.398438 -26.40625 25.378906 -26.234375 25.265625 -26.015625 L 16.796875 -12.140625 C 16.648438 -11.921875 16.5625 -11.695312 16.53125 -11.46875 C 16.507812 -11.25 16.5 -10.835938 16.5 -10.234375 L 16.5 -0.859375 C 16.5 -0.285156 16.164062 0 15.5 0 L 10.984375 0 C 10.671875 0 10.460938 -0.0546875 10.359375 -0.171875 C 10.253906 -0.296875 10.203125 -0.488281 10.203125 -0.75 L 10.203125 -10.453125 C 10.203125 -10.785156 10.164062 -11.035156 10.09375 -11.203125 C 10.019531 -11.367188 9.910156 -11.5625 9.765625 -11.78125 L 1.21875 -25.90625 C 1.082031 -26.144531 1.0625 -26.34375 1.15625 -26.5 C 1.25 -26.65625 1.453125 -26.734375 1.765625 -26.734375 L 7.171875 -26.734375 C 7.484375 -26.734375 7.695312 -26.6875 7.8125 -26.59375 C 7.9375 -26.5 8.070312 -26.332031 8.21875 -26.09375 L 13.546875 -16.71875 C 13.691406 -16.476562 13.8125 -16.351562 13.90625 -16.34375 C 14 -16.332031 14.109375 -16.429688 14.234375 -16.640625 L 19.5 -26.09375 C 19.632812 -26.351562 19.769531 -26.523438 19.90625 -26.609375 C 20.039062 -26.691406 20.25 -26.734375 20.53125 -26.734375 Z M 24.859375 -26.734375 "/></g></g></g><g fill="#d9c66f" fill-opacity="1"><g transform="translate(165.564438, 34.613365)"><g/></g></g><g fill="#d9c66f" fill-opacity="1"><g transform="translate(172.986733, 34.613365)"><g><path d="M 3.34375 0 C 2.789062 0 2.515625 -0.285156 2.515625 -0.859375 L 2.515625 -25.984375 C 2.515625 -26.265625 2.570312 -26.457031 2.6875 -26.5625 C 2.8125 -26.675781 3.019531 -26.734375 3.3125 -26.734375 C 3.84375 -26.734375 4.460938 -26.734375 5.171875 -26.734375 C 5.878906 -26.734375 6.617188 -26.734375 7.390625 -26.734375 C 8.160156 -26.734375 8.890625 -26.734375 9.578125 -26.734375 C 10.273438 -26.734375 10.863281 -26.722656 11.34375 -26.703125 C 14.59375 -26.628906 17.257812 -26.039062 19.34375 -24.9375 C 21.4375 -23.832031 22.976562 -22.3125 23.96875 -20.375 C 24.96875 -18.4375 25.46875 -16.132812 25.46875 -13.46875 C 25.46875 -10.738281 24.945312 -8.359375 23.90625 -6.328125 C 22.863281 -4.296875 21.28125 -2.734375 19.15625 -1.640625 C 17.03125 -0.546875 14.367188 0 11.171875 0 Z M 9.296875 -4.4375 L 9.984375 -4.4375 C 11.953125 -4.4375 13.597656 -4.726562 14.921875 -5.3125 C 16.242188 -5.90625 17.234375 -6.859375 17.890625 -8.171875 C 18.546875 -9.492188 18.875 -11.25 18.875 -13.4375 C 18.875 -15.550781 18.566406 -17.25 17.953125 -18.53125 C 17.347656 -19.820312 16.414062 -20.765625 15.15625 -21.359375 C 13.894531 -21.960938 12.289062 -22.265625 10.34375 -22.265625 L 9.1875 -22.265625 C 8.945312 -22.265625 8.828125 -22.097656 8.828125 -21.765625 L 8.828125 -4.9375 C 8.828125 -4.601562 8.984375 -4.4375 9.296875 -4.4375 Z M 9.296875 -4.4375 "/></g></g></g><g fill="#d9c66f" fill-opacity="1"><g transform="translate(200.045711, 34.613365)"><g><path d="M 8.25 -26.734375 C 8.632812 -26.734375 8.828125 -26.519531 8.828125 -26.09375 L 8.828125 -0.859375 C 8.828125 -0.546875 8.75 -0.320312 8.59375 -0.1875 C 8.4375 -0.0625 8.191406 0 7.859375 0 L 3.3125 0 C 3 0 2.785156 -0.0546875 2.671875 -0.171875 C 2.566406 -0.296875 2.515625 -0.488281 2.515625 -0.75 L 2.515625 -26.046875 C 2.515625 -26.503906 2.707031 -26.734375 3.09375 -26.734375 Z M 8.25 -26.734375 "/></g></g></g><g fill="#d9c66f" fill-opacity="1"><g transform="translate(211.395351, 34.613365)"><g><path d="M 17.875 -20.4375 C 17.34375 -21.007812 16.6875 -21.519531 15.90625 -21.96875 C 15.125 -22.425781 14.015625 -22.65625 12.578125 -22.65625 C 11.066406 -22.65625 9.9375 -22.382812 9.1875 -21.84375 C 8.445312 -21.3125 8.078125 -20.625 8.078125 -19.78125 C 8.078125 -19.488281 8.144531 -19.175781 8.28125 -18.84375 C 8.425781 -18.507812 8.710938 -18.1875 9.140625 -17.875 C 9.578125 -17.5625 10.191406 -17.285156 10.984375 -17.046875 L 16.6875 -15.421875 C 18.894531 -14.816406 20.503906 -13.847656 21.515625 -12.515625 C 22.523438 -11.179688 23.03125 -9.640625 23.03125 -7.890625 C 23.03125 -6.210938 22.597656 -4.753906 21.734375 -3.515625 C 20.867188 -2.273438 19.628906 -1.316406 18.015625 -0.640625 C 16.398438 0.0234375 14.488281 0.359375 12.28125 0.359375 C 10.65625 0.359375 9.125 0.175781 7.6875 -0.1875 C 6.257812 -0.5625 5 -1.101562 3.90625 -1.8125 C 2.8125 -2.519531 1.953125 -3.34375 1.328125 -4.28125 C 1.210938 -4.519531 1.164062 -4.71875 1.1875 -4.875 C 1.207031 -5.03125 1.328125 -5.195312 1.546875 -5.375 L 4.328125 -7.28125 C 4.609375 -7.445312 4.835938 -7.515625 5.015625 -7.484375 C 5.203125 -7.460938 5.367188 -7.367188 5.515625 -7.203125 C 6.085938 -6.484375 6.65625 -5.882812 7.21875 -5.40625 C 7.789062 -4.925781 8.445312 -4.578125 9.1875 -4.359375 C 9.9375 -4.140625 10.828125 -4.03125 11.859375 -4.03125 C 13.421875 -4.03125 14.664062 -4.273438 15.59375 -4.765625 C 16.53125 -5.265625 17 -6.03125 17 -7.0625 C 17 -7.46875 16.90625 -7.84375 16.71875 -8.1875 C 16.53125 -8.539062 16.222656 -8.851562 15.796875 -9.125 C 15.378906 -9.40625 14.785156 -9.664062 14.015625 -9.90625 L 8.578125 -11.453125 C 7.160156 -11.867188 5.96875 -12.445312 5 -13.1875 C 4.039062 -13.925781 3.316406 -14.800781 2.828125 -15.8125 C 2.335938 -16.820312 2.09375 -17.878906 2.09375 -18.984375 C 2.09375 -20.523438 2.515625 -21.90625 3.359375 -23.125 C 4.210938 -24.351562 5.414062 -25.320312 6.96875 -26.03125 C 8.519531 -26.738281 10.328125 -27.09375 12.390625 -27.09375 C 13.765625 -27.09375 15.046875 -26.9375 16.234375 -26.625 C 17.421875 -26.3125 18.492188 -25.878906 19.453125 -25.328125 C 20.410156 -24.773438 21.191406 -24.101562 21.796875 -23.3125 C 21.890625 -23.1875 21.960938 -23.046875 22.015625 -22.890625 C 22.066406 -22.734375 21.992188 -22.570312 21.796875 -22.40625 L 18.765625 -20.171875 C 18.628906 -20.078125 18.5 -20.046875 18.375 -20.078125 C 18.257812 -20.117188 18.09375 -20.238281 17.875 -20.4375 Z M 17.875 -20.4375 "/></g></g></g><g fill="#d9c66f" fill-opacity="1"><g transform="translate(234.923335, 34.613365)"><g><path d="M 1.1875 -26.09375 C 1.1875 -26.28125 1.242188 -26.429688 1.359375 -26.546875 C 1.484375 -26.671875 1.664062 -26.734375 1.90625 -26.734375 L 22.59375 -26.734375 C 22.851562 -26.734375 23.035156 -26.671875 23.140625 -26.546875 C 23.253906 -26.429688 23.3125 -26.28125 23.3125 -26.09375 L 23.3125 -22.734375 C 23.3125 -22.367188 23.09375 -22.1875 22.65625 -22.1875 L 15.921875 -22.1875 C 15.660156 -22.1875 15.53125 -22.066406 15.53125 -21.828125 L 15.53125 -0.6875 C 15.53125 -0.226562 15.328125 0 14.921875 0 L 9.765625 0 C 9.398438 0 9.21875 -0.203125 9.21875 -0.609375 L 9.21875 -21.734375 C 9.21875 -22.035156 9.085938 -22.1875 8.828125 -22.1875 L 1.875 -22.1875 C 1.414062 -22.1875 1.1875 -22.367188 1.1875 -22.734375 Z M 1.1875 -26.09375 "/></g></g></g><g fill="#d9c66f" fill-opacity="1"><g transform="translate(259.460176, 34.613365)"><g><path d="M 24.21875 -0.96875 C 24.3125 -0.707031 24.300781 -0.476562 24.1875 -0.28125 C 24.082031 -0.09375 23.910156 0 23.671875 0 L 18.375 0 C 17.96875 0 17.703125 -0.21875 17.578125 -0.65625 L 13.6875 -10.734375 C 13.539062 -11.066406 13.207031 -11.234375 12.6875 -11.234375 L 9.265625 -11.234375 C 9.085938 -11.234375 8.96875 -11.1875 8.90625 -11.09375 C 8.851562 -11 8.828125 -10.914062 8.828125 -10.84375 L 8.828125 -0.859375 C 8.828125 -0.285156 8.503906 0 7.859375 0 L 3.28125 0 C 2.988281 0 2.785156 -0.0546875 2.671875 -0.171875 C 2.566406 -0.296875 2.515625 -0.476562 2.515625 -0.71875 L 2.515625 -26.046875 C 2.515625 -26.503906 2.707031 -26.734375 3.09375 -26.734375 L 14.34375 -26.734375 C 17.5625 -26.734375 20.0625 -26.097656 21.84375 -24.828125 C 23.632812 -23.554688 24.53125 -21.742188 24.53125 -19.390625 C 24.53125 -18.160156 24.300781 -17.066406 23.84375 -16.109375 C 23.394531 -15.148438 22.796875 -14.347656 22.046875 -13.703125 C 21.304688 -13.066406 20.488281 -12.59375 19.59375 -12.28125 C 19.382812 -12.207031 19.335938 -12.03125 19.453125 -11.75 Z M 13.765625 -15.5 C 15.128906 -15.5 16.175781 -15.789062 16.90625 -16.375 C 17.644531 -16.96875 18.015625 -17.828125 18.015625 -18.953125 C 18.015625 -20.128906 17.640625 -21.015625 16.890625 -21.609375 C 16.148438 -22.210938 15.164062 -22.515625 13.9375 -22.515625 L 9.515625 -22.515625 C 9.054688 -22.515625 8.828125 -22.3125 8.828125 -21.90625 L 8.828125 -16.109375 C 8.828125 -15.703125 8.992188 -15.5 9.328125 -15.5 Z M 13.765625 -15.5 "/></g></g></g><g fill="#d9c66f" fill-opacity="1"><g transform="translate(285.474273, 34.613365)"><g><path d="M 8.25 -26.734375 C 8.632812 -26.734375 8.828125 -26.519531 8.828125 -26.09375 L 8.828125 -0.859375 C 8.828125 -0.546875 8.75 -0.320312 8.59375 -0.1875 C 8.4375 -0.0625 8.191406 0 7.859375 0 L 3.3125 0 C 3 0 2.785156 -0.0546875 2.671875 -0.171875 C 2.566406 -0.296875 2.515625 -0.488281 2.515625 -0.75 L 2.515625 -26.046875 C 2.515625 -26.503906 2.707031 -26.734375 3.09375 -26.734375 Z M 8.25 -26.734375 "/></g></g></g><g fill="#d9c66f" fill-opacity="1"><g transform="translate(296.823912, 34.613365)"><g><path d="M 13.765625 -27.09375 C 15.160156 -27.09375 16.460938 -26.894531 17.671875 -26.5 C 18.890625 -26.101562 19.976562 -25.546875 20.9375 -24.828125 C 21.894531 -24.109375 22.679688 -23.265625 23.296875 -22.296875 C 23.910156 -21.335938 24.3125 -20.296875 24.5 -19.171875 C 24.59375 -18.785156 24.609375 -18.53125 24.546875 -18.40625 C 24.492188 -18.289062 24.359375 -18.222656 24.140625 -18.203125 L 19.28125 -17.875 C 19.0625 -17.875 18.921875 -17.914062 18.859375 -18 C 18.796875 -18.082031 18.742188 -18.21875 18.703125 -18.40625 C 18.429688 -19.65625 17.910156 -20.679688 17.140625 -21.484375 C 16.378906 -22.296875 15.3125 -22.703125 13.9375 -22.703125 C 12.132812 -22.703125 10.722656 -21.972656 9.703125 -20.515625 C 8.679688 -19.066406 8.171875 -16.71875 8.171875 -13.46875 C 8.171875 -10.25 8.65625 -7.910156 9.625 -6.453125 C 10.601562 -5.003906 12.066406 -4.28125 14.015625 -4.28125 C 15.410156 -4.28125 16.609375 -4.628906 17.609375 -5.328125 C 18.617188 -6.023438 19.453125 -7.21875 20.109375 -8.90625 C 20.203125 -9.113281 20.460938 -9.179688 20.890625 -9.109375 L 24.421875 -8.359375 C 24.546875 -8.335938 24.65625 -8.269531 24.75 -8.15625 C 24.84375 -8.050781 24.867188 -7.816406 24.828125 -7.453125 C 24.703125 -6.953125 24.460938 -6.363281 24.109375 -5.6875 C 23.765625 -5.019531 23.304688 -4.332031 22.734375 -3.625 C 22.160156 -2.914062 21.445312 -2.257812 20.59375 -1.65625 C 19.738281 -1.050781 18.742188 -0.5625 17.609375 -0.1875 C 16.484375 0.175781 15.203125 0.359375 13.765625 0.359375 C 11.285156 0.359375 9.128906 -0.226562 7.296875 -1.40625 C 5.460938 -2.582031 4.050781 -4.210938 3.0625 -6.296875 C 2.070312 -8.390625 1.578125 -10.816406 1.578125 -13.578125 C 1.578125 -16.367188 2.070312 -18.765625 3.0625 -20.765625 C 4.050781 -22.773438 5.457031 -24.332031 7.28125 -25.4375 C 9.101562 -26.539062 11.265625 -27.09375 13.765625 -27.09375 Z M 13.765625 -27.09375 "/></g></g></g><g fill="#d9c66f" fill-opacity="1"><g transform="translate(322.08137, 34.613365)"><g><path d="M 1.1875 -26.09375 C 1.1875 -26.28125 1.242188 -26.429688 1.359375 -26.546875 C 1.484375 -26.671875 1.664062 -26.734375 1.90625 -26.734375 L 22.59375 -26.734375 C 22.851562 -26.734375 23.035156 -26.671875 23.140625 -26.546875 C 23.253906 -26.429688 23.3125 -26.28125 23.3125 -26.09375 L 23.3125 -22.734375 C 23.3125 -22.367188 23.09375 -22.1875 22.65625 -22.1875 L 15.921875 -22.1875 C 15.660156 -22.1875 15.53125 -22.066406 15.53125 -21.828125 L 15.53125 -0.6875 C 15.53125 -0.226562 15.328125 0 14.921875 0 L 9.765625 0 C 9.398438 0 9.21875 -0.203125 9.21875 -0.609375 L 9.21875 -21.734375 C 9.21875 -22.035156 9.085938 -22.1875 8.828125 -22.1875 L 1.875 -22.1875 C 1.414062 -22.1875 1.1875 -22.367188 1.1875 -22.734375 Z M 1.1875 -26.09375 "/></g></g></g></g></g><g clip-path="url(#f51f0d0381)"><path stroke-linecap="butt" transform="matrix(0.38857, 0, 0, 0.38857, 5.373798, 57.74281)" fill="none" stroke-linejoin="miter" d="M 0.00309343 11.498901 L 246.600425 11.498901 " stroke="#d9c66f" stroke-width="23" stroke-opacity="1" stroke-miterlimit="4"/></g><g clip-path="url(#929be62b30)"><path stroke-linecap="butt" transform="matrix(0.38857, 0, 0, 0.38857, 253.16487, 57.801286)" fill="none" stroke-linejoin="miter" d="M -0.00207698 11.499205 L 246.40425 11.499205 " stroke="#d9c66f" stroke-width="23" stroke-opacity="1" stroke-miterlimit="4"/></g><path stroke-linecap="butt" transform="matrix(0, 0.38857, -0.38857, 0, 262.063035, 45.456623)" fill="none" stroke-linejoin="miter" d="M 0.00105128 11.501879 L 54.718918 11.501879 " stroke="#d9c66f" stroke-width="23" stroke-opacity="1" stroke-miterlimit="4"/><path stroke-linecap="butt" transform="matrix(0, 0.38857, -0.38857, 0, 101.194424, 45.425284)" fill="none" stroke-linejoin="miter" d="M 0.00128084 11.498218 L 54.638725 11.498218 " stroke="#d9c66f" stroke-width="23" stroke-opacity="1" stroke-miterlimit="4"/><path stroke-linecap="butt" transform="matrix(0, 0.38857, -0.38857, 0, 348.930578, 57.899768)" fill="none" stroke-linejoin="miter" d="M -0.0034229 11.502794 L 77.916508 11.502794 " stroke="#d9c66f" stroke-width="23" stroke-opacity="1" stroke-miterlimit="4"/><path stroke-linecap="butt" transform="matrix(0.38857, 0, 0, 0.38857, 86.575855, 40.987986)" fill="none" stroke-linejoin="miter" d="M -0.00421068 11.501263 L 466.138132 11.501263 " stroke="#d9c66f" stroke-width="23" stroke-opacity="1" stroke-miterlimit="4"/><g clip-path="url(#45b2f43199)"><g clip-path="url(#b6e5ed4827)"><g transform="matrix(1, 0, 0, 1, 166, 62)"><g clip-path="url(#6ed39b72dc)"><g clip-path="url(#9948c894bb)"><g clip-path="url(#121f2505ed)"><path fill="#d9c66f" d="M 0.929688 0.269531 L 20.070312 0.269531 L 20.070312 19.414062 L 0.929688 19.414062 Z M 0.929688 0.269531 " fill-opacity="1" fill-rule="nonzero"/></g></g></g></g></g></g><path stroke-linecap="butt" transform="matrix(0, 0.38857, -0.38857, 0, 14.270079, 57.744788)" fill="none" stroke-linejoin="miter" d="M 0.00336157 11.501914 L 75.400018 11.501914 " stroke="#d9c66f" stroke-width="23" stroke-opacity="1" stroke-miterlimit="4"/><g clip-path="url(#aea40c63d9)"><g clip-path="url(#c7c3159f27)"><g transform="matrix(1, 0, 0, 1, 86, 18)"><g clip-path="url(#56f54a0662)"><g clip-path="url(#04f5366b7e)"><g clip-path="url(#9275d8b71d)"><g clip-path="url(#86f09c2249)"><path fill="#d9c66f" d="M 3.347656 65.050781 C 57.839844 19.8125 140.152344 28.746094 186.839844 84.980469 C 187.144531 85.347656 187.367188 85.757812 187.507812 86.210938 C 187.644531 86.664062 187.695312 87.128906 187.652344 87.601562 C 187.605469 88.074219 187.472656 88.519531 187.253906 88.941406 C 187.03125 89.359375 186.738281 89.722656 186.371094 90.027344 C 186.007812 90.328125 185.597656 90.550781 185.144531 90.691406 C 184.691406 90.832031 184.226562 90.878906 183.753906 90.835938 C 183.28125 90.792969 182.835938 90.660156 182.414062 90.4375 C 181.992188 90.21875 181.632812 89.925781 181.328125 89.558594 C 137.164062 36.363281 59.375 27.847656 7.921875 70.566406 C 7.558594 70.867188 7.148438 71.089844 6.695312 71.230469 C 6.238281 71.371094 5.777344 71.417969 5.304688 71.375 C 4.832031 71.332031 4.382812 71.199219 3.964844 70.976562 C 3.542969 70.757812 3.179688 70.460938 2.878906 70.097656 C 2.574219 69.730469 2.351562 69.320312 2.210938 68.867188 C 2.070312 68.414062 2.023438 67.949219 2.066406 67.476562 C 2.109375 67.003906 2.242188 66.558594 2.464844 66.136719 C 2.6875 65.71875 2.980469 65.355469 3.347656 65.050781 Z M 3.347656 65.050781 " fill-opacity="1" fill-rule="nonzero"/></g></g></g></g></g></g></g><g clip-path="url(#5d35f46a48)"><g clip-path="url(#68eee98b72)"><g transform="matrix(1, 0, 0, 1, 170, 18)"><g clip-path="url(#e56b500cec)"><g clip-path="url(#916548a1c6)"><g clip-path="url(#4dc0e75e11)"><g clip-path="url(#7453ebd89f)"><path fill="#d9c66f" d="M 94.949219 65.050781 C 40.457031 19.8125 -41.859375 28.746094 -88.546875 84.980469 C -88.847656 85.347656 -89.070312 85.757812 -89.210938 86.210938 C -89.351562 86.664062 -89.398438 87.128906 -89.355469 87.601562 C -89.3125 88.074219 -89.179688 88.519531 -88.957031 88.941406 C -88.734375 89.359375 -88.441406 89.722656 -88.078125 90.027344 C -87.710938 90.328125 -87.300781 90.550781 -86.847656 90.691406 C -86.394531 90.832031 -85.929688 90.878906 -85.457031 90.835938 C -84.984375 90.792969 -84.539062 90.660156 -84.117188 90.4375 C -83.699219 90.21875 -83.335938 89.925781 -83.035156 89.558594 C -38.871094 36.363281 38.917969 27.847656 90.371094 70.566406 C 90.738281 70.867188 91.148438 71.089844 91.601562 71.230469 C 92.054688 71.371094 92.519531 71.417969 92.992188 71.375 C 93.464844 71.332031 93.910156 71.199219 94.332031 70.976562 C 94.753906 70.757812 95.113281 70.460938 95.417969 70.097656 C 95.722656 69.730469 95.941406 69.320312 96.082031 68.867188 C 96.222656 68.414062 96.273438 67.949219 96.226562 67.476562 C 96.183594 67.003906 96.050781 66.558594 95.828125 66.136719 C 95.609375 65.71875 95.316406 65.355469 94.949219 65.050781 Z M 94.949219 65.050781 " fill-opacity="1" fill-rule="nonzero"/></g></g></g></g></g></g></g></g></g></svg>