<svg xmlns="http://www.w3.org/2000/svg" xmlns:xlink="http://www.w3.org/1999/xlink" width="500" zoomAndPan="magnify" viewBox="0 0 375 374.999991" height="500" preserveAspectRatio="xMidYMid meet" version="1.0"><defs><g/><clipPath id="8e7636be85"><rect x="0" width="346" y="0" height="71"/></clipPath><clipPath id="23fac3c083"><rect x="0" width="342" y="0" height="44"/></clipPath><clipPath id="be369e499c"><path d="M 0.398438 57 L 104 57 L 104 67 L 0.398438 67 Z M 0.398438 57 " clip-rule="nonzero"/></clipPath><clipPath id="f2452d0dfd"><path d="M 244 57 L 347.679688 57 L 347.679688 67 L 244 67 Z M 244 57 " clip-rule="nonzero"/></clipPath><clipPath id="69db4d7ca5"><path d="M 164.082031 61.921875 L 182.917969 61.921875 L 182.917969 80.753906 L 164.082031 80.753906 Z M 164.082031 61.921875 " clip-rule="nonzero"/></clipPath><clipPath id="5af92c88d4"><path d="M 173.5 61.921875 C 168.300781 61.921875 164.082031 66.140625 164.082031 71.339844 C 164.082031 76.539062 168.300781 80.753906 173.5 80.753906 C 178.699219 80.753906 182.917969 76.539062 182.917969 71.339844 C 182.917969 66.140625 178.699219 61.921875 173.5 61.921875 Z M 173.5 61.921875 " clip-rule="nonzero"/></clipPath><clipPath id="b46133a479"><path d="M 0.0820312 0.921875 L 18.917969 0.921875 L 18.917969 19.753906 L 0.0820312 19.753906 Z M 0.0820312 0.921875 " clip-rule="nonzero"/></clipPath><clipPath id="c17a44301f"><path d="M 9.5 0.921875 C 4.300781 0.921875 0.0820312 5.140625 0.0820312 10.339844 C 0.0820312 15.539062 4.300781 19.753906 9.5 19.753906 C 14.699219 19.753906 18.917969 15.539062 18.917969 10.339844 C 18.917969 5.140625 14.699219 0.921875 9.5 0.921875 Z M 9.5 0.921875 " clip-rule="nonzero"/></clipPath><clipPath id="b7be0c0b8e"><rect x="0" width="19" y="0" height="20"/></clipPath><clipPath id="1211b19e4d"><path d="M 85 18 L 182 18 L 182 105 L 85 105 Z M 85 18 " clip-rule="nonzero"/></clipPath><clipPath id="a3701b6262"><path d="M 181.199219 39.222656 L 102.082031 104.90625 L 85.234375 84.613281 L 164.351562 18.925781 Z M 181.199219 39.222656 " clip-rule="nonzero"/></clipPath><clipPath id="2c58b5c11b"><path d="M 1 35 L 96.359375 35 L 96.359375 87 L 1 87 Z M 1 35 " clip-rule="nonzero"/></clipPath><clipPath id="8ed5d34a8a"><path d="M 96.199219 21.222656 L 17.082031 86.90625 L 0.234375 66.613281 L 79.351562 0.925781 Z M 96.199219 21.222656 " clip-rule="nonzero"/></clipPath><clipPath id="af92ac8cb4"><path d="M 99.992188 -16.355469 L -0.0078125 66.667969 L 85.453125 169.609375 L 185.457031 86.585938 Z M 99.992188 -16.355469 " clip-rule="nonzero"/></clipPath><clipPath id="e9aa3eeb4c"><rect x="0" width="97" y="0" height="87"/></clipPath><clipPath id="aab0805070"><path d="M 167 19 L 264 19 L 264 106 L 167 106 Z M 167 19 " clip-rule="nonzero"/></clipPath><clipPath id="706fa244eb"><path d="M 246.3125 105.007812 L 167.191406 39.320312 L 184.042969 19.027344 L 263.160156 84.710938 Z M 246.3125 105.007812 " clip-rule="nonzero"/></clipPath><clipPath id="7ecb46862e"><path d="M 0 34 L 95 34 L 95 86.121094 L 0 86.121094 Z M 0 34 " clip-rule="nonzero"/></clipPath><clipPath id="381c7c3068"><path d="M 79.3125 86.007812 L 0.191406 20.320312 L 17.042969 0.0273438 L 96.160156 65.710938 Z M 79.3125 86.007812 " clip-rule="nonzero"/></clipPath><clipPath id="2de356de10"><path d="M -3.71875 -17.355469 L 96.285156 65.667969 L 10.820312 168.609375 L -89.183594 85.585938 Z M -3.71875 -17.355469 " clip-rule="nonzero"/></clipPath><clipPath id="f1489b8bf7"><rect x="0" width="97" y="0" height="87"/></clipPath><clipPath id="2ad25fdef2"><rect x="0" width="348" y="0" height="189"/></clipPath></defs><g transform="matrix(1, 0, 0, 1, 14, 72)"><g clip-path="url(#2ad25fdef2)"><g transform="matrix(1, 0, 0, 1, 1, 84)"><g clip-path="url(#8e7636be85)"><g fill="#efe0c9" fill-opacity="1"><g transform="translate(0.50307, 55.475093)"><g><path d="M 5.109375 0 C 4.765625 0 4.5 -0.09375 4.3125 -0.28125 C 4.125 -0.476562 4.03125 -0.726562 4.03125 -1.03125 L 4.03125 -41.453125 C 4.03125 -41.796875 4.132812 -42.082031 4.34375 -42.3125 C 4.550781 -42.539062 4.828125 -42.65625 5.171875 -42.65625 L 20.75 -42.65625 C 26.382812 -42.65625 30.6875 -41.707031 33.65625 -39.8125 C 36.625 -37.914062 38.109375 -35.125 38.109375 -31.4375 C 38.109375 -29.332031 37.539062 -27.550781 36.40625 -26.09375 C 35.28125 -24.632812 33.335938 -23.3125 30.578125 -22.125 C 30.460938 -22.09375 30.40625 -22.019531 30.40625 -21.90625 C 30.40625 -21.789062 30.460938 -21.710938 30.578125 -21.671875 C 33.609375 -20.671875 35.789062 -19.375 37.125 -17.78125 C 38.46875 -16.195312 39.140625 -14.117188 39.140625 -11.546875 C 39.140625 -7.640625 37.664062 -4.738281 34.71875 -2.84375 C 31.769531 -0.945312 27.363281 0 21.5 0 Z M 21.21875 -6.78125 C 23.707031 -6.78125 25.570312 -7.296875 26.8125 -8.328125 C 28.0625 -9.367188 28.6875 -10.75 28.6875 -12.46875 C 28.6875 -13.695312 28.378906 -14.722656 27.765625 -15.546875 C 27.148438 -16.367188 26.316406 -16.988281 25.265625 -17.40625 C 24.210938 -17.832031 22.992188 -18.046875 21.609375 -18.046875 L 15.171875 -18.046875 C 14.441406 -18.046875 14.078125 -17.722656 14.078125 -17.078125 L 14.078125 -7.875 C 14.078125 -7.144531 14.347656 -6.78125 14.890625 -6.78125 Z M 21.609375 -25.0625 C 22.492188 -25.0625 23.328125 -25.15625 24.109375 -25.34375 C 24.898438 -25.539062 25.59375 -25.867188 26.1875 -26.328125 C 26.78125 -26.785156 27.257812 -27.335938 27.625 -27.984375 C 27.988281 -28.640625 28.171875 -29.410156 28.171875 -30.296875 C 28.171875 -32.097656 27.507812 -33.476562 26.1875 -34.4375 C 24.863281 -35.394531 23.164062 -35.875 21.09375 -35.875 L 15.171875 -35.875 C 14.441406 -35.875 14.078125 -35.546875 14.078125 -34.890625 L 14.078125 -26.09375 C 14.078125 -25.40625 14.347656 -25.0625 14.890625 -25.0625 Z M 21.609375 -25.0625 "/></g></g></g><g fill="#efe0c9" fill-opacity="1"><g transform="translate(42.055948, 55.475093)"><g><path d="M 4.03125 -41.5625 C 4.03125 -42.289062 4.332031 -42.65625 4.9375 -42.65625 L 33.921875 -42.65625 C 34.492188 -42.65625 34.78125 -42.328125 34.78125 -41.671875 L 34.78125 -36.5 C 34.78125 -35.695312 34.378906 -35.296875 33.578125 -35.296875 L 15.171875 -35.296875 C 14.441406 -35.296875 14.078125 -34.988281 14.078125 -34.375 L 14.078125 -26.046875 C 14.078125 -25.390625 14.367188 -25.0625 14.953125 -25.0625 L 27.125 -25.0625 C 27.78125 -25.0625 28.109375 -24.753906 28.109375 -24.140625 L 28.109375 -18.625 C 28.109375 -18.394531 28.039062 -18.203125 27.90625 -18.046875 C 27.769531 -17.890625 27.53125 -17.8125 27.1875 -17.8125 L 14.890625 -17.8125 C 14.347656 -17.8125 14.078125 -17.582031 14.078125 -17.125 L 14.078125 -8.109375 C 14.078125 -7.609375 14.289062 -7.359375 14.71875 -7.359375 L 34.375 -7.359375 C 35.0625 -7.359375 35.40625 -7.070312 35.40625 -6.5 L 35.40625 -1.03125 C 35.40625 -0.726562 35.316406 -0.476562 35.140625 -0.28125 C 34.972656 -0.09375 34.679688 0 34.265625 0 L 5.28125 0 C 4.445312 0 4.03125 -0.398438 4.03125 -1.203125 Z M 4.03125 -41.5625 "/></g></g></g><g fill="#efe0c9" fill-opacity="1"><g transform="translate(79.643193, 55.475093)"><g><path d="M 2.765625 0 C 2.410156 0 2.15625 -0.148438 2 -0.453125 C 1.851562 -0.765625 1.859375 -1.171875 2.015625 -1.671875 L 16.328125 -41.5 C 16.484375 -41.925781 16.65625 -42.222656 16.84375 -42.390625 C 17.03125 -42.566406 17.351562 -42.65625 17.8125 -42.65625 L 26.4375 -42.65625 C 27.28125 -42.65625 27.859375 -42.234375 28.171875 -41.390625 L 42.359375 -1.546875 C 42.472656 -1.242188 42.472656 -0.910156 42.359375 -0.546875 C 42.242188 -0.179688 42.015625 0 41.671875 0 L 33.21875 0 C 32.644531 0 32.285156 -0.269531 32.140625 -0.8125 L 29.140625 -9.203125 C 29.109375 -9.390625 29.039062 -9.539062 28.9375 -9.65625 C 28.84375 -9.769531 28.660156 -9.828125 28.390625 -9.828125 L 14.375 -9.828125 C 13.988281 -9.828125 13.738281 -9.632812 13.625 -9.25 L 10.578125 -0.75 C 10.503906 -0.519531 10.378906 -0.335938 10.203125 -0.203125 C 10.023438 -0.0664062 9.75 0 9.375 0 Z M 26.046875 -17.46875 C 26.578125 -17.46875 26.75 -17.796875 26.5625 -18.453125 L 21.734375 -31.90625 C 21.617188 -32.132812 21.492188 -32.25 21.359375 -32.25 C 21.222656 -32.25 21.097656 -32.113281 20.984375 -31.84375 L 16.09375 -18.453125 C 15.820312 -17.796875 15.992188 -17.46875 16.609375 -17.46875 Z M 26.046875 -17.46875 "/></g></g></g><g fill="#efe0c9" fill-opacity="1"><g transform="translate(121.25322, 55.475093)"><g><path d="M 37.875 -15.8125 C 37.875 -11.78125 37.1875 -8.554688 35.8125 -6.140625 C 34.4375 -3.734375 32.460938 -2.007812 29.890625 -0.96875 C 27.328125 0.0625 24.257812 0.578125 20.6875 0.578125 C 16.507812 0.578125 13.164062 -0.0820312 10.65625 -1.40625 C 8.144531 -2.726562 6.320312 -4.679688 5.1875 -7.265625 C 4.0625 -9.859375 3.5 -13.050781 3.5 -16.84375 L 3.5 -41.5 C 3.5 -42.269531 3.804688 -42.65625 4.421875 -42.65625 L 12.703125 -42.65625 C 13.273438 -42.65625 13.5625 -42.3125 13.5625 -41.625 L 13.5625 -15.578125 C 13.5625 -12.429688 14.238281 -10.148438 15.59375 -8.734375 C 16.957031 -7.316406 18.90625 -6.609375 21.4375 -6.609375 C 23.050781 -6.609375 24.46875 -6.90625 25.6875 -7.5 C 26.914062 -8.09375 27.875 -9.0625 28.5625 -10.40625 C 29.257812 -11.75 29.609375 -13.53125 29.609375 -15.75 L 29.609375 -41.5625 C 29.609375 -42.289062 29.894531 -42.65625 30.46875 -42.65625 L 37.015625 -42.65625 C 37.585938 -42.65625 37.875 -42.3125 37.875 -41.625 Z M 37.875 -15.8125 "/></g></g></g><g fill="#efe0c9" fill-opacity="1"><g transform="translate(162.69115, 55.475093)"><g><path d="M 5.234375 0 C 4.429688 0 4.03125 -0.441406 4.03125 -1.328125 L 4.03125 -41.5625 C 4.03125 -42.289062 4.351562 -42.65625 5 -42.65625 L 16.90625 -42.65625 C 17.320312 -42.65625 17.625 -42.597656 17.8125 -42.484375 C 18.007812 -42.367188 18.164062 -42.140625 18.28125 -41.796875 L 26.953125 -17.703125 C 27.066406 -17.359375 27.203125 -17.195312 27.359375 -17.21875 C 27.515625 -17.238281 27.648438 -17.398438 27.765625 -17.703125 L 36.046875 -41.328125 C 36.273438 -42.210938 36.695312 -42.65625 37.3125 -42.65625 L 49.671875 -42.65625 C 50.242188 -42.65625 50.53125 -42.3125 50.53125 -41.625 L 50.53125 -1.375 C 50.53125 -0.457031 50.050781 0 49.09375 0 L 41.671875 0 C 41.210938 0 40.894531 -0.09375 40.71875 -0.28125 C 40.550781 -0.476562 40.46875 -0.769531 40.46875 -1.15625 L 40.46875 -29.78125 C 40.46875 -30.039062 40.398438 -30.160156 40.265625 -30.140625 C 40.128906 -30.128906 40.023438 -29.988281 39.953125 -29.71875 L 29.890625 -0.921875 C 29.660156 -0.304688 29.257812 0 28.6875 0 L 23.90625 0 C 23.257812 0 22.84375 -0.304688 22.65625 -0.921875 L 12.703125 -29.3125 C 12.585938 -29.65625 12.460938 -29.804688 12.328125 -29.765625 C 12.191406 -29.734375 12.125 -29.566406 12.125 -29.265625 L 12.125 -1.03125 C 12.125 -0.644531 12.054688 -0.375 11.921875 -0.21875 C 11.796875 -0.0703125 11.519531 0 11.09375 0 Z M 5.234375 0 "/></g></g></g><g fill="#efe0c9" fill-opacity="1"><g transform="translate(217.232894, 55.475093)"><g><path d="M 22.296875 0.578125 C 18.234375 0.578125 14.726562 -0.289062 11.78125 -2.03125 C 8.832031 -3.78125 6.5625 -6.28125 4.96875 -9.53125 C 3.382812 -12.789062 2.59375 -16.664062 2.59375 -21.15625 C 2.59375 -25.71875 3.40625 -29.644531 5.03125 -32.9375 C 6.65625 -36.226562 8.941406 -38.765625 11.890625 -40.546875 C 14.847656 -42.335938 18.316406 -43.234375 22.296875 -43.234375 C 26.285156 -43.234375 29.742188 -42.335938 32.671875 -40.546875 C 35.609375 -38.765625 37.878906 -36.234375 39.484375 -32.953125 C 41.097656 -29.679688 41.90625 -25.769531 41.90625 -21.21875 C 41.90625 -16.726562 41.109375 -12.851562 39.515625 -9.59375 C 37.929688 -6.34375 35.660156 -3.832031 32.703125 -2.0625 C 29.753906 -0.300781 26.285156 0.578125 22.296875 0.578125 Z M 22.296875 -6.5 C 25.441406 -6.5 27.742188 -7.640625 29.203125 -9.921875 C 30.660156 -12.203125 31.390625 -15.925781 31.390625 -21.09375 C 31.390625 -26.382812 30.648438 -30.226562 29.171875 -32.625 C 27.691406 -35.019531 25.398438 -36.21875 22.296875 -36.21875 C 19.160156 -36.21875 16.84375 -35.007812 15.34375 -32.59375 C 13.851562 -30.175781 13.109375 -26.34375 13.109375 -21.09375 C 13.109375 -15.957031 13.84375 -12.238281 15.3125 -9.9375 C 16.789062 -7.644531 19.117188 -6.5 22.296875 -6.5 Z M 22.296875 -6.5 "/></g></g></g><g fill="#efe0c9" fill-opacity="1"><g transform="translate(261.716902, 55.475093)"><g><path d="M 38.859375 -42.65625 C 39.359375 -42.65625 39.609375 -42.367188 39.609375 -41.796875 L 39.609375 -0.921875 C 39.609375 -0.648438 39.507812 -0.425781 39.3125 -0.25 C 39.125 -0.0820312 38.859375 0 38.515625 0 L 32.703125 0 C 32.398438 0 32.148438 -0.0351562 31.953125 -0.109375 C 31.765625 -0.191406 31.535156 -0.382812 31.265625 -0.6875 L 12.9375 -26.4375 C 12.78125 -26.632812 12.632812 -26.710938 12.5 -26.671875 C 12.363281 -26.628906 12.296875 -26.515625 12.296875 -26.328125 L 12.296875 -1.03125 C 12.335938 -0.34375 11.957031 0 11.15625 0 L 5.171875 0 C 4.410156 0 4.03125 -0.328125 4.03125 -0.984375 L 4.03125 -41.5625 C 4.03125 -42.289062 4.375 -42.65625 5.0625 -42.65625 L 12.015625 -42.65625 C 12.429688 -42.65625 12.742188 -42.597656 12.953125 -42.484375 C 13.171875 -42.367188 13.414062 -42.140625 13.6875 -41.796875 L 30.578125 -17.703125 C 30.804688 -17.398438 31.003906 -17.265625 31.171875 -17.296875 C 31.347656 -17.335938 31.4375 -17.53125 31.4375 -17.875 L 31.4375 -41.625 C 31.4375 -42.3125 31.785156 -42.65625 32.484375 -42.65625 Z M 38.859375 -42.65625 "/></g></g></g><g fill="#efe0c9" fill-opacity="1"><g transform="translate(305.338779, 55.475093)"><g><path d="M 1.890625 -41.625 C 1.890625 -41.925781 1.984375 -42.171875 2.171875 -42.359375 C 2.367188 -42.554688 2.660156 -42.65625 3.046875 -42.65625 L 36.046875 -42.65625 C 36.460938 -42.65625 36.753906 -42.554688 36.921875 -42.359375 C 37.097656 -42.171875 37.1875 -41.925781 37.1875 -41.625 L 37.1875 -36.265625 C 37.1875 -35.691406 36.84375 -35.40625 36.15625 -35.40625 L 25.40625 -35.40625 C 24.988281 -35.40625 24.78125 -35.210938 24.78125 -34.828125 L 24.78125 -1.09375 C 24.78125 -0.363281 24.453125 0 23.796875 0 L 15.578125 0 C 15.003906 0 14.71875 -0.328125 14.71875 -0.984375 L 14.71875 -34.65625 C 14.71875 -35.15625 14.503906 -35.40625 14.078125 -35.40625 L 2.984375 -35.40625 C 2.253906 -35.40625 1.890625 -35.691406 1.890625 -36.265625 Z M 1.890625 -41.625 "/></g></g></g></g></g><g transform="matrix(1, 0, 0, 1, 2, 141)"><g clip-path="url(#23fac3c083)"><g fill="#efe0c9" fill-opacity="1"><g transform="translate(1.177973, 34.398351)"><g><path d="M 2.484375 -25.625 C 2.484375 -26.082031 2.671875 -26.3125 3.046875 -26.3125 L 8.125 -26.3125 C 8.5 -26.3125 8.6875 -26.097656 8.6875 -25.671875 L 8.6875 -5 C 8.6875 -4.6875 8.816406 -4.53125 9.078125 -4.53125 L 20.390625 -4.53125 C 20.816406 -4.53125 21.03125 -4.351562 21.03125 -4 L 21.03125 -0.640625 C 21.03125 -0.453125 20.972656 -0.296875 20.859375 -0.171875 C 20.753906 -0.0546875 20.582031 0 20.34375 0 L 3.265625 0 C 2.953125 0 2.742188 -0.0546875 2.640625 -0.171875 C 2.535156 -0.296875 2.484375 -0.488281 2.484375 -0.75 Z M 2.484375 -25.625 "/></g></g></g><g fill="#efe0c9" fill-opacity="1"><g transform="translate(23.403141, 34.398351)"><g><path d="M 8.125 -26.3125 C 8.5 -26.3125 8.6875 -26.097656 8.6875 -25.671875 L 8.6875 -0.84375 C 8.6875 -0.539062 8.609375 -0.320312 8.453125 -0.1875 C 8.296875 -0.0625 8.054688 0 7.734375 0 L 3.265625 0 C 2.953125 0 2.742188 -0.0546875 2.640625 -0.171875 C 2.535156 -0.296875 2.484375 -0.488281 2.484375 -0.75 L 2.484375 -25.625 C 2.484375 -26.082031 2.671875 -26.3125 3.046875 -26.3125 Z M 8.125 -26.3125 "/></g></g></g><g fill="#efe0c9" fill-opacity="1"><g transform="translate(34.568894, 34.398351)"><g><path d="M 3.15625 0 C 2.945312 0 2.78125 -0.0546875 2.65625 -0.171875 C 2.539062 -0.296875 2.484375 -0.453125 2.484375 -0.640625 L 2.484375 -25.5625 C 2.484375 -25.769531 2.546875 -25.945312 2.671875 -26.09375 C 2.804688 -26.238281 2.976562 -26.3125 3.1875 -26.3125 L 12.796875 -26.3125 C 16.273438 -26.3125 18.925781 -25.722656 20.75 -24.546875 C 22.582031 -23.378906 23.5 -21.660156 23.5 -19.390625 C 23.5 -18.085938 23.148438 -16.988281 22.453125 -16.09375 C 21.753906 -15.195312 20.554688 -14.382812 18.859375 -13.65625 C 18.785156 -13.625 18.75 -13.570312 18.75 -13.5 C 18.75 -13.4375 18.785156 -13.390625 18.859375 -13.359375 C 20.722656 -12.742188 22.066406 -11.945312 22.890625 -10.96875 C 23.722656 -9.988281 24.140625 -8.707031 24.140625 -7.125 C 24.140625 -4.71875 23.226562 -2.925781 21.40625 -1.75 C 19.59375 -0.582031 16.878906 0 13.265625 0 Z M 13.078125 -4.1875 C 14.617188 -4.1875 15.769531 -4.503906 16.53125 -5.140625 C 17.300781 -5.773438 17.6875 -6.625 17.6875 -7.6875 C 17.6875 -8.445312 17.5 -9.082031 17.125 -9.59375 C 16.75 -10.101562 16.234375 -10.484375 15.578125 -10.734375 C 14.929688 -10.992188 14.179688 -11.125 13.328125 -11.125 L 9.359375 -11.125 C 8.910156 -11.125 8.6875 -10.925781 8.6875 -10.53125 L 8.6875 -4.859375 C 8.6875 -4.410156 8.851562 -4.1875 9.1875 -4.1875 Z M 13.328125 -15.453125 C 13.867188 -15.453125 14.378906 -15.507812 14.859375 -15.625 C 15.347656 -15.75 15.773438 -15.953125 16.140625 -16.234375 C 16.515625 -16.515625 16.8125 -16.859375 17.03125 -17.265625 C 17.257812 -17.671875 17.375 -18.144531 17.375 -18.6875 C 17.375 -19.789062 16.960938 -20.640625 16.140625 -21.234375 C 15.328125 -21.828125 14.285156 -22.125 13.015625 -22.125 L 9.359375 -22.125 C 8.910156 -22.125 8.6875 -21.921875 8.6875 -21.515625 L 8.6875 -16.09375 C 8.6875 -15.664062 8.851562 -15.453125 9.1875 -15.453125 Z M 13.328125 -15.453125 "/></g></g></g><g fill="#efe0c9" fill-opacity="1"><g transform="translate(60.196948, 34.398351)"><g><path d="M 23.828125 -0.953125 C 23.921875 -0.691406 23.910156 -0.46875 23.796875 -0.28125 C 23.691406 -0.09375 23.523438 0 23.296875 0 L 18.078125 0 C 17.679688 0 17.421875 -0.210938 17.296875 -0.640625 L 13.46875 -10.5625 C 13.332031 -10.894531 13.003906 -11.0625 12.484375 -11.0625 L 9.109375 -11.0625 C 8.941406 -11.0625 8.828125 -11.015625 8.765625 -10.921875 C 8.710938 -10.828125 8.6875 -10.742188 8.6875 -10.671875 L 8.6875 -0.84375 C 8.6875 -0.28125 8.367188 0 7.734375 0 L 3.21875 0 C 2.9375 0 2.742188 -0.0546875 2.640625 -0.171875 C 2.535156 -0.296875 2.484375 -0.472656 2.484375 -0.703125 L 2.484375 -25.625 C 2.484375 -26.082031 2.671875 -26.3125 3.046875 -26.3125 L 14.109375 -26.3125 C 17.273438 -26.3125 19.738281 -25.679688 21.5 -24.421875 C 23.257812 -23.171875 24.140625 -21.390625 24.140625 -19.078125 C 24.140625 -17.867188 23.914062 -16.789062 23.46875 -15.84375 C 23.019531 -14.894531 22.425781 -14.109375 21.6875 -13.484375 C 20.957031 -12.859375 20.15625 -12.394531 19.28125 -12.09375 C 19.070312 -12.019531 19.023438 -11.84375 19.140625 -11.5625 Z M 13.546875 -15.25 C 14.890625 -15.25 15.921875 -15.535156 16.640625 -16.109375 C 17.359375 -16.691406 17.71875 -17.535156 17.71875 -18.640625 C 17.71875 -19.804688 17.351562 -20.679688 16.625 -21.265625 C 15.894531 -21.859375 14.925781 -22.15625 13.71875 -22.15625 L 9.359375 -22.15625 C 8.910156 -22.15625 8.6875 -21.957031 8.6875 -21.5625 L 8.6875 -15.84375 C 8.6875 -15.445312 8.851562 -15.25 9.1875 -15.25 Z M 13.546875 -15.25 "/></g></g></g><g fill="#efe0c9" fill-opacity="1"><g transform="translate(84.832491, 34.398351)"><g><path d="M 1.703125 0 C 1.484375 0 1.328125 -0.09375 1.234375 -0.28125 C 1.140625 -0.46875 1.140625 -0.71875 1.234375 -1.03125 L 10.0625 -25.59375 C 10.15625 -25.851562 10.257812 -26.035156 10.375 -26.140625 C 10.5 -26.253906 10.703125 -26.3125 10.984375 -26.3125 L 16.3125 -26.3125 C 16.832031 -26.3125 17.1875 -26.050781 17.375 -25.53125 L 26.125 -0.953125 C 26.195312 -0.765625 26.195312 -0.554688 26.125 -0.328125 C 26.050781 -0.109375 25.910156 0 25.703125 0 L 20.484375 0 C 20.128906 0 19.90625 -0.164062 19.8125 -0.5 L 17.96875 -5.671875 C 17.945312 -5.785156 17.90625 -5.878906 17.84375 -5.953125 C 17.789062 -6.023438 17.679688 -6.0625 17.515625 -6.0625 L 8.859375 -6.0625 C 8.628906 -6.0625 8.476562 -5.941406 8.40625 -5.703125 L 6.515625 -0.453125 C 6.472656 -0.316406 6.398438 -0.207031 6.296875 -0.125 C 6.191406 -0.0390625 6.019531 0 5.78125 0 Z M 16.0625 -10.78125 C 16.394531 -10.78125 16.5 -10.976562 16.375 -11.375 L 13.40625 -19.671875 C 13.332031 -19.816406 13.253906 -19.890625 13.171875 -19.890625 C 13.085938 -19.890625 13.007812 -19.804688 12.9375 -19.640625 L 9.921875 -11.375 C 9.753906 -10.976562 9.863281 -10.78125 10.25 -10.78125 Z M 16.0625 -10.78125 "/></g></g></g><g fill="#efe0c9" fill-opacity="1"><g transform="translate(112.161999, 34.398351)"><g><path d="M 23.828125 -0.953125 C 23.921875 -0.691406 23.910156 -0.46875 23.796875 -0.28125 C 23.691406 -0.09375 23.523438 0 23.296875 0 L 18.078125 0 C 17.679688 0 17.421875 -0.210938 17.296875 -0.640625 L 13.46875 -10.5625 C 13.332031 -10.894531 13.003906 -11.0625 12.484375 -11.0625 L 9.109375 -11.0625 C 8.941406 -11.0625 8.828125 -11.015625 8.765625 -10.921875 C 8.710938 -10.828125 8.6875 -10.742188 8.6875 -10.671875 L 8.6875 -0.84375 C 8.6875 -0.28125 8.367188 0 7.734375 0 L 3.21875 0 C 2.9375 0 2.742188 -0.0546875 2.640625 -0.171875 C 2.535156 -0.296875 2.484375 -0.472656 2.484375 -0.703125 L 2.484375 -25.625 C 2.484375 -26.082031 2.671875 -26.3125 3.046875 -26.3125 L 14.109375 -26.3125 C 17.273438 -26.3125 19.738281 -25.679688 21.5 -24.421875 C 23.257812 -23.171875 24.140625 -21.390625 24.140625 -19.078125 C 24.140625 -17.867188 23.914062 -16.789062 23.46875 -15.84375 C 23.019531 -14.894531 22.425781 -14.109375 21.6875 -13.484375 C 20.957031 -12.859375 20.15625 -12.394531 19.28125 -12.09375 C 19.070312 -12.019531 19.023438 -11.84375 19.140625 -11.5625 Z M 13.546875 -15.25 C 14.890625 -15.25 15.921875 -15.535156 16.640625 -16.109375 C 17.359375 -16.691406 17.71875 -17.535156 17.71875 -18.640625 C 17.71875 -19.804688 17.351562 -20.679688 16.625 -21.265625 C 15.894531 -21.859375 14.925781 -22.15625 13.71875 -22.15625 L 9.359375 -22.15625 C 8.910156 -22.15625 8.6875 -21.957031 8.6875 -21.5625 L 8.6875 -15.84375 C 8.6875 -15.445312 8.851562 -15.25 9.1875 -15.25 Z M 13.546875 -15.25 "/></g></g></g><g fill="#efe0c9" fill-opacity="1"><g transform="translate(136.655765, 34.398351)"><g><path d="M 24.46875 -26.3125 C 24.695312 -26.3125 24.847656 -26.242188 24.921875 -26.109375 C 24.992188 -25.984375 24.972656 -25.8125 24.859375 -25.59375 L 16.515625 -11.953125 C 16.378906 -11.734375 16.296875 -11.507812 16.265625 -11.28125 C 16.242188 -11.0625 16.234375 -10.65625 16.234375 -10.0625 L 16.234375 -0.84375 C 16.234375 -0.28125 15.90625 0 15.25 0 L 10.8125 0 C 10.507812 0 10.300781 -0.0546875 10.1875 -0.171875 C 10.082031 -0.296875 10.03125 -0.488281 10.03125 -0.75 L 10.03125 -10.28125 C 10.03125 -10.613281 9.992188 -10.863281 9.921875 -11.03125 C 9.859375 -11.195312 9.753906 -11.382812 9.609375 -11.59375 L 1.203125 -25.484375 C 1.066406 -25.722656 1.046875 -25.921875 1.140625 -26.078125 C 1.234375 -26.234375 1.429688 -26.3125 1.734375 -26.3125 L 7.0625 -26.3125 C 7.363281 -26.3125 7.570312 -26.257812 7.6875 -26.15625 C 7.8125 -26.0625 7.941406 -25.898438 8.078125 -25.671875 L 13.328125 -16.453125 C 13.472656 -16.210938 13.59375 -16.085938 13.6875 -16.078125 C 13.78125 -16.066406 13.882812 -16.164062 14 -16.375 L 19.1875 -25.671875 C 19.320312 -25.929688 19.453125 -26.101562 19.578125 -26.1875 C 19.710938 -26.269531 19.921875 -26.3125 20.203125 -26.3125 Z M 24.46875 -26.3125 "/></g></g></g><g fill="#efe0c9" fill-opacity="1"><g transform="translate(162.709189, 34.398351)"><g/></g></g><g fill="#efe0c9" fill-opacity="1"><g transform="translate(170.011228, 34.398351)"><g><path d="M 3.296875 0 C 2.753906 0 2.484375 -0.28125 2.484375 -0.84375 L 2.484375 -25.5625 C 2.484375 -25.84375 2.539062 -26.035156 2.65625 -26.140625 C 2.78125 -26.253906 2.984375 -26.3125 3.265625 -26.3125 C 3.785156 -26.3125 4.394531 -26.3125 5.09375 -26.3125 C 5.789062 -26.3125 6.515625 -26.3125 7.265625 -26.3125 C 8.023438 -26.3125 8.742188 -26.3125 9.421875 -26.3125 C 10.109375 -26.3125 10.691406 -26.296875 11.171875 -26.265625 C 14.359375 -26.203125 16.976562 -25.625 19.03125 -24.53125 C 21.09375 -23.445312 22.613281 -21.953125 23.59375 -20.046875 C 24.570312 -18.140625 25.0625 -15.878906 25.0625 -13.265625 C 25.0625 -10.566406 24.546875 -8.21875 23.515625 -6.21875 C 22.492188 -4.21875 20.9375 -2.679688 18.84375 -1.609375 C 16.75 -0.535156 14.128906 0 10.984375 0 Z M 9.140625 -4.359375 L 9.828125 -4.359375 C 11.765625 -4.359375 13.378906 -4.644531 14.671875 -5.21875 C 15.972656 -5.800781 16.945312 -6.742188 17.59375 -8.046875 C 18.25 -9.347656 18.578125 -11.070312 18.578125 -13.21875 C 18.578125 -15.300781 18.273438 -16.972656 17.671875 -18.234375 C 17.066406 -19.503906 16.144531 -20.429688 14.90625 -21.015625 C 13.664062 -21.609375 12.085938 -21.90625 10.171875 -21.90625 L 9.046875 -21.90625 C 8.804688 -21.90625 8.6875 -21.738281 8.6875 -21.40625 L 8.6875 -4.859375 C 8.6875 -4.523438 8.835938 -4.359375 9.140625 -4.359375 Z M 9.140625 -4.359375 "/></g></g></g><g fill="#efe0c9" fill-opacity="1"><g transform="translate(196.631796, 34.398351)"><g><path d="M 8.125 -26.3125 C 8.5 -26.3125 8.6875 -26.097656 8.6875 -25.671875 L 8.6875 -0.84375 C 8.6875 -0.539062 8.609375 -0.320312 8.453125 -0.1875 C 8.296875 -0.0625 8.054688 0 7.734375 0 L 3.265625 0 C 2.953125 0 2.742188 -0.0546875 2.640625 -0.171875 C 2.535156 -0.296875 2.484375 -0.488281 2.484375 -0.75 L 2.484375 -25.625 C 2.484375 -26.082031 2.671875 -26.3125 3.046875 -26.3125 Z M 8.125 -26.3125 "/></g></g></g><g fill="#efe0c9" fill-opacity="1"><g transform="translate(207.797549, 34.398351)"><g><path d="M 17.578125 -20.109375 C 17.066406 -20.671875 16.425781 -21.175781 15.65625 -21.625 C 14.882812 -22.070312 13.789062 -22.296875 12.375 -22.296875 C 10.882812 -22.296875 9.769531 -22.03125 9.03125 -21.5 C 8.300781 -20.96875 7.9375 -20.289062 7.9375 -19.46875 C 7.9375 -19.175781 8.003906 -18.863281 8.140625 -18.53125 C 8.285156 -18.207031 8.570312 -17.890625 9 -17.578125 C 9.425781 -17.273438 10.03125 -17.003906 10.8125 -16.765625 L 16.421875 -15.171875 C 18.585938 -14.578125 20.164062 -13.625 21.15625 -12.3125 C 22.15625 -11.007812 22.65625 -9.492188 22.65625 -7.765625 C 22.65625 -6.109375 22.226562 -4.671875 21.375 -3.453125 C 20.53125 -2.234375 19.3125 -1.289062 17.71875 -0.625 C 16.132812 0.03125 14.257812 0.359375 12.09375 0.359375 C 10.476562 0.359375 8.96875 0.175781 7.5625 -0.1875 C 6.15625 -0.5625 4.914062 -1.097656 3.84375 -1.796875 C 2.769531 -2.492188 1.925781 -3.300781 1.3125 -4.21875 C 1.195312 -4.457031 1.148438 -4.648438 1.171875 -4.796875 C 1.191406 -4.953125 1.3125 -5.113281 1.53125 -5.28125 L 4.25 -7.15625 C 4.539062 -7.320312 4.773438 -7.394531 4.953125 -7.375 C 5.128906 -7.351562 5.285156 -7.257812 5.421875 -7.09375 C 5.992188 -6.382812 6.554688 -5.789062 7.109375 -5.3125 C 7.660156 -4.84375 8.300781 -4.5 9.03125 -4.28125 C 9.769531 -4.070312 10.648438 -3.96875 11.671875 -3.96875 C 13.203125 -3.96875 14.425781 -4.207031 15.34375 -4.6875 C 16.269531 -5.175781 16.734375 -5.929688 16.734375 -6.953125 C 16.734375 -7.347656 16.640625 -7.71875 16.453125 -8.0625 C 16.265625 -8.40625 15.960938 -8.710938 15.546875 -8.984375 C 15.128906 -9.253906 14.546875 -9.507812 13.796875 -9.75 L 8.4375 -11.28125 C 7.039062 -11.675781 5.867188 -12.238281 4.921875 -12.96875 C 3.984375 -13.707031 3.269531 -14.570312 2.78125 -15.5625 C 2.300781 -16.550781 2.0625 -17.59375 2.0625 -18.6875 C 2.0625 -20.195312 2.476562 -21.550781 3.3125 -22.75 C 4.15625 -23.957031 5.335938 -24.910156 6.859375 -25.609375 C 8.378906 -26.304688 10.160156 -26.65625 12.203125 -26.65625 C 13.546875 -26.65625 14.800781 -26.5 15.96875 -26.1875 C 17.132812 -25.882812 18.191406 -25.460938 19.140625 -24.921875 C 20.085938 -24.378906 20.859375 -23.71875 21.453125 -22.9375 C 21.546875 -22.820312 21.613281 -22.6875 21.65625 -22.53125 C 21.707031 -22.375 21.640625 -22.210938 21.453125 -22.046875 L 18.46875 -19.859375 C 18.332031 -19.765625 18.203125 -19.734375 18.078125 -19.765625 C 17.960938 -19.796875 17.796875 -19.910156 17.578125 -20.109375 Z M 17.578125 -20.109375 "/></g></g></g><g fill="#efe0c9" fill-opacity="1"><g transform="translate(230.944332, 34.398351)"><g><path d="M 1.171875 -25.671875 C 1.171875 -25.859375 1.226562 -26.007812 1.34375 -26.125 C 1.46875 -26.25 1.644531 -26.3125 1.875 -26.3125 L 22.234375 -26.3125 C 22.492188 -26.3125 22.675781 -26.25 22.78125 -26.125 C 22.882812 -26.007812 22.9375 -25.859375 22.9375 -25.671875 L 22.9375 -22.375 C 22.9375 -22.019531 22.722656 -21.84375 22.296875 -21.84375 L 15.671875 -21.84375 C 15.410156 -21.84375 15.28125 -21.722656 15.28125 -21.484375 L 15.28125 -0.671875 C 15.28125 -0.222656 15.078125 0 14.671875 0 L 9.609375 0 C 9.253906 0 9.078125 -0.203125 9.078125 -0.609375 L 9.078125 -21.375 C 9.078125 -21.6875 8.945312 -21.84375 8.6875 -21.84375 L 1.84375 -21.84375 C 1.394531 -21.84375 1.171875 -22.019531 1.171875 -22.375 Z M 1.171875 -25.671875 "/></g></g></g><g fill="#efe0c9" fill-opacity="1"><g transform="translate(255.083627, 34.398351)"><g><path d="M 23.828125 -0.953125 C 23.921875 -0.691406 23.910156 -0.46875 23.796875 -0.28125 C 23.691406 -0.09375 23.523438 0 23.296875 0 L 18.078125 0 C 17.679688 0 17.421875 -0.210938 17.296875 -0.640625 L 13.46875 -10.5625 C 13.332031 -10.894531 13.003906 -11.0625 12.484375 -11.0625 L 9.109375 -11.0625 C 8.941406 -11.0625 8.828125 -11.015625 8.765625 -10.921875 C 8.710938 -10.828125 8.6875 -10.742188 8.6875 -10.671875 L 8.6875 -0.84375 C 8.6875 -0.28125 8.367188 0 7.734375 0 L 3.21875 0 C 2.9375 0 2.742188 -0.0546875 2.640625 -0.171875 C 2.535156 -0.296875 2.484375 -0.472656 2.484375 -0.703125 L 2.484375 -25.625 C 2.484375 -26.082031 2.671875 -26.3125 3.046875 -26.3125 L 14.109375 -26.3125 C 17.273438 -26.3125 19.738281 -25.679688 21.5 -24.421875 C 23.257812 -23.171875 24.140625 -21.390625 24.140625 -19.078125 C 24.140625 -17.867188 23.914062 -16.789062 23.46875 -15.84375 C 23.019531 -14.894531 22.425781 -14.109375 21.6875 -13.484375 C 20.957031 -12.859375 20.15625 -12.394531 19.28125 -12.09375 C 19.070312 -12.019531 19.023438 -11.84375 19.140625 -11.5625 Z M 13.546875 -15.25 C 14.890625 -15.25 15.921875 -15.535156 16.640625 -16.109375 C 17.359375 -16.691406 17.71875 -17.535156 17.71875 -18.640625 C 17.71875 -19.804688 17.351562 -20.679688 16.625 -21.265625 C 15.894531 -21.859375 14.925781 -22.15625 13.71875 -22.15625 L 9.359375 -22.15625 C 8.910156 -22.15625 8.6875 -21.957031 8.6875 -21.5625 L 8.6875 -15.84375 C 8.6875 -15.445312 8.851562 -15.25 9.1875 -15.25 Z M 13.546875 -15.25 "/></g></g></g><g fill="#efe0c9" fill-opacity="1"><g transform="translate(280.676243, 34.398351)"><g><path d="M 8.125 -26.3125 C 8.5 -26.3125 8.6875 -26.097656 8.6875 -25.671875 L 8.6875 -0.84375 C 8.6875 -0.539062 8.609375 -0.320312 8.453125 -0.1875 C 8.296875 -0.0625 8.054688 0 7.734375 0 L 3.265625 0 C 2.953125 0 2.742188 -0.0546875 2.640625 -0.171875 C 2.535156 -0.296875 2.484375 -0.488281 2.484375 -0.75 L 2.484375 -25.625 C 2.484375 -26.082031 2.671875 -26.3125 3.046875 -26.3125 Z M 8.125 -26.3125 "/></g></g></g><g fill="#efe0c9" fill-opacity="1"><g transform="translate(291.841995, 34.398351)"><g><path d="M 13.546875 -26.65625 C 14.910156 -26.65625 16.191406 -26.457031 17.390625 -26.0625 C 18.585938 -25.675781 19.65625 -25.128906 20.59375 -24.421875 C 21.539062 -23.710938 22.316406 -22.882812 22.921875 -21.9375 C 23.523438 -21 23.921875 -19.972656 24.109375 -18.859375 C 24.203125 -18.484375 24.21875 -18.234375 24.15625 -18.109375 C 24.101562 -17.992188 23.96875 -17.925781 23.75 -17.90625 L 18.96875 -17.578125 C 18.75 -17.578125 18.609375 -17.617188 18.546875 -17.703125 C 18.492188 -17.785156 18.445312 -17.921875 18.40625 -18.109375 C 18.144531 -19.335938 17.632812 -20.347656 16.875 -21.140625 C 16.113281 -21.929688 15.0625 -22.328125 13.71875 -22.328125 C 11.945312 -22.328125 10.554688 -21.613281 9.546875 -20.1875 C 8.546875 -18.757812 8.046875 -16.453125 8.046875 -13.265625 C 8.046875 -10.097656 8.523438 -7.796875 9.484375 -6.359375 C 10.441406 -4.929688 11.878906 -4.21875 13.796875 -4.21875 C 15.160156 -4.21875 16.335938 -4.5625 17.328125 -5.25 C 18.328125 -5.9375 19.144531 -7.101562 19.78125 -8.75 C 19.875 -8.96875 20.132812 -9.039062 20.5625 -8.96875 L 24.03125 -8.21875 C 24.15625 -8.195312 24.265625 -8.132812 24.359375 -8.03125 C 24.453125 -7.925781 24.472656 -7.695312 24.421875 -7.34375 C 24.304688 -6.84375 24.078125 -6.257812 23.734375 -5.59375 C 23.390625 -4.9375 22.929688 -4.257812 22.359375 -3.5625 C 21.796875 -2.863281 21.09375 -2.21875 20.25 -1.625 C 19.414062 -1.039062 18.441406 -0.5625 17.328125 -0.1875 C 16.222656 0.175781 14.960938 0.359375 13.546875 0.359375 C 11.109375 0.359375 8.984375 -0.21875 7.171875 -1.375 C 5.367188 -2.539062 3.984375 -4.148438 3.015625 -6.203125 C 2.046875 -8.253906 1.5625 -10.640625 1.5625 -13.359375 C 1.5625 -16.109375 2.046875 -18.46875 3.015625 -20.4375 C 3.984375 -22.414062 5.363281 -23.945312 7.15625 -25.03125 C 8.957031 -26.113281 11.085938 -26.65625 13.546875 -26.65625 Z M 13.546875 -26.65625 "/></g></g></g><g fill="#efe0c9" fill-opacity="1"><g transform="translate(316.690232, 34.398351)"><g><path d="M 1.171875 -25.671875 C 1.171875 -25.859375 1.226562 -26.007812 1.34375 -26.125 C 1.46875 -26.25 1.644531 -26.3125 1.875 -26.3125 L 22.234375 -26.3125 C 22.492188 -26.3125 22.675781 -26.25 22.78125 -26.125 C 22.882812 -26.007812 22.9375 -25.859375 22.9375 -25.671875 L 22.9375 -22.375 C 22.9375 -22.019531 22.722656 -21.84375 22.296875 -21.84375 L 15.671875 -21.84375 C 15.410156 -21.84375 15.28125 -21.722656 15.28125 -21.484375 L 15.28125 -0.671875 C 15.28125 -0.222656 15.078125 0 14.671875 0 L 9.609375 0 C 9.253906 0 9.078125 -0.203125 9.078125 -0.609375 L 9.078125 -21.375 C 9.078125 -21.6875 8.945312 -21.84375 8.6875 -21.84375 L 1.84375 -21.84375 C 1.394531 -21.84375 1.171875 -22.019531 1.171875 -22.375 Z M 1.171875 -25.671875 "/></g></g></g></g></g><g clip-path="url(#be369e499c)"><path stroke-linecap="butt" transform="matrix(0.382274, 0, 0, 0.382274, 5.146364, 57.469914)" fill="none" stroke-linejoin="miter" d="M -0.00479549 11.502926 L 246.596971 11.502926 " stroke="#efe0c9" stroke-width="23" stroke-opacity="1" stroke-miterlimit="4"/></g><g clip-path="url(#f2452d0dfd)"><path stroke-linecap="butt" transform="matrix(0.382274, 0, 0, 0.382274, 248.922711, 57.527451)" fill="none" stroke-linejoin="miter" d="M -0.00218753 11.49547 L 246.39521 11.49547 " stroke="#efe0c9" stroke-width="23" stroke-opacity="1" stroke-miterlimit="4"/></g><path stroke-linecap="butt" transform="matrix(0, 0.382274, -0.382274, 0, 257.676706, 45.382785)" fill="none" stroke-linejoin="miter" d="M 0.0000716976 11.498171 L 54.719852 11.498171 " stroke="#efe0c9" stroke-width="23" stroke-opacity="1" stroke-miterlimit="4"/><path stroke-linecap="butt" transform="matrix(0, 0.382274, -0.382274, 0, 99.414515, 45.35195)" fill="none" stroke-linejoin="miter" d="M -0.00101339 11.496935 L 54.637019 11.496935 " stroke="#efe0c9" stroke-width="23" stroke-opacity="1" stroke-miterlimit="4"/><path stroke-linecap="butt" transform="matrix(0, 0.382274, -0.382274, 0, 343.136798, 57.624337)" fill="none" stroke-linejoin="miter" d="M 0.00173413 11.495959 L 77.917388 11.495959 " stroke="#efe0c9" stroke-width="23" stroke-opacity="1" stroke-miterlimit="4"/><path stroke-linecap="butt" transform="matrix(0.382274, 0, 0, 0.382274, 85.032796, 40.986547)" fill="none" stroke-linejoin="miter" d="M -0.00404525 11.500289 L 466.141041 11.500289 " stroke="#efe0c9" stroke-width="23" stroke-opacity="1" stroke-miterlimit="4"/><g clip-path="url(#69db4d7ca5)"><g clip-path="url(#5af92c88d4)"><g transform="matrix(1, 0, 0, 1, 164, 61)"><g clip-path="url(#b7be0c0b8e)"><g clip-path="url(#b46133a479)"><g clip-path="url(#c17a44301f)"><path fill="#efe0c9" d="M 0.0820312 0.921875 L 18.917969 0.921875 L 18.917969 19.753906 L 0.0820312 19.753906 Z M 0.0820312 0.921875 " fill-opacity="1" fill-rule="nonzero"/></g></g></g></g></g></g><path stroke-linecap="butt" transform="matrix(0, 0.382274, -0.382274, 0, 13.898508, 57.471846)" fill="none" stroke-linejoin="miter" d="M 0.00211982 11.495938 L 75.404036 11.495938 " stroke="#efe0c9" stroke-width="23" stroke-opacity="1" stroke-miterlimit="4"/><g clip-path="url(#1211b19e4d)"><g clip-path="url(#a3701b6262)"><g transform="matrix(1, 0, 0, 1, 85, 18)"><g clip-path="url(#e9aa3eeb4c)"><g clip-path="url(#2c58b5c11b)"><g clip-path="url(#8ed5d34a8a)"><g clip-path="url(#af92ac8cb4)"><path fill="#efe0c9" d="M 2.757812 64.371094 C 56.371094 19.859375 137.347656 28.652344 183.28125 83.976562 C 183.578125 84.335938 183.796875 84.738281 183.933594 85.183594 C 184.074219 85.632812 184.121094 86.085938 184.078125 86.550781 C 184.03125 87.019531 183.902344 87.457031 183.683594 87.871094 C 183.464844 88.285156 183.179688 88.640625 182.820312 88.9375 C 182.460938 89.234375 182.054688 89.453125 181.609375 89.59375 C 181.164062 89.730469 180.707031 89.777344 180.242188 89.734375 C 179.777344 89.691406 179.339844 89.5625 178.925781 89.34375 C 178.511719 89.125 178.15625 88.839844 177.855469 88.480469 C 134.410156 36.144531 57.882812 27.765625 7.261719 69.792969 C 6.902344 70.089844 6.496094 70.308594 6.050781 70.449219 C 5.605469 70.585938 5.148438 70.632812 4.683594 70.589844 C 4.21875 70.546875 3.777344 70.417969 3.367188 70.199219 C 2.953125 69.980469 2.597656 69.691406 2.296875 69.332031 C 2 68.972656 1.78125 68.570312 1.640625 68.125 C 1.503906 67.675781 1.457031 67.222656 1.5 66.753906 C 1.542969 66.289062 1.671875 65.851562 1.890625 65.4375 C 2.109375 65.023438 2.398438 64.667969 2.757812 64.371094 Z M 2.757812 64.371094 " fill-opacity="1" fill-rule="nonzero"/></g></g></g></g></g></g></g><g clip-path="url(#aab0805070)"><g clip-path="url(#706fa244eb)"><g transform="matrix(1, 0, 0, 1, 167, 19)"><g clip-path="url(#f1489b8bf7)"><g clip-path="url(#7ecb46862e)"><g clip-path="url(#381c7c3068)"><g clip-path="url(#2de356de10)"><path fill="#efe0c9" d="M 93.515625 63.371094 C 39.90625 18.859375 -41.074219 27.652344 -87.003906 82.976562 C -87.304688 83.335938 -87.523438 83.738281 -87.660156 84.183594 C -87.796875 84.632812 -87.84375 85.085938 -87.800781 85.554688 C -87.757812 86.019531 -87.628906 86.457031 -87.410156 86.871094 C -87.191406 87.285156 -86.902344 87.640625 -86.542969 87.9375 C -86.183594 88.238281 -85.78125 88.453125 -85.335938 88.59375 C -84.890625 88.730469 -84.433594 88.777344 -83.96875 88.734375 C -83.503906 88.691406 -83.0625 88.5625 -82.652344 88.34375 C -82.238281 88.125 -81.882812 87.839844 -81.582031 87.480469 C -38.136719 35.144531 38.394531 26.765625 89.015625 68.792969 C 89.375 69.089844 89.777344 69.308594 90.222656 69.449219 C 90.667969 69.585938 91.125 69.632812 91.589844 69.589844 C 92.054688 69.546875 92.496094 69.417969 92.910156 69.199219 C 93.320312 68.980469 93.679688 68.691406 93.976562 68.332031 C 94.273438 67.972656 94.492188 67.570312 94.632812 67.125 C 94.769531 66.675781 94.816406 66.222656 94.773438 65.753906 C 94.730469 65.289062 94.601562 64.851562 94.382812 64.4375 C 94.164062 64.023438 93.875 63.667969 93.515625 63.371094 Z M 93.515625 63.371094 " fill-opacity="1" fill-rule="nonzero"/></g></g></g></g></g></g></g></g></g></svg>