<svg xmlns="http://www.w3.org/2000/svg" xmlns:xlink="http://www.w3.org/1999/xlink" width="500" zoomAndPan="magnify" viewBox="0 0 375 374.999991" height="500" preserveAspectRatio="xMidYMid meet" version="1.0"><defs><g/><clipPath id="2f607a267a"><rect x="0" width="354" y="0" height="73"/></clipPath><clipPath id="c7bb6a6fc2"><rect x="0" width="349" y="0" height="45"/></clipPath><clipPath id="62389e2cb5"><path d="M 0.558594 58 L 107 58 L 107 68 L 0.558594 68 Z M 0.558594 58 " clip-rule="nonzero"/></clipPath><clipPath id="1d2619840f"><path d="M 250 58 L 355.519531 58 L 355.519531 68 L 250 68 Z M 250 58 " clip-rule="nonzero"/></clipPath><clipPath id="53ae105ceb"><path d="M 167.871094 63.027344 L 187.128906 63.027344 L 187.128906 82.285156 L 167.871094 82.285156 Z M 167.871094 63.027344 " clip-rule="nonzero"/></clipPath><clipPath id="14a81707b1"><path d="M 177.5 63.027344 C 172.183594 63.027344 167.871094 67.335938 167.871094 72.65625 C 167.871094 77.972656 172.183594 82.285156 177.5 82.285156 C 182.816406 82.285156 187.128906 77.972656 187.128906 72.65625 C 187.128906 67.335938 182.816406 63.027344 177.5 63.027344 Z M 177.5 63.027344 " clip-rule="nonzero"/></clipPath><clipPath id="18a46b68aa"><path d="M 0.871094 0.0273438 L 20.128906 0.0273438 L 20.128906 19.285156 L 0.871094 19.285156 Z M 0.871094 0.0273438 " clip-rule="nonzero"/></clipPath><clipPath id="9aa6903abc"><path d="M 10.5 0.0273438 C 5.183594 0.0273438 0.871094 4.335938 0.871094 9.65625 C 0.871094 14.972656 5.183594 19.285156 10.5 19.285156 C 15.816406 19.285156 20.128906 14.972656 20.128906 9.65625 C 20.128906 4.335938 15.816406 0.0273438 10.5 0.0273438 Z M 10.5 0.0273438 " clip-rule="nonzero"/></clipPath><clipPath id="3e8a8d4fb7"><rect x="0" width="21" y="0" height="20"/></clipPath><clipPath id="dc51561028"><path d="M 87 19 L 186 19 L 186 107 L 87 107 Z M 87 19 " clip-rule="nonzero"/></clipPath><clipPath id="01453e22ef"><path d="M 185.375 39.8125 L 104.46875 106.980469 L 87.238281 86.230469 L 168.144531 19.058594 Z M 185.375 39.8125 " clip-rule="nonzero"/></clipPath><clipPath id="cb05c02700"><path d="M 1 35 L 98.601562 35 L 98.601562 88 L 1 88 Z M 1 35 " clip-rule="nonzero"/></clipPath><clipPath id="a1fa231aad"><path d="M 98.375 20.8125 L 17.46875 87.980469 L 0.238281 67.230469 L 81.144531 0.0585938 Z M 98.375 20.8125 " clip-rule="nonzero"/></clipPath><clipPath id="62cab73bfb"><path d="M 102.25 -17.617188 L -0.0117188 67.285156 L 87.386719 172.554688 L 189.648438 87.652344 Z M 102.25 -17.617188 " clip-rule="nonzero"/></clipPath><clipPath id="77c0f36059"><rect x="0" width="99" y="0" height="88"/></clipPath><clipPath id="f2143143c4"><path d="M 171 19 L 270 19 L 270 108 L 171 108 Z M 171 19 " clip-rule="nonzero"/></clipPath><clipPath id="5185ca8473"><path d="M 251.957031 107.082031 L 171.050781 39.914062 L 188.28125 19.160156 L 269.1875 86.328125 Z M 251.957031 107.082031 " clip-rule="nonzero"/></clipPath><clipPath id="defa92aa47"><path d="M 0 35 L 97 35 L 97 88.121094 L 0 88.121094 Z M 0 35 " clip-rule="nonzero"/></clipPath><clipPath id="88f97c5d1a"><path d="M 80.957031 88.082031 L 0.0507812 20.914062 L 17.28125 0.160156 L 98.1875 67.328125 Z M 80.957031 88.082031 " clip-rule="nonzero"/></clipPath><clipPath id="e34e608547"><path d="M -3.949219 -17.617188 L 98.3125 67.285156 L 10.917969 172.554688 L -91.347656 87.652344 Z M -3.949219 -17.617188 " clip-rule="nonzero"/></clipPath><clipPath id="7b41fa0999"><rect x="0" width="99" y="0" height="89"/></clipPath><clipPath id="fbc69d8387"><rect x="0" width="356" y="0" height="193"/></clipPath></defs><g transform="matrix(1, 0, 0, 1, 10, 70)"><g clip-path="url(#fbc69d8387)"><g transform="matrix(1, 0, 0, 1, 1, 85)"><g clip-path="url(#2f607a267a)"><g fill="#b68fa4" fill-opacity="1"><g transform="translate(0.613858, 57.331113)"><g><path d="M 5.234375 0 C 4.878906 0 4.601562 -0.0976562 4.40625 -0.296875 C 4.207031 -0.492188 4.109375 -0.75 4.109375 -1.0625 L 4.109375 -42.375 C 4.109375 -42.726562 4.21875 -43.019531 4.4375 -43.25 C 4.65625 -43.488281 4.941406 -43.609375 5.296875 -43.609375 L 21.21875 -43.609375 C 26.976562 -43.609375 31.375 -42.640625 34.40625 -40.703125 C 37.445312 -38.765625 38.96875 -35.914062 38.96875 -32.15625 C 38.96875 -30 38.390625 -28.175781 37.234375 -26.6875 C 36.078125 -25.195312 34.085938 -23.84375 31.265625 -22.625 C 31.148438 -22.59375 31.09375 -22.515625 31.09375 -22.390625 C 31.09375 -22.273438 31.148438 -22.195312 31.265625 -22.15625 C 34.367188 -21.132812 36.601562 -19.8125 37.96875 -18.1875 C 39.34375 -16.5625 40.03125 -14.4375 40.03125 -11.8125 C 40.03125 -7.8125 38.519531 -4.84375 35.5 -2.90625 C 32.488281 -0.96875 27.984375 0 21.984375 0 Z M 21.6875 -6.9375 C 24.238281 -6.9375 26.148438 -7.460938 27.421875 -8.515625 C 28.691406 -9.578125 29.328125 -10.988281 29.328125 -12.75 C 29.328125 -14.007812 29.015625 -15.0625 28.390625 -15.90625 C 27.765625 -16.75 26.910156 -17.382812 25.828125 -17.8125 C 24.753906 -18.238281 23.515625 -18.453125 22.109375 -18.453125 L 15.515625 -18.453125 C 14.773438 -18.453125 14.40625 -18.117188 14.40625 -17.453125 L 14.40625 -8.046875 C 14.40625 -7.304688 14.675781 -6.9375 15.21875 -6.9375 Z M 22.109375 -25.625 C 23.003906 -25.625 23.851562 -25.722656 24.65625 -25.921875 C 25.457031 -26.117188 26.160156 -26.453125 26.765625 -26.921875 C 27.378906 -27.390625 27.867188 -27.957031 28.234375 -28.625 C 28.609375 -29.289062 28.796875 -30.078125 28.796875 -30.984375 C 28.796875 -32.816406 28.117188 -34.222656 26.765625 -35.203125 C 25.421875 -36.179688 23.691406 -36.671875 21.578125 -36.671875 L 15.515625 -36.671875 C 14.773438 -36.671875 14.40625 -36.34375 14.40625 -35.6875 L 14.40625 -26.6875 C 14.40625 -25.976562 14.675781 -25.625 15.21875 -25.625 Z M 22.109375 -25.625 "/></g></g></g><g fill="#b68fa4" fill-opacity="1"><g transform="translate(43.106334, 57.331113)"><g><path d="M 4.109375 -42.5 C 4.109375 -43.238281 4.425781 -43.609375 5.0625 -43.609375 L 34.6875 -43.609375 C 35.269531 -43.609375 35.5625 -43.273438 35.5625 -42.609375 L 35.5625 -37.328125 C 35.5625 -36.503906 35.148438 -36.09375 34.328125 -36.09375 L 15.515625 -36.09375 C 14.773438 -36.09375 14.40625 -35.78125 14.40625 -35.15625 L 14.40625 -26.625 C 14.40625 -25.957031 14.695312 -25.625 15.28125 -25.625 L 27.75 -25.625 C 28.414062 -25.625 28.75 -25.3125 28.75 -24.6875 L 28.75 -19.046875 C 28.75 -18.804688 28.675781 -18.609375 28.53125 -18.453125 C 28.394531 -18.296875 28.148438 -18.21875 27.796875 -18.21875 L 15.21875 -18.21875 C 14.675781 -18.21875 14.40625 -17.984375 14.40625 -17.515625 L 14.40625 -8.28125 C 14.40625 -7.78125 14.617188 -7.53125 15.046875 -7.53125 L 35.15625 -7.53125 C 35.851562 -7.53125 36.203125 -7.234375 36.203125 -6.640625 L 36.203125 -1.0625 C 36.203125 -0.75 36.113281 -0.492188 35.9375 -0.296875 C 35.769531 -0.0976562 35.46875 0 35.03125 0 L 5.40625 0 C 4.539062 0 4.109375 -0.410156 4.109375 -1.234375 Z M 4.109375 -42.5 "/></g></g></g><g fill="#b68fa4" fill-opacity="1"><g transform="translate(81.543508, 57.331113)"><g><path d="M 2.828125 0 C 2.472656 0 2.21875 -0.15625 2.0625 -0.46875 C 1.90625 -0.78125 1.90625 -1.191406 2.0625 -1.703125 L 16.6875 -42.4375 C 16.84375 -42.875 17.019531 -43.175781 17.21875 -43.34375 C 17.414062 -43.519531 17.75 -43.609375 18.21875 -43.609375 L 27.046875 -43.609375 C 27.898438 -43.609375 28.484375 -43.179688 28.796875 -42.328125 L 43.328125 -1.59375 C 43.441406 -1.269531 43.4375 -0.921875 43.3125 -0.546875 C 43.195312 -0.179688 42.960938 0 42.609375 0 L 33.96875 0 C 33.382812 0 33.015625 -0.273438 32.859375 -0.828125 L 29.796875 -9.40625 C 29.765625 -9.601562 29.695312 -9.757812 29.59375 -9.875 C 29.5 -9.988281 29.3125 -10.046875 29.03125 -10.046875 L 14.6875 -10.046875 C 14.300781 -10.046875 14.050781 -9.851562 13.9375 -9.46875 L 10.8125 -0.765625 C 10.738281 -0.523438 10.613281 -0.335938 10.4375 -0.203125 C 10.257812 -0.0664062 9.972656 0 9.578125 0 Z M 26.625 -17.875 C 27.175781 -17.875 27.351562 -18.207031 27.15625 -18.875 L 22.21875 -32.625 C 22.101562 -32.851562 21.972656 -32.96875 21.828125 -32.96875 C 21.691406 -32.96875 21.566406 -32.832031 21.453125 -32.5625 L 16.453125 -18.875 C 16.179688 -18.207031 16.359375 -17.875 16.984375 -17.875 Z M 26.625 -17.875 "/></g></g></g><g fill="#b68fa4" fill-opacity="1"><g transform="translate(124.094426, 57.331113)"><g><path d="M 38.734375 -16.171875 C 38.734375 -12.054688 38.023438 -8.765625 36.609375 -6.296875 C 35.203125 -3.828125 33.1875 -2.0625 30.5625 -1 C 27.9375 0.0625 24.800781 0.59375 21.15625 0.59375 C 16.882812 0.59375 13.460938 -0.0820312 10.890625 -1.4375 C 8.328125 -2.789062 6.46875 -4.789062 5.3125 -7.4375 C 4.15625 -10.082031 3.578125 -13.34375 3.578125 -17.21875 L 3.578125 -42.4375 C 3.578125 -43.21875 3.894531 -43.609375 4.53125 -43.609375 L 12.984375 -43.609375 C 13.578125 -43.609375 13.875 -43.257812 13.875 -42.5625 L 13.875 -15.9375 C 13.875 -12.71875 14.566406 -10.382812 15.953125 -8.9375 C 17.347656 -7.488281 19.335938 -6.765625 21.921875 -6.765625 C 23.566406 -6.765625 25.015625 -7.066406 26.265625 -7.671875 C 27.523438 -8.273438 28.503906 -9.265625 29.203125 -10.640625 C 29.910156 -12.015625 30.265625 -13.835938 30.265625 -16.109375 L 30.265625 -42.5 C 30.265625 -43.238281 30.5625 -43.609375 31.15625 -43.609375 L 37.859375 -43.609375 C 38.441406 -43.609375 38.734375 -43.257812 38.734375 -42.5625 Z M 38.734375 -16.171875 "/></g></g></g><g fill="#b68fa4" fill-opacity="1"><g transform="translate(166.469356, 57.331113)"><g><path d="M 5.34375 0 C 4.519531 0 4.109375 -0.453125 4.109375 -1.359375 L 4.109375 -42.5 C 4.109375 -43.238281 4.441406 -43.609375 5.109375 -43.609375 L 17.28125 -43.609375 C 17.707031 -43.609375 18.019531 -43.550781 18.21875 -43.4375 C 18.414062 -43.320312 18.570312 -43.085938 18.6875 -42.734375 L 27.5625 -18.109375 C 27.6875 -17.753906 27.828125 -17.585938 27.984375 -17.609375 C 28.140625 -17.628906 28.273438 -17.796875 28.390625 -18.109375 L 36.859375 -42.265625 C 37.085938 -43.160156 37.519531 -43.609375 38.15625 -43.609375 L 50.78125 -43.609375 C 51.375 -43.609375 51.671875 -43.257812 51.671875 -42.5625 L 51.671875 -1.40625 C 51.671875 -0.46875 51.179688 0 50.203125 0 L 42.609375 0 C 42.140625 0 41.816406 -0.0976562 41.640625 -0.296875 C 41.460938 -0.492188 41.375 -0.785156 41.375 -1.171875 L 41.375 -30.453125 C 41.375 -30.722656 41.304688 -30.847656 41.171875 -30.828125 C 41.035156 -30.804688 40.929688 -30.660156 40.859375 -30.390625 L 30.5625 -0.9375 C 30.332031 -0.3125 29.921875 0 29.328125 0 L 24.453125 0 C 23.785156 0 23.351562 -0.3125 23.15625 -0.9375 L 12.984375 -29.984375 C 12.867188 -30.328125 12.742188 -30.476562 12.609375 -30.4375 C 12.472656 -30.40625 12.40625 -30.234375 12.40625 -29.921875 L 12.40625 -1.0625 C 12.40625 -0.664062 12.332031 -0.390625 12.1875 -0.234375 C 12.050781 -0.078125 11.769531 0 11.34375 0 Z M 5.34375 0 "/></g></g></g><g fill="#b68fa4" fill-opacity="1"><g transform="translate(222.244405, 57.331113)"><g><path d="M 22.8125 0.59375 C 18.65625 0.59375 15.066406 -0.296875 12.046875 -2.078125 C 9.035156 -3.867188 6.710938 -6.425781 5.078125 -9.75 C 3.453125 -13.082031 2.640625 -17.039062 2.640625 -21.625 C 2.640625 -26.289062 3.472656 -30.304688 5.140625 -33.671875 C 6.804688 -37.046875 9.144531 -39.644531 12.15625 -41.46875 C 15.175781 -43.289062 18.726562 -44.203125 22.8125 -44.203125 C 26.882812 -44.203125 30.414062 -43.289062 33.40625 -41.46875 C 36.40625 -39.644531 38.726562 -37.054688 40.375 -33.703125 C 42.019531 -30.359375 42.84375 -26.351562 42.84375 -21.6875 C 42.84375 -17.101562 42.03125 -13.144531 40.40625 -9.8125 C 38.78125 -6.476562 36.457031 -3.910156 33.4375 -2.109375 C 30.425781 -0.304688 26.882812 0.59375 22.8125 0.59375 Z M 22.8125 -6.640625 C 26.019531 -6.640625 28.367188 -7.804688 29.859375 -10.140625 C 31.347656 -12.472656 32.09375 -16.285156 32.09375 -21.578125 C 32.09375 -26.984375 31.335938 -30.910156 29.828125 -33.359375 C 28.316406 -35.804688 25.976562 -37.03125 22.8125 -37.03125 C 19.59375 -37.03125 17.21875 -35.796875 15.6875 -33.328125 C 14.164062 -30.859375 13.40625 -26.941406 13.40625 -21.578125 C 13.40625 -16.328125 14.15625 -12.523438 15.65625 -10.171875 C 17.164062 -7.816406 19.550781 -6.640625 22.8125 -6.640625 Z M 22.8125 -6.640625 "/></g></g></g><g fill="#b68fa4" fill-opacity="1"><g transform="translate(267.734291, 57.331113)"><g><path d="M 39.734375 -43.609375 C 40.242188 -43.609375 40.5 -43.316406 40.5 -42.734375 L 40.5 -0.9375 C 40.5 -0.664062 40.398438 -0.441406 40.203125 -0.265625 C 40.003906 -0.0859375 39.734375 0 39.390625 0 L 33.453125 0 C 33.128906 0 32.867188 -0.0351562 32.671875 -0.109375 C 32.484375 -0.191406 32.253906 -0.390625 31.984375 -0.703125 L 13.21875 -27.046875 C 13.0625 -27.234375 12.914062 -27.304688 12.78125 -27.265625 C 12.644531 -27.234375 12.578125 -27.117188 12.578125 -26.921875 L 12.578125 -1.0625 C 12.617188 -0.351562 12.226562 0 11.40625 0 L 5.296875 0 C 4.503906 0 4.109375 -0.332031 4.109375 -1 L 4.109375 -42.5 C 4.109375 -43.238281 4.460938 -43.609375 5.171875 -43.609375 L 12.28125 -43.609375 C 12.71875 -43.609375 13.039062 -43.550781 13.25 -43.4375 C 13.46875 -43.320312 13.710938 -43.085938 13.984375 -42.734375 L 31.265625 -18.109375 C 31.503906 -17.796875 31.710938 -17.65625 31.890625 -17.6875 C 32.066406 -17.726562 32.15625 -17.925781 32.15625 -18.28125 L 32.15625 -42.5625 C 32.15625 -43.257812 32.507812 -43.609375 33.21875 -43.609375 Z M 39.734375 -43.609375 "/></g></g></g><g fill="#b68fa4" fill-opacity="1"><g transform="translate(312.342552, 57.331113)"><g><path d="M 1.9375 -42.5625 C 1.9375 -42.875 2.035156 -43.125 2.234375 -43.3125 C 2.429688 -43.507812 2.722656 -43.609375 3.109375 -43.609375 L 36.859375 -43.609375 C 37.285156 -43.609375 37.585938 -43.507812 37.765625 -43.3125 C 37.941406 -43.125 38.03125 -42.875 38.03125 -42.5625 L 38.03125 -37.09375 C 38.03125 -36.5 37.675781 -36.203125 36.96875 -36.203125 L 25.984375 -36.203125 C 25.546875 -36.203125 25.328125 -36.007812 25.328125 -35.625 L 25.328125 -1.109375 C 25.328125 -0.367188 24.992188 0 24.328125 0 L 15.9375 0 C 15.34375 0 15.046875 -0.332031 15.046875 -1 L 15.046875 -35.4375 C 15.046875 -35.945312 14.832031 -36.203125 14.40625 -36.203125 L 3.0625 -36.203125 C 2.3125 -36.203125 1.9375 -36.5 1.9375 -37.09375 Z M 1.9375 -42.5625 "/></g></g></g></g></g><g transform="matrix(1, 0, 0, 1, 2, 144)"><g clip-path="url(#c7bb6a6fc2)"><g fill="#b68fa4" fill-opacity="1"><g transform="translate(1.326633, 35.066622)"><g><path d="M 2.53125 -26.203125 C 2.53125 -26.660156 2.726562 -26.890625 3.125 -26.890625 L 8.296875 -26.890625 C 8.679688 -26.890625 8.875 -26.675781 8.875 -26.25 L 8.875 -5.109375 C 8.875 -4.796875 9.007812 -4.640625 9.28125 -4.640625 L 20.84375 -4.640625 C 21.28125 -4.640625 21.5 -4.457031 21.5 -4.09375 L 21.5 -0.65625 C 21.5 -0.457031 21.441406 -0.296875 21.328125 -0.171875 C 21.222656 -0.0546875 21.050781 0 20.8125 0 L 3.328125 0 C 3.015625 0 2.800781 -0.0546875 2.6875 -0.171875 C 2.582031 -0.296875 2.53125 -0.492188 2.53125 -0.765625 Z M 2.53125 -26.203125 "/></g></g></g><g fill="#b68fa4" fill-opacity="1"><g transform="translate(24.054359, 35.066622)"><g><path d="M 8.296875 -26.890625 C 8.679688 -26.890625 8.875 -26.675781 8.875 -26.25 L 8.875 -0.875 C 8.875 -0.5625 8.796875 -0.335938 8.640625 -0.203125 C 8.484375 -0.0664062 8.238281 0 7.90625 0 L 3.328125 0 C 3.015625 0 2.800781 -0.0546875 2.6875 -0.171875 C 2.582031 -0.296875 2.53125 -0.492188 2.53125 -0.765625 L 2.53125 -26.203125 C 2.53125 -26.660156 2.726562 -26.890625 3.125 -26.890625 Z M 8.296875 -26.890625 "/></g></g></g><g fill="#b68fa4" fill-opacity="1"><g transform="translate(35.472593, 35.066622)"><g><path d="M 3.21875 0 C 3.007812 0 2.84375 -0.0546875 2.71875 -0.171875 C 2.59375 -0.296875 2.53125 -0.457031 2.53125 -0.65625 L 2.53125 -26.140625 C 2.53125 -26.359375 2.597656 -26.535156 2.734375 -26.671875 C 2.867188 -26.816406 3.046875 -26.890625 3.265625 -26.890625 L 13.09375 -26.890625 C 16.644531 -26.890625 19.351562 -26.289062 21.21875 -25.09375 C 23.09375 -23.90625 24.03125 -22.148438 24.03125 -19.828125 C 24.03125 -18.492188 23.671875 -17.367188 22.953125 -16.453125 C 22.242188 -15.535156 21.019531 -14.703125 19.28125 -13.953125 C 19.207031 -13.929688 19.171875 -13.882812 19.171875 -13.8125 C 19.171875 -13.738281 19.207031 -13.691406 19.28125 -13.671875 C 21.195312 -13.035156 22.578125 -12.21875 23.421875 -11.21875 C 24.265625 -10.21875 24.6875 -8.90625 24.6875 -7.28125 C 24.6875 -4.820312 23.753906 -2.992188 21.890625 -1.796875 C 20.035156 -0.597656 17.257812 0 13.5625 0 Z M 13.375 -4.28125 C 14.945312 -4.28125 16.125 -4.601562 16.90625 -5.25 C 17.695312 -5.90625 18.09375 -6.773438 18.09375 -7.859375 C 18.09375 -8.640625 17.894531 -9.285156 17.5 -9.796875 C 17.113281 -10.316406 16.585938 -10.707031 15.921875 -10.96875 C 15.265625 -11.238281 14.5 -11.375 13.625 -11.375 L 9.5625 -11.375 C 9.101562 -11.375 8.875 -11.171875 8.875 -10.765625 L 8.875 -4.96875 C 8.875 -4.507812 9.046875 -4.28125 9.390625 -4.28125 Z M 13.625 -15.8125 C 14.1875 -15.8125 14.710938 -15.867188 15.203125 -15.984375 C 15.703125 -16.109375 16.140625 -16.3125 16.515625 -16.59375 C 16.890625 -16.882812 17.191406 -17.234375 17.421875 -17.640625 C 17.648438 -18.054688 17.765625 -18.546875 17.765625 -19.109375 C 17.765625 -20.242188 17.347656 -21.113281 16.515625 -21.71875 C 15.679688 -22.320312 14.609375 -22.625 13.296875 -22.625 L 9.5625 -22.625 C 9.101562 -22.625 8.875 -22.414062 8.875 -22 L 8.875 -16.453125 C 8.875 -16.023438 9.046875 -15.8125 9.390625 -15.8125 Z M 13.625 -15.8125 "/></g></g></g><g fill="#b68fa4" fill-opacity="1"><g transform="translate(61.680151, 35.066622)"><g><path d="M 24.359375 -0.984375 C 24.453125 -0.710938 24.441406 -0.476562 24.328125 -0.28125 C 24.222656 -0.09375 24.050781 0 23.8125 0 L 18.484375 0 C 18.078125 0 17.8125 -0.21875 17.6875 -0.65625 L 13.78125 -10.796875 C 13.632812 -11.140625 13.296875 -11.3125 12.765625 -11.3125 L 9.3125 -11.3125 C 9.144531 -11.3125 9.03125 -11.257812 8.96875 -11.15625 C 8.90625 -11.0625 8.875 -10.976562 8.875 -10.90625 L 8.875 -0.875 C 8.875 -0.289062 8.550781 0 7.90625 0 L 3.296875 0 C 3.003906 0 2.800781 -0.0546875 2.6875 -0.171875 C 2.582031 -0.296875 2.53125 -0.476562 2.53125 -0.71875 L 2.53125 -26.203125 C 2.53125 -26.660156 2.726562 -26.890625 3.125 -26.890625 L 14.421875 -26.890625 C 17.660156 -26.890625 20.179688 -26.25 21.984375 -24.96875 C 23.785156 -23.695312 24.6875 -21.875 24.6875 -19.5 C 24.6875 -18.269531 24.457031 -17.171875 24 -16.203125 C 23.539062 -15.234375 22.9375 -14.425781 22.1875 -13.78125 C 21.4375 -13.144531 20.613281 -12.671875 19.71875 -12.359375 C 19.5 -12.285156 19.453125 -12.101562 19.578125 -11.8125 Z M 13.84375 -15.59375 C 15.21875 -15.59375 16.273438 -15.882812 17.015625 -16.46875 C 17.753906 -17.0625 18.125 -17.925781 18.125 -19.0625 C 18.125 -20.25 17.75 -21.144531 17 -21.75 C 16.25 -22.351562 15.257812 -22.65625 14.03125 -22.65625 L 9.5625 -22.65625 C 9.101562 -22.65625 8.875 -22.453125 8.875 -22.046875 L 8.875 -16.203125 C 8.875 -15.796875 9.046875 -15.59375 9.390625 -15.59375 Z M 13.84375 -15.59375 "/></g></g></g><g fill="#b68fa4" fill-opacity="1"><g transform="translate(86.872755, 35.066622)"><g><path d="M 1.734375 0 C 1.515625 0 1.359375 -0.09375 1.265625 -0.28125 C 1.171875 -0.476562 1.171875 -0.734375 1.265625 -1.046875 L 10.296875 -26.171875 C 10.390625 -26.441406 10.492188 -26.628906 10.609375 -26.734375 C 10.734375 -26.835938 10.941406 -26.890625 11.234375 -26.890625 L 16.671875 -26.890625 C 17.203125 -26.890625 17.566406 -26.625 17.765625 -26.09375 L 26.71875 -0.984375 C 26.789062 -0.785156 26.789062 -0.570312 26.71875 -0.34375 C 26.644531 -0.113281 26.5 0 26.28125 0 L 20.953125 0 C 20.585938 0 20.359375 -0.164062 20.265625 -0.5 L 18.375 -5.796875 C 18.351562 -5.921875 18.3125 -6.019531 18.25 -6.09375 C 18.1875 -6.164062 18.070312 -6.203125 17.90625 -6.203125 L 9.0625 -6.203125 C 8.820312 -6.203125 8.664062 -6.082031 8.59375 -5.84375 L 6.671875 -0.46875 C 6.617188 -0.320312 6.535156 -0.207031 6.421875 -0.125 C 6.316406 -0.0390625 6.144531 0 5.90625 0 Z M 16.421875 -11.015625 C 16.753906 -11.015625 16.863281 -11.222656 16.75 -11.640625 L 13.703125 -20.125 C 13.628906 -20.269531 13.550781 -20.34375 13.46875 -20.34375 C 13.382812 -20.34375 13.304688 -20.253906 13.234375 -20.078125 L 10.15625 -11.640625 C 9.976562 -11.222656 10.082031 -11.015625 10.46875 -11.015625 Z M 16.421875 -11.015625 "/></g></g></g><g fill="#b68fa4" fill-opacity="1"><g transform="translate(114.82024, 35.066622)"><g><path d="M 24.359375 -0.984375 C 24.453125 -0.710938 24.441406 -0.476562 24.328125 -0.28125 C 24.222656 -0.09375 24.050781 0 23.8125 0 L 18.484375 0 C 18.078125 0 17.8125 -0.21875 17.6875 -0.65625 L 13.78125 -10.796875 C 13.632812 -11.140625 13.296875 -11.3125 12.765625 -11.3125 L 9.3125 -11.3125 C 9.144531 -11.3125 9.03125 -11.257812 8.96875 -11.15625 C 8.90625 -11.0625 8.875 -10.976562 8.875 -10.90625 L 8.875 -0.875 C 8.875 -0.289062 8.550781 0 7.90625 0 L 3.296875 0 C 3.003906 0 2.800781 -0.0546875 2.6875 -0.171875 C 2.582031 -0.296875 2.53125 -0.476562 2.53125 -0.71875 L 2.53125 -26.203125 C 2.53125 -26.660156 2.726562 -26.890625 3.125 -26.890625 L 14.421875 -26.890625 C 17.660156 -26.890625 20.179688 -26.25 21.984375 -24.96875 C 23.785156 -23.695312 24.6875 -21.875 24.6875 -19.5 C 24.6875 -18.269531 24.457031 -17.171875 24 -16.203125 C 23.539062 -15.234375 22.9375 -14.425781 22.1875 -13.78125 C 21.4375 -13.144531 20.613281 -12.671875 19.71875 -12.359375 C 19.5 -12.285156 19.453125 -12.101562 19.578125 -11.8125 Z M 13.84375 -15.59375 C 15.21875 -15.59375 16.273438 -15.882812 17.015625 -16.46875 C 17.753906 -17.0625 18.125 -17.925781 18.125 -19.0625 C 18.125 -20.25 17.75 -21.144531 17 -21.75 C 16.25 -22.351562 15.257812 -22.65625 14.03125 -22.65625 L 9.5625 -22.65625 C 9.101562 -22.65625 8.875 -22.453125 8.875 -22.046875 L 8.875 -16.203125 C 8.875 -15.796875 9.046875 -15.59375 9.390625 -15.59375 Z M 13.84375 -15.59375 "/></g></g></g><g fill="#b68fa4" fill-opacity="1"><g transform="translate(139.867861, 35.066622)"><g><path d="M 25.015625 -26.890625 C 25.253906 -26.890625 25.410156 -26.820312 25.484375 -26.6875 C 25.554688 -26.5625 25.53125 -26.390625 25.40625 -26.171875 L 16.890625 -12.21875 C 16.742188 -12 16.660156 -11.773438 16.640625 -11.546875 C 16.617188 -11.316406 16.609375 -10.898438 16.609375 -10.296875 L 16.609375 -0.875 C 16.609375 -0.289062 16.269531 0 15.59375 0 L 11.0625 0 C 10.738281 0 10.523438 -0.0546875 10.421875 -0.171875 C 10.316406 -0.296875 10.265625 -0.492188 10.265625 -0.765625 L 10.265625 -10.515625 C 10.265625 -10.847656 10.226562 -11.097656 10.15625 -11.265625 C 10.082031 -11.441406 9.972656 -11.640625 9.828125 -11.859375 L 1.234375 -26.0625 C 1.085938 -26.300781 1.0625 -26.5 1.15625 -26.65625 C 1.257812 -26.8125 1.46875 -26.890625 1.78125 -26.890625 L 7.21875 -26.890625 C 7.53125 -26.890625 7.742188 -26.84375 7.859375 -26.75 C 7.984375 -26.65625 8.117188 -26.488281 8.265625 -26.25 L 13.625 -16.8125 C 13.769531 -16.570312 13.890625 -16.445312 13.984375 -16.4375 C 14.085938 -16.425781 14.195312 -16.53125 14.3125 -16.75 L 19.609375 -26.25 C 19.753906 -26.507812 19.894531 -26.679688 20.03125 -26.765625 C 20.164062 -26.847656 20.375 -26.890625 20.65625 -26.890625 Z M 25.015625 -26.890625 "/></g></g></g><g fill="#b68fa4" fill-opacity="1"><g transform="translate(166.510407, 35.066622)"><g/></g></g><g fill="#b68fa4" fill-opacity="1"><g transform="translate(173.977561, 35.066622)"><g><path d="M 3.375 0 C 2.8125 0 2.53125 -0.289062 2.53125 -0.875 L 2.53125 -26.140625 C 2.53125 -26.429688 2.59375 -26.628906 2.71875 -26.734375 C 2.84375 -26.835938 3.046875 -26.890625 3.328125 -26.890625 C 3.859375 -26.890625 4.476562 -26.890625 5.1875 -26.890625 C 5.90625 -26.890625 6.648438 -26.890625 7.421875 -26.890625 C 8.203125 -26.890625 8.941406 -26.890625 9.640625 -26.890625 C 10.335938 -26.890625 10.929688 -26.878906 11.421875 -26.859375 C 14.679688 -26.785156 17.363281 -26.191406 19.46875 -25.078125 C 21.570312 -23.972656 23.125 -22.445312 24.125 -20.5 C 25.125 -18.550781 25.625 -16.238281 25.625 -13.5625 C 25.625 -10.800781 25.097656 -8.398438 24.046875 -6.359375 C 22.992188 -4.316406 21.398438 -2.742188 19.265625 -1.640625 C 17.128906 -0.546875 14.453125 0 11.234375 0 Z M 9.359375 -4.453125 L 10.046875 -4.453125 C 12.023438 -4.453125 13.675781 -4.75 15 -5.34375 C 16.332031 -5.9375 17.332031 -6.894531 18 -8.21875 C 18.664062 -9.550781 19 -11.316406 19 -13.515625 C 19 -15.648438 18.6875 -17.363281 18.0625 -18.65625 C 17.445312 -19.945312 16.503906 -20.894531 15.234375 -21.5 C 13.972656 -22.101562 12.363281 -22.40625 10.40625 -22.40625 L 9.25 -22.40625 C 9 -22.40625 8.875 -22.234375 8.875 -21.890625 L 8.875 -4.96875 C 8.875 -4.625 9.035156 -4.453125 9.359375 -4.453125 Z M 9.359375 -4.453125 "/></g></g></g><g fill="#b68fa4" fill-opacity="1"><g transform="translate(201.200075, 35.066622)"><g><path d="M 8.296875 -26.890625 C 8.679688 -26.890625 8.875 -26.675781 8.875 -26.25 L 8.875 -0.875 C 8.875 -0.5625 8.796875 -0.335938 8.640625 -0.203125 C 8.484375 -0.0664062 8.238281 0 7.90625 0 L 3.328125 0 C 3.015625 0 2.800781 -0.0546875 2.6875 -0.171875 C 2.582031 -0.296875 2.53125 -0.492188 2.53125 -0.765625 L 2.53125 -26.203125 C 2.53125 -26.660156 2.726562 -26.890625 3.125 -26.890625 Z M 8.296875 -26.890625 "/></g></g></g><g fill="#b68fa4" fill-opacity="1"><g transform="translate(212.618309, 35.066622)"><g><path d="M 17.984375 -20.546875 C 17.453125 -21.128906 16.789062 -21.648438 16 -22.109375 C 15.21875 -22.566406 14.101562 -22.796875 12.65625 -22.796875 C 11.132812 -22.796875 10 -22.523438 9.25 -21.984375 C 8.5 -21.441406 8.125 -20.75 8.125 -19.90625 C 8.125 -19.613281 8.195312 -19.296875 8.34375 -18.953125 C 8.488281 -18.617188 8.773438 -18.296875 9.203125 -17.984375 C 9.640625 -17.671875 10.257812 -17.390625 11.0625 -17.140625 L 16.78125 -15.515625 C 19.007812 -14.910156 20.628906 -13.9375 21.640625 -12.59375 C 22.648438 -11.25 23.15625 -9.695312 23.15625 -7.9375 C 23.15625 -6.25 22.71875 -4.78125 21.84375 -3.53125 C 20.976562 -2.289062 19.738281 -1.332031 18.125 -0.65625 C 16.507812 0.0195312 14.585938 0.359375 12.359375 0.359375 C 10.710938 0.359375 9.171875 0.171875 7.734375 -0.203125 C 6.296875 -0.578125 5.023438 -1.117188 3.921875 -1.828125 C 2.828125 -2.546875 1.96875 -3.375 1.34375 -4.3125 C 1.21875 -4.550781 1.164062 -4.75 1.1875 -4.90625 C 1.21875 -5.0625 1.34375 -5.226562 1.5625 -5.40625 L 4.34375 -7.328125 C 4.632812 -7.492188 4.867188 -7.5625 5.046875 -7.53125 C 5.234375 -7.507812 5.398438 -7.414062 5.546875 -7.25 C 6.128906 -6.519531 6.703125 -5.914062 7.265625 -5.4375 C 7.835938 -4.957031 8.5 -4.609375 9.25 -4.390625 C 10 -4.171875 10.890625 -4.0625 11.921875 -4.0625 C 13.492188 -4.0625 14.75 -4.304688 15.6875 -4.796875 C 16.632812 -5.296875 17.109375 -6.066406 17.109375 -7.109375 C 17.109375 -7.515625 17.007812 -7.890625 16.8125 -8.234375 C 16.625 -8.585938 16.316406 -8.90625 15.890625 -9.1875 C 15.472656 -9.46875 14.875 -9.726562 14.09375 -9.96875 L 8.625 -11.53125 C 7.195312 -11.9375 6 -12.515625 5.03125 -13.265625 C 4.070312 -14.015625 3.34375 -14.894531 2.84375 -15.90625 C 2.351562 -16.925781 2.109375 -17.992188 2.109375 -19.109375 C 2.109375 -20.648438 2.535156 -22.035156 3.390625 -23.265625 C 4.242188 -24.503906 5.453125 -25.476562 7.015625 -26.1875 C 8.578125 -26.90625 10.394531 -27.265625 12.46875 -27.265625 C 13.84375 -27.265625 15.128906 -27.101562 16.328125 -26.78125 C 17.523438 -26.46875 18.609375 -26.035156 19.578125 -25.484375 C 20.546875 -24.929688 21.332031 -24.253906 21.9375 -23.453125 C 22.03125 -23.328125 22.097656 -23.1875 22.140625 -23.03125 C 22.191406 -22.875 22.125 -22.710938 21.9375 -22.546875 L 18.890625 -20.296875 C 18.742188 -20.203125 18.609375 -20.171875 18.484375 -20.203125 C 18.367188 -20.242188 18.203125 -20.359375 17.984375 -20.546875 Z M 17.984375 -20.546875 "/></g></g></g><g fill="#b68fa4" fill-opacity="1"><g transform="translate(236.288489, 35.066622)"><g><path d="M 1.203125 -26.25 C 1.203125 -26.4375 1.257812 -26.585938 1.375 -26.703125 C 1.5 -26.828125 1.679688 -26.890625 1.921875 -26.890625 L 22.734375 -26.890625 C 22.992188 -26.890625 23.175781 -26.828125 23.28125 -26.703125 C 23.394531 -26.585938 23.453125 -26.4375 23.453125 -26.25 L 23.453125 -22.875 C 23.453125 -22.507812 23.234375 -22.328125 22.796875 -22.328125 L 16.015625 -22.328125 C 15.753906 -22.328125 15.625 -22.207031 15.625 -21.96875 L 15.625 -0.6875 C 15.625 -0.226562 15.414062 0 15 0 L 9.828125 0 C 9.460938 0 9.28125 -0.203125 9.28125 -0.609375 L 9.28125 -21.859375 C 9.28125 -22.171875 9.144531 -22.328125 8.875 -22.328125 L 1.890625 -22.328125 C 1.429688 -22.328125 1.203125 -22.507812 1.203125 -22.875 Z M 1.203125 -26.25 "/></g></g></g><g fill="#b68fa4" fill-opacity="1"><g transform="translate(260.973624, 35.066622)"><g><path d="M 24.359375 -0.984375 C 24.453125 -0.710938 24.441406 -0.476562 24.328125 -0.28125 C 24.222656 -0.09375 24.050781 0 23.8125 0 L 18.484375 0 C 18.078125 0 17.8125 -0.21875 17.6875 -0.65625 L 13.78125 -10.796875 C 13.632812 -11.140625 13.296875 -11.3125 12.765625 -11.3125 L 9.3125 -11.3125 C 9.144531 -11.3125 9.03125 -11.257812 8.96875 -11.15625 C 8.90625 -11.0625 8.875 -10.976562 8.875 -10.90625 L 8.875 -0.875 C 8.875 -0.289062 8.550781 0 7.90625 0 L 3.296875 0 C 3.003906 0 2.800781 -0.0546875 2.6875 -0.171875 C 2.582031 -0.296875 2.53125 -0.476562 2.53125 -0.71875 L 2.53125 -26.203125 C 2.53125 -26.660156 2.726562 -26.890625 3.125 -26.890625 L 14.421875 -26.890625 C 17.660156 -26.890625 20.179688 -26.25 21.984375 -24.96875 C 23.785156 -23.695312 24.6875 -21.875 24.6875 -19.5 C 24.6875 -18.269531 24.457031 -17.171875 24 -16.203125 C 23.539062 -15.234375 22.9375 -14.425781 22.1875 -13.78125 C 21.4375 -13.144531 20.613281 -12.671875 19.71875 -12.359375 C 19.5 -12.285156 19.453125 -12.101562 19.578125 -11.8125 Z M 13.84375 -15.59375 C 15.21875 -15.59375 16.273438 -15.882812 17.015625 -16.46875 C 17.753906 -17.0625 18.125 -17.925781 18.125 -19.0625 C 18.125 -20.25 17.75 -21.144531 17 -21.75 C 16.25 -22.351562 15.257812 -22.65625 14.03125 -22.65625 L 9.5625 -22.65625 C 9.101562 -22.65625 8.875 -22.453125 8.875 -22.046875 L 8.875 -16.203125 C 8.875 -15.796875 9.046875 -15.59375 9.390625 -15.59375 Z M 13.84375 -15.59375 "/></g></g></g><g fill="#b68fa4" fill-opacity="1"><g transform="translate(287.144942, 35.066622)"><g><path d="M 8.296875 -26.890625 C 8.679688 -26.890625 8.875 -26.675781 8.875 -26.25 L 8.875 -0.875 C 8.875 -0.5625 8.796875 -0.335938 8.640625 -0.203125 C 8.484375 -0.0664062 8.238281 0 7.90625 0 L 3.328125 0 C 3.015625 0 2.800781 -0.0546875 2.6875 -0.171875 C 2.582031 -0.296875 2.53125 -0.492188 2.53125 -0.765625 L 2.53125 -26.203125 C 2.53125 -26.660156 2.726562 -26.890625 3.125 -26.890625 Z M 8.296875 -26.890625 "/></g></g></g><g fill="#b68fa4" fill-opacity="1"><g transform="translate(298.563176, 35.066622)"><g><path d="M 13.84375 -27.265625 C 15.25 -27.265625 16.5625 -27.0625 17.78125 -26.65625 C 19 -26.257812 20.09375 -25.695312 21.0625 -24.96875 C 22.03125 -24.25 22.820312 -23.40625 23.4375 -22.4375 C 24.050781 -21.46875 24.457031 -20.414062 24.65625 -19.28125 C 24.75 -18.894531 24.765625 -18.640625 24.703125 -18.515625 C 24.640625 -18.398438 24.5 -18.332031 24.28125 -18.3125 L 19.390625 -17.984375 C 19.171875 -17.984375 19.03125 -18.023438 18.96875 -18.109375 C 18.914062 -18.191406 18.863281 -18.332031 18.8125 -18.53125 C 18.550781 -19.78125 18.03125 -20.8125 17.25 -21.625 C 16.476562 -22.4375 15.40625 -22.84375 14.03125 -22.84375 C 12.21875 -22.84375 10.796875 -22.109375 9.765625 -20.640625 C 8.742188 -19.179688 8.234375 -16.820312 8.234375 -13.5625 C 8.234375 -10.320312 8.722656 -7.96875 9.703125 -6.5 C 10.679688 -5.039062 12.144531 -4.3125 14.09375 -4.3125 C 15.5 -4.3125 16.707031 -4.660156 17.71875 -5.359375 C 18.738281 -6.066406 19.578125 -7.265625 20.234375 -8.953125 C 20.328125 -9.171875 20.59375 -9.242188 21.03125 -9.171875 L 24.578125 -8.40625 C 24.703125 -8.382812 24.8125 -8.316406 24.90625 -8.203125 C 25 -8.097656 25.019531 -7.863281 24.96875 -7.5 C 24.851562 -7 24.617188 -6.410156 24.265625 -5.734375 C 23.921875 -5.054688 23.457031 -4.359375 22.875 -3.640625 C 22.289062 -2.929688 21.570312 -2.273438 20.71875 -1.671875 C 19.863281 -1.066406 18.863281 -0.578125 17.71875 -0.203125 C 16.582031 0.171875 15.289062 0.359375 13.84375 0.359375 C 11.351562 0.359375 9.179688 -0.226562 7.328125 -1.40625 C 5.484375 -2.59375 4.066406 -4.238281 3.078125 -6.34375 C 2.085938 -8.445312 1.59375 -10.890625 1.59375 -13.671875 C 1.59375 -16.472656 2.085938 -18.878906 3.078125 -20.890625 C 4.066406 -22.910156 5.476562 -24.476562 7.3125 -25.59375 C 9.15625 -26.707031 11.332031 -27.265625 13.84375 -27.265625 Z M 13.84375 -27.265625 "/></g></g></g><g fill="#b68fa4" fill-opacity="1"><g transform="translate(323.973282, 35.066622)"><g><path d="M 1.203125 -26.25 C 1.203125 -26.4375 1.257812 -26.585938 1.375 -26.703125 C 1.5 -26.828125 1.679688 -26.890625 1.921875 -26.890625 L 22.734375 -26.890625 C 22.992188 -26.890625 23.175781 -26.828125 23.28125 -26.703125 C 23.394531 -26.585938 23.453125 -26.4375 23.453125 -26.25 L 23.453125 -22.875 C 23.453125 -22.507812 23.234375 -22.328125 22.796875 -22.328125 L 16.015625 -22.328125 C 15.753906 -22.328125 15.625 -22.207031 15.625 -21.96875 L 15.625 -0.6875 C 15.625 -0.226562 15.414062 0 15 0 L 9.828125 0 C 9.460938 0 9.28125 -0.203125 9.28125 -0.609375 L 9.28125 -21.859375 C 9.28125 -22.171875 9.144531 -22.328125 8.875 -22.328125 L 1.890625 -22.328125 C 1.429688 -22.328125 1.203125 -22.507812 1.203125 -22.875 Z M 1.203125 -26.25 "/></g></g></g></g></g><g clip-path="url(#62389e2cb5)"><path stroke-linecap="butt" transform="matrix(0.390918, 0, 0, 0.390918, 5.339534, 58.471593)" fill="none" stroke-linejoin="miter" d="M 0.000792025 11.504081 L 246.595579 11.504081 " stroke="#b68fa4" stroke-width="23" stroke-opacity="1" stroke-miterlimit="4"/></g><g clip-path="url(#1d2619840f)"><path stroke-linecap="butt" transform="matrix(0.390918, 0, 0, 0.390918, 254.62817, 58.530422)" fill="none" stroke-linejoin="miter" d="M 0.00188256 11.50348 L 246.396819 11.50348 " stroke="#b68fa4" stroke-width="23" stroke-opacity="1" stroke-miterlimit="4"/></g><path stroke-linecap="butt" transform="matrix(0, 0.390918, -0.390918, 0, 263.580124, 46.111155)" fill="none" stroke-linejoin="miter" d="M -0.00455281 11.496483 L 54.714349 11.496483 " stroke="#b68fa4" stroke-width="23" stroke-opacity="1" stroke-miterlimit="4"/><path stroke-linecap="butt" transform="matrix(0, 0.390918, -0.390918, 0, 101.739288, 46.079624)" fill="none" stroke-linejoin="miter" d="M -0.00383348 11.503938 L 54.635128 11.503938 " stroke="#b68fa4" stroke-width="23" stroke-opacity="1" stroke-miterlimit="4"/><path stroke-linecap="butt" transform="matrix(0, 0.390918, -0.390918, 0, 350.972667, 58.629504)" fill="none" stroke-linejoin="miter" d="M -0.00152795 11.50139 L 77.909954 11.50139 " stroke="#b68fa4" stroke-width="23" stroke-opacity="1" stroke-miterlimit="4"/><path stroke-linecap="butt" transform="matrix(0.390918, 0, 0, 0.390918, 87.032368, 41.615506)" fill="none" stroke-linejoin="miter" d="M -0.00285924 11.49567 L 466.137031 11.49567 " stroke="#b68fa4" stroke-width="23" stroke-opacity="1" stroke-miterlimit="4"/><g clip-path="url(#53ae105ceb)"><g clip-path="url(#14a81707b1)"><g transform="matrix(1, 0, 0, 1, 167, 63)"><g clip-path="url(#3e8a8d4fb7)"><g clip-path="url(#18a46b68aa)"><g clip-path="url(#9aa6903abc)"><path fill="#b68fa4" d="M 0.871094 0.0273438 L 20.128906 0.0273438 L 20.128906 19.285156 L 0.871094 19.285156 Z M 0.871094 0.0273438 " fill-opacity="1" fill-rule="nonzero"/></g></g></g></g></g></g><path stroke-linecap="butt" transform="matrix(0, 0.390918, -0.390918, 0, 14.289584, 58.473571)" fill="none" stroke-linejoin="miter" d="M -0.0023394 11.502696 L 75.401026 11.502696 " stroke="#b68fa4" stroke-width="23" stroke-opacity="1" stroke-miterlimit="4"/><g clip-path="url(#dc51561028)"><g clip-path="url(#01453e22ef)"><g transform="matrix(1, 0, 0, 1, 87, 19)"><g clip-path="url(#77c0f36059)"><g clip-path="url(#cb05c02700)"><g clip-path="url(#a1fa231aad)"><g clip-path="url(#62cab73bfb)"><path fill="#b68fa4" d="M 2.820312 64.933594 C 57.644531 19.417969 140.453125 28.410156 187.421875 84.984375 C 187.726562 85.351562 187.953125 85.765625 188.09375 86.222656 C 188.234375 86.675781 188.28125 87.144531 188.238281 87.617188 C 188.195312 88.09375 188.058594 88.542969 187.835938 88.964844 C 187.613281 89.390625 187.320312 89.753906 186.953125 90.058594 C 186.582031 90.363281 186.171875 90.585938 185.714844 90.726562 C 185.257812 90.871094 184.792969 90.917969 184.316406 90.875 C 183.839844 90.828125 183.390625 90.695312 182.96875 90.472656 C 182.546875 90.25 182.183594 89.957031 181.878906 89.589844 C 137.449219 36.074219 59.1875 27.503906 7.421875 70.480469 C 7.054688 70.785156 6.644531 71.007812 6.1875 71.148438 C 5.730469 71.292969 5.265625 71.339844 4.789062 71.296875 C 4.3125 71.25 3.863281 71.117188 3.441406 70.894531 C 3.015625 70.671875 2.652344 70.378906 2.347656 70.007812 C 2.042969 69.640625 1.820312 69.230469 1.679688 68.773438 C 1.535156 68.316406 1.488281 67.851562 1.53125 67.375 C 1.578125 66.898438 1.710938 66.449219 1.933594 66.027344 C 2.15625 65.605469 2.453125 65.238281 2.820312 64.933594 Z M 2.820312 64.933594 " fill-opacity="1" fill-rule="nonzero"/></g></g></g></g></g></g></g><g clip-path="url(#f2143143c4)"><g clip-path="url(#5185ca8473)"><g transform="matrix(1, 0, 0, 1, 171, 19)"><g clip-path="url(#7b41fa0999)"><g clip-path="url(#defa92aa47)"><g clip-path="url(#88f97c5d1a)"><g clip-path="url(#e34e608547)"><path fill="#b68fa4" d="M 95.484375 64.933594 C 40.660156 19.417969 -42.152344 28.410156 -89.121094 84.984375 C -89.425781 85.351562 -89.648438 85.765625 -89.789062 86.222656 C -89.929688 86.675781 -89.980469 87.144531 -89.933594 87.617188 C -89.890625 88.09375 -89.757812 88.542969 -89.535156 88.964844 C -89.3125 89.390625 -89.015625 89.753906 -88.648438 90.058594 C -88.28125 90.363281 -87.867188 90.585938 -87.414062 90.726562 C -86.957031 90.871094 -86.488281 90.917969 -86.015625 90.875 C -85.539062 90.828125 -85.089844 90.695312 -84.667969 90.472656 C -84.242188 90.25 -83.878906 89.957031 -83.574219 89.589844 C -39.144531 36.074219 39.113281 27.503906 90.878906 70.480469 C 91.246094 70.785156 91.660156 71.007812 92.117188 71.148438 C 92.574219 71.292969 93.039062 71.339844 93.515625 71.296875 C 93.992188 71.25 94.441406 71.117188 94.863281 70.894531 C 95.285156 70.671875 95.648438 70.378906 95.953125 70.007812 C 96.261719 69.640625 96.484375 69.230469 96.625 68.773438 C 96.765625 68.316406 96.816406 67.851562 96.769531 67.375 C 96.726562 66.898438 96.59375 66.449219 96.371094 66.027344 C 96.148438 65.605469 95.851562 65.238281 95.484375 64.933594 Z M 95.484375 64.933594 " fill-opacity="1" fill-rule="nonzero"/></g></g></g></g></g></g></g></g></g></svg>