<svg xmlns="http://www.w3.org/2000/svg" xmlns:xlink="http://www.w3.org/1999/xlink" width="500" zoomAndPan="magnify" viewBox="0 0 375 374.999991" height="500" preserveAspectRatio="xMidYMid meet" version="1.0"><defs><g/><clipPath id="4a0a761bdf"><rect x="0" width="352" y="0" height="73"/></clipPath><clipPath id="3e82b70ee9"><rect x="0" width="348" y="0" height="44"/></clipPath><clipPath id="ce81ab3f04"><path d="M 0.28125 57 L 106 57 L 106 67 L 0.28125 67 Z M 0.28125 57 " clip-rule="nonzero"/></clipPath><clipPath id="2a205284fd"><path d="M 166.90625 62.179688 L 186.09375 62.179688 L 186.09375 81.367188 L 166.90625 81.367188 Z M 166.90625 62.179688 " clip-rule="nonzero"/></clipPath><clipPath id="adf413333a"><path d="M 176.5 62.179688 C 171.203125 62.179688 166.90625 66.476562 166.90625 71.773438 C 166.90625 77.070312 171.203125 81.367188 176.5 81.367188 C 181.796875 81.367188 186.09375 77.070312 186.09375 71.773438 C 186.09375 66.476562 181.796875 62.179688 176.5 62.179688 Z M 176.5 62.179688 " clip-rule="nonzero"/></clipPath><clipPath id="ebb4acd12a"><path d="M 0.90625 0.179688 L 20.09375 0.179688 L 20.09375 19.367188 L 0.90625 19.367188 Z M 0.90625 0.179688 " clip-rule="nonzero"/></clipPath><clipPath id="d5b2f4bba2"><path d="M 10.5 0.179688 C 5.203125 0.179688 0.90625 4.476562 0.90625 9.773438 C 0.90625 15.070312 5.203125 19.367188 10.5 19.367188 C 15.796875 19.367188 20.09375 15.070312 20.09375 9.773438 C 20.09375 4.476562 15.796875 0.179688 10.5 0.179688 Z M 10.5 0.179688 " clip-rule="nonzero"/></clipPath><clipPath id="4b8689e317"><rect x="0" width="21" y="0" height="20"/></clipPath><clipPath id="965a47246d"><path d="M 86 18 L 185 18 L 185 106 L 86 106 Z M 86 18 " clip-rule="nonzero"/></clipPath><clipPath id="94cba94614"><path d="M 184.34375 39.054688 L 103.746094 105.96875 L 86.582031 85.296875 L 167.179688 18.378906 Z M 184.34375 39.054688 " clip-rule="nonzero"/></clipPath><clipPath id="fd1e528734"><path d="M 1 36 L 98.359375 36 L 98.359375 88 L 1 88 Z M 1 36 " clip-rule="nonzero"/></clipPath><clipPath id="e201283fc3"><path d="M 98.34375 21.054688 L 17.746094 87.96875 L 0.582031 67.296875 L 81.179688 0.378906 Z M 98.34375 21.054688 " clip-rule="nonzero"/></clipPath><clipPath id="b048bba71c"><path d="M 102.207031 -17.226562 L 0.335938 67.351562 L 87.398438 172.21875 L 189.269531 87.644531 Z M 102.207031 -17.226562 " clip-rule="nonzero"/></clipPath><clipPath id="3d19574f9a"><rect x="0" width="99" y="0" height="88"/></clipPath><clipPath id="87af513512"><path d="M 170 18 L 268 18 L 268 107 L 170 107 Z M 170 18 " clip-rule="nonzero"/></clipPath><clipPath id="87b1affdc1"><path d="M 250.671875 106.070312 L 170.074219 39.15625 L 187.238281 18.480469 L 267.835938 85.394531 Z M 250.671875 106.070312 " clip-rule="nonzero"/></clipPath><clipPath id="3372babda5"><path d="M 0 36 L 97 36 L 97 88.121094 L 0 88.121094 Z M 0 36 " clip-rule="nonzero"/></clipPath><clipPath id="133aab3e4c"><path d="M 80.671875 88.070312 L 0.0742188 21.15625 L 17.238281 0.480469 L 97.835938 67.394531 Z M 80.671875 88.070312 " clip-rule="nonzero"/></clipPath><clipPath id="3f1df60b4b"><path d="M -3.910156 -17.226562 L 97.964844 67.351562 L 10.898438 172.21875 L -90.972656 87.644531 Z M -3.910156 -17.226562 " clip-rule="nonzero"/></clipPath><clipPath id="9a25cb2396"><rect x="0" width="98" y="0" height="89"/></clipPath><clipPath id="b89793f7c8"><rect x="0" width="355" y="0" height="192"/></clipPath></defs><g transform="matrix(1, 0, 0, 1, 11, 71)"><g clip-path="url(#b89793f7c8)"><g transform="matrix(1, 0, 0, 1, 1, 84)"><g clip-path="url(#4a0a761bdf)"><g fill="#7a8c5e" fill-opacity="1"><g transform="translate(0.285651, 57.183252)"><g><path d="M 5.21875 0 C 4.863281 0 4.585938 -0.09375 4.390625 -0.28125 C 4.191406 -0.476562 4.09375 -0.734375 4.09375 -1.046875 L 4.09375 -42.21875 C 4.09375 -42.570312 4.203125 -42.863281 4.421875 -43.09375 C 4.640625 -43.332031 4.921875 -43.453125 5.265625 -43.453125 L 21.140625 -43.453125 C 26.878906 -43.453125 31.257812 -42.484375 34.28125 -40.546875 C 37.3125 -38.617188 38.828125 -35.78125 38.828125 -32.03125 C 38.828125 -29.882812 38.25 -28.066406 37.09375 -26.578125 C 35.945312 -25.097656 33.96875 -23.753906 31.15625 -22.546875 C 31.039062 -22.503906 30.984375 -22.425781 30.984375 -22.3125 C 30.984375 -22.195312 31.039062 -22.117188 31.15625 -22.078125 C 34.238281 -21.066406 36.460938 -19.75 37.828125 -18.125 C 39.191406 -16.5 39.875 -14.378906 39.875 -11.765625 C 39.875 -7.785156 38.367188 -4.828125 35.359375 -2.890625 C 32.359375 -0.960938 27.875 0 21.90625 0 Z M 21.609375 -6.90625 C 24.148438 -6.90625 26.050781 -7.429688 27.3125 -8.484375 C 28.582031 -9.546875 29.21875 -10.953125 29.21875 -12.703125 C 29.21875 -13.953125 28.90625 -14.992188 28.28125 -15.828125 C 27.65625 -16.671875 26.804688 -17.304688 25.734375 -17.734375 C 24.660156 -18.171875 23.421875 -18.390625 22.015625 -18.390625 L 15.453125 -18.390625 C 14.710938 -18.390625 14.34375 -18.054688 14.34375 -17.390625 L 14.34375 -8.015625 C 14.34375 -7.273438 14.617188 -6.90625 15.171875 -6.90625 Z M 22.015625 -25.53125 C 22.910156 -25.53125 23.757812 -25.628906 24.5625 -25.828125 C 25.363281 -26.023438 26.066406 -26.359375 26.671875 -26.828125 C 27.273438 -27.296875 27.765625 -27.859375 28.140625 -28.515625 C 28.515625 -29.179688 28.703125 -29.960938 28.703125 -30.859375 C 28.703125 -32.691406 28.023438 -34.097656 26.671875 -35.078125 C 25.328125 -36.054688 23.601562 -36.546875 21.5 -36.546875 L 15.453125 -36.546875 C 14.710938 -36.546875 14.34375 -36.210938 14.34375 -35.546875 L 14.34375 -26.59375 C 14.34375 -25.882812 14.617188 -25.53125 15.171875 -25.53125 Z M 22.015625 -25.53125 "/></g></g></g><g fill="#7a8c5e" fill-opacity="1"><g transform="translate(42.615831, 57.183252)"><g><path d="M 4.09375 -42.34375 C 4.09375 -43.082031 4.40625 -43.453125 5.03125 -43.453125 L 34.546875 -43.453125 C 35.140625 -43.453125 35.4375 -43.117188 35.4375 -42.453125 L 35.4375 -37.1875 C 35.4375 -36.363281 35.023438 -35.953125 34.203125 -35.953125 L 15.453125 -35.953125 C 14.710938 -35.953125 14.34375 -35.640625 14.34375 -35.015625 L 14.34375 -26.53125 C 14.34375 -25.863281 14.632812 -25.53125 15.21875 -25.53125 L 27.640625 -25.53125 C 28.304688 -25.53125 28.640625 -25.21875 28.640625 -24.59375 L 28.640625 -18.96875 C 28.640625 -18.738281 28.570312 -18.546875 28.4375 -18.390625 C 28.300781 -18.234375 28.054688 -18.15625 27.703125 -18.15625 L 15.171875 -18.15625 C 14.617188 -18.15625 14.34375 -17.921875 14.34375 -17.453125 L 14.34375 -8.25 C 14.34375 -7.75 14.554688 -7.5 14.984375 -7.5 L 35.015625 -7.5 C 35.722656 -7.5 36.078125 -7.207031 36.078125 -6.625 L 36.078125 -1.046875 C 36.078125 -0.734375 35.988281 -0.476562 35.8125 -0.28125 C 35.632812 -0.09375 35.332031 0 34.90625 0 L 5.390625 0 C 4.523438 0 4.09375 -0.410156 4.09375 -1.234375 Z M 4.09375 -42.34375 "/></g></g></g><g fill="#7a8c5e" fill-opacity="1"><g transform="translate(80.906197, 57.183252)"><g><path d="M 2.8125 0 C 2.457031 0 2.203125 -0.15625 2.046875 -0.46875 C 1.890625 -0.78125 1.890625 -1.191406 2.046875 -1.703125 L 16.625 -42.28125 C 16.78125 -42.707031 16.957031 -43.007812 17.15625 -43.1875 C 17.351562 -43.363281 17.6875 -43.453125 18.15625 -43.453125 L 26.9375 -43.453125 C 27.800781 -43.453125 28.390625 -43.023438 28.703125 -42.171875 L 43.15625 -1.578125 C 43.28125 -1.265625 43.28125 -0.921875 43.15625 -0.546875 C 43.039062 -0.179688 42.804688 0 42.453125 0 L 33.84375 0 C 33.257812 0 32.890625 -0.269531 32.734375 -0.8125 L 29.6875 -9.375 C 29.644531 -9.5625 29.578125 -9.710938 29.484375 -9.828125 C 29.390625 -9.953125 29.207031 -10.015625 28.9375 -10.015625 L 14.640625 -10.015625 C 14.253906 -10.015625 14 -9.816406 13.875 -9.421875 L 10.78125 -0.765625 C 10.695312 -0.523438 10.566406 -0.335938 10.390625 -0.203125 C 10.210938 -0.0664062 9.929688 0 9.546875 0 Z M 26.53125 -17.796875 C 27.070312 -17.796875 27.25 -18.128906 27.0625 -18.796875 L 22.140625 -32.5 C 22.023438 -32.738281 21.894531 -32.859375 21.75 -32.859375 C 21.613281 -32.859375 21.488281 -32.71875 21.375 -32.4375 L 16.390625 -18.796875 C 16.117188 -18.128906 16.296875 -17.796875 16.921875 -17.796875 Z M 26.53125 -17.796875 "/></g></g></g><g fill="#7a8c5e" fill-opacity="1"><g transform="translate(123.294596, 57.183252)"><g><path d="M 38.59375 -16.109375 C 38.59375 -12.003906 37.890625 -8.722656 36.484375 -6.265625 C 35.078125 -3.804688 33.066406 -2.050781 30.453125 -1 C 27.835938 0.0507812 24.710938 0.578125 21.078125 0.578125 C 16.828125 0.578125 13.421875 -0.09375 10.859375 -1.4375 C 8.304688 -2.78125 6.453125 -4.769531 5.296875 -7.40625 C 4.148438 -10.039062 3.578125 -13.289062 3.578125 -17.15625 L 3.578125 -42.28125 C 3.578125 -43.0625 3.890625 -43.453125 4.515625 -43.453125 L 12.9375 -43.453125 C 13.53125 -43.453125 13.828125 -43.101562 13.828125 -42.40625 L 13.828125 -15.875 C 13.828125 -12.664062 14.519531 -10.335938 15.90625 -8.890625 C 17.289062 -7.453125 19.269531 -6.734375 21.84375 -6.734375 C 23.476562 -6.734375 24.921875 -7.035156 26.171875 -7.640625 C 27.421875 -8.242188 28.394531 -9.226562 29.09375 -10.59375 C 29.800781 -11.96875 30.15625 -13.785156 30.15625 -16.046875 L 30.15625 -42.34375 C 30.15625 -43.082031 30.445312 -43.453125 31.03125 -43.453125 L 37.71875 -43.453125 C 38.300781 -43.453125 38.59375 -43.101562 38.59375 -42.40625 Z M 38.59375 -16.109375 "/></g></g></g><g fill="#7a8c5e" fill-opacity="1"><g transform="translate(165.507678, 57.183252)"><g><path d="M 5.328125 0 C 4.503906 0 4.09375 -0.445312 4.09375 -1.34375 L 4.09375 -42.34375 C 4.09375 -43.082031 4.425781 -43.453125 5.09375 -43.453125 L 17.21875 -43.453125 C 17.644531 -43.453125 17.957031 -43.394531 18.15625 -43.28125 C 18.351562 -43.164062 18.507812 -42.929688 18.625 -42.578125 L 27.46875 -18.03125 C 27.582031 -17.6875 27.71875 -17.519531 27.875 -17.53125 C 28.03125 -17.550781 28.164062 -17.71875 28.28125 -18.03125 L 36.71875 -42.109375 C 36.945312 -43.003906 37.375 -43.453125 38 -43.453125 L 50.59375 -43.453125 C 51.175781 -43.453125 51.46875 -43.101562 51.46875 -42.40625 L 51.46875 -1.40625 C 51.46875 -0.46875 50.984375 0 50.015625 0 L 42.453125 0 C 41.984375 0 41.660156 -0.09375 41.484375 -0.28125 C 41.316406 -0.476562 41.234375 -0.773438 41.234375 -1.171875 L 41.234375 -30.328125 C 41.234375 -30.609375 41.160156 -30.738281 41.015625 -30.71875 C 40.878906 -30.695312 40.773438 -30.550781 40.703125 -30.28125 L 30.453125 -0.9375 C 30.210938 -0.3125 29.800781 0 29.21875 0 L 24.359375 0 C 23.691406 0 23.265625 -0.3125 23.078125 -0.9375 L 12.9375 -29.859375 C 12.820312 -30.210938 12.695312 -30.367188 12.5625 -30.328125 C 12.425781 -30.296875 12.359375 -30.125 12.359375 -29.8125 L 12.359375 -1.046875 C 12.359375 -0.660156 12.289062 -0.390625 12.15625 -0.234375 C 12.019531 -0.078125 11.734375 0 11.296875 0 Z M 5.328125 0 "/></g></g></g><g fill="#7a8c5e" fill-opacity="1"><g transform="translate(221.069699, 57.183252)"><g><path d="M 22.71875 0.578125 C 18.582031 0.578125 15.007812 -0.304688 12 -2.078125 C 9 -3.859375 6.6875 -6.40625 5.0625 -9.71875 C 3.445312 -13.039062 2.640625 -16.984375 2.640625 -21.546875 C 2.640625 -26.191406 3.46875 -30.191406 5.125 -33.546875 C 6.78125 -36.910156 9.109375 -39.5 12.109375 -41.3125 C 15.117188 -43.125 18.65625 -44.03125 22.71875 -44.03125 C 26.78125 -44.03125 30.300781 -43.125 33.28125 -41.3125 C 36.269531 -39.5 38.582031 -36.921875 40.21875 -33.578125 C 41.863281 -30.242188 42.6875 -26.253906 42.6875 -21.609375 C 42.6875 -17.035156 41.875 -13.085938 40.25 -9.765625 C 38.632812 -6.453125 36.320312 -3.898438 33.3125 -2.109375 C 30.3125 -0.316406 26.78125 0.578125 22.71875 0.578125 Z M 22.71875 -6.625 C 25.925781 -6.625 28.269531 -7.785156 29.75 -10.109375 C 31.226562 -12.429688 31.96875 -16.226562 31.96875 -21.5 C 31.96875 -26.882812 31.21875 -30.796875 29.71875 -33.234375 C 28.21875 -35.671875 25.882812 -36.890625 22.71875 -36.890625 C 19.519531 -36.890625 17.160156 -35.660156 15.640625 -33.203125 C 14.117188 -30.742188 13.359375 -26.84375 13.359375 -21.5 C 13.359375 -16.257812 14.109375 -12.46875 15.609375 -10.125 C 17.109375 -7.789062 19.476562 -6.625 22.71875 -6.625 Z M 22.71875 -6.625 "/></g></g></g><g fill="#7a8c5e" fill-opacity="1"><g transform="translate(266.38584, 57.183252)"><g><path d="M 39.59375 -43.453125 C 40.09375 -43.453125 40.34375 -43.160156 40.34375 -42.578125 L 40.34375 -0.9375 C 40.34375 -0.664062 40.242188 -0.441406 40.046875 -0.265625 C 39.859375 -0.0859375 39.585938 0 39.234375 0 L 33.328125 0 C 33.015625 0 32.757812 -0.0351562 32.5625 -0.109375 C 32.363281 -0.191406 32.128906 -0.390625 31.859375 -0.703125 L 13.171875 -26.9375 C 13.015625 -27.132812 12.867188 -27.210938 12.734375 -27.171875 C 12.597656 -27.128906 12.53125 -27.015625 12.53125 -26.828125 L 12.53125 -1.046875 C 12.570312 -0.347656 12.179688 0 11.359375 0 L 5.265625 0 C 4.484375 0 4.09375 -0.332031 4.09375 -1 L 4.09375 -42.34375 C 4.09375 -43.082031 4.445312 -43.453125 5.15625 -43.453125 L 12.234375 -43.453125 C 12.671875 -43.453125 12.992188 -43.394531 13.203125 -43.28125 C 13.421875 -43.164062 13.664062 -42.929688 13.9375 -42.578125 L 31.15625 -18.03125 C 31.382812 -17.71875 31.585938 -17.582031 31.765625 -17.625 C 31.941406 -17.664062 32.03125 -17.863281 32.03125 -18.21875 L 32.03125 -42.40625 C 32.03125 -43.101562 32.382812 -43.453125 33.09375 -43.453125 Z M 39.59375 -43.453125 "/></g></g></g><g fill="#7a8c5e" fill-opacity="1"><g transform="translate(310.823724, 57.183252)"><g><path d="M 1.9375 -42.40625 C 1.9375 -42.71875 2.03125 -42.96875 2.21875 -43.15625 C 2.414062 -43.351562 2.710938 -43.453125 3.109375 -43.453125 L 36.71875 -43.453125 C 37.144531 -43.453125 37.445312 -43.351562 37.625 -43.15625 C 37.800781 -42.96875 37.890625 -42.71875 37.890625 -42.40625 L 37.890625 -36.953125 C 37.890625 -36.367188 37.535156 -36.078125 36.828125 -36.078125 L 25.890625 -36.078125 C 25.453125 -36.078125 25.234375 -35.878906 25.234375 -35.484375 L 25.234375 -1.109375 C 25.234375 -0.367188 24.90625 0 24.25 0 L 15.875 0 C 15.28125 0 14.984375 -0.332031 14.984375 -1 L 14.984375 -35.3125 C 14.984375 -35.820312 14.769531 -36.078125 14.34375 -36.078125 L 3.046875 -36.078125 C 2.304688 -36.078125 1.9375 -36.367188 1.9375 -36.953125 Z M 1.9375 -42.40625 "/></g></g></g></g></g><g transform="matrix(1, 0, 0, 1, 2, 143)"><g clip-path="url(#3e82b70ee9)"><g fill="#7a8c5e" fill-opacity="1"><g transform="translate(0.991883, 34.778453)"><g><path d="M 2.53125 -26.109375 C 2.53125 -26.566406 2.722656 -26.796875 3.109375 -26.796875 L 8.265625 -26.796875 C 8.648438 -26.796875 8.84375 -26.578125 8.84375 -26.140625 L 8.84375 -5.09375 C 8.84375 -4.78125 8.976562 -4.625 9.25 -4.625 L 20.765625 -4.625 C 21.191406 -4.625 21.40625 -4.441406 21.40625 -4.078125 L 21.40625 -0.65625 C 21.40625 -0.457031 21.351562 -0.296875 21.25 -0.171875 C 21.144531 -0.0546875 20.972656 0 20.734375 0 L 3.328125 0 C 3.015625 0 2.800781 -0.0546875 2.6875 -0.171875 C 2.582031 -0.296875 2.53125 -0.492188 2.53125 -0.765625 Z M 2.53125 -26.109375 "/></g></g></g><g fill="#7a8c5e" fill-opacity="1"><g transform="translate(23.632802, 34.778453)"><g><path d="M 8.265625 -26.796875 C 8.648438 -26.796875 8.84375 -26.578125 8.84375 -26.140625 L 8.84375 -0.859375 C 8.84375 -0.546875 8.765625 -0.320312 8.609375 -0.1875 C 8.453125 -0.0625 8.207031 0 7.875 0 L 3.328125 0 C 3.015625 0 2.800781 -0.0546875 2.6875 -0.171875 C 2.582031 -0.296875 2.53125 -0.492188 2.53125 -0.765625 L 2.53125 -26.109375 C 2.53125 -26.566406 2.722656 -26.796875 3.109375 -26.796875 Z M 8.265625 -26.796875 "/></g></g></g><g fill="#7a8c5e" fill-opacity="1"><g transform="translate(35.007424, 34.778453)"><g><path d="M 3.21875 0 C 3 0 2.828125 -0.0546875 2.703125 -0.171875 C 2.585938 -0.296875 2.53125 -0.457031 2.53125 -0.65625 L 2.53125 -26.03125 C 2.53125 -26.25 2.59375 -26.429688 2.71875 -26.578125 C 2.851562 -26.722656 3.03125 -26.796875 3.25 -26.796875 L 13.03125 -26.796875 C 16.570312 -26.796875 19.273438 -26.195312 21.140625 -25 C 23.003906 -23.8125 23.9375 -22.0625 23.9375 -19.75 C 23.9375 -18.425781 23.582031 -17.304688 22.875 -16.390625 C 22.164062 -15.472656 20.941406 -14.644531 19.203125 -13.90625 C 19.140625 -13.875 19.109375 -13.820312 19.109375 -13.75 C 19.109375 -13.6875 19.140625 -13.640625 19.203125 -13.609375 C 21.109375 -12.984375 22.484375 -12.171875 23.328125 -11.171875 C 24.171875 -10.171875 24.59375 -8.867188 24.59375 -7.265625 C 24.59375 -4.804688 23.664062 -2.976562 21.8125 -1.78125 C 19.957031 -0.59375 17.1875 0 13.5 0 Z M 13.328125 -4.265625 C 14.890625 -4.265625 16.0625 -4.585938 16.84375 -5.234375 C 17.625 -5.878906 18.015625 -6.742188 18.015625 -7.828125 C 18.015625 -8.597656 17.820312 -9.242188 17.4375 -9.765625 C 17.050781 -10.285156 16.523438 -10.675781 15.859375 -10.9375 C 15.203125 -11.207031 14.441406 -11.34375 13.578125 -11.34375 L 9.53125 -11.34375 C 9.070312 -11.34375 8.84375 -11.132812 8.84375 -10.71875 L 8.84375 -4.953125 C 8.84375 -4.492188 9.015625 -4.265625 9.359375 -4.265625 Z M 13.578125 -15.75 C 14.128906 -15.75 14.648438 -15.804688 15.140625 -15.921875 C 15.640625 -16.046875 16.070312 -16.25 16.4375 -16.53125 C 16.8125 -16.820312 17.113281 -17.171875 17.34375 -17.578125 C 17.570312 -17.992188 17.6875 -18.476562 17.6875 -19.03125 C 17.6875 -20.164062 17.269531 -21.03125 16.4375 -21.625 C 15.613281 -22.226562 14.550781 -22.53125 13.25 -22.53125 L 9.53125 -22.53125 C 9.070312 -22.53125 8.84375 -22.328125 8.84375 -21.921875 L 8.84375 -16.390625 C 8.84375 -15.960938 9.015625 -15.75 9.359375 -15.75 Z M 13.578125 -15.75 "/></g></g></g><g fill="#7a8c5e" fill-opacity="1"><g transform="translate(61.114885, 34.778453)"><g><path d="M 24.265625 -0.96875 C 24.359375 -0.707031 24.347656 -0.476562 24.234375 -0.28125 C 24.128906 -0.09375 23.957031 0 23.71875 0 L 18.421875 0 C 18.003906 0 17.738281 -0.21875 17.625 -0.65625 L 13.71875 -10.765625 C 13.570312 -11.097656 13.234375 -11.265625 12.703125 -11.265625 L 9.28125 -11.265625 C 9.113281 -11.265625 9 -11.21875 8.9375 -11.125 C 8.875 -11.03125 8.84375 -10.945312 8.84375 -10.875 L 8.84375 -0.859375 C 8.84375 -0.285156 8.519531 0 7.875 0 L 3.28125 0 C 3 0 2.800781 -0.0546875 2.6875 -0.171875 C 2.582031 -0.296875 2.53125 -0.476562 2.53125 -0.71875 L 2.53125 -26.109375 C 2.53125 -26.566406 2.722656 -26.796875 3.109375 -26.796875 L 14.375 -26.796875 C 17.59375 -26.796875 20.097656 -26.15625 21.890625 -24.875 C 23.691406 -23.601562 24.59375 -21.785156 24.59375 -19.421875 C 24.59375 -18.191406 24.363281 -17.097656 23.90625 -16.140625 C 23.445312 -15.179688 22.84375 -14.378906 22.09375 -13.734375 C 21.351562 -13.097656 20.535156 -12.625 19.640625 -12.3125 C 19.421875 -12.238281 19.375 -12.054688 19.5 -11.765625 Z M 13.796875 -15.53125 C 15.171875 -15.53125 16.222656 -15.820312 16.953125 -16.40625 C 17.691406 -17 18.0625 -17.863281 18.0625 -19 C 18.0625 -20.175781 17.6875 -21.0625 16.9375 -21.65625 C 16.1875 -22.257812 15.195312 -22.5625 13.96875 -22.5625 L 9.53125 -22.5625 C 9.070312 -22.5625 8.84375 -22.359375 8.84375 -21.953125 L 8.84375 -16.140625 C 8.84375 -15.734375 9.015625 -15.53125 9.359375 -15.53125 Z M 13.796875 -15.53125 "/></g></g></g><g fill="#7a8c5e" fill-opacity="1"><g transform="translate(86.211267, 34.778453)"><g><path d="M 1.734375 0 C 1.515625 0 1.359375 -0.09375 1.265625 -0.28125 C 1.171875 -0.476562 1.171875 -0.734375 1.265625 -1.046875 L 10.25 -26.078125 C 10.351562 -26.335938 10.460938 -26.519531 10.578125 -26.625 C 10.703125 -26.738281 10.90625 -26.796875 11.1875 -26.796875 L 16.609375 -26.796875 C 17.140625 -26.796875 17.5 -26.53125 17.6875 -26 L 26.609375 -0.96875 C 26.679688 -0.78125 26.679688 -0.570312 26.609375 -0.34375 C 26.535156 -0.113281 26.390625 0 26.171875 0 L 20.875 0 C 20.507812 0 20.28125 -0.164062 20.1875 -0.5 L 18.3125 -5.78125 C 18.28125 -5.894531 18.234375 -5.988281 18.171875 -6.0625 C 18.117188 -6.132812 18.007812 -6.171875 17.84375 -6.171875 L 9.03125 -6.171875 C 8.789062 -6.171875 8.632812 -6.050781 8.5625 -5.8125 L 6.640625 -0.46875 C 6.597656 -0.320312 6.519531 -0.207031 6.40625 -0.125 C 6.300781 -0.0390625 6.128906 0 5.890625 0 Z M 16.359375 -10.984375 C 16.691406 -10.984375 16.800781 -11.1875 16.6875 -11.59375 L 13.65625 -20.046875 C 13.582031 -20.179688 13.5 -20.25 13.40625 -20.25 C 13.320312 -20.25 13.25 -20.164062 13.1875 -20 L 10.109375 -11.59375 C 9.941406 -11.1875 10.050781 -10.984375 10.4375 -10.984375 Z M 16.359375 -10.984375 "/></g></g></g><g fill="#7a8c5e" fill-opacity="1"><g transform="translate(114.052008, 34.778453)"><g><path d="M 24.265625 -0.96875 C 24.359375 -0.707031 24.347656 -0.476562 24.234375 -0.28125 C 24.128906 -0.09375 23.957031 0 23.71875 0 L 18.421875 0 C 18.003906 0 17.738281 -0.21875 17.625 -0.65625 L 13.71875 -10.765625 C 13.570312 -11.097656 13.234375 -11.265625 12.703125 -11.265625 L 9.28125 -11.265625 C 9.113281 -11.265625 9 -11.21875 8.9375 -11.125 C 8.875 -11.03125 8.84375 -10.945312 8.84375 -10.875 L 8.84375 -0.859375 C 8.84375 -0.285156 8.519531 0 7.875 0 L 3.28125 0 C 3 0 2.800781 -0.0546875 2.6875 -0.171875 C 2.582031 -0.296875 2.53125 -0.476562 2.53125 -0.71875 L 2.53125 -26.109375 C 2.53125 -26.566406 2.722656 -26.796875 3.109375 -26.796875 L 14.375 -26.796875 C 17.59375 -26.796875 20.097656 -26.15625 21.890625 -24.875 C 23.691406 -23.601562 24.59375 -21.785156 24.59375 -19.421875 C 24.59375 -18.191406 24.363281 -17.097656 23.90625 -16.140625 C 23.445312 -15.179688 22.84375 -14.378906 22.09375 -13.734375 C 21.351562 -13.097656 20.535156 -12.625 19.640625 -12.3125 C 19.421875 -12.238281 19.375 -12.054688 19.5 -11.765625 Z M 13.796875 -15.53125 C 15.171875 -15.53125 16.222656 -15.820312 16.953125 -16.40625 C 17.691406 -17 18.0625 -17.863281 18.0625 -19 C 18.0625 -20.175781 17.6875 -21.0625 16.9375 -21.65625 C 16.1875 -22.257812 15.195312 -22.5625 13.96875 -22.5625 L 9.53125 -22.5625 C 9.070312 -22.5625 8.84375 -22.359375 8.84375 -21.953125 L 8.84375 -16.140625 C 8.84375 -15.734375 9.015625 -15.53125 9.359375 -15.53125 Z M 13.796875 -15.53125 "/></g></g></g><g fill="#7a8c5e" fill-opacity="1"><g transform="translate(139.003962, 34.778453)"><g><path d="M 24.921875 -26.796875 C 25.160156 -26.796875 25.316406 -26.726562 25.390625 -26.59375 C 25.460938 -26.457031 25.4375 -26.285156 25.3125 -26.078125 L 16.828125 -12.171875 C 16.679688 -11.953125 16.59375 -11.726562 16.5625 -11.5 C 16.539062 -11.269531 16.53125 -10.851562 16.53125 -10.25 L 16.53125 -0.859375 C 16.53125 -0.285156 16.195312 0 15.53125 0 L 11.015625 0 C 10.703125 0 10.488281 -0.0546875 10.375 -0.171875 C 10.269531 -0.296875 10.21875 -0.492188 10.21875 -0.765625 L 10.21875 -10.46875 C 10.21875 -10.8125 10.179688 -11.066406 10.109375 -11.234375 C 10.035156 -11.398438 9.925781 -11.59375 9.78125 -11.8125 L 1.234375 -25.96875 C 1.085938 -26.207031 1.0625 -26.40625 1.15625 -26.5625 C 1.25 -26.71875 1.453125 -26.796875 1.765625 -26.796875 L 7.1875 -26.796875 C 7.5 -26.796875 7.710938 -26.742188 7.828125 -26.640625 C 7.953125 -26.546875 8.085938 -26.378906 8.234375 -26.140625 L 13.578125 -16.75 C 13.722656 -16.507812 13.84375 -16.382812 13.9375 -16.375 C 14.03125 -16.363281 14.140625 -16.46875 14.265625 -16.6875 L 19.53125 -26.140625 C 19.675781 -26.410156 19.816406 -26.585938 19.953125 -26.671875 C 20.085938 -26.753906 20.296875 -26.796875 20.578125 -26.796875 Z M 24.921875 -26.796875 "/></g></g></g><g fill="#7a8c5e" fill-opacity="1"><g transform="translate(165.544748, 34.778453)"><g/></g></g><g fill="#7a8c5e" fill-opacity="1"><g transform="translate(172.983382, 34.778453)"><g><path d="M 3.359375 0 C 2.804688 0 2.53125 -0.285156 2.53125 -0.859375 L 2.53125 -26.03125 C 2.53125 -26.320312 2.585938 -26.519531 2.703125 -26.625 C 2.828125 -26.738281 3.035156 -26.796875 3.328125 -26.796875 C 3.847656 -26.796875 4.460938 -26.796875 5.171875 -26.796875 C 5.890625 -26.796875 6.632812 -26.796875 7.40625 -26.796875 C 8.175781 -26.796875 8.910156 -26.796875 9.609375 -26.796875 C 10.304688 -26.796875 10.894531 -26.78125 11.375 -26.75 C 14.625 -26.6875 17.296875 -26.097656 19.390625 -24.984375 C 21.484375 -23.878906 23.03125 -22.359375 24.03125 -20.421875 C 25.03125 -18.484375 25.53125 -16.175781 25.53125 -13.5 C 25.53125 -10.757812 25.003906 -8.367188 23.953125 -6.328125 C 22.910156 -4.296875 21.320312 -2.734375 19.1875 -1.640625 C 17.0625 -0.546875 14.394531 0 11.1875 0 Z M 9.3125 -4.4375 L 10 -4.4375 C 11.976562 -4.4375 13.628906 -4.726562 14.953125 -5.3125 C 16.273438 -5.90625 17.265625 -6.863281 17.921875 -8.1875 C 18.585938 -9.519531 18.921875 -11.28125 18.921875 -13.46875 C 18.921875 -15.582031 18.613281 -17.285156 18 -18.578125 C 17.382812 -19.867188 16.441406 -20.8125 15.171875 -21.40625 C 13.910156 -22.007812 12.304688 -22.3125 10.359375 -22.3125 L 9.203125 -22.3125 C 8.960938 -22.3125 8.84375 -22.144531 8.84375 -21.8125 L 8.84375 -4.953125 C 8.84375 -4.609375 9 -4.4375 9.3125 -4.4375 Z M 9.3125 -4.4375 "/></g></g></g><g fill="#7a8c5e" fill-opacity="1"><g transform="translate(200.101922, 34.778453)"><g><path d="M 8.265625 -26.796875 C 8.648438 -26.796875 8.84375 -26.578125 8.84375 -26.140625 L 8.84375 -0.859375 C 8.84375 -0.546875 8.765625 -0.320312 8.609375 -0.1875 C 8.453125 -0.0625 8.207031 0 7.875 0 L 3.328125 0 C 3.015625 0 2.800781 -0.0546875 2.6875 -0.171875 C 2.582031 -0.296875 2.53125 -0.492188 2.53125 -0.765625 L 2.53125 -26.109375 C 2.53125 -26.566406 2.722656 -26.796875 3.109375 -26.796875 Z M 8.265625 -26.796875 "/></g></g></g><g fill="#7a8c5e" fill-opacity="1"><g transform="translate(211.476544, 34.778453)"><g><path d="M 17.90625 -20.46875 C 17.375 -21.050781 16.71875 -21.570312 15.9375 -22.03125 C 15.15625 -22.488281 14.046875 -22.71875 12.609375 -22.71875 C 11.085938 -22.71875 9.953125 -22.445312 9.203125 -21.90625 C 8.460938 -21.363281 8.09375 -20.671875 8.09375 -19.828125 C 8.09375 -19.535156 8.160156 -19.21875 8.296875 -18.875 C 8.441406 -18.539062 8.734375 -18.21875 9.171875 -17.90625 C 9.609375 -17.59375 10.222656 -17.316406 11.015625 -17.078125 L 16.71875 -15.453125 C 18.9375 -14.847656 20.550781 -13.878906 21.5625 -12.546875 C 22.570312 -11.210938 23.078125 -9.664062 23.078125 -7.90625 C 23.078125 -6.21875 22.640625 -4.753906 21.765625 -3.515625 C 20.898438 -2.273438 19.660156 -1.316406 18.046875 -0.640625 C 16.441406 0.0234375 14.53125 0.359375 12.3125 0.359375 C 10.675781 0.359375 9.140625 0.171875 7.703125 -0.203125 C 6.273438 -0.578125 5.015625 -1.117188 3.921875 -1.828125 C 2.828125 -2.535156 1.96875 -3.359375 1.34375 -4.296875 C 1.21875 -4.535156 1.164062 -4.734375 1.1875 -4.890625 C 1.21875 -5.046875 1.335938 -5.207031 1.546875 -5.375 L 4.328125 -7.296875 C 4.617188 -7.460938 4.851562 -7.53125 5.03125 -7.5 C 5.21875 -7.476562 5.382812 -7.382812 5.53125 -7.21875 C 6.101562 -6.5 6.671875 -5.894531 7.234375 -5.40625 C 7.804688 -4.925781 8.460938 -4.578125 9.203125 -4.359375 C 9.953125 -4.148438 10.84375 -4.046875 11.875 -4.046875 C 13.445312 -4.046875 14.703125 -4.289062 15.640625 -4.78125 C 16.578125 -5.28125 17.046875 -6.046875 17.046875 -7.078125 C 17.046875 -7.484375 16.945312 -7.859375 16.75 -8.203125 C 16.5625 -8.554688 16.253906 -8.867188 15.828125 -9.140625 C 15.410156 -9.421875 14.816406 -9.6875 14.046875 -9.9375 L 8.59375 -11.484375 C 7.175781 -11.890625 5.984375 -12.460938 5.015625 -13.203125 C 4.054688 -13.953125 3.328125 -14.832031 2.828125 -15.84375 C 2.335938 -16.863281 2.09375 -17.925781 2.09375 -19.03125 C 2.09375 -20.570312 2.519531 -21.957031 3.375 -23.1875 C 4.226562 -24.414062 5.429688 -25.382812 6.984375 -26.09375 C 8.535156 -26.800781 10.347656 -27.15625 12.421875 -27.15625 C 13.796875 -27.15625 15.078125 -27 16.265625 -26.6875 C 17.460938 -26.375 18.539062 -25.9375 19.5 -25.375 C 20.457031 -24.820312 21.238281 -24.148438 21.84375 -23.359375 C 21.9375 -23.242188 22.007812 -23.109375 22.0625 -22.953125 C 22.113281 -22.796875 22.039062 -22.628906 21.84375 -22.453125 L 18.8125 -20.21875 C 18.664062 -20.125 18.53125 -20.09375 18.40625 -20.125 C 18.289062 -20.164062 18.125 -20.28125 17.90625 -20.46875 Z M 17.90625 -20.46875 "/></g></g></g><g fill="#7a8c5e" fill-opacity="1"><g transform="translate(235.056318, 34.778453)"><g><path d="M 1.1875 -26.140625 C 1.1875 -26.335938 1.242188 -26.492188 1.359375 -26.609375 C 1.484375 -26.734375 1.664062 -26.796875 1.90625 -26.796875 L 22.640625 -26.796875 C 22.898438 -26.796875 23.082031 -26.734375 23.1875 -26.609375 C 23.300781 -26.492188 23.359375 -26.335938 23.359375 -26.140625 L 23.359375 -22.78125 C 23.359375 -22.425781 23.144531 -22.25 22.71875 -22.25 L 15.953125 -22.25 C 15.691406 -22.25 15.5625 -22.125 15.5625 -21.875 L 15.5625 -0.6875 C 15.5625 -0.226562 15.359375 0 14.953125 0 L 9.78125 0 C 9.425781 0 9.25 -0.203125 9.25 -0.609375 L 9.25 -21.78125 C 9.25 -22.09375 9.113281 -22.25 8.84375 -22.25 L 1.875 -22.25 C 1.414062 -22.25 1.1875 -22.425781 1.1875 -22.78125 Z M 1.1875 -26.140625 "/></g></g></g><g fill="#7a8c5e" fill-opacity="1"><g transform="translate(259.64717, 34.778453)"><g><path d="M 24.265625 -0.96875 C 24.359375 -0.707031 24.347656 -0.476562 24.234375 -0.28125 C 24.128906 -0.09375 23.957031 0 23.71875 0 L 18.421875 0 C 18.003906 0 17.738281 -0.21875 17.625 -0.65625 L 13.71875 -10.765625 C 13.570312 -11.097656 13.234375 -11.265625 12.703125 -11.265625 L 9.28125 -11.265625 C 9.113281 -11.265625 9 -11.21875 8.9375 -11.125 C 8.875 -11.03125 8.84375 -10.945312 8.84375 -10.875 L 8.84375 -0.859375 C 8.84375 -0.285156 8.519531 0 7.875 0 L 3.28125 0 C 3 0 2.800781 -0.0546875 2.6875 -0.171875 C 2.582031 -0.296875 2.53125 -0.476562 2.53125 -0.71875 L 2.53125 -26.109375 C 2.53125 -26.566406 2.722656 -26.796875 3.109375 -26.796875 L 14.375 -26.796875 C 17.59375 -26.796875 20.097656 -26.15625 21.890625 -24.875 C 23.691406 -23.601562 24.59375 -21.785156 24.59375 -19.421875 C 24.59375 -18.191406 24.363281 -17.097656 23.90625 -16.140625 C 23.445312 -15.179688 22.84375 -14.378906 22.09375 -13.734375 C 21.351562 -13.097656 20.535156 -12.625 19.640625 -12.3125 C 19.421875 -12.238281 19.375 -12.054688 19.5 -11.765625 Z M 13.796875 -15.53125 C 15.171875 -15.53125 16.222656 -15.820312 16.953125 -16.40625 C 17.691406 -17 18.0625 -17.863281 18.0625 -19 C 18.0625 -20.175781 17.6875 -21.0625 16.9375 -21.65625 C 16.1875 -22.257812 15.195312 -22.5625 13.96875 -22.5625 L 9.53125 -22.5625 C 9.070312 -22.5625 8.84375 -22.359375 8.84375 -21.953125 L 8.84375 -16.140625 C 8.84375 -15.734375 9.015625 -15.53125 9.359375 -15.53125 Z M 13.796875 -15.53125 "/></g></g></g><g fill="#7a8c5e" fill-opacity="1"><g transform="translate(285.718528, 34.778453)"><g><path d="M 8.265625 -26.796875 C 8.648438 -26.796875 8.84375 -26.578125 8.84375 -26.140625 L 8.84375 -0.859375 C 8.84375 -0.546875 8.765625 -0.320312 8.609375 -0.1875 C 8.453125 -0.0625 8.207031 0 7.875 0 L 3.328125 0 C 3.015625 0 2.800781 -0.0546875 2.6875 -0.171875 C 2.582031 -0.296875 2.53125 -0.492188 2.53125 -0.765625 L 2.53125 -26.109375 C 2.53125 -26.566406 2.722656 -26.796875 3.109375 -26.796875 Z M 8.265625 -26.796875 "/></g></g></g><g fill="#7a8c5e" fill-opacity="1"><g transform="translate(297.09315, 34.778453)"><g><path d="M 13.796875 -27.15625 C 15.191406 -27.15625 16.492188 -26.957031 17.703125 -26.5625 C 18.921875 -26.164062 20.007812 -25.601562 20.96875 -24.875 C 21.9375 -24.15625 22.726562 -23.3125 23.34375 -22.34375 C 23.957031 -21.382812 24.359375 -20.335938 24.546875 -19.203125 C 24.648438 -18.816406 24.671875 -18.5625 24.609375 -18.4375 C 24.546875 -18.320312 24.40625 -18.253906 24.1875 -18.234375 L 19.3125 -17.90625 C 19.101562 -17.90625 18.96875 -17.945312 18.90625 -18.03125 C 18.84375 -18.113281 18.785156 -18.253906 18.734375 -18.453125 C 18.472656 -19.703125 17.957031 -20.726562 17.1875 -21.53125 C 16.414062 -22.34375 15.34375 -22.75 13.96875 -22.75 C 12.164062 -22.75 10.753906 -22.019531 9.734375 -20.5625 C 8.710938 -19.101562 8.203125 -16.75 8.203125 -13.5 C 8.203125 -10.28125 8.6875 -7.941406 9.65625 -6.484375 C 10.632812 -5.023438 12.097656 -4.296875 14.046875 -4.296875 C 15.441406 -4.296875 16.644531 -4.644531 17.65625 -5.34375 C 18.664062 -6.039062 19.5 -7.234375 20.15625 -8.921875 C 20.25 -9.140625 20.507812 -9.210938 20.9375 -9.140625 L 24.484375 -8.375 C 24.597656 -8.351562 24.703125 -8.285156 24.796875 -8.171875 C 24.898438 -8.066406 24.925781 -7.832031 24.875 -7.46875 C 24.757812 -6.96875 24.523438 -6.378906 24.171875 -5.703125 C 23.828125 -5.023438 23.363281 -4.332031 22.78125 -3.625 C 22.207031 -2.914062 21.492188 -2.257812 20.640625 -1.65625 C 19.785156 -1.0625 18.789062 -0.578125 17.65625 -0.203125 C 16.519531 0.171875 15.234375 0.359375 13.796875 0.359375 C 11.316406 0.359375 9.15625 -0.226562 7.3125 -1.40625 C 5.46875 -2.582031 4.050781 -4.21875 3.0625 -6.3125 C 2.082031 -8.40625 1.59375 -10.835938 1.59375 -13.609375 C 1.59375 -16.398438 2.082031 -18.800781 3.0625 -20.8125 C 4.050781 -22.820312 5.457031 -24.378906 7.28125 -25.484375 C 9.113281 -26.597656 11.285156 -27.15625 13.796875 -27.15625 Z M 13.796875 -27.15625 "/></g></g></g><g fill="#7a8c5e" fill-opacity="1"><g transform="translate(322.406205, 34.778453)"><g><path d="M 1.1875 -26.140625 C 1.1875 -26.335938 1.242188 -26.492188 1.359375 -26.609375 C 1.484375 -26.734375 1.664062 -26.796875 1.90625 -26.796875 L 22.640625 -26.796875 C 22.898438 -26.796875 23.082031 -26.734375 23.1875 -26.609375 C 23.300781 -26.492188 23.359375 -26.335938 23.359375 -26.140625 L 23.359375 -22.78125 C 23.359375 -22.425781 23.144531 -22.25 22.71875 -22.25 L 15.953125 -22.25 C 15.691406 -22.25 15.5625 -22.125 15.5625 -21.875 L 15.5625 -0.6875 C 15.5625 -0.226562 15.359375 0 14.953125 0 L 9.78125 0 C 9.425781 0 9.25 -0.203125 9.25 -0.609375 L 9.25 -21.78125 C 9.25 -22.09375 9.113281 -22.25 8.84375 -22.25 L 1.875 -22.25 C 1.414062 -22.25 1.1875 -22.425781 1.1875 -22.78125 Z M 1.1875 -26.140625 "/></g></g></g></g></g><g clip-path="url(#ce81ab3f04)"><path stroke-linecap="butt" transform="matrix(0.389425, 0, 0, 0.389425, 4.997097, 57.644036)" fill="none" stroke-linejoin="miter" d="M -0.00257595 11.496577 L 246.604807 11.496577 " stroke="#7a8c5e" stroke-width="23" stroke-opacity="1" stroke-miterlimit="4"/></g><path stroke-linecap="butt" transform="matrix(0.389425, 0, 0, 0.389425, 253.33359, 57.702644)" fill="none" stroke-linejoin="miter" d="M -0.00400152 11.496541 L 246.402765 11.496541 " stroke="#7a8c5e" stroke-width="23" stroke-opacity="1" stroke-miterlimit="4"/><path stroke-linecap="butt" transform="matrix(0, 0.389425, -0.389425, 0, 262.251353, 45.3308)" fill="none" stroke-linejoin="miter" d="M 0.00316078 11.498779 L 54.721211 11.498779 " stroke="#7a8c5e" stroke-width="23" stroke-opacity="1" stroke-miterlimit="4"/><path stroke-linecap="butt" transform="matrix(0, 0.389425, -0.389425, 0, 101.028661, 45.299387)" fill="none" stroke-linejoin="miter" d="M 0.00358088 11.498687 L 54.641385 11.498687 " stroke="#7a8c5e" stroke-width="23" stroke-opacity="1" stroke-miterlimit="4"/><path stroke-linecap="butt" transform="matrix(0, 0.389425, -0.389425, 0, 349.310118, 57.801329)" fill="none" stroke-linejoin="miter" d="M -0.00140692 11.49922 L 77.9179 11.49922 " stroke="#7a8c5e" stroke-width="23" stroke-opacity="1" stroke-miterlimit="4"/><path stroke-linecap="butt" transform="matrix(0.389425, 0, 0, 0.389425, 86.37791, 40.852326)" fill="none" stroke-linejoin="miter" d="M 0.00255799 11.503374 L 466.144177 11.503374 " stroke="#7a8c5e" stroke-width="23" stroke-opacity="1" stroke-miterlimit="4"/><g clip-path="url(#2a205284fd)"><g clip-path="url(#adf413333a)"><g transform="matrix(1, 0, 0, 1, 166, 62)"><g clip-path="url(#4b8689e317)"><g clip-path="url(#ebb4acd12a)"><g clip-path="url(#d5b2f4bba2)"><path fill="#7a8c5e" d="M 0.90625 0.179688 L 20.09375 0.179688 L 20.09375 19.367188 L 0.90625 19.367188 Z M 0.90625 0.179688 " fill-opacity="1" fill-rule="nonzero"/></g></g></g></g></g></g><path stroke-linecap="butt" transform="matrix(0, 0.389425, -0.389425, 0, 13.912963, 57.645996)" fill="none" stroke-linejoin="miter" d="M -0.00376222 11.502512 L 75.397812 11.502512 " stroke="#7a8c5e" stroke-width="23" stroke-opacity="1" stroke-miterlimit="4"/><g clip-path="url(#965a47246d)"><g clip-path="url(#94cba94614)"><g transform="matrix(1, 0, 0, 1, 86, 18)"><g clip-path="url(#3d19574f9a)"><g clip-path="url(#fd1e528734)"><g clip-path="url(#e201283fc3)"><g clip-path="url(#b048bba71c)"><path fill="#7a8c5e" d="M 3.152344 65.007812 C 57.769531 19.667969 140.261719 28.625 187.054688 84.984375 C 187.355469 85.347656 187.578125 85.761719 187.71875 86.214844 C 187.859375 86.667969 187.910156 87.132812 187.863281 87.609375 C 187.820312 88.082031 187.6875 88.527344 187.464844 88.949219 C 187.242188 89.371094 186.949219 89.734375 186.582031 90.039062 C 186.214844 90.339844 185.804688 90.5625 185.351562 90.703125 C 184.898438 90.84375 184.433594 90.894531 183.957031 90.851562 C 183.484375 90.804688 183.039062 90.671875 182.617188 90.453125 C 182.195312 90.230469 181.832031 89.9375 181.527344 89.570312 C 137.269531 36.257812 59.308594 27.722656 7.742188 70.535156 C 7.375 70.839844 6.964844 71.0625 6.507812 71.203125 C 6.054688 71.34375 5.589844 71.390625 5.117188 71.347656 C 4.640625 71.300781 4.195312 71.167969 3.773438 70.949219 C 3.351562 70.726562 2.988281 70.429688 2.683594 70.066406 C 2.378906 69.699219 2.160156 69.289062 2.019531 68.832031 C 1.875 68.378906 1.828125 67.914062 1.871094 67.441406 C 1.917969 66.964844 2.050781 66.519531 2.269531 66.097656 C 2.492188 65.675781 2.789062 65.3125 3.152344 65.007812 Z M 3.152344 65.007812 " fill-opacity="1" fill-rule="nonzero"/></g></g></g></g></g></g></g><g clip-path="url(#87af513512)"><g clip-path="url(#87b1affdc1)"><g transform="matrix(1, 0, 0, 1, 170, 18)"><g clip-path="url(#9a25cb2396)"><g clip-path="url(#3372babda5)"><g clip-path="url(#133aab3e4c)"><g clip-path="url(#3f1df60b4b)"><path fill="#7a8c5e" d="M 95.144531 65.007812 C 40.53125 19.667969 -41.964844 28.625 -88.753906 84.984375 C -89.058594 85.347656 -89.28125 85.761719 -89.421875 86.214844 C -89.5625 86.667969 -89.609375 87.132812 -89.566406 87.609375 C -89.523438 88.082031 -89.390625 88.527344 -89.167969 88.949219 C -88.945312 89.371094 -88.652344 89.734375 -88.285156 90.039062 C -87.917969 90.339844 -87.507812 90.5625 -87.054688 90.703125 C -86.597656 90.84375 -86.132812 90.894531 -85.660156 90.851562 C -85.1875 90.804688 -84.738281 90.671875 -84.316406 90.453125 C -83.898438 90.230469 -83.535156 89.9375 -83.230469 89.570312 C -38.96875 36.257812 38.988281 27.722656 90.558594 70.535156 C 90.925781 70.839844 91.335938 71.0625 91.789062 71.203125 C 92.242188 71.34375 92.707031 71.390625 93.183594 71.347656 C 93.65625 71.300781 94.105469 71.167969 94.523438 70.949219 C 94.945312 70.726562 95.308594 70.429688 95.613281 70.066406 C 95.917969 69.699219 96.140625 69.289062 96.28125 68.832031 C 96.421875 68.378906 96.46875 67.914062 96.425781 67.441406 C 96.382812 66.964844 96.25 66.519531 96.027344 66.097656 C 95.804688 65.675781 95.511719 65.3125 95.144531 65.007812 Z M 95.144531 65.007812 " fill-opacity="1" fill-rule="nonzero"/></g></g></g></g></g></g></g></g></g></svg>