<svg xmlns="http://www.w3.org/2000/svg" xmlns:xlink="http://www.w3.org/1999/xlink" width="500" zoomAndPan="magnify" viewBox="0 0 375 374.999991" height="500" preserveAspectRatio="xMidYMid meet" version="1.0"><defs><g/><clipPath id="4abbb3eab9"><rect x="0" width="354" y="0" height="73"/></clipPath><clipPath id="ab463fea2f"><rect x="0" width="349" y="0" height="45"/></clipPath><clipPath id="0fad7cb17b"><path d="M 0.558594 58 L 107 58 L 107 68 L 0.558594 68 Z M 0.558594 58 " clip-rule="nonzero"/></clipPath><clipPath id="ea8b0fc691"><path d="M 250 58 L 355.519531 58 L 355.519531 68 L 250 68 Z M 250 58 " clip-rule="nonzero"/></clipPath><clipPath id="b57cf1f40c"><path d="M 167.875 63.042969 L 187.125 63.042969 L 187.125 82.292969 L 167.875 82.292969 Z M 167.875 63.042969 " clip-rule="nonzero"/></clipPath><clipPath id="ca8a21a1a3"><path d="M 177.5 63.042969 C 172.183594 63.042969 167.875 67.351562 167.875 72.667969 C 167.875 77.984375 172.183594 82.292969 177.5 82.292969 C 182.816406 82.292969 187.125 77.984375 187.125 72.667969 C 187.125 67.351562 182.816406 63.042969 177.5 63.042969 Z M 177.5 63.042969 " clip-rule="nonzero"/></clipPath><clipPath id="b05319cf36"><path d="M 0.875 0.0429688 L 20.125 0.0429688 L 20.125 19.292969 L 0.875 19.292969 Z M 0.875 0.0429688 " clip-rule="nonzero"/></clipPath><clipPath id="acb0bd5933"><path d="M 10.5 0.0429688 C 5.183594 0.0429688 0.875 4.351562 0.875 9.667969 C 0.875 14.984375 5.183594 19.292969 10.5 19.292969 C 15.816406 19.292969 20.125 14.984375 20.125 9.667969 C 20.125 4.351562 15.816406 0.0429688 10.5 0.0429688 Z M 10.5 0.0429688 " clip-rule="nonzero"/></clipPath><clipPath id="e40e660da0"><rect x="0" width="21" y="0" height="20"/></clipPath><clipPath id="ec4dbf62bf"><path d="M 87 19 L 186 19 L 186 107 L 87 107 Z M 87 19 " clip-rule="nonzero"/></clipPath><clipPath id="3732df7ff8"><path d="M 185.371094 39.835938 L 104.496094 106.980469 L 87.269531 86.234375 L 168.148438 19.089844 Z M 185.371094 39.835938 " clip-rule="nonzero"/></clipPath><clipPath id="6c952859bc"><path d="M 1 35 L 98.601562 35 L 98.601562 88 L 1 88 Z M 1 35 " clip-rule="nonzero"/></clipPath><clipPath id="8a72e37a55"><path d="M 98.371094 20.835938 L 17.496094 87.980469 L 0.269531 67.234375 L 81.148438 0.0898438 Z M 98.371094 20.835938 " clip-rule="nonzero"/></clipPath><clipPath id="0b173a9990"><path d="M 102.246094 -17.578125 L 0.0234375 67.289062 L 87.386719 172.519531 L 189.613281 87.652344 Z M 102.246094 -17.578125 " clip-rule="nonzero"/></clipPath><clipPath id="058e4cf0f5"><rect x="0" width="99" y="0" height="88"/></clipPath><clipPath id="b6c705d634"><path d="M 171 19 L 270 19 L 270 108 L 171 108 Z M 171 19 " clip-rule="nonzero"/></clipPath><clipPath id="e35c44dde3"><path d="M 251.929688 107.082031 L 171.054688 39.9375 L 188.277344 19.191406 L 269.152344 86.335938 Z M 251.929688 107.082031 " clip-rule="nonzero"/></clipPath><clipPath id="7e4df28995"><path d="M 0 35 L 97 35 L 97 88.121094 L 0 88.121094 Z M 0 35 " clip-rule="nonzero"/></clipPath><clipPath id="ae3b2c34ca"><path d="M 80.929688 88.082031 L 0.0546875 20.9375 L 17.277344 0.191406 L 98.152344 67.335938 Z M 80.929688 88.082031 " clip-rule="nonzero"/></clipPath><clipPath id="0d90435b28"><path d="M -3.945312 -17.578125 L 98.28125 67.289062 L 10.914062 172.519531 L -91.308594 87.652344 Z M -3.945312 -17.578125 " clip-rule="nonzero"/></clipPath><clipPath id="819d80312c"><rect x="0" width="99" y="0" height="89"/></clipPath><clipPath id="ab65b46e3d"><rect x="0" width="356" y="0" height="193"/></clipPath></defs><g transform="matrix(1, 0, 0, 1, 10, 70)"><g clip-path="url(#ab65b46e3d)"><g transform="matrix(1, 0, 0, 1, 1, 85)"><g clip-path="url(#4abbb3eab9)"><g fill="#15424a" fill-opacity="1"><g transform="translate(0.679972, 57.316548)"><g><path d="M 5.234375 0 C 4.878906 0 4.601562 -0.0976562 4.40625 -0.296875 C 4.207031 -0.492188 4.109375 -0.75 4.109375 -1.0625 L 4.109375 -42.359375 C 4.109375 -42.710938 4.21875 -43.003906 4.4375 -43.234375 C 4.65625 -43.472656 4.9375 -43.59375 5.28125 -43.59375 L 21.203125 -43.59375 C 26.960938 -43.59375 31.359375 -42.625 34.390625 -40.6875 C 37.429688 -38.75 38.953125 -35.898438 38.953125 -32.140625 C 38.953125 -29.984375 38.375 -28.160156 37.21875 -26.671875 C 36.0625 -25.179688 34.070312 -23.832031 31.25 -22.625 C 31.132812 -22.582031 31.078125 -22.5 31.078125 -22.375 C 31.078125 -22.257812 31.132812 -22.1875 31.25 -22.15625 C 34.34375 -21.132812 36.578125 -19.8125 37.953125 -18.1875 C 39.328125 -16.5625 40.015625 -14.4375 40.015625 -11.8125 C 40.015625 -7.8125 38.503906 -4.84375 35.484375 -2.90625 C 32.472656 -0.96875 27.96875 0 21.96875 0 Z M 21.671875 -6.9375 C 24.222656 -6.9375 26.132812 -7.460938 27.40625 -8.515625 C 28.675781 -9.578125 29.3125 -10.988281 29.3125 -12.75 C 29.3125 -14 29 -15.046875 28.375 -15.890625 C 27.75 -16.734375 26.894531 -17.367188 25.8125 -17.796875 C 24.738281 -18.234375 23.5 -18.453125 22.09375 -18.453125 L 15.515625 -18.453125 C 14.765625 -18.453125 14.390625 -18.117188 14.390625 -17.453125 L 14.390625 -8.046875 C 14.390625 -7.304688 14.664062 -6.9375 15.21875 -6.9375 Z M 22.09375 -25.609375 C 22.988281 -25.609375 23.835938 -25.707031 24.640625 -25.90625 C 25.441406 -26.101562 26.144531 -26.4375 26.75 -26.90625 C 27.363281 -27.375 27.851562 -27.941406 28.21875 -28.609375 C 28.59375 -29.273438 28.78125 -30.0625 28.78125 -30.96875 C 28.78125 -32.800781 28.101562 -34.207031 26.75 -35.1875 C 25.40625 -36.164062 23.675781 -36.65625 21.5625 -36.65625 L 15.515625 -36.65625 C 14.765625 -36.65625 14.390625 -36.320312 14.390625 -35.65625 L 14.390625 -26.671875 C 14.390625 -25.960938 14.664062 -25.609375 15.21875 -25.609375 Z M 22.09375 -25.609375 "/></g></g></g><g fill="#15424a" fill-opacity="1"><g transform="translate(43.156477, 57.316548)"><g><path d="M 4.109375 -42.46875 C 4.109375 -43.21875 4.421875 -43.59375 5.046875 -43.59375 L 34.65625 -43.59375 C 35.25 -43.59375 35.546875 -43.257812 35.546875 -42.59375 L 35.546875 -37.3125 C 35.546875 -36.488281 35.132812 -36.078125 34.3125 -36.078125 L 15.515625 -36.078125 C 14.765625 -36.078125 14.390625 -35.757812 14.390625 -35.125 L 14.390625 -26.609375 C 14.390625 -25.941406 14.6875 -25.609375 15.28125 -25.609375 L 27.734375 -25.609375 C 28.398438 -25.609375 28.734375 -25.296875 28.734375 -24.671875 L 28.734375 -19.03125 C 28.734375 -18.800781 28.660156 -18.609375 28.515625 -18.453125 C 28.378906 -18.296875 28.132812 -18.21875 27.78125 -18.21875 L 15.21875 -18.21875 C 14.664062 -18.21875 14.390625 -17.976562 14.390625 -17.5 L 14.390625 -8.28125 C 14.390625 -7.769531 14.609375 -7.515625 15.046875 -7.515625 L 35.125 -7.515625 C 35.832031 -7.515625 36.1875 -7.222656 36.1875 -6.640625 L 36.1875 -1.0625 C 36.1875 -0.75 36.097656 -0.492188 35.921875 -0.296875 C 35.742188 -0.0976562 35.441406 0 35.015625 0 L 5.40625 0 C 4.539062 0 4.109375 -0.410156 4.109375 -1.234375 Z M 4.109375 -42.46875 "/></g></g></g><g fill="#15424a" fill-opacity="1"><g transform="translate(81.579203, 57.316548)"><g><path d="M 2.8125 0 C 2.46875 0 2.21875 -0.15625 2.0625 -0.46875 C 1.90625 -0.78125 1.90625 -1.191406 2.0625 -1.703125 L 16.6875 -42.421875 C 16.84375 -42.847656 17.015625 -43.148438 17.203125 -43.328125 C 17.398438 -43.503906 17.738281 -43.59375 18.21875 -43.59375 L 27.03125 -43.59375 C 27.882812 -43.59375 28.46875 -43.160156 28.78125 -42.296875 L 43.296875 -1.59375 C 43.410156 -1.269531 43.410156 -0.921875 43.296875 -0.546875 C 43.179688 -0.179688 42.945312 0 42.59375 0 L 33.953125 0 C 33.367188 0 33 -0.273438 32.84375 -0.828125 L 29.78125 -9.40625 C 29.75 -9.59375 29.679688 -9.742188 29.578125 -9.859375 C 29.484375 -9.984375 29.296875 -10.046875 29.015625 -10.046875 L 14.6875 -10.046875 C 14.289062 -10.046875 14.035156 -9.847656 13.921875 -9.453125 L 10.8125 -0.765625 C 10.726562 -0.523438 10.597656 -0.335938 10.421875 -0.203125 C 10.242188 -0.0664062 9.960938 0 9.578125 0 Z M 26.609375 -17.859375 C 27.160156 -17.859375 27.335938 -18.191406 27.140625 -18.859375 L 22.203125 -32.609375 C 22.085938 -32.835938 21.960938 -32.953125 21.828125 -32.953125 C 21.691406 -32.953125 21.5625 -32.816406 21.4375 -32.546875 L 16.453125 -18.859375 C 16.171875 -18.191406 16.347656 -17.859375 16.984375 -17.859375 Z M 26.609375 -17.859375 "/></g></g></g><g fill="#15424a" fill-opacity="1"><g transform="translate(124.114127, 57.316548)"><g><path d="M 38.71875 -16.15625 C 38.71875 -12.039062 38.007812 -8.75 36.59375 -6.28125 C 35.1875 -3.8125 33.171875 -2.046875 30.546875 -0.984375 C 27.921875 0.0664062 24.789062 0.59375 21.15625 0.59375 C 16.882812 0.59375 13.460938 -0.0820312 10.890625 -1.4375 C 8.328125 -2.789062 6.46875 -4.785156 5.3125 -7.421875 C 4.15625 -10.066406 3.578125 -13.332031 3.578125 -17.21875 L 3.578125 -42.421875 C 3.578125 -43.203125 3.894531 -43.59375 4.53125 -43.59375 L 12.984375 -43.59375 C 13.566406 -43.59375 13.859375 -43.238281 13.859375 -42.53125 L 13.859375 -15.921875 C 13.859375 -12.710938 14.550781 -10.378906 15.9375 -8.921875 C 17.332031 -7.472656 19.320312 -6.75 21.90625 -6.75 C 23.550781 -6.75 25 -7.050781 26.25 -7.65625 C 27.507812 -8.269531 28.488281 -9.257812 29.1875 -10.625 C 29.894531 -12 30.25 -13.820312 30.25 -16.09375 L 30.25 -42.46875 C 30.25 -43.21875 30.546875 -43.59375 31.140625 -43.59375 L 37.828125 -43.59375 C 38.421875 -43.59375 38.71875 -43.238281 38.71875 -42.53125 Z M 38.71875 -16.15625 "/></g></g></g><g fill="#15424a" fill-opacity="1"><g transform="translate(166.473129, 57.316548)"><g><path d="M 5.34375 0 C 4.519531 0 4.109375 -0.445312 4.109375 -1.34375 L 4.109375 -42.46875 C 4.109375 -43.21875 4.441406 -43.59375 5.109375 -43.59375 L 17.265625 -43.59375 C 17.703125 -43.59375 18.015625 -43.53125 18.203125 -43.40625 C 18.398438 -43.289062 18.5625 -43.0625 18.6875 -42.71875 L 27.546875 -18.09375 C 27.671875 -17.738281 27.8125 -17.570312 27.96875 -17.59375 C 28.125 -17.613281 28.257812 -17.78125 28.375 -18.09375 L 36.84375 -42.234375 C 37.070312 -43.140625 37.5 -43.59375 38.125 -43.59375 L 50.765625 -43.59375 C 51.347656 -43.59375 51.640625 -43.238281 51.640625 -42.53125 L 51.640625 -1.40625 C 51.640625 -0.46875 51.148438 0 50.171875 0 L 42.59375 0 C 42.125 0 41.800781 -0.0976562 41.625 -0.296875 C 41.445312 -0.492188 41.359375 -0.785156 41.359375 -1.171875 L 41.359375 -30.4375 C 41.359375 -30.707031 41.289062 -30.832031 41.15625 -30.8125 C 41.019531 -30.789062 40.910156 -30.644531 40.828125 -30.375 L 30.546875 -0.9375 C 30.316406 -0.3125 29.90625 0 29.3125 0 L 24.4375 0 C 23.769531 0 23.335938 -0.3125 23.140625 -0.9375 L 12.984375 -29.96875 C 12.867188 -30.3125 12.738281 -30.460938 12.59375 -30.421875 C 12.457031 -30.390625 12.390625 -30.21875 12.390625 -29.90625 L 12.390625 -1.0625 C 12.390625 -0.664062 12.320312 -0.390625 12.1875 -0.234375 C 12.050781 -0.078125 11.769531 0 11.34375 0 Z M 5.34375 0 "/></g></g></g><g fill="#15424a" fill-opacity="1"><g transform="translate(222.227214, 57.316548)"><g><path d="M 22.796875 0.59375 C 18.640625 0.59375 15.050781 -0.296875 12.03125 -2.078125 C 9.019531 -3.867188 6.703125 -6.425781 5.078125 -9.75 C 3.453125 -13.082031 2.640625 -17.039062 2.640625 -21.625 C 2.640625 -26.28125 3.472656 -30.289062 5.140625 -33.65625 C 6.804688 -37.03125 9.144531 -39.628906 12.15625 -41.453125 C 15.175781 -43.273438 18.722656 -44.1875 22.796875 -44.1875 C 26.867188 -44.1875 30.398438 -43.273438 33.390625 -41.453125 C 36.390625 -39.628906 38.710938 -37.039062 40.359375 -33.6875 C 42.003906 -30.34375 42.828125 -26.335938 42.828125 -21.671875 C 42.828125 -17.097656 42.015625 -13.144531 40.390625 -9.8125 C 38.765625 -6.476562 36.441406 -3.910156 33.421875 -2.109375 C 30.410156 -0.304688 26.867188 0.59375 22.796875 0.59375 Z M 22.796875 -6.640625 C 26.003906 -6.640625 28.351562 -7.800781 29.84375 -10.125 C 31.332031 -12.457031 32.078125 -16.269531 32.078125 -21.5625 C 32.078125 -26.96875 31.320312 -30.894531 29.8125 -33.34375 C 28.300781 -35.789062 25.960938 -37.015625 22.796875 -37.015625 C 19.585938 -37.015625 17.21875 -35.78125 15.6875 -33.3125 C 14.15625 -30.84375 13.390625 -26.925781 13.390625 -21.5625 C 13.390625 -16.3125 14.144531 -12.507812 15.65625 -10.15625 C 17.164062 -7.8125 19.546875 -6.640625 22.796875 -6.640625 Z M 22.796875 -6.640625 "/></g></g></g><g fill="#15424a" fill-opacity="1"><g transform="translate(267.700001, 57.316548)"><g><path d="M 39.71875 -43.59375 C 40.226562 -43.59375 40.484375 -43.300781 40.484375 -42.71875 L 40.484375 -0.9375 C 40.484375 -0.664062 40.382812 -0.441406 40.1875 -0.265625 C 39.988281 -0.0859375 39.710938 0 39.359375 0 L 33.421875 0 C 33.109375 0 32.851562 -0.0351562 32.65625 -0.109375 C 32.46875 -0.191406 32.234375 -0.390625 31.953125 -0.703125 L 13.21875 -27.03125 C 13.0625 -27.21875 12.914062 -27.289062 12.78125 -27.25 C 12.644531 -27.21875 12.578125 -27.101562 12.578125 -26.90625 L 12.578125 -1.0625 C 12.609375 -0.351562 12.210938 0 11.390625 0 L 5.28125 0 C 4.5 0 4.109375 -0.332031 4.109375 -1 L 4.109375 -42.46875 C 4.109375 -43.21875 4.460938 -43.59375 5.171875 -43.59375 L 12.28125 -43.59375 C 12.707031 -43.59375 13.03125 -43.53125 13.25 -43.40625 C 13.46875 -43.289062 13.710938 -43.0625 13.984375 -42.71875 L 31.25 -18.09375 C 31.488281 -17.78125 31.695312 -17.644531 31.875 -17.6875 C 32.050781 -17.726562 32.140625 -17.921875 32.140625 -18.265625 L 32.140625 -42.53125 C 32.140625 -43.238281 32.488281 -43.59375 33.1875 -43.59375 Z M 39.71875 -43.59375 "/></g></g></g><g fill="#15424a" fill-opacity="1"><g transform="translate(312.291495, 57.316548)"><g><path d="M 1.9375 -42.53125 C 1.9375 -42.84375 2.035156 -43.097656 2.234375 -43.296875 C 2.429688 -43.492188 2.722656 -43.59375 3.109375 -43.59375 L 36.84375 -43.59375 C 37.269531 -43.59375 37.570312 -43.492188 37.75 -43.296875 C 37.925781 -43.097656 38.015625 -42.84375 38.015625 -42.53125 L 38.015625 -37.078125 C 38.015625 -36.484375 37.660156 -36.1875 36.953125 -36.1875 L 25.96875 -36.1875 C 25.539062 -36.1875 25.328125 -35.992188 25.328125 -35.609375 L 25.328125 -1.109375 C 25.328125 -0.367188 24.992188 0 24.328125 0 L 15.921875 0 C 15.335938 0 15.046875 -0.332031 15.046875 -1 L 15.046875 -35.421875 C 15.046875 -35.929688 14.828125 -36.1875 14.390625 -36.1875 L 3.0625 -36.1875 C 2.3125 -36.1875 1.9375 -36.484375 1.9375 -37.078125 Z M 1.9375 -42.53125 "/></g></g></g></g></g><g transform="matrix(1, 0, 0, 1, 2, 144)"><g clip-path="url(#ab463fea2f)"><g fill="#15424a" fill-opacity="1"><g transform="translate(1.392104, 35.038252)"><g><path d="M 2.53125 -26.203125 C 2.53125 -26.660156 2.722656 -26.890625 3.109375 -26.890625 L 8.296875 -26.890625 C 8.679688 -26.890625 8.875 -26.671875 8.875 -26.234375 L 8.875 -5.109375 C 8.875 -4.796875 9.007812 -4.640625 9.28125 -4.640625 L 20.828125 -4.640625 C 21.265625 -4.640625 21.484375 -4.457031 21.484375 -4.09375 L 21.484375 -0.65625 C 21.484375 -0.457031 21.425781 -0.296875 21.3125 -0.171875 C 21.207031 -0.0546875 21.035156 0 20.796875 0 L 3.328125 0 C 3.015625 0 2.800781 -0.0546875 2.6875 -0.171875 C 2.582031 -0.296875 2.53125 -0.492188 2.53125 -0.765625 Z M 2.53125 -26.203125 "/></g></g></g><g fill="#15424a" fill-opacity="1"><g transform="translate(24.111288, 35.038252)"><g><path d="M 8.296875 -26.890625 C 8.679688 -26.890625 8.875 -26.671875 8.875 -26.234375 L 8.875 -0.875 C 8.875 -0.5625 8.796875 -0.335938 8.640625 -0.203125 C 8.484375 -0.0664062 8.238281 0 7.90625 0 L 3.328125 0 C 3.015625 0 2.800781 -0.0546875 2.6875 -0.171875 C 2.582031 -0.296875 2.53125 -0.492188 2.53125 -0.765625 L 2.53125 -26.203125 C 2.53125 -26.660156 2.722656 -26.890625 3.109375 -26.890625 Z M 8.296875 -26.890625 "/></g></g></g><g fill="#15424a" fill-opacity="1"><g transform="translate(35.52523, 35.038252)"><g><path d="M 3.21875 0 C 3.007812 0 2.84375 -0.0546875 2.71875 -0.171875 C 2.59375 -0.296875 2.53125 -0.457031 2.53125 -0.65625 L 2.53125 -26.125 C 2.53125 -26.34375 2.597656 -26.523438 2.734375 -26.671875 C 2.867188 -26.816406 3.046875 -26.890625 3.265625 -26.890625 L 13.078125 -26.890625 C 16.628906 -26.890625 19.335938 -26.289062 21.203125 -25.09375 C 23.078125 -23.894531 24.015625 -22.132812 24.015625 -19.8125 C 24.015625 -18.488281 23.660156 -17.367188 22.953125 -16.453125 C 22.242188 -15.535156 21.019531 -14.703125 19.28125 -13.953125 C 19.207031 -13.921875 19.171875 -13.867188 19.171875 -13.796875 C 19.171875 -13.734375 19.207031 -13.6875 19.28125 -13.65625 C 21.1875 -13.03125 22.5625 -12.210938 23.40625 -11.203125 C 24.25 -10.203125 24.671875 -8.894531 24.671875 -7.28125 C 24.671875 -4.820312 23.738281 -2.992188 21.875 -1.796875 C 20.019531 -0.597656 17.242188 0 13.546875 0 Z M 13.375 -4.28125 C 14.9375 -4.28125 16.109375 -4.601562 16.890625 -5.25 C 17.679688 -5.90625 18.078125 -6.773438 18.078125 -7.859375 C 18.078125 -8.628906 17.882812 -9.273438 17.5 -9.796875 C 17.113281 -10.316406 16.585938 -10.707031 15.921875 -10.96875 C 15.253906 -11.238281 14.488281 -11.375 13.625 -11.375 L 9.5625 -11.375 C 9.101562 -11.375 8.875 -11.171875 8.875 -10.765625 L 8.875 -4.96875 C 8.875 -4.507812 9.046875 -4.28125 9.390625 -4.28125 Z M 13.625 -15.796875 C 14.175781 -15.796875 14.695312 -15.851562 15.1875 -15.96875 C 15.6875 -16.09375 16.125 -16.300781 16.5 -16.59375 C 16.875 -16.882812 17.175781 -17.234375 17.40625 -17.640625 C 17.632812 -18.054688 17.75 -18.539062 17.75 -19.09375 C 17.75 -20.226562 17.332031 -21.097656 16.5 -21.703125 C 15.664062 -22.304688 14.597656 -22.609375 13.296875 -22.609375 L 9.5625 -22.609375 C 9.101562 -22.609375 8.875 -22.40625 8.875 -22 L 8.875 -16.453125 C 8.875 -16.015625 9.046875 -15.796875 9.390625 -15.796875 Z M 13.625 -15.796875 "/></g></g></g><g fill="#15424a" fill-opacity="1"><g transform="translate(61.722939, 35.038252)"><g><path d="M 24.34375 -0.984375 C 24.445312 -0.710938 24.441406 -0.476562 24.328125 -0.28125 C 24.222656 -0.09375 24.050781 0 23.8125 0 L 18.484375 0 C 18.066406 0 17.800781 -0.21875 17.6875 -0.65625 L 13.765625 -10.796875 C 13.617188 -11.140625 13.28125 -11.3125 12.75 -11.3125 L 9.3125 -11.3125 C 9.144531 -11.3125 9.03125 -11.257812 8.96875 -11.15625 C 8.90625 -11.0625 8.875 -10.976562 8.875 -10.90625 L 8.875 -0.875 C 8.875 -0.289062 8.550781 0 7.90625 0 L 3.296875 0 C 3.003906 0 2.800781 -0.0546875 2.6875 -0.171875 C 2.582031 -0.296875 2.53125 -0.476562 2.53125 -0.71875 L 2.53125 -26.203125 C 2.53125 -26.660156 2.722656 -26.890625 3.109375 -26.890625 L 14.421875 -26.890625 C 17.660156 -26.890625 20.175781 -26.25 21.96875 -24.96875 C 23.769531 -23.6875 24.671875 -21.863281 24.671875 -19.5 C 24.671875 -18.257812 24.441406 -17.15625 23.984375 -16.1875 C 23.523438 -15.226562 22.921875 -14.425781 22.171875 -13.78125 C 21.421875 -13.144531 20.601562 -12.671875 19.71875 -12.359375 C 19.5 -12.285156 19.445312 -12.101562 19.5625 -11.8125 Z M 13.84375 -15.578125 C 15.21875 -15.578125 16.273438 -15.875 17.015625 -16.46875 C 17.753906 -17.0625 18.125 -17.925781 18.125 -19.0625 C 18.125 -20.238281 17.75 -21.128906 17 -21.734375 C 16.25 -22.335938 15.253906 -22.640625 14.015625 -22.640625 L 9.5625 -22.640625 C 9.101562 -22.640625 8.875 -22.4375 8.875 -22.03125 L 8.875 -16.203125 C 8.875 -15.785156 9.046875 -15.578125 9.390625 -15.578125 Z M 13.84375 -15.578125 "/></g></g></g><g fill="#15424a" fill-opacity="1"><g transform="translate(86.906074, 35.038252)"><g><path d="M 1.734375 0 C 1.515625 0 1.359375 -0.09375 1.265625 -0.28125 C 1.171875 -0.476562 1.171875 -0.734375 1.265625 -1.046875 L 10.296875 -26.15625 C 10.390625 -26.425781 10.492188 -26.613281 10.609375 -26.71875 C 10.734375 -26.832031 10.941406 -26.890625 11.234375 -26.890625 L 16.671875 -26.890625 C 17.203125 -26.890625 17.5625 -26.625 17.75 -26.09375 L 26.703125 -0.984375 C 26.773438 -0.785156 26.773438 -0.570312 26.703125 -0.34375 C 26.628906 -0.113281 26.484375 0 26.265625 0 L 20.9375 0 C 20.582031 0 20.351562 -0.164062 20.25 -0.5 L 18.375 -5.796875 C 18.34375 -5.921875 18.296875 -6.019531 18.234375 -6.09375 C 18.179688 -6.164062 18.070312 -6.203125 17.90625 -6.203125 L 9.0625 -6.203125 C 8.820312 -6.203125 8.664062 -6.078125 8.59375 -5.828125 L 6.671875 -0.46875 C 6.617188 -0.320312 6.535156 -0.207031 6.421875 -0.125 C 6.316406 -0.0390625 6.144531 0 5.90625 0 Z M 16.421875 -11.015625 C 16.753906 -11.015625 16.859375 -11.21875 16.734375 -11.625 L 13.703125 -20.109375 C 13.628906 -20.253906 13.546875 -20.328125 13.453125 -20.328125 C 13.367188 -20.328125 13.289062 -20.242188 13.21875 -20.078125 L 10.140625 -11.625 C 9.972656 -11.21875 10.082031 -11.015625 10.46875 -11.015625 Z M 16.421875 -11.015625 "/></g></g></g><g fill="#15424a" fill-opacity="1"><g transform="translate(114.843055, 35.038252)"><g><path d="M 24.34375 -0.984375 C 24.445312 -0.710938 24.441406 -0.476562 24.328125 -0.28125 C 24.222656 -0.09375 24.050781 0 23.8125 0 L 18.484375 0 C 18.066406 0 17.800781 -0.21875 17.6875 -0.65625 L 13.765625 -10.796875 C 13.617188 -11.140625 13.28125 -11.3125 12.75 -11.3125 L 9.3125 -11.3125 C 9.144531 -11.3125 9.03125 -11.257812 8.96875 -11.15625 C 8.90625 -11.0625 8.875 -10.976562 8.875 -10.90625 L 8.875 -0.875 C 8.875 -0.289062 8.550781 0 7.90625 0 L 3.296875 0 C 3.003906 0 2.800781 -0.0546875 2.6875 -0.171875 C 2.582031 -0.296875 2.53125 -0.476562 2.53125 -0.71875 L 2.53125 -26.203125 C 2.53125 -26.660156 2.722656 -26.890625 3.109375 -26.890625 L 14.421875 -26.890625 C 17.660156 -26.890625 20.175781 -26.25 21.96875 -24.96875 C 23.769531 -23.6875 24.671875 -21.863281 24.671875 -19.5 C 24.671875 -18.257812 24.441406 -17.15625 23.984375 -16.1875 C 23.523438 -15.226562 22.921875 -14.425781 22.171875 -13.78125 C 21.421875 -13.144531 20.601562 -12.671875 19.71875 -12.359375 C 19.5 -12.285156 19.445312 -12.101562 19.5625 -11.8125 Z M 13.84375 -15.578125 C 15.21875 -15.578125 16.273438 -15.875 17.015625 -16.46875 C 17.753906 -17.0625 18.125 -17.925781 18.125 -19.0625 C 18.125 -20.238281 17.75 -21.128906 17 -21.734375 C 16.25 -22.335938 15.253906 -22.640625 14.015625 -22.640625 L 9.5625 -22.640625 C 9.101562 -22.640625 8.875 -22.4375 8.875 -22.03125 L 8.875 -16.203125 C 8.875 -15.785156 9.046875 -15.578125 9.390625 -15.578125 Z M 13.84375 -15.578125 "/></g></g></g><g fill="#15424a" fill-opacity="1"><g transform="translate(139.881262, 35.038252)"><g><path d="M 25 -26.890625 C 25.238281 -26.890625 25.394531 -26.820312 25.46875 -26.6875 C 25.539062 -26.550781 25.519531 -26.375 25.40625 -26.15625 L 16.890625 -12.21875 C 16.742188 -12 16.65625 -11.773438 16.625 -11.546875 C 16.601562 -11.316406 16.59375 -10.898438 16.59375 -10.296875 L 16.59375 -0.875 C 16.59375 -0.289062 16.253906 0 15.578125 0 L 11.046875 0 C 10.734375 0 10.519531 -0.0546875 10.40625 -0.171875 C 10.300781 -0.296875 10.25 -0.492188 10.25 -0.765625 L 10.25 -10.515625 C 10.25 -10.847656 10.210938 -11.097656 10.140625 -11.265625 C 10.066406 -11.429688 9.957031 -11.625 9.8125 -11.84375 L 1.234375 -26.046875 C 1.085938 -26.296875 1.0625 -26.5 1.15625 -26.65625 C 1.25 -26.8125 1.457031 -26.890625 1.78125 -26.890625 L 7.203125 -26.890625 C 7.523438 -26.890625 7.742188 -26.835938 7.859375 -26.734375 C 7.984375 -26.640625 8.117188 -26.472656 8.265625 -26.234375 L 13.625 -16.8125 C 13.769531 -16.570312 13.890625 -16.445312 13.984375 -16.4375 C 14.078125 -16.425781 14.1875 -16.523438 14.3125 -16.734375 L 19.609375 -26.234375 C 19.742188 -26.492188 19.878906 -26.664062 20.015625 -26.75 C 20.148438 -26.84375 20.363281 -26.890625 20.65625 -26.890625 Z M 25 -26.890625 "/></g></g></g><g fill="#15424a" fill-opacity="1"><g transform="translate(166.513794, 35.038252)"><g/></g></g><g fill="#15424a" fill-opacity="1"><g transform="translate(173.978142, 35.038252)"><g><path d="M 3.375 0 C 2.8125 0 2.53125 -0.289062 2.53125 -0.875 L 2.53125 -26.125 C 2.53125 -26.414062 2.59375 -26.613281 2.71875 -26.71875 C 2.84375 -26.832031 3.046875 -26.890625 3.328125 -26.890625 C 3.859375 -26.890625 4.476562 -26.890625 5.1875 -26.890625 C 5.90625 -26.890625 6.648438 -26.890625 7.421875 -26.890625 C 8.203125 -26.890625 8.941406 -26.890625 9.640625 -26.890625 C 10.335938 -26.890625 10.925781 -26.875 11.40625 -26.84375 C 14.675781 -26.769531 17.359375 -26.175781 19.453125 -25.0625 C 21.554688 -23.957031 23.109375 -22.429688 24.109375 -20.484375 C 25.117188 -18.546875 25.625 -16.234375 25.625 -13.546875 C 25.625 -10.796875 25.097656 -8.398438 24.046875 -6.359375 C 22.992188 -4.316406 21.394531 -2.742188 19.25 -1.640625 C 17.113281 -0.546875 14.441406 0 11.234375 0 Z M 9.34375 -4.453125 L 10.03125 -4.453125 C 12.019531 -4.453125 13.675781 -4.75 15 -5.34375 C 16.332031 -5.9375 17.328125 -6.894531 17.984375 -8.21875 C 18.648438 -9.550781 18.984375 -11.316406 18.984375 -13.515625 C 18.984375 -15.640625 18.675781 -17.347656 18.0625 -18.640625 C 17.445312 -19.929688 16.503906 -20.878906 15.234375 -21.484375 C 13.960938 -22.085938 12.351562 -22.390625 10.40625 -22.390625 L 9.234375 -22.390625 C 8.992188 -22.390625 8.875 -22.222656 8.875 -21.890625 L 8.875 -4.96875 C 8.875 -4.625 9.03125 -4.453125 9.34375 -4.453125 Z M 9.34375 -4.453125 "/></g></g></g><g fill="#15424a" fill-opacity="1"><g transform="translate(201.190425, 35.038252)"><g><path d="M 8.296875 -26.890625 C 8.679688 -26.890625 8.875 -26.671875 8.875 -26.234375 L 8.875 -0.875 C 8.875 -0.5625 8.796875 -0.335938 8.640625 -0.203125 C 8.484375 -0.0664062 8.238281 0 7.90625 0 L 3.328125 0 C 3.015625 0 2.800781 -0.0546875 2.6875 -0.171875 C 2.582031 -0.296875 2.53125 -0.492188 2.53125 -0.765625 L 2.53125 -26.203125 C 2.53125 -26.660156 2.722656 -26.890625 3.109375 -26.890625 Z M 8.296875 -26.890625 "/></g></g></g><g fill="#15424a" fill-opacity="1"><g transform="translate(212.604367, 35.038252)"><g><path d="M 17.96875 -20.546875 C 17.4375 -21.128906 16.773438 -21.648438 15.984375 -22.109375 C 15.203125 -22.566406 14.085938 -22.796875 12.640625 -22.796875 C 11.117188 -22.796875 9.984375 -22.519531 9.234375 -21.96875 C 8.484375 -21.425781 8.109375 -20.734375 8.109375 -19.890625 C 8.109375 -19.597656 8.179688 -19.28125 8.328125 -18.9375 C 8.472656 -18.601562 8.765625 -18.28125 9.203125 -17.96875 C 9.640625 -17.65625 10.253906 -17.378906 11.046875 -17.140625 L 16.78125 -15.515625 C 19 -14.910156 20.613281 -13.9375 21.625 -12.59375 C 22.644531 -11.25 23.15625 -9.695312 23.15625 -7.9375 C 23.15625 -6.25 22.71875 -4.78125 21.84375 -3.53125 C 20.976562 -2.289062 19.734375 -1.332031 18.109375 -0.65625 C 16.492188 0.0195312 14.578125 0.359375 12.359375 0.359375 C 10.710938 0.359375 9.171875 0.171875 7.734375 -0.203125 C 6.296875 -0.578125 5.023438 -1.117188 3.921875 -1.828125 C 2.828125 -2.546875 1.96875 -3.375 1.34375 -4.3125 C 1.21875 -4.550781 1.164062 -4.75 1.1875 -4.90625 C 1.21875 -5.0625 1.34375 -5.226562 1.5625 -5.40625 L 4.34375 -7.3125 C 4.632812 -7.488281 4.867188 -7.5625 5.046875 -7.53125 C 5.234375 -7.507812 5.398438 -7.414062 5.546875 -7.25 C 6.117188 -6.519531 6.6875 -5.910156 7.25 -5.421875 C 7.820312 -4.941406 8.484375 -4.59375 9.234375 -4.375 C 9.984375 -4.164062 10.878906 -4.0625 11.921875 -4.0625 C 13.492188 -4.0625 14.75 -4.304688 15.6875 -4.796875 C 16.632812 -5.296875 17.109375 -6.066406 17.109375 -7.109375 C 17.109375 -7.515625 17.007812 -7.890625 16.8125 -8.234375 C 16.613281 -8.585938 16.300781 -8.90625 15.875 -9.1875 C 15.457031 -9.46875 14.863281 -9.726562 14.09375 -9.96875 L 8.625 -11.515625 C 7.195312 -11.929688 6 -12.515625 5.03125 -13.265625 C 4.070312 -14.015625 3.34375 -14.894531 2.84375 -15.90625 C 2.351562 -16.914062 2.109375 -17.976562 2.109375 -19.09375 C 2.109375 -20.644531 2.535156 -22.035156 3.390625 -23.265625 C 4.242188 -24.492188 5.445312 -25.460938 7 -26.171875 C 8.5625 -26.890625 10.382812 -27.25 12.46875 -27.25 C 13.84375 -27.25 15.128906 -27.09375 16.328125 -26.78125 C 17.523438 -26.46875 18.601562 -26.03125 19.5625 -25.46875 C 20.53125 -24.914062 21.316406 -24.238281 21.921875 -23.4375 C 22.015625 -23.320312 22.085938 -23.1875 22.140625 -23.03125 C 22.191406 -22.875 22.117188 -22.707031 21.921875 -22.53125 L 18.875 -20.296875 C 18.726562 -20.191406 18.59375 -20.15625 18.46875 -20.1875 C 18.351562 -20.226562 18.1875 -20.347656 17.96875 -20.546875 Z M 17.96875 -20.546875 "/></g></g></g><g fill="#15424a" fill-opacity="1"><g transform="translate(236.265651, 35.038252)"><g><path d="M 1.203125 -26.234375 C 1.203125 -26.429688 1.257812 -26.585938 1.375 -26.703125 C 1.5 -26.828125 1.679688 -26.890625 1.921875 -26.890625 L 22.71875 -26.890625 C 22.988281 -26.890625 23.175781 -26.828125 23.28125 -26.703125 C 23.382812 -26.585938 23.4375 -26.429688 23.4375 -26.234375 L 23.4375 -22.859375 C 23.4375 -22.503906 23.222656 -22.328125 22.796875 -22.328125 L 16.015625 -22.328125 C 15.742188 -22.328125 15.609375 -22.203125 15.609375 -21.953125 L 15.609375 -0.6875 C 15.609375 -0.226562 15.40625 0 15 0 L 9.8125 0 C 9.457031 0 9.28125 -0.203125 9.28125 -0.609375 L 9.28125 -21.84375 C 9.28125 -22.164062 9.144531 -22.328125 8.875 -22.328125 L 1.890625 -22.328125 C 1.429688 -22.328125 1.203125 -22.503906 1.203125 -22.859375 Z M 1.203125 -26.234375 "/></g></g></g><g fill="#15424a" fill-opacity="1"><g transform="translate(260.941508, 35.038252)"><g><path d="M 24.34375 -0.984375 C 24.445312 -0.710938 24.441406 -0.476562 24.328125 -0.28125 C 24.222656 -0.09375 24.050781 0 23.8125 0 L 18.484375 0 C 18.066406 0 17.800781 -0.21875 17.6875 -0.65625 L 13.765625 -10.796875 C 13.617188 -11.140625 13.28125 -11.3125 12.75 -11.3125 L 9.3125 -11.3125 C 9.144531 -11.3125 9.03125 -11.257812 8.96875 -11.15625 C 8.90625 -11.0625 8.875 -10.976562 8.875 -10.90625 L 8.875 -0.875 C 8.875 -0.289062 8.550781 0 7.90625 0 L 3.296875 0 C 3.003906 0 2.800781 -0.0546875 2.6875 -0.171875 C 2.582031 -0.296875 2.53125 -0.476562 2.53125 -0.71875 L 2.53125 -26.203125 C 2.53125 -26.660156 2.722656 -26.890625 3.109375 -26.890625 L 14.421875 -26.890625 C 17.660156 -26.890625 20.175781 -26.25 21.96875 -24.96875 C 23.769531 -23.6875 24.671875 -21.863281 24.671875 -19.5 C 24.671875 -18.257812 24.441406 -17.15625 23.984375 -16.1875 C 23.523438 -15.226562 22.921875 -14.425781 22.171875 -13.78125 C 21.421875 -13.144531 20.601562 -12.671875 19.71875 -12.359375 C 19.5 -12.285156 19.445312 -12.101562 19.5625 -11.8125 Z M 13.84375 -15.578125 C 15.21875 -15.578125 16.273438 -15.875 17.015625 -16.46875 C 17.753906 -17.0625 18.125 -17.925781 18.125 -19.0625 C 18.125 -20.238281 17.75 -21.128906 17 -21.734375 C 16.25 -22.335938 15.253906 -22.640625 14.015625 -22.640625 L 9.5625 -22.640625 C 9.101562 -22.640625 8.875 -22.4375 8.875 -22.03125 L 8.875 -16.203125 C 8.875 -15.785156 9.046875 -15.578125 9.390625 -15.578125 Z M 13.84375 -15.578125 "/></g></g></g><g fill="#15424a" fill-opacity="1"><g transform="translate(287.10299, 35.038252)"><g><path d="M 8.296875 -26.890625 C 8.679688 -26.890625 8.875 -26.671875 8.875 -26.234375 L 8.875 -0.875 C 8.875 -0.5625 8.796875 -0.335938 8.640625 -0.203125 C 8.484375 -0.0664062 8.238281 0 7.90625 0 L 3.328125 0 C 3.015625 0 2.800781 -0.0546875 2.6875 -0.171875 C 2.582031 -0.296875 2.53125 -0.492188 2.53125 -0.765625 L 2.53125 -26.203125 C 2.53125 -26.660156 2.722656 -26.890625 3.109375 -26.890625 Z M 8.296875 -26.890625 "/></g></g></g><g fill="#15424a" fill-opacity="1"><g transform="translate(298.516932, 35.038252)"><g><path d="M 13.84375 -27.25 C 15.238281 -27.25 16.546875 -27.046875 17.765625 -26.640625 C 18.992188 -26.242188 20.085938 -25.679688 21.046875 -24.953125 C 22.015625 -24.234375 22.804688 -23.390625 23.421875 -22.421875 C 24.035156 -21.460938 24.441406 -20.414062 24.640625 -19.28125 C 24.734375 -18.894531 24.75 -18.640625 24.6875 -18.515625 C 24.632812 -18.390625 24.5 -18.316406 24.28125 -18.296875 L 19.390625 -17.96875 C 19.171875 -17.96875 19.03125 -18.007812 18.96875 -18.09375 C 18.90625 -18.175781 18.851562 -18.316406 18.8125 -18.515625 C 18.539062 -19.773438 18.019531 -20.804688 17.25 -21.609375 C 16.476562 -22.421875 15.398438 -22.828125 14.015625 -22.828125 C 12.210938 -22.828125 10.796875 -22.09375 9.765625 -20.625 C 8.734375 -19.164062 8.21875 -16.804688 8.21875 -13.546875 C 8.21875 -10.316406 8.707031 -7.96875 9.6875 -6.5 C 10.664062 -5.039062 12.132812 -4.3125 14.09375 -4.3125 C 15.5 -4.3125 16.707031 -4.660156 17.71875 -5.359375 C 18.726562 -6.054688 19.5625 -7.253906 20.21875 -8.953125 C 20.3125 -9.171875 20.578125 -9.242188 21.015625 -9.171875 L 24.5625 -8.40625 C 24.6875 -8.382812 24.796875 -8.316406 24.890625 -8.203125 C 24.984375 -8.097656 25.007812 -7.863281 24.96875 -7.5 C 24.84375 -6.988281 24.601562 -6.394531 24.25 -5.71875 C 23.90625 -5.039062 23.441406 -4.347656 22.859375 -3.640625 C 22.285156 -2.929688 21.566406 -2.273438 20.703125 -1.671875 C 19.847656 -1.066406 18.851562 -0.578125 17.71875 -0.203125 C 16.582031 0.171875 15.289062 0.359375 13.84375 0.359375 C 11.351562 0.359375 9.179688 -0.226562 7.328125 -1.40625 C 5.484375 -2.59375 4.066406 -4.238281 3.078125 -6.34375 C 2.085938 -8.445312 1.59375 -10.882812 1.59375 -13.65625 C 1.59375 -16.457031 2.085938 -18.867188 3.078125 -20.890625 C 4.066406 -22.910156 5.476562 -24.472656 7.3125 -25.578125 C 9.15625 -26.691406 11.332031 -27.25 13.84375 -27.25 Z M 13.84375 -27.25 "/></g></g></g><g fill="#15424a" fill-opacity="1"><g transform="translate(323.917489, 35.038252)"><g><path d="M 1.203125 -26.234375 C 1.203125 -26.429688 1.257812 -26.585938 1.375 -26.703125 C 1.5 -26.828125 1.679688 -26.890625 1.921875 -26.890625 L 22.71875 -26.890625 C 22.988281 -26.890625 23.175781 -26.828125 23.28125 -26.703125 C 23.382812 -26.585938 23.4375 -26.429688 23.4375 -26.234375 L 23.4375 -22.859375 C 23.4375 -22.503906 23.222656 -22.328125 22.796875 -22.328125 L 16.015625 -22.328125 C 15.742188 -22.328125 15.609375 -22.203125 15.609375 -21.953125 L 15.609375 -0.6875 C 15.609375 -0.226562 15.40625 0 15 0 L 9.8125 0 C 9.457031 0 9.28125 -0.203125 9.28125 -0.609375 L 9.28125 -21.84375 C 9.28125 -22.164062 9.144531 -22.328125 8.875 -22.328125 L 1.890625 -22.328125 C 1.429688 -22.328125 1.203125 -22.503906 1.203125 -22.859375 Z M 1.203125 -26.234375 "/></g></g></g></g></g><g clip-path="url(#0fad7cb17b)"><path stroke-linecap="butt" transform="matrix(0.390771, 0, 0, 0.390771, 5.404249, 58.488556)" fill="none" stroke-linejoin="miter" d="M -0.00487604 11.504982 L 246.602668 11.504982 " stroke="#15424a" stroke-width="23" stroke-opacity="1" stroke-miterlimit="4"/></g><g clip-path="url(#ea8b0fc691)"><path stroke-linecap="butt" transform="matrix(0.390771, 0, 0, 0.390771, 254.599195, 58.547354)" fill="none" stroke-linejoin="miter" d="M -0.00393804 11.504461 L 246.403681 11.504461 " stroke="#15424a" stroke-width="23" stroke-opacity="1" stroke-miterlimit="4"/></g><path stroke-linecap="butt" transform="matrix(0, 0.390771, -0.390771, 0, 263.547779, 46.132762)" fill="none" stroke-linejoin="miter" d="M 0.000129298 11.498004 L 54.719614 11.498004 " stroke="#15424a" stroke-width="23" stroke-opacity="1" stroke-miterlimit="4"/><path stroke-linecap="butt" transform="matrix(0, 0.390771, -0.390771, 0, 101.767767, 46.101238)" fill="none" stroke-linejoin="miter" d="M 0.00083047 11.501171 L 54.640346 11.501171 " stroke="#15424a" stroke-width="23" stroke-opacity="1" stroke-miterlimit="4"/><path stroke-linecap="butt" transform="matrix(0, 0.390771, -0.390771, 0, 350.907452, 58.646407)" fill="none" stroke-linejoin="miter" d="M -0.00479949 11.498766 L 77.915987 11.498766 " stroke="#15424a" stroke-width="23" stroke-opacity="1" stroke-miterlimit="4"/><path stroke-linecap="butt" transform="matrix(0.390771, 0, 0, 0.390771, 87.066376, 41.638796)" fill="none" stroke-linejoin="miter" d="M 0.0000781122 11.500371 L 466.135319 11.500371 " stroke="#15424a" stroke-width="23" stroke-opacity="1" stroke-miterlimit="4"/><g clip-path="url(#b57cf1f40c)"><g clip-path="url(#ca8a21a1a3)"><g transform="matrix(1, 0, 0, 1, 167, 63)"><g clip-path="url(#e40e660da0)"><g clip-path="url(#b05319cf36)"><g clip-path="url(#acb0bd5933)"><path fill="#15424a" d="M 0.875 0.0429688 L 20.125 0.0429688 L 20.125 19.292969 L 0.875 19.292969 Z M 0.875 0.0429688 " fill-opacity="1" fill-rule="nonzero"/></g></g></g></g></g></g><path stroke-linecap="butt" transform="matrix(0, 0.390771, -0.390771, 0, 14.350932, 58.490534)" fill="none" stroke-linejoin="miter" d="M 0.00423147 11.504073 L 75.395966 11.504073 " stroke="#15424a" stroke-width="23" stroke-opacity="1" stroke-miterlimit="4"/><g clip-path="url(#ec4dbf62bf)"><g clip-path="url(#3732df7ff8)"><g transform="matrix(1, 0, 0, 1, 87, 19)"><g clip-path="url(#058e4cf0f5)"><g clip-path="url(#6c952859bc)"><g clip-path="url(#8a72e37a55)"><g clip-path="url(#0b173a9990)"><path fill="#15424a" d="M 2.851562 64.941406 C 57.65625 19.445312 140.433594 28.429688 187.386719 84.984375 C 187.691406 85.351562 187.914062 85.765625 188.054688 86.21875 C 188.195312 86.675781 188.246094 87.140625 188.199219 87.617188 C 188.15625 88.09375 188.023438 88.542969 187.800781 88.964844 C 187.578125 89.386719 187.28125 89.75 186.914062 90.054688 C 186.546875 90.359375 186.136719 90.585938 185.679688 90.726562 C 185.222656 90.867188 184.757812 90.914062 184.28125 90.871094 C 183.804688 90.828125 183.355469 90.695312 182.933594 90.472656 C 182.511719 90.25 182.148438 89.953125 181.84375 89.585938 C 137.429688 36.089844 59.199219 27.523438 7.453125 70.484375 C 7.085938 70.789062 6.675781 71.015625 6.21875 71.15625 C 5.761719 71.296875 5.296875 71.34375 4.820312 71.300781 C 4.34375 71.257812 3.894531 71.125 3.472656 70.902344 C 3.050781 70.675781 2.6875 70.382812 2.382812 70.015625 C 2.078125 69.648438 1.851562 69.234375 1.710938 68.777344 C 1.570312 68.324219 1.523438 67.855469 1.566406 67.378906 C 1.609375 66.90625 1.742188 66.457031 1.964844 66.035156 C 2.1875 65.609375 2.484375 65.246094 2.851562 64.941406 Z M 2.851562 64.941406 " fill-opacity="1" fill-rule="nonzero"/></g></g></g></g></g></g></g><g clip-path="url(#b6c705d634)"><g clip-path="url(#e35c44dde3)"><g transform="matrix(1, 0, 0, 1, 171, 19)"><g clip-path="url(#819d80312c)"><g clip-path="url(#7e4df28995)"><g clip-path="url(#ae3b2c34ca)"><g clip-path="url(#0d90435b28)"><path fill="#15424a" d="M 95.449219 64.941406 C 40.648438 19.445312 -42.132812 28.429688 -89.085938 84.984375 C -89.390625 85.351562 -89.613281 85.765625 -89.753906 86.21875 C -89.894531 86.675781 -89.941406 87.140625 -89.898438 87.617188 C -89.855469 88.09375 -89.71875 88.542969 -89.496094 88.964844 C -89.273438 89.386719 -88.980469 89.75 -88.613281 90.054688 C -88.246094 90.359375 -87.832031 90.585938 -87.378906 90.726562 C -86.921875 90.867188 -86.453125 90.914062 -85.980469 90.871094 C -85.503906 90.828125 -85.054688 90.695312 -84.632812 90.472656 C -84.210938 90.25 -83.847656 89.953125 -83.539062 89.585938 C -39.128906 36.089844 39.101562 27.523438 90.847656 70.484375 C 91.214844 70.789062 91.628906 71.015625 92.085938 71.15625 C 92.539062 71.296875 93.007812 71.34375 93.480469 71.300781 C 93.957031 71.257812 94.40625 71.125 94.828125 70.902344 C 95.253906 70.675781 95.617188 70.382812 95.921875 70.015625 C 96.226562 69.648438 96.449219 69.234375 96.589844 68.777344 C 96.730469 68.324219 96.78125 67.855469 96.738281 67.378906 C 96.691406 66.90625 96.558594 66.457031 96.335938 66.035156 C 96.113281 65.609375 95.816406 65.246094 95.449219 64.941406 Z M 95.449219 64.941406 " fill-opacity="1" fill-rule="nonzero"/></g></g></g></g></g></g></g></g></g></svg>