<svg xmlns="http://www.w3.org/2000/svg" xmlns:xlink="http://www.w3.org/1999/xlink" width="500" zoomAndPan="magnify" viewBox="0 0 375 374.999991" height="500" preserveAspectRatio="xMidYMid meet" version="1.0"><defs><g/><clipPath id="25faf810bd"><rect x="0" width="354" y="0" height="73"/></clipPath><clipPath id="fc999164ca"><rect x="0" width="349" y="0" height="45"/></clipPath><clipPath id="29c3badc51"><path d="M 0.320312 58 L 107 58 L 107 68 L 0.320312 68 Z M 0.320312 58 " clip-rule="nonzero"/></clipPath><clipPath id="a4b23dcbbf"><path d="M 250 58 L 355.761719 58 L 355.761719 68 L 250 68 Z M 250 58 " clip-rule="nonzero"/></clipPath><clipPath id="b88cbfadad"><path d="M 167.863281 62.996094 L 187.136719 62.996094 L 187.136719 82.269531 L 167.863281 82.269531 Z M 167.863281 62.996094 " clip-rule="nonzero"/></clipPath><clipPath id="fadfd54c52"><path d="M 177.5 62.996094 C 172.179688 62.996094 167.863281 67.3125 167.863281 72.632812 C 167.863281 77.953125 172.179688 82.269531 177.5 82.269531 C 182.820312 82.269531 187.136719 77.953125 187.136719 72.632812 C 187.136719 67.3125 182.820312 62.996094 177.5 62.996094 Z M 177.5 62.996094 " clip-rule="nonzero"/></clipPath><clipPath id="c14ec0d297"><path d="M 0.863281 0.996094 L 20.136719 0.996094 L 20.136719 20.269531 L 0.863281 20.269531 Z M 0.863281 0.996094 " clip-rule="nonzero"/></clipPath><clipPath id="a97b48c740"><path d="M 10.5 0.996094 C 5.179688 0.996094 0.863281 5.3125 0.863281 10.632812 C 0.863281 15.953125 5.179688 20.269531 10.5 20.269531 C 15.820312 20.269531 20.136719 15.953125 20.136719 10.632812 C 20.136719 5.3125 15.820312 0.996094 10.5 0.996094 Z M 10.5 0.996094 " clip-rule="nonzero"/></clipPath><clipPath id="1135c3c521"><rect x="0" width="21" y="0" height="21"/></clipPath><clipPath id="5050c89cfe"><path d="M 87 18 L 186 18 L 186 107 L 87 107 Z M 87 18 " clip-rule="nonzero"/></clipPath><clipPath id="0e14fad29d"><path d="M 185.378906 39.765625 L 104.414062 106.984375 L 87.171875 86.214844 L 168.136719 18.996094 Z M 185.378906 39.765625 " clip-rule="nonzero"/></clipPath><clipPath id="0030d8c629"><path d="M 1 36 L 98.601562 36 L 98.601562 89 L 1 89 Z M 1 36 " clip-rule="nonzero"/></clipPath><clipPath id="e723aa549b"><path d="M 98.378906 21.765625 L 17.414062 88.984375 L 0.171875 68.214844 L 81.136719 0.996094 Z M 98.378906 21.765625 " clip-rule="nonzero"/></clipPath><clipPath id="c50c18329c"><path d="M 102.261719 -16.6875 L -0.0742188 68.273438 L 87.382812 173.617188 L 189.71875 88.65625 Z M 102.261719 -16.6875 " clip-rule="nonzero"/></clipPath><clipPath id="a71e8e0040"><rect x="0" width="99" y="0" height="89"/></clipPath><clipPath id="8eaf8dd9dd"><path d="M 171 19 L 270 19 L 270 108 L 171 108 Z M 171 19 " clip-rule="nonzero"/></clipPath><clipPath id="a4a284bec8"><path d="M 252.011719 107.085938 L 171.046875 39.867188 L 188.289062 19.097656 L 269.253906 86.316406 Z M 252.011719 107.085938 " clip-rule="nonzero"/></clipPath><clipPath id="76ac7e6f7a"><path d="M 0 35 L 97 35 L 97 88.121094 L 0 88.121094 Z M 0 35 " clip-rule="nonzero"/></clipPath><clipPath id="d06f3c47cd"><path d="M 81.011719 88.085938 L 0.046875 20.867188 L 17.289062 0.0976562 L 98.253906 67.316406 Z M 81.011719 88.085938 " clip-rule="nonzero"/></clipPath><clipPath id="865f253e09"><path d="M -3.957031 -17.6875 L 98.378906 67.273438 L 10.921875 172.617188 L -91.414062 87.65625 Z M -3.957031 -17.6875 " clip-rule="nonzero"/></clipPath><clipPath id="a9ba9198ee"><rect x="0" width="99" y="0" height="89"/></clipPath><clipPath id="14706422b1"><rect x="0" width="356" y="0" height="193"/></clipPath></defs><g transform="matrix(1, 0, 0, 1, 10, 70)"><g clip-path="url(#14706422b1)"><g transform="matrix(1, 0, 0, 1, 1, 85)"><g clip-path="url(#25faf810bd)"><g fill="#ffffff" fill-opacity="1"><g transform="translate(0.488267, 57.358708)"><g><path d="M 5.234375 0 C 4.878906 0 4.601562 -0.0976562 4.40625 -0.296875 C 4.21875 -0.492188 4.125 -0.75 4.125 -1.0625 L 4.125 -42.421875 C 4.125 -42.765625 4.226562 -43.054688 4.4375 -43.296875 C 4.65625 -43.535156 4.941406 -43.65625 5.296875 -43.65625 L 21.234375 -43.65625 C 27.003906 -43.65625 31.40625 -42.679688 34.4375 -40.734375 C 37.476562 -38.796875 39 -35.941406 39 -32.171875 C 39 -30.015625 38.421875 -28.191406 37.265625 -26.703125 C 36.109375 -25.210938 34.117188 -23.863281 31.296875 -22.65625 C 31.179688 -22.613281 31.125 -22.53125 31.125 -22.40625 C 31.125 -22.289062 31.179688 -22.210938 31.296875 -22.171875 C 34.390625 -21.160156 36.625 -19.835938 38 -18.203125 C 39.375 -16.578125 40.0625 -14.453125 40.0625 -11.828125 C 40.0625 -7.828125 38.550781 -4.851562 35.53125 -2.90625 C 32.507812 -0.96875 28 0 22 0 Z M 21.703125 -6.9375 C 24.253906 -6.9375 26.164062 -7.46875 27.4375 -8.53125 C 28.71875 -9.59375 29.359375 -11.003906 29.359375 -12.765625 C 29.359375 -14.015625 29.039062 -15.0625 28.40625 -15.90625 C 27.78125 -16.75 26.925781 -17.382812 25.84375 -17.8125 C 24.769531 -18.25 23.53125 -18.46875 22.125 -18.46875 L 15.53125 -18.46875 C 14.78125 -18.46875 14.40625 -18.132812 14.40625 -17.46875 L 14.40625 -8.0625 C 14.40625 -7.3125 14.679688 -6.9375 15.234375 -6.9375 Z M 22.125 -25.65625 C 23.019531 -25.65625 23.867188 -25.75 24.671875 -25.9375 C 25.484375 -26.132812 26.191406 -26.46875 26.796875 -26.9375 C 27.398438 -27.414062 27.890625 -27.988281 28.265625 -28.65625 C 28.640625 -29.320312 28.828125 -30.101562 28.828125 -31 C 28.828125 -32.84375 28.148438 -34.253906 26.796875 -35.234375 C 25.441406 -36.210938 23.707031 -36.703125 21.59375 -36.703125 L 15.53125 -36.703125 C 14.78125 -36.703125 14.40625 -36.367188 14.40625 -35.703125 L 14.40625 -26.703125 C 14.40625 -26.003906 14.679688 -25.65625 15.234375 -25.65625 Z M 22.125 -25.65625 "/></g></g></g><g fill="#ffffff" fill-opacity="1"><g transform="translate(43.011086, 57.358708)"><g><path d="M 4.125 -42.53125 C 4.125 -43.28125 4.4375 -43.65625 5.0625 -43.65625 L 34.703125 -43.65625 C 35.296875 -43.65625 35.59375 -43.320312 35.59375 -42.65625 L 35.59375 -37.359375 C 35.59375 -36.535156 35.179688 -36.125 34.359375 -36.125 L 15.53125 -36.125 C 14.78125 -36.125 14.40625 -35.804688 14.40625 -35.171875 L 14.40625 -26.65625 C 14.40625 -25.988281 14.703125 -25.65625 15.296875 -25.65625 L 27.765625 -25.65625 C 28.429688 -25.65625 28.765625 -25.335938 28.765625 -24.703125 L 28.765625 -19.0625 C 28.765625 -18.820312 28.695312 -18.625 28.5625 -18.46875 C 28.425781 -18.3125 28.179688 -18.234375 27.828125 -18.234375 L 15.234375 -18.234375 C 14.679688 -18.234375 14.40625 -18 14.40625 -17.53125 L 14.40625 -8.296875 C 14.40625 -7.785156 14.625 -7.53125 15.0625 -7.53125 L 35.171875 -7.53125 C 35.878906 -7.53125 36.234375 -7.234375 36.234375 -6.640625 L 36.234375 -1.0625 C 36.234375 -0.75 36.144531 -0.492188 35.96875 -0.296875 C 35.789062 -0.0976562 35.488281 0 35.0625 0 L 5.40625 0 C 4.550781 0 4.125 -0.410156 4.125 -1.234375 Z M 4.125 -42.53125 "/></g></g></g><g fill="#ffffff" fill-opacity="1"><g transform="translate(81.475706, 57.358708)"><g><path d="M 2.828125 0 C 2.472656 0 2.21875 -0.15625 2.0625 -0.46875 C 1.90625 -0.78125 1.90625 -1.191406 2.0625 -1.703125 L 16.703125 -42.46875 C 16.859375 -42.90625 17.035156 -43.210938 17.234375 -43.390625 C 17.429688 -43.566406 17.765625 -43.65625 18.234375 -43.65625 L 27.0625 -43.65625 C 27.925781 -43.65625 28.515625 -43.222656 28.828125 -42.359375 L 43.359375 -1.59375 C 43.472656 -1.28125 43.472656 -0.9375 43.359375 -0.5625 C 43.242188 -0.1875 43.007812 0 42.65625 0 L 34 0 C 33.414062 0 33.046875 -0.273438 32.890625 -0.828125 L 29.828125 -9.40625 C 29.785156 -9.601562 29.710938 -9.757812 29.609375 -9.875 C 29.515625 -10 29.332031 -10.0625 29.0625 -10.0625 L 14.703125 -10.0625 C 14.316406 -10.0625 14.0625 -9.863281 13.9375 -9.46875 L 10.828125 -0.765625 C 10.742188 -0.523438 10.613281 -0.335938 10.4375 -0.203125 C 10.257812 -0.0664062 9.976562 0 9.59375 0 Z M 26.65625 -17.890625 C 27.195312 -17.890625 27.367188 -18.222656 27.171875 -18.890625 L 22.234375 -32.65625 C 22.117188 -32.882812 21.992188 -33 21.859375 -33 C 21.722656 -33 21.59375 -32.863281 21.46875 -32.59375 L 16.46875 -18.890625 C 16.195312 -18.222656 16.375 -17.890625 17 -17.890625 Z M 26.65625 -17.890625 "/></g></g></g><g fill="#ffffff" fill-opacity="1"><g transform="translate(124.057008, 57.358708)"><g><path d="M 38.765625 -16.171875 C 38.765625 -12.054688 38.054688 -8.765625 36.640625 -6.296875 C 35.234375 -3.828125 33.21875 -2.0625 30.59375 -1 C 27.96875 0.0625 24.828125 0.59375 21.171875 0.59375 C 16.898438 0.59375 13.476562 -0.0820312 10.90625 -1.4375 C 8.34375 -2.789062 6.484375 -4.789062 5.328125 -7.4375 C 4.171875 -10.082031 3.59375 -13.347656 3.59375 -17.234375 L 3.59375 -42.46875 C 3.59375 -43.257812 3.90625 -43.65625 4.53125 -43.65625 L 13 -43.65625 C 13.59375 -43.65625 13.890625 -43.300781 13.890625 -42.59375 L 13.890625 -15.9375 C 13.890625 -12.726562 14.582031 -10.394531 15.96875 -8.9375 C 17.363281 -7.488281 19.351562 -6.765625 21.9375 -6.765625 C 23.582031 -6.765625 25.03125 -7.066406 26.28125 -7.671875 C 27.539062 -8.285156 28.523438 -9.273438 29.234375 -10.640625 C 29.941406 -12.015625 30.296875 -13.84375 30.296875 -16.125 L 30.296875 -42.53125 C 30.296875 -43.28125 30.585938 -43.65625 31.171875 -43.65625 L 37.890625 -43.65625 C 38.472656 -43.65625 38.765625 -43.300781 38.765625 -42.59375 Z M 38.765625 -16.171875 "/></g></g></g><g fill="#ffffff" fill-opacity="1"><g transform="translate(166.462196, 57.358708)"><g><path d="M 5.359375 0 C 4.535156 0 4.125 -0.453125 4.125 -1.359375 L 4.125 -42.53125 C 4.125 -43.28125 4.457031 -43.65625 5.125 -43.65625 L 17.296875 -43.65625 C 17.722656 -43.65625 18.035156 -43.59375 18.234375 -43.46875 C 18.429688 -43.351562 18.585938 -43.117188 18.703125 -42.765625 L 27.59375 -18.125 C 27.707031 -17.769531 27.84375 -17.597656 28 -17.609375 C 28.15625 -17.628906 28.289062 -17.800781 28.40625 -18.125 L 36.890625 -42.296875 C 37.117188 -43.203125 37.546875 -43.65625 38.171875 -43.65625 L 50.828125 -43.65625 C 51.410156 -43.65625 51.703125 -43.300781 51.703125 -42.59375 L 51.703125 -1.40625 C 51.703125 -0.46875 51.210938 0 50.234375 0 L 42.65625 0 C 42.175781 0 41.847656 -0.0976562 41.671875 -0.296875 C 41.503906 -0.492188 41.421875 -0.785156 41.421875 -1.171875 L 41.421875 -30.46875 C 41.421875 -30.75 41.347656 -30.878906 41.203125 -30.859375 C 41.066406 -30.835938 40.960938 -30.691406 40.890625 -30.421875 L 30.59375 -0.9375 C 30.351562 -0.3125 29.941406 0 29.359375 0 L 24.46875 0 C 23.800781 0 23.367188 -0.3125 23.171875 -0.9375 L 13 -30 C 12.882812 -30.351562 12.753906 -30.507812 12.609375 -30.46875 C 12.472656 -30.4375 12.40625 -30.257812 12.40625 -29.9375 L 12.40625 -1.0625 C 12.40625 -0.664062 12.335938 -0.390625 12.203125 -0.234375 C 12.066406 -0.078125 11.785156 0 11.359375 0 Z M 5.359375 0 "/></g></g></g><g fill="#ffffff" fill-opacity="1"><g transform="translate(222.277073, 57.358708)"><g><path d="M 22.828125 0.59375 C 18.671875 0.59375 15.082031 -0.296875 12.0625 -2.078125 C 9.039062 -3.867188 6.710938 -6.429688 5.078125 -9.765625 C 3.453125 -13.097656 2.640625 -17.0625 2.640625 -21.65625 C 2.640625 -26.320312 3.472656 -30.335938 5.140625 -33.703125 C 6.804688 -37.078125 9.148438 -39.675781 12.171875 -41.5 C 15.191406 -43.320312 18.742188 -44.234375 22.828125 -44.234375 C 26.898438 -44.234375 30.4375 -43.320312 33.4375 -41.5 C 36.4375 -39.675781 38.757812 -37.085938 40.40625 -33.734375 C 42.0625 -30.378906 42.890625 -26.367188 42.890625 -21.703125 C 42.890625 -17.117188 42.070312 -13.160156 40.4375 -9.828125 C 38.8125 -6.492188 36.488281 -3.921875 33.46875 -2.109375 C 30.445312 -0.304688 26.898438 0.59375 22.828125 0.59375 Z M 22.828125 -6.640625 C 26.046875 -6.640625 28.398438 -7.804688 29.890625 -10.140625 C 31.378906 -12.472656 32.125 -16.289062 32.125 -21.59375 C 32.125 -27 31.367188 -30.925781 29.859375 -33.375 C 28.347656 -35.832031 26.003906 -37.0625 22.828125 -37.0625 C 19.609375 -37.0625 17.234375 -35.828125 15.703125 -33.359375 C 14.171875 -30.890625 13.40625 -26.96875 13.40625 -21.59375 C 13.40625 -16.332031 14.160156 -12.523438 15.671875 -10.171875 C 17.179688 -7.816406 19.566406 -6.640625 22.828125 -6.640625 Z M 22.828125 -6.640625 "/></g></g></g><g fill="#ffffff" fill-opacity="1"><g transform="translate(267.799442, 57.358708)"><g><path d="M 39.765625 -43.65625 C 40.273438 -43.65625 40.53125 -43.359375 40.53125 -42.765625 L 40.53125 -0.9375 C 40.53125 -0.664062 40.429688 -0.441406 40.234375 -0.265625 C 40.035156 -0.0859375 39.765625 0 39.421875 0 L 33.46875 0 C 33.15625 0 32.898438 -0.0351562 32.703125 -0.109375 C 32.515625 -0.191406 32.28125 -0.390625 32 -0.703125 L 13.234375 -27.0625 C 13.078125 -27.257812 12.929688 -27.335938 12.796875 -27.296875 C 12.660156 -27.253906 12.59375 -27.132812 12.59375 -26.9375 L 12.59375 -1.0625 C 12.625 -0.351562 12.226562 0 11.40625 0 L 5.296875 0 C 4.515625 0 4.125 -0.332031 4.125 -1 L 4.125 -42.53125 C 4.125 -43.28125 4.472656 -43.65625 5.171875 -43.65625 L 12.296875 -43.65625 C 12.722656 -43.65625 13.046875 -43.59375 13.265625 -43.46875 C 13.484375 -43.351562 13.726562 -43.117188 14 -42.765625 L 31.296875 -18.125 C 31.535156 -17.800781 31.738281 -17.660156 31.90625 -17.703125 C 32.082031 -17.742188 32.171875 -17.941406 32.171875 -18.296875 L 32.171875 -42.59375 C 32.171875 -43.300781 32.523438 -43.65625 33.234375 -43.65625 Z M 39.765625 -43.65625 "/></g></g></g><g fill="#ffffff" fill-opacity="1"><g transform="translate(312.439556, 57.358708)"><g><path d="M 1.9375 -42.59375 C 1.9375 -42.90625 2.035156 -43.160156 2.234375 -43.359375 C 2.429688 -43.554688 2.726562 -43.65625 3.125 -43.65625 L 36.890625 -43.65625 C 37.316406 -43.65625 37.617188 -43.554688 37.796875 -43.359375 C 37.972656 -43.160156 38.0625 -42.90625 38.0625 -42.59375 L 38.0625 -37.125 C 38.0625 -36.53125 37.707031 -36.234375 37 -36.234375 L 26 -36.234375 C 25.570312 -36.234375 25.359375 -36.039062 25.359375 -35.65625 L 25.359375 -1.125 C 25.359375 -0.375 25.023438 0 24.359375 0 L 15.9375 0 C 15.351562 0 15.0625 -0.332031 15.0625 -1 L 15.0625 -35.46875 C 15.0625 -35.976562 14.84375 -36.234375 14.40625 -36.234375 L 3.0625 -36.234375 C 2.3125 -36.234375 1.9375 -36.53125 1.9375 -37.125 Z M 1.9375 -42.59375 "/></g></g></g></g></g><g transform="matrix(1, 0, 0, 1, 2, 144)"><g clip-path="url(#fc999164ca)"><g fill="#ffffff" fill-opacity="1"><g transform="translate(1.202265, 35.120483)"><g><path d="M 2.546875 -26.234375 C 2.546875 -26.691406 2.738281 -26.921875 3.125 -26.921875 L 8.3125 -26.921875 C 8.695312 -26.921875 8.890625 -26.703125 8.890625 -26.265625 L 8.890625 -5.109375 C 8.890625 -4.796875 9.019531 -4.640625 9.28125 -4.640625 L 20.859375 -4.640625 C 21.296875 -4.640625 21.515625 -4.457031 21.515625 -4.09375 L 21.515625 -0.65625 C 21.515625 -0.457031 21.457031 -0.296875 21.34375 -0.171875 C 21.238281 -0.0546875 21.066406 0 20.828125 0 L 3.34375 0 C 3.019531 0 2.804688 -0.0546875 2.703125 -0.171875 C 2.597656 -0.296875 2.546875 -0.492188 2.546875 -0.765625 Z M 2.546875 -26.234375 "/></g></g></g><g fill="#ffffff" fill-opacity="1"><g transform="translate(23.94622, 35.120483)"><g><path d="M 8.3125 -26.921875 C 8.695312 -26.921875 8.890625 -26.703125 8.890625 -26.265625 L 8.890625 -0.875 C 8.890625 -0.5625 8.8125 -0.335938 8.65625 -0.203125 C 8.5 -0.0664062 8.25 0 7.90625 0 L 3.34375 0 C 3.019531 0 2.804688 -0.0546875 2.703125 -0.171875 C 2.597656 -0.296875 2.546875 -0.492188 2.546875 -0.765625 L 2.546875 -26.234375 C 2.546875 -26.691406 2.738281 -26.921875 3.125 -26.921875 Z M 8.3125 -26.921875 "/></g></g></g><g fill="#ffffff" fill-opacity="1"><g transform="translate(35.372607, 35.120483)"><g><path d="M 3.234375 0 C 3.015625 0 2.84375 -0.0546875 2.71875 -0.171875 C 2.601562 -0.296875 2.546875 -0.457031 2.546875 -0.65625 L 2.546875 -26.15625 C 2.546875 -26.375 2.609375 -26.554688 2.734375 -26.703125 C 2.867188 -26.847656 3.046875 -26.921875 3.265625 -26.921875 L 13.09375 -26.921875 C 16.65625 -26.921875 19.367188 -26.320312 21.234375 -25.125 C 23.109375 -23.925781 24.046875 -22.164062 24.046875 -19.84375 C 24.046875 -18.507812 23.6875 -17.382812 22.96875 -16.46875 C 22.257812 -15.550781 21.035156 -14.71875 19.296875 -13.96875 C 19.222656 -13.945312 19.1875 -13.898438 19.1875 -13.828125 C 19.1875 -13.753906 19.222656 -13.703125 19.296875 -13.671875 C 21.210938 -13.046875 22.59375 -12.226562 23.4375 -11.21875 C 24.28125 -10.21875 24.703125 -8.910156 24.703125 -7.296875 C 24.703125 -4.828125 23.769531 -2.992188 21.90625 -1.796875 C 20.050781 -0.597656 17.269531 0 13.5625 0 Z M 13.390625 -4.28125 C 14.960938 -4.28125 16.140625 -4.601562 16.921875 -5.25 C 17.710938 -5.90625 18.109375 -6.78125 18.109375 -7.875 C 18.109375 -8.644531 17.910156 -9.289062 17.515625 -9.8125 C 17.128906 -10.332031 16.601562 -10.722656 15.9375 -10.984375 C 15.28125 -11.253906 14.515625 -11.390625 13.640625 -11.390625 L 9.578125 -11.390625 C 9.117188 -11.390625 8.890625 -11.1875 8.890625 -10.78125 L 8.890625 -4.96875 C 8.890625 -4.507812 9.054688 -4.28125 9.390625 -4.28125 Z M 13.640625 -15.8125 C 14.191406 -15.8125 14.71875 -15.875 15.21875 -16 C 15.71875 -16.125 16.15625 -16.328125 16.53125 -16.609375 C 16.90625 -16.898438 17.207031 -17.25 17.4375 -17.65625 C 17.664062 -18.070312 17.78125 -18.5625 17.78125 -19.125 C 17.78125 -20.257812 17.363281 -21.128906 16.53125 -21.734375 C 15.695312 -22.335938 14.625 -22.640625 13.3125 -22.640625 L 9.578125 -22.640625 C 9.117188 -22.640625 8.890625 -22.429688 8.890625 -22.015625 L 8.890625 -16.46875 C 8.890625 -16.03125 9.054688 -15.8125 9.390625 -15.8125 Z M 13.640625 -15.8125 "/></g></g></g><g fill="#ffffff" fill-opacity="1"><g transform="translate(61.598879, 35.120483)"><g><path d="M 24.375 -0.984375 C 24.476562 -0.710938 24.472656 -0.476562 24.359375 -0.28125 C 24.253906 -0.09375 24.082031 0 23.84375 0 L 18.5 0 C 18.09375 0 17.828125 -0.21875 17.703125 -0.65625 L 13.78125 -10.8125 C 13.632812 -11.144531 13.296875 -11.3125 12.765625 -11.3125 L 9.328125 -11.3125 C 9.160156 -11.3125 9.046875 -11.265625 8.984375 -11.171875 C 8.921875 -11.078125 8.890625 -10.992188 8.890625 -10.921875 L 8.890625 -0.875 C 8.890625 -0.289062 8.5625 0 7.90625 0 L 3.296875 0 C 3.003906 0 2.804688 -0.0546875 2.703125 -0.171875 C 2.597656 -0.296875 2.546875 -0.476562 2.546875 -0.71875 L 2.546875 -26.234375 C 2.546875 -26.691406 2.738281 -26.921875 3.125 -26.921875 L 14.4375 -26.921875 C 17.675781 -26.921875 20.195312 -26.28125 22 -25 C 23.800781 -23.71875 24.703125 -21.890625 24.703125 -19.515625 C 24.703125 -18.285156 24.472656 -17.1875 24.015625 -16.21875 C 23.554688 -15.25 22.953125 -14.441406 22.203125 -13.796875 C 21.453125 -13.160156 20.628906 -12.6875 19.734375 -12.375 C 19.515625 -12.300781 19.46875 -12.117188 19.59375 -11.828125 Z M 13.859375 -15.59375 C 15.234375 -15.59375 16.289062 -15.890625 17.03125 -16.484375 C 17.769531 -17.078125 18.140625 -17.941406 18.140625 -19.078125 C 18.140625 -20.265625 17.765625 -21.160156 17.015625 -21.765625 C 16.265625 -22.367188 15.273438 -22.671875 14.046875 -22.671875 L 9.578125 -22.671875 C 9.117188 -22.671875 8.890625 -22.46875 8.890625 -22.0625 L 8.890625 -16.21875 C 8.890625 -15.800781 9.054688 -15.59375 9.390625 -15.59375 Z M 13.859375 -15.59375 "/></g></g></g><g fill="#ffffff" fill-opacity="1"><g transform="translate(86.809471, 35.120483)"><g><path d="M 1.734375 0 C 1.523438 0 1.367188 -0.09375 1.265625 -0.28125 C 1.171875 -0.476562 1.171875 -0.734375 1.265625 -1.046875 L 10.296875 -26.1875 C 10.398438 -26.457031 10.507812 -26.644531 10.625 -26.75 C 10.75 -26.863281 10.957031 -26.921875 11.25 -26.921875 L 16.6875 -26.921875 C 17.21875 -26.921875 17.582031 -26.65625 17.78125 -26.125 L 26.734375 -0.984375 C 26.804688 -0.785156 26.804688 -0.570312 26.734375 -0.34375 C 26.660156 -0.113281 26.515625 0 26.296875 0 L 20.96875 0 C 20.601562 0 20.375 -0.171875 20.28125 -0.515625 L 18.390625 -5.8125 C 18.367188 -5.925781 18.328125 -6.019531 18.265625 -6.09375 C 18.203125 -6.164062 18.085938 -6.203125 17.921875 -6.203125 L 9.078125 -6.203125 C 8.828125 -6.203125 8.664062 -6.082031 8.59375 -5.84375 L 6.671875 -0.46875 C 6.628906 -0.320312 6.550781 -0.207031 6.4375 -0.125 C 6.332031 -0.0390625 6.15625 0 5.90625 0 Z M 16.4375 -11.03125 C 16.769531 -11.03125 16.878906 -11.234375 16.765625 -11.640625 L 13.71875 -20.140625 C 13.644531 -20.285156 13.5625 -20.359375 13.46875 -20.359375 C 13.382812 -20.359375 13.3125 -20.269531 13.25 -20.09375 L 10.15625 -11.640625 C 9.988281 -11.234375 10.097656 -11.03125 10.484375 -11.03125 Z M 16.4375 -11.03125 "/></g></g></g><g fill="#ffffff" fill-opacity="1"><g transform="translate(114.776912, 35.120483)"><g><path d="M 24.375 -0.984375 C 24.476562 -0.710938 24.472656 -0.476562 24.359375 -0.28125 C 24.253906 -0.09375 24.082031 0 23.84375 0 L 18.5 0 C 18.09375 0 17.828125 -0.21875 17.703125 -0.65625 L 13.78125 -10.8125 C 13.632812 -11.144531 13.296875 -11.3125 12.765625 -11.3125 L 9.328125 -11.3125 C 9.160156 -11.3125 9.046875 -11.265625 8.984375 -11.171875 C 8.921875 -11.078125 8.890625 -10.992188 8.890625 -10.921875 L 8.890625 -0.875 C 8.890625 -0.289062 8.5625 0 7.90625 0 L 3.296875 0 C 3.003906 0 2.804688 -0.0546875 2.703125 -0.171875 C 2.597656 -0.296875 2.546875 -0.476562 2.546875 -0.71875 L 2.546875 -26.234375 C 2.546875 -26.691406 2.738281 -26.921875 3.125 -26.921875 L 14.4375 -26.921875 C 17.675781 -26.921875 20.195312 -26.28125 22 -25 C 23.800781 -23.71875 24.703125 -21.890625 24.703125 -19.515625 C 24.703125 -18.285156 24.472656 -17.1875 24.015625 -16.21875 C 23.554688 -15.25 22.953125 -14.441406 22.203125 -13.796875 C 21.453125 -13.160156 20.628906 -12.6875 19.734375 -12.375 C 19.515625 -12.300781 19.46875 -12.117188 19.59375 -11.828125 Z M 13.859375 -15.59375 C 15.234375 -15.59375 16.289062 -15.890625 17.03125 -16.484375 C 17.769531 -17.078125 18.140625 -17.941406 18.140625 -19.078125 C 18.140625 -20.265625 17.765625 -21.160156 17.015625 -21.765625 C 16.265625 -22.367188 15.273438 -22.671875 14.046875 -22.671875 L 9.578125 -22.671875 C 9.117188 -22.671875 8.890625 -22.46875 8.890625 -22.0625 L 8.890625 -16.21875 C 8.890625 -15.800781 9.054688 -15.59375 9.390625 -15.59375 Z M 13.859375 -15.59375 "/></g></g></g><g fill="#ffffff" fill-opacity="1"><g transform="translate(139.842419, 35.120483)"><g><path d="M 25.03125 -26.921875 C 25.269531 -26.921875 25.425781 -26.851562 25.5 -26.71875 C 25.570312 -26.582031 25.550781 -26.40625 25.4375 -26.1875 L 16.90625 -12.234375 C 16.757812 -12.015625 16.671875 -11.785156 16.640625 -11.546875 C 16.617188 -11.316406 16.609375 -10.898438 16.609375 -10.296875 L 16.609375 -0.875 C 16.609375 -0.289062 16.269531 0 15.59375 0 L 11.0625 0 C 10.75 0 10.535156 -0.0546875 10.421875 -0.171875 C 10.316406 -0.296875 10.265625 -0.492188 10.265625 -0.765625 L 10.265625 -10.515625 C 10.265625 -10.859375 10.226562 -11.113281 10.15625 -11.28125 C 10.082031 -11.445312 9.972656 -11.640625 9.828125 -11.859375 L 1.234375 -26.09375 C 1.085938 -26.332031 1.0625 -26.53125 1.15625 -26.6875 C 1.257812 -26.84375 1.46875 -26.921875 1.78125 -26.921875 L 7.21875 -26.921875 C 7.53125 -26.921875 7.742188 -26.867188 7.859375 -26.765625 C 7.984375 -26.671875 8.117188 -26.503906 8.265625 -26.265625 L 13.640625 -16.828125 C 13.785156 -16.585938 13.90625 -16.460938 14 -16.453125 C 14.101562 -16.441406 14.210938 -16.546875 14.328125 -16.765625 L 19.625 -26.265625 C 19.769531 -26.535156 19.910156 -26.710938 20.046875 -26.796875 C 20.179688 -26.878906 20.394531 -26.921875 20.6875 -26.921875 Z M 25.03125 -26.921875 "/></g></g></g><g fill="#ffffff" fill-opacity="1"><g transform="translate(166.503989, 35.120483)"><g/></g></g><g fill="#ffffff" fill-opacity="1"><g transform="translate(173.976475, 35.120483)"><g><path d="M 3.375 0 C 2.820312 0 2.546875 -0.289062 2.546875 -0.875 L 2.546875 -26.15625 C 2.546875 -26.445312 2.601562 -26.644531 2.71875 -26.75 C 2.84375 -26.863281 3.050781 -26.921875 3.34375 -26.921875 C 3.875 -26.921875 4.492188 -26.921875 5.203125 -26.921875 C 5.921875 -26.921875 6.664062 -26.921875 7.4375 -26.921875 C 8.207031 -26.921875 8.941406 -26.921875 9.640625 -26.921875 C 10.347656 -26.921875 10.941406 -26.910156 11.421875 -26.890625 C 14.691406 -26.816406 17.378906 -26.222656 19.484375 -25.109375 C 21.585938 -23.992188 23.140625 -22.460938 24.140625 -20.515625 C 25.148438 -18.566406 25.65625 -16.25 25.65625 -13.5625 C 25.65625 -10.8125 25.128906 -8.410156 24.078125 -6.359375 C 23.023438 -4.316406 21.425781 -2.742188 19.28125 -1.640625 C 17.144531 -0.546875 14.46875 0 11.25 0 Z M 9.359375 -4.46875 L 10.046875 -4.46875 C 12.035156 -4.46875 13.691406 -4.757812 15.015625 -5.34375 C 16.347656 -5.9375 17.347656 -6.898438 18.015625 -8.234375 C 18.679688 -9.566406 19.015625 -11.332031 19.015625 -13.53125 C 19.015625 -15.65625 18.703125 -17.363281 18.078125 -18.65625 C 17.460938 -19.957031 16.519531 -20.910156 15.25 -21.515625 C 13.976562 -22.117188 12.363281 -22.421875 10.40625 -22.421875 L 9.25 -22.421875 C 9.007812 -22.421875 8.890625 -22.25 8.890625 -21.90625 L 8.890625 -4.96875 C 8.890625 -4.632812 9.046875 -4.46875 9.359375 -4.46875 Z M 9.359375 -4.46875 "/></g></g></g><g fill="#ffffff" fill-opacity="1"><g transform="translate(201.218428, 35.120483)"><g><path d="M 8.3125 -26.921875 C 8.695312 -26.921875 8.890625 -26.703125 8.890625 -26.265625 L 8.890625 -0.875 C 8.890625 -0.5625 8.8125 -0.335938 8.65625 -0.203125 C 8.5 -0.0664062 8.25 0 7.90625 0 L 3.34375 0 C 3.019531 0 2.804688 -0.0546875 2.703125 -0.171875 C 2.597656 -0.296875 2.546875 -0.492188 2.546875 -0.765625 L 2.546875 -26.234375 C 2.546875 -26.691406 2.738281 -26.921875 3.125 -26.921875 Z M 8.3125 -26.921875 "/></g></g></g><g fill="#ffffff" fill-opacity="1"><g transform="translate(212.644815, 35.120483)"><g><path d="M 18 -20.578125 C 17.46875 -21.148438 16.804688 -21.664062 16.015625 -22.125 C 15.234375 -22.59375 14.113281 -22.828125 12.65625 -22.828125 C 11.132812 -22.828125 10 -22.550781 9.25 -22 C 8.5 -21.457031 8.125 -20.765625 8.125 -19.921875 C 8.125 -19.628906 8.195312 -19.3125 8.34375 -18.96875 C 8.488281 -18.632812 8.78125 -18.3125 9.21875 -18 C 9.65625 -17.6875 10.269531 -17.40625 11.0625 -17.15625 L 16.796875 -15.53125 C 19.023438 -14.925781 20.644531 -13.953125 21.65625 -12.609375 C 22.675781 -11.265625 23.1875 -9.710938 23.1875 -7.953125 C 23.1875 -6.253906 22.75 -4.78125 21.875 -3.53125 C 21.007812 -2.289062 19.765625 -1.332031 18.140625 -0.65625 C 16.515625 0.0195312 14.59375 0.359375 12.375 0.359375 C 10.726562 0.359375 9.1875 0.171875 7.75 -0.203125 C 6.3125 -0.578125 5.039062 -1.117188 3.9375 -1.828125 C 2.832031 -2.546875 1.96875 -3.375 1.34375 -4.3125 C 1.21875 -4.5625 1.164062 -4.765625 1.1875 -4.921875 C 1.21875 -5.078125 1.34375 -5.238281 1.5625 -5.40625 L 4.359375 -7.328125 C 4.648438 -7.492188 4.882812 -7.566406 5.0625 -7.546875 C 5.238281 -7.523438 5.398438 -7.425781 5.546875 -7.25 C 6.128906 -6.53125 6.703125 -5.925781 7.265625 -5.4375 C 7.835938 -4.957031 8.5 -4.609375 9.25 -4.390625 C 10 -4.171875 10.894531 -4.0625 11.9375 -4.0625 C 13.507812 -4.0625 14.765625 -4.304688 15.703125 -4.796875 C 16.648438 -5.296875 17.125 -6.066406 17.125 -7.109375 C 17.125 -7.523438 17.023438 -7.90625 16.828125 -8.25 C 16.640625 -8.601562 16.332031 -8.914062 15.90625 -9.1875 C 15.488281 -9.46875 14.890625 -9.734375 14.109375 -9.984375 L 8.640625 -11.53125 C 7.210938 -11.945312 6.015625 -12.53125 5.046875 -13.28125 C 4.078125 -14.03125 3.34375 -14.910156 2.84375 -15.921875 C 2.351562 -16.941406 2.109375 -18.007812 2.109375 -19.125 C 2.109375 -20.664062 2.535156 -22.050781 3.390625 -23.28125 C 4.253906 -24.519531 5.460938 -25.492188 7.015625 -26.203125 C 8.578125 -26.921875 10.398438 -27.28125 12.484375 -27.28125 C 13.859375 -27.28125 15.144531 -27.125 16.34375 -26.8125 C 17.539062 -26.5 18.625 -26.0625 19.59375 -25.5 C 20.5625 -24.945312 21.347656 -24.269531 21.953125 -23.46875 C 22.046875 -23.351562 22.113281 -23.21875 22.15625 -23.0625 C 22.207031 -22.90625 22.140625 -22.738281 21.953125 -22.5625 L 18.90625 -20.3125 C 18.757812 -20.21875 18.625 -20.1875 18.5 -20.21875 C 18.382812 -20.257812 18.21875 -20.378906 18 -20.578125 Z M 18 -20.578125 "/></g></g></g><g fill="#ffffff" fill-opacity="1"><g transform="translate(236.331897, 35.120483)"><g><path d="M 1.203125 -26.265625 C 1.203125 -26.460938 1.257812 -26.617188 1.375 -26.734375 C 1.5 -26.859375 1.679688 -26.921875 1.921875 -26.921875 L 22.75 -26.921875 C 23.007812 -26.921875 23.191406 -26.859375 23.296875 -26.734375 C 23.410156 -26.617188 23.46875 -26.460938 23.46875 -26.265625 L 23.46875 -22.890625 C 23.46875 -22.523438 23.253906 -22.34375 22.828125 -22.34375 L 16.03125 -22.34375 C 15.769531 -22.34375 15.640625 -22.222656 15.640625 -21.984375 L 15.640625 -0.6875 C 15.640625 -0.226562 15.429688 0 15.015625 0 L 9.828125 0 C 9.460938 0 9.28125 -0.203125 9.28125 -0.609375 L 9.28125 -21.875 C 9.28125 -22.1875 9.148438 -22.34375 8.890625 -22.34375 L 1.890625 -22.34375 C 1.429688 -22.34375 1.203125 -22.523438 1.203125 -22.890625 Z M 1.203125 -26.265625 "/></g></g></g><g fill="#ffffff" fill-opacity="1"><g transform="translate(261.034658, 35.120483)"><g><path d="M 24.375 -0.984375 C 24.476562 -0.710938 24.472656 -0.476562 24.359375 -0.28125 C 24.253906 -0.09375 24.082031 0 23.84375 0 L 18.5 0 C 18.09375 0 17.828125 -0.21875 17.703125 -0.65625 L 13.78125 -10.8125 C 13.632812 -11.144531 13.296875 -11.3125 12.765625 -11.3125 L 9.328125 -11.3125 C 9.160156 -11.3125 9.046875 -11.265625 8.984375 -11.171875 C 8.921875 -11.078125 8.890625 -10.992188 8.890625 -10.921875 L 8.890625 -0.875 C 8.890625 -0.289062 8.5625 0 7.90625 0 L 3.296875 0 C 3.003906 0 2.804688 -0.0546875 2.703125 -0.171875 C 2.597656 -0.296875 2.546875 -0.476562 2.546875 -0.71875 L 2.546875 -26.234375 C 2.546875 -26.691406 2.738281 -26.921875 3.125 -26.921875 L 14.4375 -26.921875 C 17.675781 -26.921875 20.195312 -26.28125 22 -25 C 23.800781 -23.71875 24.703125 -21.890625 24.703125 -19.515625 C 24.703125 -18.285156 24.472656 -17.1875 24.015625 -16.21875 C 23.554688 -15.25 22.953125 -14.441406 22.203125 -13.796875 C 21.453125 -13.160156 20.628906 -12.6875 19.734375 -12.375 C 19.515625 -12.300781 19.46875 -12.117188 19.59375 -11.828125 Z M 13.859375 -15.59375 C 15.234375 -15.59375 16.289062 -15.890625 17.03125 -16.484375 C 17.769531 -17.078125 18.140625 -17.941406 18.140625 -19.078125 C 18.140625 -20.265625 17.765625 -21.160156 17.015625 -21.765625 C 16.265625 -22.367188 15.273438 -22.671875 14.046875 -22.671875 L 9.578125 -22.671875 C 9.117188 -22.671875 8.890625 -22.46875 8.890625 -22.0625 L 8.890625 -16.21875 C 8.890625 -15.800781 9.054688 -15.59375 9.390625 -15.59375 Z M 13.859375 -15.59375 "/></g></g></g><g fill="#ffffff" fill-opacity="1"><g transform="translate(287.224664, 35.120483)"><g><path d="M 8.3125 -26.921875 C 8.695312 -26.921875 8.890625 -26.703125 8.890625 -26.265625 L 8.890625 -0.875 C 8.890625 -0.5625 8.8125 -0.335938 8.65625 -0.203125 C 8.5 -0.0664062 8.25 0 7.90625 0 L 3.34375 0 C 3.019531 0 2.804688 -0.0546875 2.703125 -0.171875 C 2.597656 -0.296875 2.546875 -0.492188 2.546875 -0.765625 L 2.546875 -26.234375 C 2.546875 -26.691406 2.738281 -26.921875 3.125 -26.921875 Z M 8.3125 -26.921875 "/></g></g></g><g fill="#ffffff" fill-opacity="1"><g transform="translate(298.651051, 35.120483)"><g><path d="M 13.859375 -27.28125 C 15.265625 -27.28125 16.578125 -27.082031 17.796875 -26.6875 C 19.015625 -26.289062 20.109375 -25.726562 21.078125 -25 C 22.046875 -24.269531 22.835938 -23.421875 23.453125 -22.453125 C 24.066406 -21.484375 24.472656 -20.429688 24.671875 -19.296875 C 24.765625 -18.910156 24.78125 -18.65625 24.71875 -18.53125 C 24.664062 -18.414062 24.53125 -18.347656 24.3125 -18.328125 L 19.40625 -18 C 19.1875 -18 19.046875 -18.039062 18.984375 -18.125 C 18.929688 -18.207031 18.878906 -18.347656 18.828125 -18.546875 C 18.566406 -19.796875 18.046875 -20.828125 17.265625 -21.640625 C 16.492188 -22.453125 15.421875 -22.859375 14.046875 -22.859375 C 12.222656 -22.859375 10.796875 -22.125 9.765625 -20.65625 C 8.742188 -19.195312 8.234375 -16.832031 8.234375 -13.5625 C 8.234375 -10.320312 8.722656 -7.96875 9.703125 -6.5 C 10.679688 -5.039062 12.148438 -4.3125 14.109375 -4.3125 C 15.515625 -4.3125 16.722656 -4.660156 17.734375 -5.359375 C 18.753906 -6.066406 19.59375 -7.269531 20.25 -8.96875 C 20.34375 -9.175781 20.609375 -9.242188 21.046875 -9.171875 L 24.59375 -8.421875 C 24.71875 -8.390625 24.828125 -8.316406 24.921875 -8.203125 C 25.023438 -8.097656 25.050781 -7.867188 25 -7.515625 C 24.875 -7.003906 24.632812 -6.410156 24.28125 -5.734375 C 23.9375 -5.054688 23.472656 -4.359375 22.890625 -3.640625 C 22.304688 -2.929688 21.585938 -2.273438 20.734375 -1.671875 C 19.878906 -1.066406 18.878906 -0.578125 17.734375 -0.203125 C 16.597656 0.171875 15.304688 0.359375 13.859375 0.359375 C 11.367188 0.359375 9.195312 -0.226562 7.34375 -1.40625 C 5.5 -2.59375 4.078125 -4.238281 3.078125 -6.34375 C 2.085938 -8.445312 1.59375 -10.890625 1.59375 -13.671875 C 1.59375 -16.484375 2.085938 -18.898438 3.078125 -20.921875 C 4.078125 -22.941406 5.492188 -24.503906 7.328125 -25.609375 C 9.171875 -26.722656 11.347656 -27.28125 13.859375 -27.28125 Z M 13.859375 -27.28125 "/></g></g></g><g fill="#ffffff" fill-opacity="1"><g transform="translate(324.079301, 35.120483)"><g><path d="M 1.203125 -26.265625 C 1.203125 -26.460938 1.257812 -26.617188 1.375 -26.734375 C 1.5 -26.859375 1.679688 -26.921875 1.921875 -26.921875 L 22.75 -26.921875 C 23.007812 -26.921875 23.191406 -26.859375 23.296875 -26.734375 C 23.410156 -26.617188 23.46875 -26.460938 23.46875 -26.265625 L 23.46875 -22.890625 C 23.46875 -22.523438 23.253906 -22.34375 22.828125 -22.34375 L 16.03125 -22.34375 C 15.769531 -22.34375 15.640625 -22.222656 15.640625 -21.984375 L 15.640625 -0.6875 C 15.640625 -0.226562 15.429688 0 15.015625 0 L 9.828125 0 C 9.460938 0 9.28125 -0.203125 9.28125 -0.609375 L 9.28125 -21.875 C 9.28125 -22.1875 9.148438 -22.34375 8.890625 -22.34375 L 1.890625 -22.34375 C 1.429688 -22.34375 1.203125 -22.523438 1.203125 -22.890625 Z M 1.203125 -26.265625 "/></g></g></g></g></g><g clip-path="url(#29c3badc51)"><path stroke-linecap="butt" transform="matrix(0.391198, 0, 0, 0.391198, 5.216604, 58.439337)" fill="none" stroke-linejoin="miter" d="M -0.00449837 11.498444 L 246.604065 11.498444 " stroke="#ffffff" stroke-width="23" stroke-opacity="1" stroke-miterlimit="4"/></g><g clip-path="url(#a4b23dcbbf)"><path stroke-linecap="butt" transform="matrix(0.391198, 0, 0, 0.391198, 254.683248, 58.498209)" fill="none" stroke-linejoin="miter" d="M 0.000884031 11.497733 L 246.399754 11.497733 " stroke="#ffffff" stroke-width="23" stroke-opacity="1" stroke-miterlimit="4"/></g><path stroke-linecap="butt" transform="matrix(0, 0.391198, -0.391198, 0, 263.641588, 46.070067)" fill="none" stroke-linejoin="miter" d="M 0.000628128 11.495617 L 54.720429 11.495617 " stroke="#ffffff" stroke-width="23" stroke-opacity="1" stroke-miterlimit="4"/><path stroke-linecap="butt" transform="matrix(0, 0.391198, -0.391198, 0, 101.685192, 46.038504)" fill="none" stroke-linejoin="miter" d="M 0.0014267 11.497242 L 54.641345 11.497242 " stroke="#ffffff" stroke-width="23" stroke-opacity="1" stroke-miterlimit="4"/><path stroke-linecap="butt" transform="matrix(0, 0.391198, -0.391198, 0, 351.096534, 58.597351)" fill="none" stroke-linejoin="miter" d="M 0.000780922 11.500271 L 77.916585 11.500271 " stroke="#ffffff" stroke-width="23" stroke-opacity="1" stroke-miterlimit="4"/><path stroke-linecap="butt" transform="matrix(0.391198, 0, 0, 0.391198, 86.967769, 41.571209)" fill="none" stroke-linejoin="miter" d="M 0.00250683 11.500848 L 466.139323 11.500848 " stroke="#ffffff" stroke-width="23" stroke-opacity="1" stroke-miterlimit="4"/><g clip-path="url(#b88cbfadad)"><g clip-path="url(#fadfd54c52)"><g transform="matrix(1, 0, 0, 1, 167, 62)"><g clip-path="url(#1135c3c521)"><g clip-path="url(#c14ec0d297)"><g clip-path="url(#a97b48c740)"><path fill="#ffffff" d="M 0.863281 0.996094 L 20.136719 0.996094 L 20.136719 20.269531 L 0.863281 20.269531 Z M 0.863281 0.996094 " fill-opacity="1" fill-rule="nonzero"/></g></g></g></g></g></g><path stroke-linecap="butt" transform="matrix(0, 0.391198, -0.391198, 0, 14.173043, 58.441315)" fill="none" stroke-linejoin="miter" d="M 0.000233857 11.496141 L 75.399726 11.496141 " stroke="#ffffff" stroke-width="23" stroke-opacity="1" stroke-miterlimit="4"/><g clip-path="url(#5050c89cfe)"><g clip-path="url(#0e14fad29d)"><g transform="matrix(1, 0, 0, 1, 87, 18)"><g clip-path="url(#a71e8e0040)"><g clip-path="url(#0030d8c629)"><g clip-path="url(#e723aa549b)"><g clip-path="url(#c50c18329c)"><path fill="#ffffff" d="M 2.757812 65.921875 C 57.621094 20.371094 140.488281 29.371094 187.492188 85.984375 C 187.796875 86.351562 188.019531 86.765625 188.160156 87.222656 C 188.304688 87.679688 188.351562 88.144531 188.308594 88.621094 C 188.261719 89.097656 188.128906 89.546875 187.90625 89.96875 C 187.683594 90.390625 187.386719 90.757812 187.019531 91.0625 C 186.652344 91.367188 186.238281 91.589844 185.785156 91.730469 C 185.328125 91.875 184.859375 91.921875 184.382812 91.878906 C 183.90625 91.835938 183.457031 91.699219 183.035156 91.476562 C 182.613281 91.253906 182.25 90.960938 181.941406 90.59375 C 137.480469 37.039062 59.167969 28.460938 7.363281 71.46875 C 6.996094 71.777344 6.582031 72 6.125 72.140625 C 5.667969 72.28125 5.203125 72.332031 4.726562 72.285156 C 4.25 72.242188 3.800781 72.109375 3.378906 71.886719 C 2.957031 71.664062 2.589844 71.367188 2.285156 71 C 1.980469 70.632812 1.757812 70.21875 1.613281 69.761719 C 1.472656 69.304688 1.425781 68.839844 1.46875 68.363281 C 1.511719 67.886719 1.648438 67.4375 1.871094 67.011719 C 2.09375 66.589844 2.386719 66.226562 2.757812 65.921875 Z M 2.757812 65.921875 " fill-opacity="1" fill-rule="nonzero"/></g></g></g></g></g></g></g><g clip-path="url(#8eaf8dd9dd)"><g clip-path="url(#a4a284bec8)"><g transform="matrix(1, 0, 0, 1, 171, 19)"><g clip-path="url(#a9ba9198ee)"><g clip-path="url(#76ac7e6f7a)"><g clip-path="url(#d06f3c47cd)"><g clip-path="url(#865f253e09)"><path fill="#ffffff" d="M 95.546875 64.921875 C 40.683594 19.371094 -42.1875 28.371094 -89.1875 84.984375 C -89.492188 85.351562 -89.71875 85.765625 -89.859375 86.222656 C -90 86.679688 -90.046875 87.144531 -90.003906 87.621094 C -89.960938 88.097656 -89.824219 88.546875 -89.601562 88.96875 C -89.378906 89.390625 -89.085938 89.757812 -88.714844 90.0625 C -88.347656 90.367188 -87.9375 90.589844 -87.480469 90.730469 C -87.023438 90.875 -86.554688 90.921875 -86.082031 90.878906 C -85.605469 90.835938 -85.15625 90.699219 -84.730469 90.476562 C -84.308594 90.253906 -83.945312 89.960938 -83.640625 89.59375 C -39.175781 36.039062 39.136719 27.460938 90.941406 70.46875 C 91.308594 70.777344 91.71875 71 92.175781 71.140625 C 92.632812 71.28125 93.101562 71.332031 93.578125 71.285156 C 94.054688 71.242188 94.503906 71.109375 94.925781 70.886719 C 95.347656 70.664062 95.714844 70.367188 96.019531 70 C 96.324219 69.632812 96.546875 69.21875 96.6875 68.761719 C 96.832031 68.304688 96.878906 67.839844 96.835938 67.363281 C 96.789062 66.886719 96.65625 66.4375 96.433594 66.011719 C 96.210938 65.589844 95.914062 65.226562 95.546875 64.921875 Z M 95.546875 64.921875 " fill-opacity="1" fill-rule="nonzero"/></g></g></g></g></g></g></g></g></g></svg>