<svg xmlns="http://www.w3.org/2000/svg" xmlns:xlink="http://www.w3.org/1999/xlink" width="1000" zoomAndPan="magnify" viewBox="0 0 375 374.999991" height="500" preserveAspectRatio="xMidYMid meet" version="1.0"><defs><g/><clipPath id="578221fa4c"><path d="M 326 25 L 338 25 L 338 109 L 326 109 Z M 326 25 " clip-rule="nonzero"/></clipPath><clipPath id="61c021c567"><rect x="0" width="338" y="0" height="138"/></clipPath><clipPath id="a9d8ed30fa"><rect x="0" width="335" y="0" height="85"/></clipPath><clipPath id="ee5377d832"><path d="M 356.527344 95.738281 L 375 95.738281 L 375 132.683594 L 356.527344 132.683594 Z M 356.527344 95.738281 " clip-rule="nonzero"/></clipPath><clipPath id="7547f28669"><path d="M 375 95.738281 C 364.796875 95.738281 356.527344 104.007812 356.527344 114.210938 C 356.527344 124.414062 364.796875 132.683594 375 132.683594 C 385.203125 132.683594 393.472656 124.414062 393.472656 114.210938 C 393.472656 104.007812 385.203125 95.738281 375 95.738281 Z M 375 95.738281 " clip-rule="nonzero"/></clipPath><clipPath id="3d8cb0496e"><path d="M 0.527344 0.738281 L 19 0.738281 L 19 37.683594 L 0.527344 37.683594 Z M 0.527344 0.738281 " clip-rule="nonzero"/></clipPath><clipPath id="fd3bace412"><path d="M 19 0.738281 C 8.796875 0.738281 0.527344 9.007812 0.527344 19.210938 C 0.527344 29.414062 8.796875 37.683594 19 37.683594 C 29.203125 37.683594 37.472656 29.414062 37.472656 19.210938 C 37.472656 9.007812 29.203125 0.738281 19 0.738281 Z M 19 0.738281 " clip-rule="nonzero"/></clipPath><clipPath id="9d826f85a8"><rect x="0" width="19" y="0" height="38"/></clipPath><clipPath id="11f9631b35"><path d="M 201 11 L 375 11 L 375 181 L 201 181 Z M 201 11 " clip-rule="nonzero"/></clipPath><clipPath id="a11f93c2d3"><path d="M 390.109375 51.199219 L 234.882812 180.070312 L 201.824219 140.253906 L 357.050781 11.382812 Z M 390.109375 51.199219 " clip-rule="nonzero"/></clipPath><clipPath id="02fb18fe38"><path d="M 3 69 L 174 69 L 174 169.238281 L 3 169.238281 Z M 3 69 " clip-rule="nonzero"/></clipPath><clipPath id="3af6e80fde"><path d="M 189.109375 40.199219 L 33.882812 169.070312 L 0.824219 129.253906 L 156.050781 0.382812 Z M 189.109375 40.199219 " clip-rule="nonzero"/></clipPath><clipPath id="2b6302aad3"><path d="M 196.546875 -33.527344 L 0.347656 129.359375 L 168.027344 331.328125 L 364.222656 168.441406 Z M 196.546875 -33.527344 " clip-rule="nonzero"/></clipPath><clipPath id="4dbac15bd9"><path d="M 196.546875 -33.527344 L 0.347656 129.359375 L 168.027344 331.328125 L 364.222656 168.441406 Z M 196.546875 -33.527344 " clip-rule="nonzero"/></clipPath><clipPath id="a23153c5e8"><rect x="0" width="174" y="0" height="170"/></clipPath><clipPath id="d34b3898bb"><path d="M 362 11 L 375 11 L 375 181 L 362 181 Z M 362 11 " clip-rule="nonzero"/></clipPath><clipPath id="7b631e5c3c"><path d="M 517.851562 180.265625 L 362.625 51.394531 L 395.683594 11.578125 L 550.910156 140.449219 Z M 517.851562 180.265625 " clip-rule="nonzero"/></clipPath><clipPath id="6486d88310"><path d="M 0.398438 69 L 13 69 L 13 169.480469 L 0.398438 169.480469 Z M 0.398438 69 " clip-rule="nonzero"/></clipPath><clipPath id="211dc1d1c2"><path d="M 155.851562 169.265625 L 0.625 40.394531 L 33.683594 0.578125 L 188.910156 129.449219 Z M 155.851562 169.265625 " clip-rule="nonzero"/></clipPath><clipPath id="bce0b370d1"><path d="M -7.046875 -33.527344 L 189.152344 129.359375 L 21.472656 331.328125 L -174.722656 168.441406 Z M -7.046875 -33.527344 " clip-rule="nonzero"/></clipPath><clipPath id="07472d8173"><path d="M -7.046875 -33.527344 L 189.152344 129.359375 L 21.472656 331.328125 L -174.722656 168.441406 Z M -7.046875 -33.527344 " clip-rule="nonzero"/></clipPath><clipPath id="d1b8769853"><rect x="0" width="13" y="0" height="170"/></clipPath></defs><rect x="-37.5" width="450" fill="#ffffff" y="-37.499999" height="449.999989" fill-opacity="1"/><rect x="-37.5" width="450" fill="#ffffff" y="-37.499999" height="449.999989" fill-opacity="1"/><g transform="matrix(1, 0, 0, 1, 37, 139)"><g clip-path="url(#61c021c567)"><g fill="#000000" fill-opacity="1"><g transform="translate(0.552072, 108.889441)"><g><path d="M 10.03125 0 C 9.351562 0 8.828125 -0.1875 8.453125 -0.5625 C 8.078125 -0.9375 7.890625 -1.425781 7.890625 -2.03125 L 7.890625 -81.296875 C 7.890625 -81.972656 8.097656 -82.535156 8.515625 -82.984375 C 8.929688 -83.441406 9.476562 -83.671875 10.15625 -83.671875 L 40.703125 -83.671875 C 51.753906 -83.671875 60.191406 -81.8125 66.015625 -78.09375 C 71.847656 -74.375 74.765625 -68.90625 74.765625 -61.6875 C 74.765625 -57.550781 73.65625 -54.050781 71.4375 -51.1875 C 69.21875 -48.332031 65.398438 -45.742188 59.984375 -43.421875 C 59.765625 -43.335938 59.65625 -43.179688 59.65625 -42.953125 C 59.65625 -42.734375 59.765625 -42.585938 59.984375 -42.515625 C 65.929688 -40.554688 70.21875 -38.015625 72.84375 -34.890625 C 75.476562 -31.773438 76.796875 -27.703125 76.796875 -22.671875 C 76.796875 -14.992188 73.898438 -9.296875 68.109375 -5.578125 C 62.316406 -1.859375 53.671875 0 42.171875 0 Z M 41.609375 -13.3125 C 46.492188 -13.3125 50.15625 -14.320312 52.59375 -16.34375 C 55.039062 -18.375 56.265625 -21.082031 56.265625 -24.46875 C 56.265625 -26.875 55.660156 -28.882812 54.453125 -30.5 C 53.253906 -32.113281 51.617188 -33.332031 49.546875 -34.15625 C 47.484375 -34.988281 45.101562 -35.40625 42.40625 -35.40625 L 29.765625 -35.40625 C 28.335938 -35.40625 27.625 -34.765625 27.625 -33.484375 L 27.625 -15.453125 C 27.625 -14.023438 28.148438 -13.3125 29.203125 -13.3125 Z M 42.40625 -49.171875 C 44.132812 -49.171875 45.765625 -49.359375 47.296875 -49.734375 C 48.835938 -50.109375 50.191406 -50.742188 51.359375 -51.640625 C 52.523438 -52.546875 53.460938 -53.632812 54.171875 -54.90625 C 54.890625 -56.1875 55.25 -57.691406 55.25 -59.421875 C 55.25 -62.960938 53.953125 -65.671875 51.359375 -67.546875 C 48.765625 -69.421875 45.441406 -70.359375 41.390625 -70.359375 L 29.765625 -70.359375 C 28.335938 -70.359375 27.625 -69.722656 27.625 -68.453125 L 27.625 -51.203125 C 27.625 -49.847656 28.148438 -49.171875 29.203125 -49.171875 Z M 42.40625 -49.171875 "/></g></g></g><g fill="#000000" fill-opacity="1"><g transform="translate(82.076391, 108.889441)"><g><path d="M 7.890625 -81.53125 C 7.890625 -82.957031 8.492188 -83.671875 9.703125 -83.671875 L 66.53125 -83.671875 C 67.65625 -83.671875 68.21875 -83.03125 68.21875 -81.75 L 68.21875 -71.609375 C 68.21875 -70.023438 67.429688 -69.234375 65.859375 -69.234375 L 29.765625 -69.234375 C 28.335938 -69.234375 27.625 -68.632812 27.625 -67.4375 L 27.625 -51.078125 C 27.625 -49.804688 28.1875 -49.171875 29.3125 -49.171875 L 53.21875 -49.171875 C 54.5 -49.171875 55.140625 -48.566406 55.140625 -47.359375 L 55.140625 -36.53125 C 55.140625 -36.082031 55.007812 -35.707031 54.75 -35.40625 C 54.488281 -35.101562 54.019531 -34.953125 53.34375 -34.953125 L 29.203125 -34.953125 C 28.148438 -34.953125 27.625 -34.503906 27.625 -33.609375 L 27.625 -15.90625 C 27.625 -14.925781 28.039062 -14.4375 28.875 -14.4375 L 67.4375 -14.4375 C 68.789062 -14.4375 69.46875 -13.875 69.46875 -12.75 L 69.46875 -2.03125 C 69.46875 -1.425781 69.296875 -0.9375 68.953125 -0.5625 C 68.617188 -0.1875 68.035156 0 67.203125 0 L 10.375 0 C 8.71875 0 7.890625 -0.789062 7.890625 -2.375 Z M 7.890625 -81.53125 "/></g></g></g><g fill="#000000" fill-opacity="1"><g transform="translate(155.820371, 108.889441)"><g><path d="M 5.40625 0 C 4.726562 0 4.238281 -0.296875 3.9375 -0.890625 C 3.644531 -1.492188 3.648438 -2.285156 3.953125 -3.265625 L 32.03125 -81.421875 C 32.320312 -82.242188 32.65625 -82.820312 33.03125 -83.15625 C 33.414062 -83.5 34.054688 -83.671875 34.953125 -83.671875 L 51.875 -83.671875 C 53.53125 -83.671875 54.65625 -82.84375 55.25 -81.1875 L 83.109375 -3.046875 C 83.335938 -2.441406 83.335938 -1.78125 83.109375 -1.0625 C 82.878906 -0.351562 82.425781 0 81.75 0 L 65.171875 0 C 64.046875 0 63.332031 -0.523438 63.03125 -1.578125 L 57.171875 -18.046875 C 57.097656 -18.421875 56.96875 -18.71875 56.78125 -18.9375 C 56.59375 -19.164062 56.234375 -19.28125 55.703125 -19.28125 L 28.1875 -19.28125 C 27.4375 -19.28125 26.945312 -18.90625 26.71875 -18.15625 L 20.75 -1.46875 C 20.59375 -1.019531 20.347656 -0.660156 20.015625 -0.390625 C 19.679688 -0.128906 19.132812 0 18.375 0 Z M 51.078125 -34.28125 C 52.128906 -34.28125 52.46875 -34.921875 52.09375 -36.203125 L 42.625 -62.578125 C 42.394531 -63.035156 42.148438 -63.265625 41.890625 -63.265625 C 41.628906 -63.265625 41.382812 -63 41.15625 -62.46875 L 31.578125 -36.203125 C 31.046875 -34.921875 31.382812 -34.28125 32.59375 -34.28125 Z M 51.078125 -34.28125 "/></g></g></g><g fill="#000000" fill-opacity="1"><g transform="translate(237.456813, 108.889441)"><g><path d="M 74.3125 -31.015625 C 74.3125 -23.117188 72.957031 -16.800781 70.25 -12.0625 C 67.539062 -7.332031 63.664062 -3.953125 58.625 -1.921875 C 53.59375 0.109375 47.582031 1.125 40.59375 1.125 C 32.394531 1.125 25.832031 -0.171875 20.90625 -2.765625 C 15.988281 -5.359375 12.421875 -9.191406 10.203125 -14.265625 C 7.984375 -19.335938 6.875 -25.597656 6.875 -33.046875 L 6.875 -81.421875 C 6.875 -82.921875 7.476562 -83.671875 8.6875 -83.671875 L 24.921875 -83.671875 C 26.046875 -83.671875 26.609375 -82.992188 26.609375 -81.640625 L 26.609375 -30.5625 C 26.609375 -24.394531 27.941406 -19.921875 30.609375 -17.140625 C 33.285156 -14.359375 37.101562 -12.96875 42.0625 -12.96875 C 45.21875 -12.96875 48 -13.550781 50.40625 -14.71875 C 52.8125 -15.882812 54.691406 -17.78125 56.046875 -20.40625 C 57.398438 -23.039062 58.078125 -26.535156 58.078125 -30.890625 L 58.078125 -81.53125 C 58.078125 -82.957031 58.640625 -83.671875 59.765625 -83.671875 L 72.625 -83.671875 C 73.75 -83.671875 74.3125 -82.992188 74.3125 -81.640625 Z M 74.3125 -31.015625 "/></g></g></g><g clip-path="url(#578221fa4c)"><g fill="#000000" fill-opacity="1"><g transform="translate(318.75561, 108.889441)"><g><path d="M 10.265625 0 C 8.679688 0 7.890625 -0.863281 7.890625 -2.59375 L 7.890625 -81.53125 C 7.890625 -82.957031 8.53125 -83.671875 9.8125 -83.671875 L 33.15625 -83.671875 C 33.976562 -83.671875 34.578125 -83.554688 34.953125 -83.328125 C 35.328125 -83.109375 35.628906 -82.660156 35.859375 -81.984375 L 52.890625 -34.734375 C 53.109375 -34.054688 53.367188 -33.734375 53.671875 -33.765625 C 53.972656 -33.804688 54.238281 -34.128906 54.46875 -34.734375 L 70.703125 -81.078125 C 71.148438 -82.804688 71.976562 -83.671875 73.1875 -83.671875 L 97.421875 -83.671875 C 98.554688 -83.671875 99.125 -82.992188 99.125 -81.640625 L 99.125 -2.703125 C 99.125 -0.898438 98.179688 0 96.296875 0 L 81.75 0 C 80.851562 0 80.234375 -0.1875 79.890625 -0.5625 C 79.554688 -0.9375 79.390625 -1.5 79.390625 -2.25 L 79.390625 -58.40625 C 79.390625 -58.9375 79.253906 -59.179688 78.984375 -59.140625 C 78.722656 -59.109375 78.519531 -58.828125 78.375 -58.296875 L 58.640625 -1.796875 C 58.191406 -0.597656 57.398438 0 56.265625 0 L 46.90625 0 C 45.632812 0 44.804688 -0.597656 44.421875 -1.796875 L 24.921875 -57.515625 C 24.691406 -58.191406 24.445312 -58.488281 24.1875 -58.40625 C 23.925781 -58.332031 23.796875 -57.992188 23.796875 -57.390625 L 23.796875 -2.03125 C 23.796875 -1.28125 23.660156 -0.753906 23.390625 -0.453125 C 23.128906 -0.148438 22.585938 0 21.765625 0 Z M 10.265625 0 "/></g></g></g></g></g></g><g transform="matrix(1, 0, 0, 1, 40, 251)"><g clip-path="url(#a9d8ed30fa)"><g fill="#000000" fill-opacity="1"><g transform="translate(0.838136, 67.368619)"><g><path d="M 4.875 -50.28125 C 4.875 -51.164062 5.242188 -51.609375 5.984375 -51.609375 L 15.921875 -51.609375 C 16.660156 -51.609375 17.03125 -51.191406 17.03125 -50.359375 L 17.03125 -9.8125 C 17.03125 -9.207031 17.285156 -8.90625 17.796875 -8.90625 L 39.984375 -8.90625 C 40.816406 -8.90625 41.234375 -8.554688 41.234375 -7.859375 L 41.234375 -1.25 C 41.234375 -0.882812 41.128906 -0.582031 40.921875 -0.34375 C 40.710938 -0.113281 40.378906 0 39.921875 0 L 6.390625 0 C 5.796875 0 5.394531 -0.113281 5.1875 -0.34375 C 4.976562 -0.582031 4.875 -0.953125 4.875 -1.453125 Z M 4.875 -50.28125 "/></g></g></g><g fill="#000000" fill-opacity="1"><g transform="translate(44.44262, 67.368619)"><g><path d="M 15.921875 -51.609375 C 16.660156 -51.609375 17.03125 -51.191406 17.03125 -50.359375 L 17.03125 -1.671875 C 17.03125 -1.066406 16.878906 -0.632812 16.578125 -0.375 C 16.285156 -0.125 15.8125 0 15.15625 0 L 6.390625 0 C 5.796875 0 5.394531 -0.113281 5.1875 -0.34375 C 4.976562 -0.582031 4.875 -0.953125 4.875 -1.453125 L 4.875 -50.28125 C 4.875 -51.164062 5.242188 -51.609375 5.984375 -51.609375 Z M 15.921875 -51.609375 "/></g></g></g><g fill="#000000" fill-opacity="1"><g transform="translate(66.349176, 67.368619)"><g><path d="M 6.1875 0 C 5.769531 0 5.445312 -0.113281 5.21875 -0.34375 C 4.988281 -0.582031 4.875 -0.882812 4.875 -1.25 L 4.875 -50.140625 C 4.875 -50.554688 5 -50.90625 5.25 -51.1875 C 5.507812 -51.46875 5.847656 -51.609375 6.265625 -51.609375 L 25.109375 -51.609375 C 31.921875 -51.609375 37.125 -50.457031 40.71875 -48.15625 C 44.3125 -45.863281 46.109375 -42.492188 46.109375 -38.046875 C 46.109375 -35.492188 45.421875 -33.335938 44.046875 -31.578125 C 42.679688 -29.816406 40.332031 -28.21875 37 -26.78125 C 36.863281 -26.726562 36.796875 -26.628906 36.796875 -26.484375 C 36.796875 -26.347656 36.863281 -26.257812 37 -26.21875 C 40.664062 -25.007812 43.304688 -23.441406 44.921875 -21.515625 C 46.546875 -19.597656 47.359375 -17.085938 47.359375 -13.984375 C 47.359375 -9.253906 45.570312 -5.738281 42 -3.4375 C 38.4375 -1.144531 33.109375 0 26.015625 0 Z M 25.65625 -8.203125 C 28.675781 -8.203125 30.9375 -8.828125 32.4375 -10.078125 C 33.945312 -11.335938 34.703125 -13.007812 34.703125 -15.09375 C 34.703125 -16.570312 34.332031 -17.8125 33.59375 -18.8125 C 32.851562 -19.8125 31.84375 -20.566406 30.5625 -21.078125 C 29.289062 -21.585938 27.820312 -21.84375 26.15625 -21.84375 L 18.359375 -21.84375 C 17.472656 -21.84375 17.03125 -21.445312 17.03125 -20.65625 L 17.03125 -9.53125 C 17.03125 -8.644531 17.359375 -8.203125 18.015625 -8.203125 Z M 26.15625 -30.328125 C 27.21875 -30.328125 28.222656 -30.441406 29.171875 -30.671875 C 30.117188 -30.898438 30.953125 -31.289062 31.671875 -31.84375 C 32.390625 -32.40625 32.96875 -33.078125 33.40625 -33.859375 C 33.851562 -34.648438 34.078125 -35.582031 34.078125 -36.65625 C 34.078125 -38.832031 33.273438 -40.5 31.671875 -41.65625 C 30.078125 -42.8125 28.03125 -43.390625 25.53125 -43.390625 L 18.359375 -43.390625 C 17.472656 -43.390625 17.03125 -43 17.03125 -42.21875 L 17.03125 -31.578125 C 17.03125 -30.742188 17.359375 -30.328125 18.015625 -30.328125 Z M 26.15625 -30.328125 "/></g></g></g><g fill="#000000" fill-opacity="1"><g transform="translate(116.629925, 67.368619)"><g><path d="M 46.734375 -1.875 C 46.921875 -1.363281 46.910156 -0.921875 46.703125 -0.546875 C 46.492188 -0.179688 46.15625 0 45.6875 0 L 35.46875 0 C 34.675781 0 34.164062 -0.414062 33.9375 -1.25 L 26.421875 -20.71875 C 26.148438 -21.375 25.503906 -21.703125 24.484375 -21.703125 L 17.875 -21.703125 C 17.550781 -21.703125 17.328125 -21.609375 17.203125 -21.421875 C 17.085938 -21.234375 17.03125 -21.070312 17.03125 -20.9375 L 17.03125 -1.671875 C 17.03125 -0.554688 16.40625 0 15.15625 0 L 6.328125 0 C 5.773438 0 5.394531 -0.113281 5.1875 -0.34375 C 4.976562 -0.582031 4.875 -0.929688 4.875 -1.390625 L 4.875 -50.28125 C 4.875 -51.164062 5.242188 -51.609375 5.984375 -51.609375 L 27.671875 -51.609375 C 33.890625 -51.609375 38.722656 -50.378906 42.171875 -47.921875 C 45.628906 -45.460938 47.359375 -41.960938 47.359375 -37.421875 C 47.359375 -35.054688 46.914062 -32.945312 46.03125 -31.09375 C 45.15625 -29.238281 44 -27.695312 42.5625 -26.46875 C 41.125 -25.238281 39.546875 -24.320312 37.828125 -23.71875 C 37.410156 -23.570312 37.320312 -23.222656 37.5625 -22.671875 Z M 26.5625 -29.90625 C 29.207031 -29.90625 31.238281 -30.472656 32.65625 -31.609375 C 34.070312 -32.742188 34.78125 -34.398438 34.78125 -36.578125 C 34.78125 -38.847656 34.0625 -40.5625 32.625 -41.71875 C 31.1875 -42.882812 29.285156 -43.46875 26.921875 -43.46875 L 18.359375 -43.46875 C 17.472656 -43.46875 17.03125 -43.070312 17.03125 -42.28125 L 17.03125 -31.09375 C 17.03125 -30.300781 17.359375 -29.90625 18.015625 -29.90625 Z M 26.5625 -29.90625 "/></g></g></g><g fill="#000000" fill-opacity="1"><g transform="translate(164.963423, 67.368619)"><g><path d="M 3.34375 0 C 2.925781 0 2.625 -0.179688 2.4375 -0.546875 C 2.25 -0.921875 2.25 -1.410156 2.4375 -2.015625 L 19.75 -50.21875 C 19.9375 -50.726562 20.144531 -51.085938 20.375 -51.296875 C 20.601562 -51.503906 21 -51.609375 21.5625 -51.609375 L 31.984375 -51.609375 C 33.003906 -51.609375 33.703125 -51.097656 34.078125 -50.078125 L 51.25 -1.875 C 51.394531 -1.507812 51.394531 -1.101562 51.25 -0.65625 C 51.113281 -0.21875 50.835938 0 50.421875 0 L 40.203125 0 C 39.503906 0 39.0625 -0.320312 38.875 -0.96875 L 35.265625 -11.125 C 35.210938 -11.351562 35.128906 -11.535156 35.015625 -11.671875 C 34.898438 -11.816406 34.679688 -11.890625 34.359375 -11.890625 L 17.390625 -11.890625 C 16.921875 -11.890625 16.617188 -11.660156 16.484375 -11.203125 L 12.796875 -0.90625 C 12.703125 -0.625 12.550781 -0.398438 12.34375 -0.234375 C 12.132812 -0.078125 11.800781 0 11.34375 0 Z M 31.5 -21.140625 C 32.15625 -21.140625 32.363281 -21.535156 32.125 -22.328125 L 26.28125 -38.59375 C 26.144531 -38.875 25.992188 -39.015625 25.828125 -39.015625 C 25.671875 -39.015625 25.523438 -38.851562 25.390625 -38.53125 L 19.46875 -22.328125 C 19.144531 -21.535156 19.351562 -21.140625 20.09375 -21.140625 Z M 31.5 -21.140625 "/></g></g></g><g fill="#000000" fill-opacity="1"><g transform="translate(218.582324, 67.368619)"><g><path d="M 46.734375 -1.875 C 46.921875 -1.363281 46.910156 -0.921875 46.703125 -0.546875 C 46.492188 -0.179688 46.15625 0 45.6875 0 L 35.46875 0 C 34.675781 0 34.164062 -0.414062 33.9375 -1.25 L 26.421875 -20.71875 C 26.148438 -21.375 25.503906 -21.703125 24.484375 -21.703125 L 17.875 -21.703125 C 17.550781 -21.703125 17.328125 -21.609375 17.203125 -21.421875 C 17.085938 -21.234375 17.03125 -21.070312 17.03125 -20.9375 L 17.03125 -1.671875 C 17.03125 -0.554688 16.40625 0 15.15625 0 L 6.328125 0 C 5.773438 0 5.394531 -0.113281 5.1875 -0.34375 C 4.976562 -0.582031 4.875 -0.929688 4.875 -1.390625 L 4.875 -50.28125 C 4.875 -51.164062 5.242188 -51.609375 5.984375 -51.609375 L 27.671875 -51.609375 C 33.890625 -51.609375 38.722656 -50.378906 42.171875 -47.921875 C 45.628906 -45.460938 47.359375 -41.960938 47.359375 -37.421875 C 47.359375 -35.054688 46.914062 -32.945312 46.03125 -31.09375 C 45.15625 -29.238281 44 -27.695312 42.5625 -26.46875 C 41.125 -25.238281 39.546875 -24.320312 37.828125 -23.71875 C 37.410156 -23.570312 37.320312 -23.222656 37.5625 -22.671875 Z M 26.5625 -29.90625 C 29.207031 -29.90625 31.238281 -30.472656 32.65625 -31.609375 C 34.070312 -32.742188 34.78125 -34.398438 34.78125 -36.578125 C 34.78125 -38.847656 34.0625 -40.5625 32.625 -41.71875 C 31.1875 -42.882812 29.285156 -43.46875 26.921875 -43.46875 L 18.359375 -43.46875 C 17.472656 -43.46875 17.03125 -43.070312 17.03125 -42.28125 L 17.03125 -31.09375 C 17.03125 -30.300781 17.359375 -29.90625 18.015625 -29.90625 Z M 26.5625 -29.90625 "/></g></g></g><g fill="#000000" fill-opacity="1"><g transform="translate(266.637665, 67.368619)"><g><path d="M 47.984375 -51.609375 C 48.453125 -51.609375 48.753906 -51.476562 48.890625 -51.21875 C 49.023438 -50.96875 48.976562 -50.632812 48.75 -50.21875 L 32.40625 -23.4375 C 32.125 -23.019531 31.960938 -22.585938 31.921875 -22.140625 C 31.878906 -21.703125 31.859375 -20.90625 31.859375 -19.75 L 31.859375 -1.671875 C 31.859375 -0.554688 31.207031 0 29.90625 0 L 21.21875 0 C 20.613281 0 20.207031 -0.113281 20 -0.34375 C 19.789062 -0.582031 19.6875 -0.953125 19.6875 -1.453125 L 19.6875 -20.171875 C 19.6875 -20.816406 19.613281 -21.300781 19.46875 -21.625 C 19.332031 -21.945312 19.125 -22.316406 18.84375 -22.734375 L 2.359375 -50 C 2.085938 -50.46875 2.039062 -50.851562 2.21875 -51.15625 C 2.40625 -51.457031 2.800781 -51.609375 3.40625 -51.609375 L 13.84375 -51.609375 C 14.445312 -51.609375 14.863281 -51.515625 15.09375 -51.328125 C 15.320312 -51.140625 15.578125 -50.816406 15.859375 -50.359375 L 26.15625 -32.265625 C 26.425781 -31.804688 26.65625 -31.5625 26.84375 -31.53125 C 27.03125 -31.507812 27.238281 -31.707031 27.46875 -32.125 L 37.625 -50.359375 C 37.90625 -50.859375 38.171875 -51.191406 38.421875 -51.359375 C 38.679688 -51.523438 39.085938 -51.609375 39.640625 -51.609375 Z M 47.984375 -51.609375 "/></g></g></g><g fill="#000000" fill-opacity="1"><g transform="translate(317.752963, 67.368619)"><g/></g></g></g></g><path stroke-linecap="butt" transform="matrix(0.75, 0, 0, 0.75, 44.700002, 86.999994)" fill="none" stroke-linejoin="miter" d="M -0.00104375 11.500008 L 246.597931 11.500008 " stroke="#000000" stroke-width="23" stroke-opacity="1" stroke-miterlimit="4"/><path stroke-linecap="butt" transform="matrix(0, 0.75, -0.75, 0, 229.648597, 63.225289)" fill="none" stroke-linejoin="miter" d="M 0.00169847 11.500214 L 54.637119 11.500214 " stroke="#000000" stroke-width="23" stroke-opacity="1" stroke-miterlimit="4"/><path stroke-linecap="butt" transform="matrix(0.75, 0, 0, 0.75, 201.432517, 54.660524)" fill="none" stroke-linejoin="miter" d="M 0.00143584 11.49951 L 466.142091 11.49951 " stroke="#000000" stroke-width="23" stroke-opacity="1" stroke-miterlimit="4"/><g clip-path="url(#ee5377d832)"><g clip-path="url(#7547f28669)"><g transform="matrix(1, 0, 0, 1, 356, 95)"><g clip-path="url(#9d826f85a8)"><g clip-path="url(#3d8cb0496e)"><g clip-path="url(#fd3bace412)"><path fill="#000000" d="M 0.527344 0.738281 L 37.472656 0.738281 L 37.472656 37.683594 L 0.527344 37.683594 Z M 0.527344 0.738281 " fill-opacity="1" fill-rule="nonzero"/></g></g></g></g></g></g><path stroke-linecap="butt" transform="matrix(0, 0.75, -0.75, 0, 61.871199, 87.003861)" fill="none" stroke-linejoin="miter" d="M 0.000060751 11.500141 L 75.401107 11.500141 " stroke="#000000" stroke-width="23" stroke-opacity="1" stroke-miterlimit="4"/><g clip-path="url(#11f9631b35)"><g clip-path="url(#a11f93c2d3)"><g transform="matrix(1, 0, 0, 1, 201, 11)"><g clip-path="url(#a23153c5e8)"><g clip-path="url(#02fb18fe38)"><g clip-path="url(#3af6e80fde)"><g clip-path="url(#2b6302aad3)"><g clip-path="url(#4dbac15bd9)"><path fill="#000000" d="M 5.683594 124.933594 C 110.917969 37.5625 269.769531 54.695312 359.800781 163.136719 C 360.089844 163.484375 360.34375 163.859375 360.558594 164.257812 C 360.773438 164.65625 360.949219 165.070312 361.082031 165.503906 C 361.214844 165.9375 361.304688 166.378906 361.351562 166.832031 C 361.398438 167.285156 361.402344 167.734375 361.359375 168.1875 C 361.316406 168.636719 361.230469 169.082031 361.101562 169.515625 C 360.972656 169.953125 360.800781 170.371094 360.589844 170.769531 C 360.375 171.171875 360.128906 171.550781 359.839844 171.902344 C 359.554688 172.253906 359.238281 172.578125 358.886719 172.867188 C 358.539062 173.15625 358.164062 173.410156 357.765625 173.625 C 357.367188 173.84375 356.949219 174.019531 356.515625 174.152344 C 356.082031 174.285156 355.640625 174.378906 355.1875 174.425781 C 354.738281 174.472656 354.285156 174.476562 353.832031 174.433594 C 353.382812 174.394531 352.9375 174.308594 352.503906 174.179688 C 352.066406 174.050781 351.648438 173.878906 351.25 173.667969 C 350.847656 173.457031 350.46875 173.210938 350.117188 172.925781 C 349.765625 172.636719 349.445312 172.320312 349.15625 171.972656 C 263.992188 69.394531 113.871094 53.066406 14.507812 135.5625 C 14.15625 135.851562 13.785156 136.105469 13.382812 136.320312 C 12.984375 136.539062 12.570312 136.714844 12.136719 136.847656 C 11.699219 136.984375 11.257812 137.074219 10.808594 137.121094 C 10.355469 137.167969 9.902344 137.171875 9.453125 137.128906 C 9 137.089844 8.554688 137.003906 8.121094 136.875 C 7.6875 136.746094 7.269531 136.574219 6.867188 136.363281 C 6.464844 136.152344 6.085938 135.902344 5.734375 135.617188 C 5.382812 135.332031 5.0625 135.015625 4.773438 134.664062 C 4.484375 134.316406 4.230469 133.941406 4.015625 133.542969 C 3.796875 133.144531 3.621094 132.730469 3.488281 132.296875 C 3.355469 131.863281 3.265625 131.417969 3.21875 130.96875 C 3.171875 130.515625 3.167969 130.066406 3.210938 129.613281 C 3.253906 129.160156 3.339844 128.71875 3.46875 128.28125 C 3.597656 127.847656 3.769531 127.429688 3.980469 127.027344 C 4.195312 126.625 4.441406 126.25 4.730469 125.894531 C 5.015625 125.542969 5.332031 125.222656 5.683594 124.933594 Z M 5.683594 124.933594 " fill-opacity="1" fill-rule="nonzero"/></g></g></g></g></g></g></g></g><g clip-path="url(#d34b3898bb)"><g clip-path="url(#7b631e5c3c)"><g transform="matrix(1, 0, 0, 1, 362, 11)"><g clip-path="url(#d1b8769853)"><g clip-path="url(#6486d88310)"><g clip-path="url(#211dc1d1c2)"><g clip-path="url(#bce0b370d1)"><g clip-path="url(#07472d8173)"><path fill="#000000" d="M 183.816406 124.933594 C 78.582031 37.5625 -80.269531 54.695312 -170.300781 163.136719 C -170.589844 163.484375 -170.84375 163.859375 -171.058594 164.257812 C -171.273438 164.65625 -171.449219 165.070312 -171.582031 165.503906 C -171.714844 165.9375 -171.804688 166.378906 -171.851562 166.832031 C -171.898438 167.28125 -171.902344 167.734375 -171.859375 168.1875 C -171.816406 168.636719 -171.730469 169.082031 -171.601562 169.515625 C -171.472656 169.953125 -171.300781 170.371094 -171.089844 170.769531 C -170.875 171.171875 -170.628906 171.550781 -170.339844 171.902344 C -170.054688 172.253906 -169.738281 172.574219 -169.386719 172.867188 C -169.039062 173.15625 -168.664062 173.410156 -168.265625 173.625 C -167.867188 173.84375 -167.449219 174.019531 -167.015625 174.152344 C -166.582031 174.285156 -166.140625 174.378906 -165.6875 174.425781 C -165.238281 174.472656 -164.785156 174.476562 -164.332031 174.433594 C -163.882812 174.394531 -163.4375 174.308594 -163.003906 174.179688 C -162.566406 174.050781 -162.148438 173.878906 -161.75 173.667969 C -161.347656 173.457031 -160.96875 173.210938 -160.617188 172.925781 C -160.265625 172.636719 -159.945312 172.320312 -159.65625 171.972656 C -74.492188 69.394531 75.628906 53.066406 174.992188 135.5625 C 175.34375 135.851562 175.714844 136.105469 176.117188 136.320312 C 176.515625 136.539062 176.929688 136.714844 177.363281 136.847656 C 177.800781 136.984375 178.242188 137.074219 178.691406 137.121094 C 179.144531 137.167969 179.597656 137.171875 180.046875 137.128906 C 180.5 137.089844 180.945312 137.003906 181.378906 136.875 C 181.8125 136.746094 182.230469 136.574219 182.632812 136.363281 C 183.035156 136.152344 183.410156 135.902344 183.765625 135.617188 C 184.117188 135.332031 184.4375 135.015625 184.726562 134.664062 C 185.015625 134.316406 185.269531 133.941406 185.484375 133.542969 C 185.703125 133.144531 185.878906 132.730469 186.011719 132.296875 C 186.144531 131.863281 186.234375 131.417969 186.28125 130.96875 C 186.328125 130.515625 186.332031 130.066406 186.289062 129.613281 C 186.246094 129.160156 186.160156 128.71875 186.03125 128.28125 C 185.902344 127.847656 185.730469 127.429688 185.519531 127.027344 C 185.304688 126.625 185.058594 126.25 184.769531 125.894531 C 184.484375 125.542969 184.167969 125.222656 183.816406 124.933594 Z M 183.816406 124.933594 " fill-opacity="1" fill-rule="nonzero"/></g></g></g></g></g></g></g></g></svg>