<svg xmlns="http://www.w3.org/2000/svg" xmlns:xlink="http://www.w3.org/1999/xlink" width="500" zoomAndPan="magnify" viewBox="0 0 375 374.999991" height="500" preserveAspectRatio="xMidYMid meet" version="1.0"><defs><g/><clipPath id="3dadd292e5"><path d="M 38.34375 109.847656 L 336.84375 109.847656 L 336.84375 213.347656 L 38.34375 213.347656 Z M 38.34375 109.847656 " clip-rule="nonzero"/></clipPath><clipPath id="768f84564a"><path d="M 181.890625 94.164062 L 194.574219 94.164062 L 194.574219 106.847656 L 181.890625 106.847656 Z M 181.890625 94.164062 " clip-rule="nonzero"/></clipPath><clipPath id="b010933d1c"><path d="M 188.230469 94.164062 C 184.730469 94.164062 181.890625 97.003906 181.890625 100.503906 C 181.890625 104.007812 184.730469 106.847656 188.230469 106.847656 C 191.734375 106.847656 194.574219 104.007812 194.574219 100.503906 C 194.574219 97.003906 191.734375 94.164062 188.230469 94.164062 Z M 188.230469 94.164062 " clip-rule="nonzero"/></clipPath><clipPath id="1505977400"><path d="M 0.890625 0.164062 L 13.574219 0.164062 L 13.574219 12.847656 L 0.890625 12.847656 Z M 0.890625 0.164062 " clip-rule="nonzero"/></clipPath><clipPath id="5e91f90982"><path d="M 7.230469 0.164062 C 3.730469 0.164062 0.890625 3.003906 0.890625 6.503906 C 0.890625 10.007812 3.730469 12.847656 7.230469 12.847656 C 10.734375 12.847656 13.574219 10.007812 13.574219 6.503906 C 13.574219 3.003906 10.734375 0.164062 7.230469 0.164062 Z M 7.230469 0.164062 " clip-rule="nonzero"/></clipPath><clipPath id="e073b6d812"><rect x="0" width="14" y="0" height="13"/></clipPath><clipPath id="219e3c9162"><path d="M 84.171875 148.511719 L 123.921875 148.511719 L 123.921875 208.511719 L 84.171875 208.511719 Z M 84.171875 148.511719 " clip-rule="nonzero"/></clipPath><clipPath id="56f3f73371"><path d="M 162.238281 130.582031 L 213.988281 130.582031 L 213.988281 208.582031 L 162.238281 208.582031 Z M 162.238281 130.582031 " clip-rule="nonzero"/></clipPath><clipPath id="8d2dec2b76"><path d="M 252.359375 148.511719 L 292.109375 148.511719 L 292.109375 208.511719 L 252.359375 208.511719 Z M 252.359375 148.511719 " clip-rule="nonzero"/></clipPath><clipPath id="8697a0f8de"><rect x="0" width="306" y="0" height="63"/></clipPath><clipPath id="71ff0988d7"><rect x="0" width="302" y="0" height="39"/></clipPath><clipPath id="11fa122fa3"><path d="M 121 60 L 197 60 L 197 128 L 121 128 Z M 121 60 " clip-rule="nonzero"/></clipPath><clipPath id="b1fd29e571"><path d="M 196.988281 76.449219 L 135.242188 127.710938 L 121.828125 111.550781 L 183.574219 60.292969 Z M 196.988281 76.449219 " clip-rule="nonzero"/></clipPath><clipPath id="8a614f8197"><path d="M 2 27 L 76 27 L 76 67.921875 L 2 67.921875 Z M 2 27 " clip-rule="nonzero"/></clipPath><clipPath id="2e2e9db421"><path d="M 75.988281 16.449219 L 14.242188 67.710938 L 0.828125 51.550781 L 62.574219 0.292969 Z M 75.988281 16.449219 " clip-rule="nonzero"/></clipPath><clipPath id="1cfa463558"><path d="M 78.949219 -12.863281 L 1.046875 51.8125 L 67.640625 132.023438 L 145.539062 67.347656 Z M 78.949219 -12.863281 " clip-rule="nonzero"/></clipPath><clipPath id="5fdad3fc4d"><rect x="0" width="76" y="0" height="68"/></clipPath><clipPath id="fca92c74f1"><path d="M 179 60 L 255 60 L 255 128 L 179 128 Z M 179 60 " clip-rule="nonzero"/></clipPath><clipPath id="e70fe54a80"><path d="M 241.285156 127.769531 L 179.542969 76.507812 L 192.957031 60.351562 L 254.699219 111.613281 Z M 241.285156 127.769531 " clip-rule="nonzero"/></clipPath><clipPath id="04395a33cf"><path d="M 0.519531 27 L 75 27 L 75 67.921875 L 0.519531 67.921875 Z M 0.519531 27 " clip-rule="nonzero"/></clipPath><clipPath id="9d88dacbc4"><path d="M 62.285156 67.769531 L 0.542969 16.507812 L 13.957031 0.351562 L 75.699219 51.613281 Z M 62.285156 67.769531 " clip-rule="nonzero"/></clipPath><clipPath id="26ca6b3785"><path d="M -2.492188 -12.863281 L 75.410156 51.8125 L 8.816406 132.023438 L -69.082031 67.347656 Z M -2.492188 -12.863281 " clip-rule="nonzero"/></clipPath><clipPath id="e29da7d8b0"><rect x="0" width="76" y="0" height="68"/></clipPath></defs><g clip-path="url(#3dadd292e5)"><path stroke-linecap="butt" transform="matrix(0.75, 0, 0, 0.75, 38.344056, 109.846178)" fill="none" stroke-linejoin="miter" d="M -0.000407763 0.00197048 L 397.999618 0.00197048 L 397.999618 138.00198 L -0.000407763 138.00198 Z M -0.000407763 0.00197048 " stroke="#15424a" stroke-width="16" stroke-opacity="1" stroke-miterlimit="4"/></g><path stroke-linecap="butt" transform="matrix(0.75, 0, 0, 0.75, 74.411944, 90.414143)" fill="none" stroke-linejoin="miter" d="M -0.00238422 3.999893 L 84.586163 3.999893 " stroke="#15424a" stroke-width="8" stroke-opacity="1" stroke-miterlimit="4"/><path stroke-linecap="butt" transform="matrix(0.75, 0, 0, 0.75, 238.574989, 90.414143)" fill="none" stroke-linejoin="miter" d="M -0.00102678 3.999893 L 84.597937 3.999893 " stroke="#15424a" stroke-width="8" stroke-opacity="1" stroke-miterlimit="4"/><path stroke-linecap="butt" transform="matrix(0, 0.75, -0.75, 0, 244.550408, 82.276204)" fill="none" stroke-linejoin="miter" d="M 0.0015194 3.999502 L 18.798396 3.999502 " stroke="#15424a" stroke-width="8" stroke-opacity="1" stroke-miterlimit="4"/><path stroke-linecap="butt" transform="matrix(0, 0.75, -0.75, 0, 137.912662, 82.253301)" fill="none" stroke-linejoin="miter" d="M 0.000807002 3.998133 L 18.828933 3.998133 " stroke="#15424a" stroke-width="8" stroke-opacity="1" stroke-miterlimit="4"/><path stroke-linecap="butt" transform="matrix(0, 0.75, -0.75, 0, 80.323, 90.451986)" fill="none" stroke-linejoin="miter" d="M 0.00151859 3.998375 L 29.819229 3.998375 " stroke="#15424a" stroke-width="8" stroke-opacity="1" stroke-miterlimit="4"/><path stroke-linecap="butt" transform="matrix(0, 0.75, -0.75, 0, 302.097378, 90.416728)" fill="none" stroke-linejoin="miter" d="M 0.00165478 3.99963 L 26.881865 3.99963 " stroke="#15424a" stroke-width="8" stroke-opacity="1" stroke-miterlimit="4"/><path stroke-linecap="butt" transform="matrix(0.75, 0, 0, 0.75, 128.226558, 79.275076)" fill="none" stroke-linejoin="miter" d="M 0.00000642695 3.997815 L 160.000017 3.997815 " stroke="#15424a" stroke-width="8" stroke-opacity="1" stroke-miterlimit="4"/><g clip-path="url(#768f84564a)"><g clip-path="url(#b010933d1c)"><g transform="matrix(1, 0, 0, 1, 181, 94)"><g clip-path="url(#e073b6d812)"><g clip-path="url(#1505977400)"><g clip-path="url(#5e91f90982)"><path fill="#15424a" d="M 0.890625 0.164062 L 13.574219 0.164062 L 13.574219 12.847656 L 0.890625 12.847656 Z M 0.890625 0.164062 " fill-opacity="1" fill-rule="nonzero"/></g></g></g></g></g></g><g clip-path="url(#219e3c9162)"><path fill="#15424a" d="M 124.085938 168.492188 L 124.085938 208.40625 L 84.171875 208.40625 L 84.171875 168.492188 C 84.171875 157.472656 93.105469 148.535156 104.128906 148.535156 C 115.152344 148.535156 124.085938 157.472656 124.085938 168.492188 Z M 124.085938 168.492188 " fill-opacity="1" fill-rule="nonzero"/></g><g clip-path="url(#56f3f73371)"><path fill="#15424a" d="M 214.109375 156.542969 L 214.109375 208.410156 L 162.238281 208.410156 L 162.238281 156.542969 C 162.238281 142.21875 173.851562 130.605469 188.175781 130.605469 C 202.496094 130.605469 214.109375 142.21875 214.109375 156.542969 Z M 214.109375 156.542969 " fill-opacity="1" fill-rule="nonzero"/></g><g clip-path="url(#8d2dec2b76)"><path fill="#15424a" d="M 292.273438 168.492188 L 292.273438 208.40625 L 252.359375 208.40625 L 252.359375 168.492188 C 252.359375 157.472656 261.292969 148.535156 272.316406 148.535156 C 283.339844 148.535156 292.273438 157.472656 292.273438 168.492188 Z M 292.273438 168.492188 " fill-opacity="1" fill-rule="nonzero"/></g><g transform="matrix(1, 0, 0, 1, 35, 210)"><g clip-path="url(#8697a0f8de)"><g fill="#15424a" fill-opacity="1"><g transform="translate(0.438221, 49.663634)"><g><path d="M 4.515625 0 C 4.210938 0 3.976562 -0.0820312 3.8125 -0.25 C 3.644531 -0.425781 3.5625 -0.648438 3.5625 -0.921875 L 3.5625 -36.640625 C 3.5625 -36.941406 3.648438 -37.191406 3.828125 -37.390625 C 4.015625 -37.597656 4.265625 -37.703125 4.578125 -37.703125 L 18.34375 -37.703125 C 23.320312 -37.703125 27.125 -36.863281 29.75 -35.1875 C 32.375 -33.507812 33.6875 -31.046875 33.6875 -27.796875 C 33.6875 -25.929688 33.1875 -24.351562 32.1875 -23.0625 C 31.1875 -21.78125 29.46875 -20.613281 27.03125 -19.5625 C 26.925781 -19.53125 26.875 -19.460938 26.875 -19.359375 C 26.875 -19.253906 26.925781 -19.1875 27.03125 -19.15625 C 29.707031 -18.269531 31.640625 -17.125 32.828125 -15.71875 C 34.015625 -14.320312 34.609375 -12.488281 34.609375 -10.21875 C 34.609375 -6.757812 33.300781 -4.191406 30.6875 -2.515625 C 28.082031 -0.835938 24.1875 0 19 0 Z M 18.75 -6 C 20.945312 -6 22.597656 -6.453125 23.703125 -7.359375 C 24.804688 -8.273438 25.359375 -9.5 25.359375 -11.03125 C 25.359375 -12.113281 25.085938 -13.019531 24.546875 -13.75 C 24.003906 -14.476562 23.265625 -15.023438 22.328125 -15.390625 C 21.398438 -15.765625 20.328125 -15.953125 19.109375 -15.953125 L 13.421875 -15.953125 C 12.773438 -15.953125 12.453125 -15.664062 12.453125 -15.09375 L 12.453125 -6.96875 C 12.453125 -6.320312 12.6875 -6 13.15625 -6 Z M 19.109375 -22.15625 C 19.890625 -22.15625 20.625 -22.238281 21.3125 -22.40625 C 22.007812 -22.570312 22.617188 -22.859375 23.140625 -23.265625 C 23.671875 -23.671875 24.09375 -24.160156 24.40625 -24.734375 C 24.726562 -25.316406 24.890625 -26 24.890625 -26.78125 C 24.890625 -28.375 24.304688 -29.59375 23.140625 -30.4375 C 21.972656 -31.28125 20.472656 -31.703125 18.640625 -31.703125 L 13.421875 -31.703125 C 12.773438 -31.703125 12.453125 -31.414062 12.453125 -30.84375 L 12.453125 -23.0625 C 12.453125 -22.457031 12.6875 -22.15625 13.15625 -22.15625 Z M 19.109375 -22.15625 "/></g></g></g><g fill="#15424a" fill-opacity="1"><g transform="translate(37.17495, 49.663634)"><g><path d="M 3.5625 -36.734375 C 3.5625 -37.378906 3.832031 -37.703125 4.375 -37.703125 L 29.984375 -37.703125 C 30.484375 -37.703125 30.734375 -37.414062 30.734375 -36.84375 L 30.734375 -32.265625 C 30.734375 -31.554688 30.378906 -31.203125 29.671875 -31.203125 L 13.421875 -31.203125 C 12.773438 -31.203125 12.453125 -30.929688 12.453125 -30.390625 L 12.453125 -23.015625 C 12.453125 -22.441406 12.707031 -22.15625 13.21875 -22.15625 L 23.984375 -22.15625 C 24.554688 -22.15625 24.84375 -21.882812 24.84375 -21.34375 L 24.84375 -16.46875 C 24.84375 -16.257812 24.78125 -16.085938 24.65625 -15.953125 C 24.539062 -15.816406 24.332031 -15.75 24.03125 -15.75 L 13.15625 -15.75 C 12.6875 -15.75 12.453125 -15.546875 12.453125 -15.140625 L 12.453125 -7.171875 C 12.453125 -6.722656 12.640625 -6.5 13.015625 -6.5 L 30.390625 -6.5 C 30.992188 -6.5 31.296875 -6.242188 31.296875 -5.734375 L 31.296875 -0.921875 C 31.296875 -0.648438 31.21875 -0.425781 31.0625 -0.25 C 30.914062 -0.0820312 30.65625 0 30.28125 0 L 4.671875 0 C 3.929688 0 3.5625 -0.351562 3.5625 -1.0625 Z M 3.5625 -36.734375 "/></g></g></g><g fill="#15424a" fill-opacity="1"><g transform="translate(70.405681, 49.663634)"><g><path d="M 2.4375 0 C 2.132812 0 1.914062 -0.132812 1.78125 -0.40625 C 1.644531 -0.675781 1.644531 -1.03125 1.78125 -1.46875 L 14.4375 -36.6875 C 14.570312 -37.0625 14.722656 -37.320312 14.890625 -37.46875 C 15.054688 -37.625 15.34375 -37.703125 15.75 -37.703125 L 23.375 -37.703125 C 24.113281 -37.703125 24.617188 -37.328125 24.890625 -36.578125 L 37.453125 -1.375 C 37.546875 -1.101562 37.539062 -0.804688 37.4375 -0.484375 C 37.34375 -0.160156 37.144531 0 36.84375 0 L 29.375 0 C 28.863281 0 28.539062 -0.238281 28.40625 -0.71875 L 25.765625 -8.125 C 25.734375 -8.300781 25.671875 -8.4375 25.578125 -8.53125 C 25.492188 -8.632812 25.332031 -8.6875 25.09375 -8.6875 L 12.703125 -8.6875 C 12.359375 -8.6875 12.140625 -8.519531 12.046875 -8.1875 L 9.34375 -0.65625 C 9.28125 -0.457031 9.171875 -0.296875 9.015625 -0.171875 C 8.867188 -0.0546875 8.625 0 8.28125 0 Z M 23.015625 -15.453125 C 23.492188 -15.453125 23.644531 -15.738281 23.46875 -16.3125 L 19.203125 -28.203125 C 19.097656 -28.398438 18.988281 -28.5 18.875 -28.5 C 18.757812 -28.5 18.648438 -28.382812 18.546875 -28.15625 L 14.234375 -16.3125 C 13.992188 -15.738281 14.144531 -15.453125 14.6875 -15.453125 Z M 23.015625 -15.453125 "/></g></g></g><g fill="#15424a" fill-opacity="1"><g transform="translate(107.192936, 49.663634)"><g><path d="M 33.484375 -13.96875 C 33.484375 -10.414062 32.875 -7.570312 31.65625 -5.4375 C 30.4375 -3.300781 28.691406 -1.773438 26.421875 -0.859375 C 24.148438 0.0546875 21.441406 0.515625 18.296875 0.515625 C 14.597656 0.515625 11.640625 -0.0664062 9.421875 -1.234375 C 7.203125 -2.410156 5.59375 -4.140625 4.59375 -6.421875 C 3.59375 -8.710938 3.09375 -11.535156 3.09375 -14.890625 L 3.09375 -36.6875 C 3.09375 -37.363281 3.363281 -37.703125 3.90625 -37.703125 L 11.234375 -37.703125 C 11.734375 -37.703125 11.984375 -37.394531 11.984375 -36.78125 L 11.984375 -13.765625 C 11.984375 -10.992188 12.582031 -8.976562 13.78125 -7.71875 C 14.988281 -6.46875 16.710938 -5.84375 18.953125 -5.84375 C 20.378906 -5.84375 21.632812 -6.101562 22.71875 -6.625 C 23.800781 -7.15625 24.644531 -8.007812 25.25 -9.1875 C 25.863281 -10.375 26.171875 -11.953125 26.171875 -13.921875 L 26.171875 -36.734375 C 26.171875 -37.378906 26.425781 -37.703125 26.9375 -37.703125 L 32.71875 -37.703125 C 33.226562 -37.703125 33.484375 -37.394531 33.484375 -36.78125 Z M 33.484375 -13.96875 "/></g></g></g><g fill="#15424a" fill-opacity="1"><g transform="translate(143.82804, 49.663634)"><g><path d="M 4.625 0 C 3.914062 0 3.5625 -0.390625 3.5625 -1.171875 L 3.5625 -36.734375 C 3.5625 -37.378906 3.847656 -37.703125 4.421875 -37.703125 L 14.9375 -37.703125 C 15.3125 -37.703125 15.582031 -37.648438 15.75 -37.546875 C 15.914062 -37.441406 16.050781 -37.238281 16.15625 -36.9375 L 23.828125 -15.65625 C 23.929688 -15.34375 24.050781 -15.195312 24.1875 -15.21875 C 24.320312 -15.238281 24.441406 -15.382812 24.546875 -15.65625 L 31.859375 -36.53125 C 32.066406 -37.3125 32.441406 -37.703125 32.984375 -37.703125 L 43.90625 -37.703125 C 44.414062 -37.703125 44.671875 -37.394531 44.671875 -36.78125 L 44.671875 -1.21875 C 44.671875 -0.40625 44.242188 0 43.390625 0 L 36.84375 0 C 36.4375 0 36.15625 -0.0820312 36 -0.25 C 35.84375 -0.425781 35.765625 -0.679688 35.765625 -1.015625 L 35.765625 -26.328125 C 35.765625 -26.554688 35.707031 -26.660156 35.59375 -26.640625 C 35.476562 -26.628906 35.382812 -26.503906 35.3125 -26.265625 L 26.421875 -0.8125 C 26.222656 -0.269531 25.867188 0 25.359375 0 L 21.140625 0 C 20.566406 0 20.191406 -0.269531 20.015625 -0.8125 L 11.234375 -25.921875 C 11.128906 -26.222656 11.015625 -26.351562 10.890625 -26.3125 C 10.773438 -26.28125 10.71875 -26.128906 10.71875 -25.859375 L 10.71875 -0.921875 C 10.71875 -0.578125 10.65625 -0.335938 10.53125 -0.203125 C 10.414062 -0.0664062 10.175781 0 9.8125 0 Z M 4.625 0 "/></g></g></g><g fill="#15424a" fill-opacity="1"><g transform="translate(192.048174, 49.663634)"><g><path d="M 19.71875 0.515625 C 16.125 0.515625 13.019531 -0.253906 10.40625 -1.796875 C 7.800781 -3.335938 5.796875 -5.546875 4.390625 -8.421875 C 2.984375 -11.304688 2.28125 -14.734375 2.28125 -18.703125 C 2.28125 -22.734375 3 -26.203125 4.4375 -29.109375 C 5.882812 -32.023438 7.910156 -34.269531 10.515625 -35.84375 C 13.128906 -37.425781 16.195312 -38.21875 19.71875 -38.21875 C 23.238281 -38.21875 26.296875 -37.425781 28.890625 -35.84375 C 31.484375 -34.269531 33.488281 -32.035156 34.90625 -29.140625 C 36.332031 -26.242188 37.046875 -22.78125 37.046875 -18.75 C 37.046875 -14.789062 36.34375 -11.367188 34.9375 -8.484375 C 33.53125 -5.609375 31.519531 -3.390625 28.90625 -1.828125 C 26.300781 -0.265625 23.238281 0.515625 19.71875 0.515625 Z M 19.71875 -5.734375 C 22.488281 -5.734375 24.519531 -6.738281 25.8125 -8.75 C 27.101562 -10.769531 27.75 -14.066406 27.75 -18.640625 C 27.75 -23.316406 27.09375 -26.710938 25.78125 -28.828125 C 24.476562 -30.953125 22.457031 -32.015625 19.71875 -32.015625 C 16.9375 -32.015625 14.882812 -30.945312 13.5625 -28.8125 C 12.238281 -26.675781 11.578125 -23.285156 11.578125 -18.640625 C 11.578125 -14.109375 12.226562 -10.820312 13.53125 -8.78125 C 14.84375 -6.75 16.90625 -5.734375 19.71875 -5.734375 Z M 19.71875 -5.734375 "/></g></g></g><g fill="#15424a" fill-opacity="1"><g transform="translate(231.376304, 49.663634)"><g><path d="M 34.34375 -37.703125 C 34.789062 -37.703125 35.015625 -37.445312 35.015625 -36.9375 L 35.015625 -0.8125 C 35.015625 -0.570312 34.925781 -0.375 34.75 -0.21875 C 34.582031 -0.0703125 34.347656 0 34.046875 0 L 28.90625 0 C 28.632812 0 28.414062 -0.03125 28.25 -0.09375 C 28.082031 -0.164062 27.878906 -0.335938 27.640625 -0.609375 L 11.4375 -23.375 C 11.300781 -23.539062 11.171875 -23.609375 11.046875 -23.578125 C 10.929688 -23.546875 10.875 -23.441406 10.875 -23.265625 L 10.875 -0.921875 C 10.90625 -0.304688 10.566406 0 9.859375 0 L 4.578125 0 C 3.898438 0 3.5625 -0.285156 3.5625 -0.859375 L 3.5625 -36.734375 C 3.5625 -37.378906 3.863281 -37.703125 4.46875 -37.703125 L 10.625 -37.703125 C 10.988281 -37.703125 11.265625 -37.648438 11.453125 -37.546875 C 11.640625 -37.441406 11.851562 -37.238281 12.09375 -36.9375 L 27.03125 -15.65625 C 27.238281 -15.382812 27.414062 -15.265625 27.5625 -15.296875 C 27.71875 -15.328125 27.796875 -15.492188 27.796875 -15.796875 L 27.796875 -36.78125 C 27.796875 -37.394531 28.097656 -37.703125 28.703125 -37.703125 Z M 34.34375 -37.703125 "/></g></g></g><g fill="#15424a" fill-opacity="1"><g transform="translate(269.942228, 49.663634)"><g><path d="M 1.671875 -36.78125 C 1.671875 -37.050781 1.753906 -37.269531 1.921875 -37.4375 C 2.097656 -37.613281 2.351562 -37.703125 2.6875 -37.703125 L 31.859375 -37.703125 C 32.234375 -37.703125 32.492188 -37.613281 32.640625 -37.4375 C 32.796875 -37.269531 32.875 -37.050781 32.875 -36.78125 L 32.875 -32.0625 C 32.875 -31.550781 32.570312 -31.296875 31.96875 -31.296875 L 22.453125 -31.296875 C 22.085938 -31.296875 21.90625 -31.128906 21.90625 -30.796875 L 21.90625 -0.96875 C 21.90625 -0.320312 21.613281 0 21.03125 0 L 13.765625 0 C 13.265625 0 13.015625 -0.285156 13.015625 -0.859375 L 13.015625 -30.640625 C 13.015625 -31.078125 12.828125 -31.296875 12.453125 -31.296875 L 2.640625 -31.296875 C 1.992188 -31.296875 1.671875 -31.550781 1.671875 -32.0625 Z M 1.671875 -36.78125 "/></g></g></g></g></g><g transform="matrix(1, 0, 0, 1, 36, 261)"><g clip-path="url(#71ff0988d7)"><g fill="#15424a" fill-opacity="1"><g transform="translate(0.918996, 30.423225)"><g><path d="M 2.1875 -22.65625 C 2.1875 -23.050781 2.359375 -23.25 2.703125 -23.25 L 7.171875 -23.25 C 7.503906 -23.25 7.671875 -23.0625 7.671875 -22.6875 L 7.671875 -4.421875 C 7.671875 -4.148438 7.789062 -4.015625 8.03125 -4.015625 L 18.015625 -4.015625 C 18.398438 -4.015625 18.59375 -3.859375 18.59375 -3.546875 L 18.59375 -0.5625 C 18.59375 -0.394531 18.546875 -0.257812 18.453125 -0.15625 C 18.359375 -0.0507812 18.203125 0 17.984375 0 L 2.890625 0 C 2.609375 0 2.421875 -0.0507812 2.328125 -0.15625 C 2.234375 -0.257812 2.1875 -0.425781 2.1875 -0.65625 Z M 2.1875 -22.65625 "/></g></g></g><g fill="#15424a" fill-opacity="1"><g transform="translate(20.568176, 30.423225)"><g><path d="M 7.171875 -23.25 C 7.503906 -23.25 7.671875 -23.0625 7.671875 -22.6875 L 7.671875 -0.75 C 7.671875 -0.476562 7.601562 -0.285156 7.46875 -0.171875 C 7.332031 -0.0546875 7.117188 0 6.828125 0 L 2.890625 0 C 2.609375 0 2.421875 -0.0507812 2.328125 -0.15625 C 2.234375 -0.257812 2.1875 -0.425781 2.1875 -0.65625 L 2.1875 -22.65625 C 2.1875 -23.050781 2.359375 -23.25 2.703125 -23.25 Z M 7.171875 -23.25 "/></g></g></g><g fill="#15424a" fill-opacity="1"><g transform="translate(30.439773, 30.423225)"><g><path d="M 2.796875 0 C 2.597656 0 2.445312 -0.0507812 2.34375 -0.15625 C 2.238281 -0.257812 2.1875 -0.394531 2.1875 -0.5625 L 2.1875 -22.59375 C 2.1875 -22.78125 2.242188 -22.9375 2.359375 -23.0625 C 2.472656 -23.1875 2.628906 -23.25 2.828125 -23.25 L 11.3125 -23.25 C 14.382812 -23.25 16.726562 -22.734375 18.34375 -21.703125 C 19.96875 -20.671875 20.78125 -19.148438 20.78125 -17.140625 C 20.78125 -15.992188 20.472656 -15.019531 19.859375 -14.21875 C 19.242188 -13.425781 18.179688 -12.707031 16.671875 -12.0625 C 16.609375 -12.039062 16.578125 -12 16.578125 -11.9375 C 16.578125 -11.875 16.609375 -11.832031 16.671875 -11.8125 C 18.328125 -11.269531 19.519531 -10.566406 20.25 -9.703125 C 20.976562 -8.835938 21.34375 -7.703125 21.34375 -6.296875 C 21.34375 -4.171875 20.535156 -2.585938 18.921875 -1.546875 C 17.316406 -0.515625 14.914062 0 11.71875 0 Z M 11.5625 -3.703125 C 12.925781 -3.703125 13.945312 -3.984375 14.625 -4.546875 C 15.300781 -5.109375 15.640625 -5.859375 15.640625 -6.796875 C 15.640625 -7.460938 15.472656 -8.019531 15.140625 -8.46875 C 14.804688 -8.925781 14.347656 -9.269531 13.765625 -9.5 C 13.191406 -9.726562 12.53125 -9.84375 11.78125 -9.84375 L 8.28125 -9.84375 C 7.875 -9.84375 7.671875 -9.664062 7.671875 -9.3125 L 7.671875 -4.296875 C 7.671875 -3.898438 7.820312 -3.703125 8.125 -3.703125 Z M 11.78125 -13.671875 C 12.257812 -13.671875 12.710938 -13.722656 13.140625 -13.828125 C 13.578125 -13.929688 13.957031 -14.109375 14.28125 -14.359375 C 14.601562 -14.609375 14.863281 -14.910156 15.0625 -15.265625 C 15.257812 -15.617188 15.359375 -16.035156 15.359375 -16.515625 C 15.359375 -17.492188 15 -18.242188 14.28125 -18.765625 C 13.5625 -19.296875 12.632812 -19.5625 11.5 -19.5625 L 8.28125 -19.5625 C 7.875 -19.5625 7.671875 -19.382812 7.671875 -19.03125 L 7.671875 -14.234375 C 7.671875 -13.859375 7.820312 -13.671875 8.125 -13.671875 Z M 11.78125 -13.671875 "/></g></g></g><g fill="#15424a" fill-opacity="1"><g transform="translate(53.097431, 30.423225)"><g><path d="M 21.0625 -0.84375 C 21.144531 -0.613281 21.140625 -0.414062 21.046875 -0.25 C 20.953125 -0.0820312 20.800781 0 20.59375 0 L 15.984375 0 C 15.628906 0 15.398438 -0.1875 15.296875 -0.5625 L 11.90625 -9.34375 C 11.78125 -9.632812 11.488281 -9.78125 11.03125 -9.78125 L 8.0625 -9.78125 C 7.90625 -9.78125 7.800781 -9.738281 7.75 -9.65625 C 7.695312 -9.570312 7.671875 -9.5 7.671875 -9.4375 L 7.671875 -0.75 C 7.671875 -0.25 7.390625 0 6.828125 0 L 2.859375 0 C 2.597656 0 2.421875 -0.0507812 2.328125 -0.15625 C 2.234375 -0.257812 2.1875 -0.414062 2.1875 -0.625 L 2.1875 -22.65625 C 2.1875 -23.050781 2.359375 -23.25 2.703125 -23.25 L 12.46875 -23.25 C 15.269531 -23.25 17.445312 -22.695312 19 -21.59375 C 20.5625 -20.488281 21.34375 -18.910156 21.34375 -16.859375 C 21.34375 -15.796875 21.144531 -14.84375 20.75 -14 C 20.351562 -13.164062 19.828125 -12.472656 19.171875 -11.921875 C 18.523438 -11.367188 17.816406 -10.957031 17.046875 -10.6875 C 16.859375 -10.625 16.816406 -10.46875 16.921875 -10.21875 Z M 11.96875 -13.484375 C 13.164062 -13.484375 14.082031 -13.738281 14.71875 -14.25 C 15.351562 -14.757812 15.671875 -15.503906 15.671875 -16.484375 C 15.671875 -17.503906 15.347656 -18.273438 14.703125 -18.796875 C 14.054688 -19.328125 13.195312 -19.59375 12.125 -19.59375 L 8.28125 -19.59375 C 7.875 -19.59375 7.671875 -19.414062 7.671875 -19.0625 L 7.671875 -14.015625 C 7.671875 -13.660156 7.820312 -13.484375 8.125 -13.484375 Z M 11.96875 -13.484375 "/></g></g></g><g fill="#15424a" fill-opacity="1"><g transform="translate(74.877613, 30.423225)"><g><path d="M 1.5 0 C 1.3125 0 1.175781 -0.0820312 1.09375 -0.25 C 1.007812 -0.414062 1.007812 -0.632812 1.09375 -0.90625 L 8.90625 -22.625 C 8.988281 -22.851562 9.082031 -23.015625 9.1875 -23.109375 C 9.289062 -23.203125 9.46875 -23.25 9.71875 -23.25 L 14.421875 -23.25 C 14.878906 -23.25 15.191406 -23.019531 15.359375 -22.5625 L 23.09375 -0.84375 C 23.15625 -0.675781 23.15625 -0.492188 23.09375 -0.296875 C 23.03125 -0.0976562 22.90625 0 22.71875 0 L 18.109375 0 C 17.796875 0 17.597656 -0.144531 17.515625 -0.4375 L 15.890625 -5.015625 C 15.867188 -5.117188 15.832031 -5.203125 15.78125 -5.265625 C 15.726562 -5.328125 15.628906 -5.359375 15.484375 -5.359375 L 7.828125 -5.359375 C 7.617188 -5.359375 7.484375 -5.253906 7.421875 -5.046875 L 5.765625 -0.40625 C 5.722656 -0.28125 5.65625 -0.179688 5.5625 -0.109375 C 5.46875 -0.0351562 5.316406 0 5.109375 0 Z M 14.203125 -9.53125 C 14.492188 -9.53125 14.585938 -9.707031 14.484375 -10.0625 L 11.84375 -17.390625 C 11.78125 -17.515625 11.710938 -17.578125 11.640625 -17.578125 C 11.566406 -17.578125 11.5 -17.503906 11.4375 -17.359375 L 8.78125 -10.0625 C 8.632812 -9.707031 8.726562 -9.53125 9.0625 -9.53125 Z M 14.203125 -9.53125 "/></g></g></g><g fill="#15424a" fill-opacity="1"><g transform="translate(99.039518, 30.423225)"><g><path d="M 21.0625 -0.84375 C 21.144531 -0.613281 21.140625 -0.414062 21.046875 -0.25 C 20.953125 -0.0820312 20.800781 0 20.59375 0 L 15.984375 0 C 15.628906 0 15.398438 -0.1875 15.296875 -0.5625 L 11.90625 -9.34375 C 11.78125 -9.632812 11.488281 -9.78125 11.03125 -9.78125 L 8.0625 -9.78125 C 7.90625 -9.78125 7.800781 -9.738281 7.75 -9.65625 C 7.695312 -9.570312 7.671875 -9.5 7.671875 -9.4375 L 7.671875 -0.75 C 7.671875 -0.25 7.390625 0 6.828125 0 L 2.859375 0 C 2.597656 0 2.421875 -0.0507812 2.328125 -0.15625 C 2.234375 -0.257812 2.1875 -0.414062 2.1875 -0.625 L 2.1875 -22.65625 C 2.1875 -23.050781 2.359375 -23.25 2.703125 -23.25 L 12.46875 -23.25 C 15.269531 -23.25 17.445312 -22.695312 19 -21.59375 C 20.5625 -20.488281 21.34375 -18.910156 21.34375 -16.859375 C 21.34375 -15.796875 21.144531 -14.84375 20.75 -14 C 20.351562 -13.164062 19.828125 -12.472656 19.171875 -11.921875 C 18.523438 -11.367188 17.816406 -10.957031 17.046875 -10.6875 C 16.859375 -10.625 16.816406 -10.46875 16.921875 -10.21875 Z M 11.96875 -13.484375 C 13.164062 -13.484375 14.082031 -13.738281 14.71875 -14.25 C 15.351562 -14.757812 15.671875 -15.503906 15.671875 -16.484375 C 15.671875 -17.503906 15.347656 -18.273438 14.703125 -18.796875 C 14.054688 -19.328125 13.195312 -19.59375 12.125 -19.59375 L 8.28125 -19.59375 C 7.875 -19.59375 7.671875 -19.414062 7.671875 -19.0625 L 7.671875 -14.015625 C 7.671875 -13.660156 7.820312 -13.484375 8.125 -13.484375 Z M 11.96875 -13.484375 "/></g></g></g><g fill="#15424a" fill-opacity="1"><g transform="translate(120.694357, 30.423225)"><g><path d="M 21.625 -23.25 C 21.832031 -23.25 21.96875 -23.191406 22.03125 -23.078125 C 22.09375 -22.960938 22.070312 -22.8125 21.96875 -22.625 L 14.609375 -10.5625 C 14.484375 -10.375 14.410156 -10.179688 14.390625 -9.984375 C 14.367188 -9.785156 14.359375 -9.425781 14.359375 -8.90625 L 14.359375 -0.75 C 14.359375 -0.25 14.066406 0 13.484375 0 L 9.5625 0 C 9.289062 0 9.109375 -0.0507812 9.015625 -0.15625 C 8.921875 -0.257812 8.875 -0.425781 8.875 -0.65625 L 8.875 -9.09375 C 8.875 -9.382812 8.84375 -9.601562 8.78125 -9.75 C 8.71875 -9.894531 8.625 -10.0625 8.5 -10.25 L 1.0625 -22.53125 C 0.9375 -22.738281 0.914062 -22.910156 1 -23.046875 C 1.082031 -23.179688 1.257812 -23.25 1.53125 -23.25 L 6.234375 -23.25 C 6.503906 -23.25 6.691406 -23.207031 6.796875 -23.125 C 6.898438 -23.039062 7.015625 -22.894531 7.140625 -22.6875 L 11.78125 -14.546875 C 11.90625 -14.335938 12.007812 -14.226562 12.09375 -14.21875 C 12.175781 -14.207031 12.269531 -14.296875 12.375 -14.484375 L 16.953125 -22.6875 C 17.078125 -22.914062 17.195312 -23.066406 17.3125 -23.140625 C 17.425781 -23.210938 17.609375 -23.25 17.859375 -23.25 Z M 21.625 -23.25 "/></g></g></g><g fill="#15424a" fill-opacity="1"><g transform="translate(143.728081, 30.423225)"><g/></g></g><g fill="#15424a" fill-opacity="1"><g transform="translate(150.183784, 30.423225)"><g><path d="M 2.921875 0 C 2.429688 0 2.1875 -0.25 2.1875 -0.75 L 2.1875 -22.59375 C 2.1875 -22.84375 2.238281 -23.015625 2.34375 -23.109375 C 2.445312 -23.203125 2.628906 -23.25 2.890625 -23.25 C 3.347656 -23.25 3.882812 -23.25 4.5 -23.25 C 5.113281 -23.25 5.753906 -23.25 6.421875 -23.25 C 7.085938 -23.25 7.722656 -23.25 8.328125 -23.25 C 8.941406 -23.25 9.457031 -23.238281 9.875 -23.21875 C 12.695312 -23.15625 15.015625 -22.644531 16.828125 -21.6875 C 18.648438 -20.726562 19.992188 -19.40625 20.859375 -17.71875 C 21.722656 -16.039062 22.15625 -14.039062 22.15625 -11.71875 C 22.15625 -9.34375 21.703125 -7.269531 20.796875 -5.5 C 19.890625 -3.738281 18.507812 -2.378906 16.65625 -1.421875 C 14.8125 -0.472656 12.5 0 9.71875 0 Z M 8.09375 -3.859375 L 8.6875 -3.859375 C 10.394531 -3.859375 11.820312 -4.113281 12.96875 -4.625 C 14.125 -5.132812 14.988281 -5.960938 15.5625 -7.109375 C 16.132812 -8.265625 16.421875 -9.789062 16.421875 -11.6875 C 16.421875 -13.53125 16.15625 -15.007812 15.625 -16.125 C 15.09375 -17.238281 14.273438 -18.054688 13.171875 -18.578125 C 12.078125 -19.109375 10.6875 -19.375 9 -19.375 L 8 -19.375 C 7.78125 -19.375 7.671875 -19.226562 7.671875 -18.9375 L 7.671875 -4.296875 C 7.671875 -4.003906 7.8125 -3.859375 8.09375 -3.859375 Z M 8.09375 -3.859375 "/></g></g></g><g fill="#15424a" fill-opacity="1"><g transform="translate(173.718919, 30.423225)"><g><path d="M 7.171875 -23.25 C 7.503906 -23.25 7.671875 -23.0625 7.671875 -22.6875 L 7.671875 -0.75 C 7.671875 -0.476562 7.601562 -0.285156 7.46875 -0.171875 C 7.332031 -0.0546875 7.117188 0 6.828125 0 L 2.890625 0 C 2.609375 0 2.421875 -0.0507812 2.328125 -0.15625 C 2.234375 -0.257812 2.1875 -0.425781 2.1875 -0.65625 L 2.1875 -22.65625 C 2.1875 -23.050781 2.359375 -23.25 2.703125 -23.25 Z M 7.171875 -23.25 "/></g></g></g><g fill="#15424a" fill-opacity="1"><g transform="translate(183.590515, 30.423225)"><g><path d="M 15.546875 -17.765625 C 15.085938 -18.273438 14.515625 -18.726562 13.828125 -19.125 C 13.148438 -19.519531 12.1875 -19.71875 10.9375 -19.71875 C 9.625 -19.71875 8.640625 -19.484375 7.984375 -19.015625 C 7.335938 -18.546875 7.015625 -17.941406 7.015625 -17.203125 C 7.015625 -16.953125 7.078125 -16.679688 7.203125 -16.390625 C 7.328125 -16.097656 7.578125 -15.816406 7.953125 -15.546875 C 8.335938 -15.273438 8.875 -15.035156 9.5625 -14.828125 L 14.515625 -13.421875 C 16.429688 -12.890625 17.828125 -12.046875 18.703125 -10.890625 C 19.585938 -9.734375 20.03125 -8.390625 20.03125 -6.859375 C 20.03125 -5.398438 19.648438 -4.128906 18.890625 -3.046875 C 18.140625 -1.972656 17.066406 -1.144531 15.671875 -0.5625 C 14.273438 0.0195312 12.613281 0.3125 10.6875 0.3125 C 9.269531 0.3125 7.9375 0.148438 6.6875 -0.171875 C 5.445312 -0.492188 4.347656 -0.960938 3.390625 -1.578125 C 2.441406 -2.191406 1.695312 -2.910156 1.15625 -3.734375 C 1.050781 -3.941406 1.007812 -4.113281 1.03125 -4.25 C 1.050781 -4.382812 1.15625 -4.523438 1.34375 -4.671875 L 3.765625 -6.328125 C 4.015625 -6.472656 4.21875 -6.535156 4.375 -6.515625 C 4.53125 -6.492188 4.671875 -6.410156 4.796875 -6.265625 C 5.296875 -5.640625 5.789062 -5.117188 6.28125 -4.703125 C 6.769531 -4.285156 7.335938 -3.984375 7.984375 -3.796875 C 8.640625 -3.609375 9.414062 -3.515625 10.3125 -3.515625 C 11.664062 -3.515625 12.75 -3.726562 13.5625 -4.15625 C 14.382812 -4.582031 14.796875 -5.242188 14.796875 -6.140625 C 14.796875 -6.492188 14.710938 -6.820312 14.546875 -7.125 C 14.378906 -7.425781 14.113281 -7.695312 13.75 -7.9375 C 13.382812 -8.1875 12.863281 -8.414062 12.1875 -8.625 L 7.453125 -9.96875 C 6.222656 -10.320312 5.191406 -10.820312 4.359375 -11.46875 C 3.523438 -12.113281 2.890625 -12.875 2.453125 -13.75 C 2.023438 -14.632812 1.8125 -15.554688 1.8125 -16.515625 C 1.8125 -17.859375 2.179688 -19.0625 2.921875 -20.125 C 3.671875 -21.1875 4.71875 -22.023438 6.0625 -22.640625 C 7.414062 -23.265625 8.988281 -23.578125 10.78125 -23.578125 C 11.96875 -23.578125 13.078125 -23.4375 14.109375 -23.15625 C 15.148438 -22.882812 16.085938 -22.507812 16.921875 -22.03125 C 17.753906 -21.550781 18.4375 -20.96875 18.96875 -20.28125 C 19.050781 -20.175781 19.113281 -20.054688 19.15625 -19.921875 C 19.195312 -19.785156 19.132812 -19.644531 18.96875 -19.5 L 16.328125 -17.546875 C 16.203125 -17.460938 16.085938 -17.4375 15.984375 -17.46875 C 15.878906 -17.5 15.734375 -17.597656 15.546875 -17.765625 Z M 15.546875 -17.765625 "/></g></g></g><g fill="#15424a" fill-opacity="1"><g transform="translate(204.054491, 30.423225)"><g><path d="M 1.03125 -22.6875 C 1.03125 -22.851562 1.082031 -22.988281 1.1875 -23.09375 C 1.289062 -23.195312 1.445312 -23.25 1.65625 -23.25 L 19.65625 -23.25 C 19.882812 -23.25 20.046875 -23.195312 20.140625 -23.09375 C 20.234375 -22.988281 20.28125 -22.851562 20.28125 -22.6875 L 20.28125 -19.78125 C 20.28125 -19.46875 20.09375 -19.3125 19.71875 -19.3125 L 13.859375 -19.3125 C 13.628906 -19.3125 13.515625 -19.207031 13.515625 -19 L 13.515625 -0.59375 C 13.515625 -0.195312 13.332031 0 12.96875 0 L 8.5 0 C 8.1875 0 8.03125 -0.175781 8.03125 -0.53125 L 8.03125 -18.90625 C 8.03125 -19.175781 7.910156 -19.3125 7.671875 -19.3125 L 1.625 -19.3125 C 1.226562 -19.3125 1.03125 -19.46875 1.03125 -19.78125 Z M 1.03125 -22.6875 "/></g></g></g><g fill="#15424a" fill-opacity="1"><g transform="translate(225.395943, 30.423225)"><g><path d="M 21.0625 -0.84375 C 21.144531 -0.613281 21.140625 -0.414062 21.046875 -0.25 C 20.953125 -0.0820312 20.800781 0 20.59375 0 L 15.984375 0 C 15.628906 0 15.398438 -0.1875 15.296875 -0.5625 L 11.90625 -9.34375 C 11.78125 -9.632812 11.488281 -9.78125 11.03125 -9.78125 L 8.0625 -9.78125 C 7.90625 -9.78125 7.800781 -9.738281 7.75 -9.65625 C 7.695312 -9.570312 7.671875 -9.5 7.671875 -9.4375 L 7.671875 -0.75 C 7.671875 -0.25 7.390625 0 6.828125 0 L 2.859375 0 C 2.597656 0 2.421875 -0.0507812 2.328125 -0.15625 C 2.234375 -0.257812 2.1875 -0.414062 2.1875 -0.625 L 2.1875 -22.65625 C 2.1875 -23.050781 2.359375 -23.25 2.703125 -23.25 L 12.46875 -23.25 C 15.269531 -23.25 17.445312 -22.695312 19 -21.59375 C 20.5625 -20.488281 21.34375 -18.910156 21.34375 -16.859375 C 21.34375 -15.796875 21.144531 -14.84375 20.75 -14 C 20.351562 -13.164062 19.828125 -12.472656 19.171875 -11.921875 C 18.523438 -11.367188 17.816406 -10.957031 17.046875 -10.6875 C 16.859375 -10.625 16.816406 -10.46875 16.921875 -10.21875 Z M 11.96875 -13.484375 C 13.164062 -13.484375 14.082031 -13.738281 14.71875 -14.25 C 15.351562 -14.757812 15.671875 -15.503906 15.671875 -16.484375 C 15.671875 -17.503906 15.347656 -18.273438 14.703125 -18.796875 C 14.054688 -19.328125 13.195312 -19.59375 12.125 -19.59375 L 8.28125 -19.59375 C 7.875 -19.59375 7.671875 -19.414062 7.671875 -19.0625 L 7.671875 -14.015625 C 7.671875 -13.660156 7.820312 -13.484375 8.125 -13.484375 Z M 11.96875 -13.484375 "/></g></g></g><g fill="#15424a" fill-opacity="1"><g transform="translate(248.022269, 30.423225)"><g><path d="M 7.171875 -23.25 C 7.503906 -23.25 7.671875 -23.0625 7.671875 -22.6875 L 7.671875 -0.75 C 7.671875 -0.476562 7.601562 -0.285156 7.46875 -0.171875 C 7.332031 -0.0546875 7.117188 0 6.828125 0 L 2.890625 0 C 2.609375 0 2.421875 -0.0507812 2.328125 -0.15625 C 2.234375 -0.257812 2.1875 -0.425781 2.1875 -0.65625 L 2.1875 -22.65625 C 2.1875 -23.050781 2.359375 -23.25 2.703125 -23.25 Z M 7.171875 -23.25 "/></g></g></g><g fill="#15424a" fill-opacity="1"><g transform="translate(257.893866, 30.423225)"><g><path d="M 11.96875 -23.578125 C 13.1875 -23.578125 14.320312 -23.398438 15.375 -23.046875 C 16.425781 -22.703125 17.367188 -22.21875 18.203125 -21.59375 C 19.046875 -20.96875 19.734375 -20.234375 20.265625 -19.390625 C 20.796875 -18.554688 21.144531 -17.648438 21.3125 -16.671875 C 21.394531 -16.335938 21.410156 -16.117188 21.359375 -16.015625 C 21.304688 -15.910156 21.1875 -15.847656 21 -15.828125 L 16.765625 -15.546875 C 16.578125 -15.546875 16.457031 -15.582031 16.40625 -15.65625 C 16.351562 -15.726562 16.304688 -15.847656 16.265625 -16.015625 C 16.035156 -17.097656 15.585938 -17.988281 14.921875 -18.6875 C 14.253906 -19.394531 13.320312 -19.75 12.125 -19.75 C 10.5625 -19.75 9.332031 -19.113281 8.4375 -17.84375 C 7.550781 -16.582031 7.109375 -14.539062 7.109375 -11.71875 C 7.109375 -8.914062 7.53125 -6.882812 8.375 -5.625 C 9.226562 -4.363281 10.5 -3.734375 12.1875 -3.734375 C 13.40625 -3.734375 14.453125 -4.035156 15.328125 -4.640625 C 16.203125 -5.242188 16.921875 -6.273438 17.484375 -7.734375 C 17.566406 -7.929688 17.796875 -8 18.171875 -7.9375 L 21.25 -7.265625 C 21.351562 -7.242188 21.445312 -7.1875 21.53125 -7.09375 C 21.613281 -7 21.632812 -6.796875 21.59375 -6.484375 C 21.488281 -6.046875 21.285156 -5.535156 20.984375 -4.953125 C 20.679688 -4.367188 20.28125 -3.765625 19.78125 -3.140625 C 19.28125 -2.523438 18.65625 -1.957031 17.90625 -1.4375 C 17.164062 -0.914062 16.304688 -0.492188 15.328125 -0.171875 C 14.347656 0.148438 13.226562 0.3125 11.96875 0.3125 C 9.820312 0.3125 7.945312 -0.195312 6.34375 -1.21875 C 4.75 -2.25 3.519531 -3.671875 2.65625 -5.484375 C 1.800781 -7.304688 1.375 -9.414062 1.375 -11.8125 C 1.375 -14.238281 1.800781 -16.320312 2.65625 -18.0625 C 3.519531 -19.8125 4.742188 -21.164062 6.328125 -22.125 C 7.921875 -23.09375 9.800781 -23.578125 11.96875 -23.578125 Z M 11.96875 -23.578125 "/></g></g></g><g fill="#15424a" fill-opacity="1"><g transform="translate(279.862089, 30.423225)"><g><path d="M 1.03125 -22.6875 C 1.03125 -22.851562 1.082031 -22.988281 1.1875 -23.09375 C 1.289062 -23.195312 1.445312 -23.25 1.65625 -23.25 L 19.65625 -23.25 C 19.882812 -23.25 20.046875 -23.195312 20.140625 -23.09375 C 20.234375 -22.988281 20.28125 -22.851562 20.28125 -22.6875 L 20.28125 -19.78125 C 20.28125 -19.46875 20.09375 -19.3125 19.71875 -19.3125 L 13.859375 -19.3125 C 13.628906 -19.3125 13.515625 -19.207031 13.515625 -19 L 13.515625 -0.59375 C 13.515625 -0.195312 13.332031 0 12.96875 0 L 8.5 0 C 8.1875 0 8.03125 -0.175781 8.03125 -0.53125 L 8.03125 -18.90625 C 8.03125 -19.175781 7.910156 -19.3125 7.671875 -19.3125 L 1.625 -19.3125 C 1.226562 -19.3125 1.03125 -19.46875 1.03125 -19.78125 Z M 1.03125 -22.6875 "/></g></g></g></g></g><g clip-path="url(#11fa122fa3)"><g clip-path="url(#b1fd29e571)"><g transform="matrix(1, 0, 0, 1, 121, 60)"><g clip-path="url(#5fdad3fc4d)"><g clip-path="url(#8a614f8197)"><g clip-path="url(#2e2e9db421)"><g clip-path="url(#1cfa463558)"><path fill="#15424a" d="M 3.09375 50.113281 C 44.917969 15.390625 108.089844 22.25 143.921875 65.40625 C 144.152344 65.6875 144.324219 66.003906 144.433594 66.351562 C 144.539062 66.699219 144.578125 67.054688 144.542969 67.417969 C 144.507812 67.78125 144.40625 68.121094 144.238281 68.445312 C 144.066406 68.769531 143.84375 69.046875 143.5625 69.277344 C 143.28125 69.511719 142.964844 69.679688 142.617188 69.789062 C 142.269531 69.898438 141.914062 69.933594 141.550781 69.902344 C 141.1875 69.867188 140.847656 69.765625 140.523438 69.59375 C 140.203125 69.425781 139.921875 69.199219 139.691406 68.921875 C 105.796875 28.09375 46.097656 21.558594 6.609375 54.34375 C 6.328125 54.574219 6.011719 54.746094 5.664062 54.855469 C 5.316406 54.960938 4.960938 55 4.597656 54.964844 C 4.234375 54.929688 3.890625 54.828125 3.570312 54.660156 C 3.246094 54.488281 2.96875 54.265625 2.734375 53.984375 C 2.503906 53.703125 2.332031 53.390625 2.226562 53.039062 C 2.117188 52.691406 2.082031 52.335938 2.113281 51.972656 C 2.148438 51.609375 2.25 51.269531 2.417969 50.945312 C 2.589844 50.621094 2.816406 50.34375 3.09375 50.113281 Z M 3.09375 50.113281 " fill-opacity="1" fill-rule="nonzero"/></g></g></g></g></g></g></g><g clip-path="url(#fca92c74f1)"><g clip-path="url(#e70fe54a80)"><g transform="matrix(1, 0, 0, 1, 179, 60)"><g clip-path="url(#e29da7d8b0)"><g clip-path="url(#04395a33cf)"><g clip-path="url(#9d88dacbc4)"><g clip-path="url(#26ca6b3785)"><path fill="#15424a" d="M 73.363281 50.113281 C 31.539062 15.390625 -31.632812 22.25 -67.464844 65.40625 C -67.695312 65.6875 -67.867188 66.003906 -67.976562 66.351562 C -68.082031 66.699219 -68.121094 67.054688 -68.085938 67.417969 C -68.050781 67.78125 -67.949219 68.121094 -67.78125 68.445312 C -67.609375 68.769531 -67.386719 69.046875 -67.105469 69.277344 C -66.824219 69.511719 -66.507812 69.679688 -66.160156 69.789062 C -65.8125 69.898438 -65.457031 69.933594 -65.09375 69.902344 C -64.730469 69.867188 -64.390625 69.765625 -64.066406 69.59375 C -63.746094 69.425781 -63.46875 69.199219 -63.234375 68.921875 C -29.339844 28.09375 30.359375 21.558594 69.847656 54.34375 C 70.128906 54.574219 70.445312 54.746094 70.792969 54.855469 C 71.140625 54.960938 71.496094 55 71.859375 54.964844 C 72.222656 54.929688 72.566406 54.828125 72.886719 54.660156 C 73.210938 54.488281 73.488281 54.265625 73.722656 53.984375 C 73.953125 53.703125 74.125 53.390625 74.230469 53.039062 C 74.339844 52.691406 74.375 52.335938 74.34375 51.972656 C 74.308594 51.609375 74.207031 51.269531 74.039062 50.945312 C 73.867188 50.621094 73.640625 50.34375 73.363281 50.113281 Z M 73.363281 50.113281 " fill-opacity="1" fill-rule="nonzero"/></g></g></g></g></g></g></g></svg>